<svg xmlns="http://www.w3.org/2000/svg" viewBox="0 0 102 102" style="enable-background:new 0 0 102 102"><defs/><circle cx="51" cy="51" r="50" style="fill:#12baa0;stroke-miterlimit:10;stroke:#fff;stroke-width:2"/><path d="m76.7 41.7c-.2-1.8-.3-5 1.4-6 0 0 .1 0 .1-.1 1.4-.4 2.3-1.1 1.6-1.9l-20.4-6.2-33.1 4.6c0 0-3.8.5-3.5 6.4.2 3.2 1.2 4.8 2.1 5.6l-2.7.9c-.8.8.2 1.5 1.6 1.9 0 0 0 .1.1.1 1.7 1.1 1.7 4.2 1.4 6-6.1 1.7-3.9 2.3-3.9 2.3l1.3.3c-.9.8-1.9 2.5-1.7 5.5.3 5.9 3.5 6.3 3.5 6.3l21.6 7 32.7-7.9c0 0 2.2-.6-3.9-2.3-.2-1.8-.3-5 1.4-6 0 0 .1 0 .1-.1 1.4-.4 2.3-1.1 1.6-1.9l-1.4-.4c.9-.6 2.4-2.1 2.6-5.9.2-2.7-.5-4.2-1.3-5.1l2.8-.7c-.1-.1 2.1-.6-4-2.4m-27.3 0l5.5-1.1 18.6-3.8 2.8-.6c-.9 1.6-.8 3.8-.7 5.3 0 .3.1.6.1.8l-3 .8-23.4 5.8.1-7.2m-23.6 5.7l2.8.6 17.8 3.7 1.6.3 4.7 1 .2 7.2-24.1-6-2.4-.6c0-.2.1-.5.1-.8.1-1.6.2-3.8-.7-5.4m-1.1-9.1c0-1.6.2-2.7.8-3.3.4-.4.8-.4 1.1-.4.2 0 .3 0 .3 0l14.3 4.6 7.1 2.3-.3 7.3-20-5.6-1-.3c0 0-.1 0-.1 0-.1 0-2.1-.2-2.2-4.6m21.5 33l-21-5.9c0 0-.1 0-.1 0-.1 0-2.1-.2-2.2-4.6 0-1.6.2-2.7.8-3.3.4-.4.8-.4 1.1-.4.2 0 .3 0 .3 0l21.4 7-.3 7.2m27.5-7.4c0 .3.1.6.1.8l-26.5 6.6.2-7.2 5.7-1.2.8.2 3.1-1 14.4-3 2.8-.6c-.8 1.7-.8 4-.6 5.4m1.5-9.8c0 0-.1 0-.1 0l-2 .6-19 5.3-.2-7.2 6.2-2 15.1-4.9c0 0 .8-.2 1.4.4.6.6.8 1.7.8 3.3-.2 4.4-2.2 4.5-2.2 4.5" style="fill:#fff"/></svg>