<svg xmlns="http://www.w3.org/2000/svg" viewBox="0 0 102 102" style="enable-background:new 0 0 102 102"><defs/><circle cx="51" cy="51" r="50" style="fill:#12baa0;stroke-miterlimit:10;stroke:#fff;stroke-width:2"/><g style="fill:#fff"><path d="m56.9 50.2h18.2v3.5h-18.2z"/><path d="m60.5 43.9h14.6v3.5h-14.6z"/><path d="m27.5 23v5.4l2.4-.7v-2.3h47.6v30.3h-37.9l-.1 2.4h40.4v-35.1z"/><circle cx="31.3" cy="36" r="7"/><path d="m37.3 60.5h.4l.7-12.8 12.2-6.3-1.6-3-11.2 5.7h-3.9l-2.7 3.1-2.6-3.1-5.7 1.1-.4 12.6h2.4l.2 2.7h.3v15.3h-.4l-2.9.6v2.6h2.4l2.8-.4.1.4h3.1v-15.7h1.8v15.7h3.1v-.4l2.8.4h2.4v-2.6l-2.8-.6h-.5z"/><path d="m51.3 50.7l-.9-.4 7.5-16 10-1.6 7.4-4.7.5.8-7.6 4.8-9.6 1.5z"/><circle cx="50.6" cy="50.5" r="2"/><circle cx="58" cy="34.6" r="2"/><circle cx="68.3" cy="32.7" r="2"/><circle cx="74.8" cy="28" r="2"/></g></svg>