<svg xmlns="http://www.w3.org/2000/svg" viewBox="0 0 102 102" style="enable-background:new 0 0 102 102"><defs/><circle cx="51" cy="51" r="50" style="fill:#12baa0;stroke-miterlimit:10;stroke:#fff;stroke-width:2"/><g style="fill:#fff"><path d="m66.1 63c-4.2-2.1-8.5-3.9-12.8-5.6-.3-.1-.7-.4-.8-.7-.4-.8-.6-1.6-.9-2.4-.2-.5-.3-1-.9-1.3-.2-.1-.3-.4-.3-.6 0-1.9-.4-3.9 1-5.6 0-.1.1-.1.1-.2.8-1.7.9-3.6 2-5.1 0 0 0-.1 0-.1.1-1.2.3-2.4.4-3.6 0-.1-.1-.4-.2-.5-.6-.2-.6-.7-.6-1.2 0-2.3 0-2.7 0-5 0-1.4-.4-2.5-1.4-3.5-1.2-1-2.4-2.1-3.6-3.1-.6-.5-.6-.9-.1-1.4.2-.2.5-.4.8-.6-.1-.1-.1-.2-.2-.3-.4 0-.7 0-1.1 0-1.3.2-2.6.4-3.9.7-2.5.6-4.9 1.4-6.9 3-1.4 1.1-2.5 2.5-2.6 4.3-.1 1-.1 2-.1 2.9 0 1.6 0 1.2 0 2.8 0 .3-.2.7-.3.7-.6.2-.7.6-.6 1.2.1.4 0 .8.1 1.1.2 1 .5 2 .7 3 .2.7.6 1.4.7 2.2.2 1.5.8 2.8 1.8 3.9.2.2.3.5.3.7-.1 1.1-.2 2.3-.4 3.4 0 .2-.3.6-.5.6-.8.2-.9.7-1.1 1.3-.2.8-.5 1.6-.8 2.3-.1.2-.3.5-.6.6-1.3.6-2.7 1.1-4.1 1.7-1.4.6-2.9 1.2-4.3 1.9-1.5.7-2.9 1.5-4.3 2.2-.8.4-1.6.9-2.3 1.6l-2 8.5c9.7 0 14.7 7 24.8 7.9l-3.7-5.1 5.7-15.7-1.8-3.8h3.6l-1.8 3.8 5.7 15.7-3.6 5c7.3-1.2 19-7.7 24.7-7.7l-2-8.6c-.3-.3-1-.9-1.8-1.3"/><path d="m73.2 21c-6.7 0-12.2 5.5-12.2 12.2 0 .3 0 .5 0 .8l-5.6 3.6c-.3.2-.5.6-.4 1 .1.4.4.7.7.8l8.5 2.1c2.3 2.5 5.5 3.9 8.9 3.9 6.7 0 12.2-5.5 12.2-12.2s-5.3-12.2-12.1-12.2m0 22.3c-2.9 0-5.7-1.2-7.6-3.4-.1-.2-.3-.3-.5-.3l-6.5-1.6 4.1-2.7c.3-.2.5-.6.4-1 0-.4-.1-.8-.1-1.2 0-5.6 4.6-10.2 10.2-10.2 5.6 0 10.2 4.6 10.2 10.2s-4.5 10.2-10.2 10.2"/><path d="m69.6 32.8h-1.7c-.1 0-.2.1-.2.2v5.6c0 .1.1.2.2.2h1.7c.1 0 .2-.1.2-.2v-5.6c0-.1-.1-.2-.2-.2"/><path d="m73.9 30.5h-1.7c-.1 0-.2.1-.2.2v8c0 .1.1.2.2.2h1.7c.1 0 .2-.1.2-.2v-8c0-.1-.1-.2-.2-.2"/><path d="m78.1 26h-1.7c-.1 0-.2.1-.2.2v12.5c0 .1.1.2.2.2h1.7c.1 0 .2-.1.2-.2v-12.5c0-.1-.1-.2-.2-.2"/></g></svg>