<svg xmlns="http://www.w3.org/2000/svg" viewBox="0 0 102 102" style="enable-background:new 0 0 102 102"><defs/><circle cx="51" cy="51" r="50" style="fill:#12baa0;stroke-miterlimit:10;stroke:#fff;stroke-width:2"/><g style="fill:#fff"><path d="m91 55.2c0 .2-.1.4-.2.5l-15.5 11.8c-.1.1-.2.1-.4.1-.1 0-.3 0-.4-.1-.2-.2-.3-.5-.2-.7l3.1-7.8h-18.1c-.3 0-.6-.3-.6-.6v-6.3c0-.3.3-.6.6-.6h18.1l-3.1-7.8c-.1-.3 0-.6.2-.7.2-.2.5-.2.8 0l15.4 11.8c.2 0 .3.2.3.4"/><path d="m11 46.7c0-.2.1-.4.2-.5l15.4-11.8c.1-.1.2-.1.4-.1.1 0 .3 0 .4.1.2.2.3.5.2.7l-3.1 7.8h18.1c.3 0 .6.3.6.6v6.3c0 .3-.3.6-.6.6h-18l3.1 7.8c.1.3 0 .6-.2.7-.2.2-.5.2-.8 0l-15.4-11.7c-.2-.1-.3-.3-.3-.5"/><path d="m53.5 64.6h1.4c.6 0 1.4-.3 1.4-1.4v-2.7c0-1.1-.8-1.4-1.4-1.4h-1.4v5.5"/><path d="m48 52.3v2.7c0 1.1.8 1.4 1.4 1.4h1.4v-5.4h-1.4c-.6 0-1.4.2-1.4 1.3"/><path d="m58.2 42c.5-.5.8-1.2.8-1.9 0-1.5-1.2-2.7-2.6-2.7.9-.6 7.9-5.4 5.4-7.5-2.7-2.3-8.8 2.2-10.9 2-2.1.2-8.2-4.3-10.9-2-2.6 2.2 4.5 6.9 5.4 7.5-1.5.1-2.6 1.2-2.6 2.7 0 .7.3 1.4.8 1.9-6.9 3.7-11.7 12.5-11.7 22.7 0 1.9.2 3.7.5 5.5 12.2 3.6 25.1 3.6 37.3 0 .3-1.8.5-3.6.5-5.5-.3-10.3-5.1-19-12-22.7m-3.3 14.4c1.6 0 4.1 1.1 4.1 4.1v2.7c0 3-2.5 4.1-4.1 4.1h-1.4v1.4c0 .8-.6 1.4-1.4 1.4-.8 0-1.4-.6-1.4-1.4v-1.4h-4.1c-.8 0-1.4-.6-1.4-1.4s.6-1.4 1.4-1.4h4.1v-5.5h-1.4c-1.6 0-4.1-1.1-4.1-4.1v-2.7c0-3 2.5-4.1 4.1-4.1h1.4v-1.4c0-.8.6-1.4 1.4-1.4.8 0 1.4.6 1.4 1.4v1.4h4.1c.8 0 1.4.6 1.4 1.4s-.6 1.5-1.4 1.5h-4.1v5.5h1.4z"/></g></svg>