<svg xmlns="http://www.w3.org/2000/svg" viewBox="0 0 935 70" style="enable-background:new 0 0 935 70"><defs/><path d="M42.3,70c18.5,0,40.1-8.4,42.3-29.7c0.5-4.8-2.9-24.2-17-40.3L55,16.4H29.6L17,0C2.9,16.1-0.4,35.5,0,40.3  C2.2,61.6,23.8,70,42.3,70" style="fill:#fff"/><path d="m43.9 56l3.3-4.8c.6-.9.3-2.2-.6-2.7-1.2-.7-2.7-1-4.2-1s-2.9.4-4.2 1c-1 .5-1.3 1.8-.6 2.7l3.3 4.8c.6 1.1 2.2 1.1 3 0"/><path d="m50.1 62.1c-3.4 0-6.4-2-7.9-4.9-1.4 3-4.4 4.9-7.9 4.9-2.1 0-4.1-.7-5.7-2.1-.3-.3-.3-.7-.1-1.1s.7-.4 1-.1c1.3 1.1 3 1.8 4.7 1.8 3.5 0 6.5-2.5 7.1-6 .1-.4.4-.6.7-.6.4 0 .7.3.7.6.6 3.5 3.6 6 7.1 6 1.8 0 3.4-.6 4.7-1.7.3-.3.8-.2 1 .1.3.3.2.8-.1 1.1-1.2 1.3-3.1 2-5.3 2"/><path d="m83.8 32.7c-1 .3-2 .5-3.2.8-10.2 2.4-23.8 3.6-38.3 3.6s-28.1-1.3-38.3-3.6c-1.1-.3-2.2-.5-3.2-.8-.2.8-.3 1.5-.4 2.2 2.1.6 4.3 1.1 6.7 1.5.5 6.2 6.5 11.2 13.9 11.3 6.4.1 11.8-3.5 13.6-8.5 2.6.1 5.2.1 7.8.1 2.1 0 4.3 0 6.4-.1 1.8 4.9 7.2 8.5 13.6 8.4 7.3-.1 13.3-4.9 13.9-11 2.9-.5 5.6-1.1 8.1-1.8-.3-.6-.4-1.3-.6-2.1"/><path d="M127.4,70c18.5,0,40.1-8.4,42.3-29.7c0.5-4.8-2.9-24.2-17-40.3L140,16.4h-25.4L102.1,0  C88,16.1,84.6,35.5,85.1,40.3C87.3,61.6,108.9,70,127.4,70" style="fill:#e6e6e6"/><g style="fill:#1a1a1a"><path d="m128.9 56l3.3-4.8c.6-.9.3-2.2-.6-2.7-1.2-.7-2.7-1-4.2-1-1.5 0-2.9.4-4.2 1-1 .5-1.3 1.8-.6 2.7l3.3 4.8c.7 1.1 2.3 1.1 3 0"/><path d="m135.1 62.1c-3.4 0-6.4-2-7.9-4.9-1.4 3-4.4 4.9-7.9 4.9-2.1 0-4.1-.7-5.7-2.1-.3-.3-.3-.7-.1-1.1.3-.3.7-.4 1-.1 1.3 1.1 3 1.8 4.7 1.8 3.5 0 6.5-2.5 7.1-6 .1-.4.4-.6.7-.6s.7.3.7.6c.6 3.5 3.6 6 7.1 6 1.8 0 3.4-.6 4.7-1.7.3-.3.8-.2 1 .1.3.3.2.8-.1 1.1-1.1 1.3-3.1 2-5.3 2"/><path d="m168.9 32.7c-1 .3-2 .5-3.2.8-10.2 2.4-23.8 3.6-38.3 3.6-14.5 0-28.1-1.3-38.3-3.6-1.1-.3-2.2-.5-3.2-.8-.2.8-.3 1.5-.4 2.2 2.1.6 4.3 1.1 6.7 1.5.5 6.2 6.5 11.2 13.9 11.3 6.4.1 11.8-3.5 13.6-8.5 2.6.1 5.2.1 7.8.1 2.1 0 4.3 0 6.4-.1 1.8 4.9 7.2 8.5 13.6 8.4 7.3-.1 13.3-4.9 13.9-11 2.9-.5 5.6-1.1 8.1-1.8-.3-.6-.5-1.3-.6-2.1"/></g><path d="m212.4 70c18.5 0 40.1-8.4 42.3-29.7.5-4.8-2.9-24.2-17-40.3l-12.6 16.4h-25.4l-12.6-16.4c-14.1 16.1-17.5 35.5-17 40.3 2.2 21.3 23.8 29.7 42.3 29.7" style="fill:#ccc"/><g style="fill:#333"><path d="m213.9 56l3.3-4.8c.6-.9.3-2.2-.6-2.7-1.2-.7-2.7-1-4.2-1s-2.9.4-4.2 1c-1 .5-1.3 1.8-.6 2.7l3.3 4.8c.7 1.1 2.3 1.1 3 0"/><path d="m220.2 62.1c-3.4 0-6.4-2-7.9-4.9-1.4 3-4.4 4.9-7.9 4.9-2.1 0-4.1-.7-5.7-2.1-.3-.3-.3-.7-.1-1.1s.7-.4 1-.1c1.3 1.1 3 1.8 4.7 1.8 3.5 0 6.5-2.5 7.1-6 .1-.4.4-.6.7-.6s.7.3.7.6c.6 3.5 3.6 6 7.1 6 1.8 0 3.4-.6 4.7-1.7.3-.3.8-.2 1 .1.3.3.2.8-.1 1.1-1.2 1.3-3.2 2-5.3 2"/><path d="m253.9 32.7c-1 .3-2 .5-3.2.8-10.2 2.4-23.8 3.6-38.3 3.6-14.5 0-28.1-1.3-38.3-3.6-1.1-.3-2.2-.5-3.2-.8-.2.8-.3 1.5-.4 2.2 2.1.6 4.3 1.1 6.7 1.5.5 6.2 6.5 11.2 13.9 11.3 6.4.1 11.8-3.5 13.6-8.5 2.6.1 5.2.1 7.8.1 2.1 0 4.3 0 6.4-.1 1.8 4.9 7.2 8.5 13.6 8.4 7.3-.1 13.3-4.9 13.9-11 2.9-.5 5.6-1.1 8.1-1.8-.3-.6-.4-1.3-.6-2.1"/></g><path d="m297.4 70c18.5 0 40.1-8.4 42.3-29.7.5-4.8-2.9-24.2-17-40.3l-12.6 16.4h-25.4l-12.6-16.4c-14.1 16.1-17.5 35.5-17 40.3 2.2 21.3 23.8 29.7 42.3 29.7" style="fill:#b3b3b3"/><g style="fill:#4d4d4d"><path d="m299 56l3.3-4.8c.6-.9.3-2.2-.6-2.7-1.2-.7-2.6-1-4.2-1s-2.9.4-4.2 1c-1 .5-1.3 1.8-.6 2.7l3.3 4.8c.6 1.1 2.2 1.1 3 0"/><path d="m305.2 62.1c-3.4 0-6.4-2-7.9-4.9-1.4 3-4.4 4.9-7.9 4.9-2.1 0-4.1-.7-5.7-2.1-.3-.3-.3-.7-.1-1.1.3-.3.7-.4 1-.1 1.3 1.1 3 1.8 4.7 1.8 3.5 0 6.5-2.5 7.1-6 .1-.4.4-.6.7-.6s.7.3.7.6c.6 3.5 3.6 6 7.1 6 1.8 0 3.4-.6 4.7-1.7.3-.3.8-.2 1 .1.3.3.2.8-.1 1.1-1.2 1.3-3.1 2-5.3 2"/><path d="m339 32.7c-1 .3-2 .5-3.2.8-10.2 2.4-23.8 3.6-38.3 3.6-14.5 0-28.1-1.3-38.3-3.6-1.1-.3-2.2-.5-3.2-.8-.2.8-.3 1.5-.4 2.2 2.1.6 4.3 1.1 6.7 1.5.5 6.2 6.5 11.2 13.9 11.3 6.4.1 11.8-3.5 13.6-8.5 2.6.1 5.2.1 7.8.1 2.1 0 4.3 0 6.4-.1 1.8 4.9 7.2 8.5 13.6 8.4 7.3-.1 13.3-4.9 13.9-11 2.9-.5 5.6-1.1 8.1-1.8-.4-.6-.5-1.3-.6-2.1"/></g><path d="M382.5,70c18.5,0,40.1-8.4,42.3-29.7c0.5-4.8-2.9-24.2-17-40.3l-12.6,16.4h-25.4L357.2,0  c-14.1,16.1-17.5,35.5-17,40.3C342.4,61.6,364,70,382.5,70" style="fill:#999"/><g style="fill:#666"><path d="m384 56l3.3-4.8c.6-.9.3-2.2-.6-2.7-1.2-.7-2.7-1-4.2-1s-2.9.4-4.2 1c-1 .5-1.3 1.8-.6 2.7l3.3 4.8c.7 1.1 2.3 1.1 3 0"/><path d="m390.3 62.1c-3.4 0-6.4-2-7.9-4.9-1.4 3-4.4 4.9-7.9 4.9-2.1 0-4.1-.7-5.7-2.1-.3-.3-.3-.7-.1-1.1.3-.3.7-.4 1-.1 1.3 1.1 3 1.8 4.7 1.8 3.5 0 6.5-2.5 7.1-6 .1-.4.4-.6.7-.6s.7.3.7.6c.6 3.5 3.6 6 7.1 6 1.8 0 3.4-.6 4.7-1.7.3-.3.8-.2 1 .1.3.3.2.8-.1 1.1-1.2 1.3-3.2 2-5.3 2"/><path d="m424 32.7c-1 .3-2 .5-3.2.8-10.2 2.4-23.8 3.6-38.3 3.6s-28.1-1.3-38.3-3.6c-1.1-.3-2.2-.5-3.2-.8-.2.8-.3 1.5-.4 2.2 2.1.6 4.3 1.1 6.7 1.5.5 6.2 6.5 11.2 13.9 11.3 6.4.1 11.8-3.5 13.6-8.5 2.6.1 5.2.1 7.8.1 2.1 0 4.3 0 6.4-.1 1.8 4.9 7.2 8.5 13.6 8.4 7.3-.1 13.3-4.9 13.9-11 2.9-.5 5.6-1.1 8.1-1.8-.3-.6-.5-1.3-.6-2.1"/></g><g style="fill:#808080"><path d="M467.5,70c18.5,0,40.1-8.4,42.3-29.7c0.5-4.8-2.9-24.2-17-40.3l-12.6,16.4h-25.4L442.2,0  c-14.1,16.1-17.5,35.5-17,40.3C427.4,61.6,449,70,467.5,70"/><path d="m469 56l3.3-4.8c.6-.9.3-2.2-.6-2.7-1.2-.7-2.7-1-4.2-1s-2.9.4-4.2 1c-1 .5-1.3 1.8-.6 2.7l3.3 4.8c.7 1.1 2.3 1.1 3 0"/><path d="m475.3 62.1c-3.4 0-6.4-2-7.9-4.9-1.4 3-4.4 4.9-7.9 4.9-2.1 0-4.1-.7-5.7-2.1-.3-.3-.3-.7-.1-1.1.3-.3.7-.4 1-.1 1.3 1.1 3 1.8 4.7 1.8 3.5 0 6.5-2.5 7.1-6 .1-.4.4-.6.7-.6s.7.3.7.6c.6 3.5 3.6 6 7.1 6 1.8 0 3.4-.6 4.7-1.7.3-.3.8-.2 1 .1.3.3.2.8-.1 1.1-1.2 1.3-3.2 2-5.3 2"/><path d="m509 32.7c-1 .3-2 .5-3.2.8-10.2 2.4-23.8 3.6-38.3 3.6s-28.1-1.3-38.3-3.6c-1.1-.3-2.2-.5-3.2-.8-.2.8-.3 1.5-.4 2.2 2.1.6 4.3 1.1 6.7 1.5.5 6.2 6.5 11.2 13.9 11.3 6.4.1 11.8-3.5 13.6-8.5 2.6.1 5.2.1 7.8.1 2.1 0 4.3 0 6.4-.1 1.8 4.9 7.2 8.5 13.6 8.4 7.3-.1 13.3-4.9 13.9-11 2.9-.5 5.6-1.1 8.1-1.8-.3-.6-.4-1.3-.6-2.1"/></g><path d="M552.5,70c18.5,0,40.1-8.4,42.3-29.7c0.5-4.8-2.9-24.2-17-40.3l-12.6,16.4h-25.4L527.2,0  c-14.1,16.1-17.5,35.5-17,40.3C512.4,61.6,534,70,552.5,70" style="fill:#666"/><g style="fill:#999"><path d="m554.1 56l3.3-4.8c.6-.9.3-2.2-.6-2.7-1.2-.7-2.6-1-4.2-1-1.5 0-2.9.4-4.2 1-1 .5-1.3 1.8-.6 2.7l3.2 4.8c.7 1.1 2.3 1.1 3.1 0"/><path d="m560.3 62.1c-3.4 0-6.4-2-7.9-4.9-1.4 3-4.4 4.9-7.9 4.9-2.1 0-4.1-.7-5.7-2.1-.3-.3-.3-.7-.1-1.1.3-.3.7-.4 1-.1 1.3 1.1 3 1.8 4.7 1.8 3.5 0 6.5-2.5 7.1-6 .1-.4.4-.6.7-.6.4 0 .7.3.7.6.6 3.5 3.6 6 7.1 6 1.8 0 3.4-.6 4.7-1.7.3-.3.8-.2 1 .1.3.3.2.8-.1 1.1-1.2 1.3-3.1 2-5.3 2"/><path d="m594.1 32.7c-1 .3-2 .5-3.2.8-10.2 2.4-23.8 3.6-38.3 3.6-14.5 0-28.1-1.3-38.3-3.6-1.1-.3-2.2-.5-3.2-.8-.2.8-.3 1.5-.4 2.2 2.1.6 4.3 1.1 6.7 1.5.5 6.2 6.5 11.2 13.9 11.3 6.4.1 11.8-3.5 13.6-8.5 2.6.1 5.2.1 7.8.1 2.1 0 4.3 0 6.4-.1 1.8 4.9 7.2 8.5 13.6 8.4 7.3-.1 13.3-4.9 13.9-11 2.9-.5 5.6-1.1 8.1-1.8-.4-.6-.5-1.3-.6-2.1"/></g><path d="m637.6 70c18.5 0 40.1-8.4 42.3-29.7.5-4.8-2.9-24.2-17-40.3l-12.6 16.4h-25.4l-12.6-16.4c-14.1 16.1-17.5 35.5-17 40.3 2.2 21.3 23.8 29.7 42.3 29.7" style="fill:#4d4d4d"/><g style="fill:#b3b3b3"><path d="m639.1 56l3.3-4.8c.6-.9.3-2.2-.6-2.7-1.2-.7-2.7-1-4.2-1-1.5 0-2.9.4-4.2 1-1 .5-1.3 1.8-.6 2.7l3.2 4.8c.8 1.1 2.4 1.1 3.1 0"/><path d="m645.4 62.1c-3.4 0-6.4-2-7.9-4.9-1.4 3-4.4 4.9-7.9 4.9-2.1 0-4.1-.7-5.7-2.1-.3-.3-.3-.7-.1-1.1s.7-.4 1-.1c1.3 1.1 3 1.8 4.7 1.8 3.5 0 6.5-2.5 7.1-6 .1-.4.4-.6.7-.6.4 0 .7.3.7.6.6 3.5 3.6 6 7.1 6 1.8 0 3.4-.6 4.7-1.7.3-.3.8-.2 1 .1.3.3.2.8-.1 1.1-1.2 1.3-3.2 2-5.3 2"/><path d="m679.1 32.7c-1 .3-2 .5-3.2.8-10.2 2.4-23.8 3.6-38.3 3.6-14.5 0-28.1-1.3-38.3-3.6-1.1-.3-2.2-.5-3.2-.8-.2.8-.3 1.5-.4 2.2 2.1.6 4.3 1.1 6.7 1.5.5 6.2 6.5 11.2 13.9 11.3 6.4.1 11.8-3.5 13.6-8.5 2.6.1 5.2.1 7.8.1 2.1 0 4.3 0 6.4-.1 1.8 4.9 7.2 8.5 13.6 8.4 7.3-.1 13.3-4.9 13.9-11 2.9-.5 5.6-1.1 8.1-1.8-.3-.6-.4-1.3-.6-2.1"/></g><path d="m722.6 70c18.5 0 40.1-8.4 42.3-29.7.5-4.8-2.9-24.2-17-40.3l-12.6 16.4h-25.4l-12.6-16.4c-14.1 16.1-17.5 35.5-17 40.3 2.2 21.3 23.8 29.7 42.3 29.7" style="fill:#333"/><g style="fill:#ccc"><path d="m724.1 56l3.3-4.8c.6-.9.3-2.2-.6-2.7-1.2-.7-2.7-1-4.2-1-1.5 0-2.9.4-4.2 1-1 .5-1.3 1.8-.6 2.7l3.3 4.8c.7 1.1 2.3 1.1 3 0"/><path d="m730.4 62.1c-3.4 0-6.4-2-7.9-4.9-1.4 3-4.4 4.9-7.9 4.9-2.1 0-4.1-.7-5.7-2.1-.3-.3-.3-.7-.1-1.1s.7-.4 1-.1c1.3 1.1 3 1.8 4.7 1.8 3.5 0 6.5-2.5 7.1-6 .1-.4.4-.6.7-.6.4 0 .7.3.7.6.6 3.5 3.6 6 7.1 6 1.8 0 3.4-.6 4.7-1.7.3-.3.8-.2 1 .1.3.3.2.8-.1 1.1-1.2 1.3-3.1 2-5.3 2"/><path d="m764.1 32.7c-1 .3-2 .5-3.2.8-10.2 2.4-23.8 3.6-38.3 3.6-14.5 0-28.1-1.3-38.3-3.6-1.1-.3-2.2-.5-3.2-.8-.2.8-.3 1.5-.4 2.2 2.1.6 4.3 1.1 6.7 1.5.5 6.2 6.5 11.2 13.9 11.3 6.4.1 11.8-3.5 13.6-8.5 2.6.1 5.2.1 7.8.1 2.1 0 4.3 0 6.4-.1 1.8 4.9 7.2 8.5 13.6 8.4 7.3-.1 13.3-4.9 13.9-11 2.9-.5 5.6-1.1 8.1-1.8-.3-.6-.4-1.3-.6-2.1"/></g><path d="M807.6,70c18.5,0,40.1-8.4,42.3-29.7c0.5-4.8-2.9-24.2-17-40.3l-12.6,16.4H795L782.4,0  c-14.1,16.1-17.5,35.5-17,40.3C767.5,61.6,789.1,70,807.6,70" style="fill:#1a1a1a"/><g style="fill:#e6e6e6"><path d="m809.2 56l3.3-4.8c.6-.9.3-2.2-.6-2.7-1.2-.7-2.7-1-4.2-1-1.5 0-2.9.4-4.2 1-1 .5-1.3 1.8-.6 2.7l3.3 4.8c.6 1.1 2.2 1.1 3 0"/><path d="m815.4 62.1c-3.4 0-6.4-2-7.9-4.9-1.4 3-4.4 4.9-7.9 4.9-2.1 0-4.1-.7-5.7-2.1-.3-.3-.3-.7-.1-1.1s.7-.4 1-.1c1.3 1.1 3 1.8 4.7 1.8 3.5 0 6.5-2.5 7.1-6 .1-.4.4-.6.7-.6.4 0 .7.3.7.6.6 3.5 3.6 6 7.1 6 1.8 0 3.4-.6 4.7-1.7.3-.3.8-.2 1 .1.3.3.2.8-.1 1.1-1.2 1.3-3.1 2-5.3 2"/><path d="m849.2 32.7c-1 .3-2 .5-3.2.8-10.2 2.4-23.8 3.6-38.3 3.6-14.5 0-28.1-1.3-38.3-3.6-1.1-.3-2.2-.5-3.2-.8-.2.8-.3 1.5-.4 2.2 2.1.6 4.3 1.1 6.7 1.5.5 6.2 6.5 11.2 13.9 11.3 6.4.1 11.8-3.5 13.6-8.5 2.6.1 5.2.1 7.8.1 2.1 0 4.3 0 6.4-.1 1.8 4.9 7.2 8.5 13.6 8.4 7.3-.1 13.3-4.9 13.9-11 2.9-.5 5.6-1.1 8.1-1.8-.3-.6-.5-1.3-.6-2.1"/></g><path d="M892.7,70c18.5,0,40.1-8.4,42.3-29.7c0.5-4.8-2.9-24.2-17-40.3l-12.6,16.4H880L867.4,0c-14.1,16.1-17.5,35.5-17,40.3  C852.6,61.6,874.2,70,892.7,70"/><g style="fill:#fff"><path d="m894.2 56l3.3-4.8c.6-.9.3-2.2-.6-2.7-1.2-.7-2.7-1-4.2-1-1.5 0-2.9.4-4.2 1-1 .5-1.3 1.8-.6 2.7l3.3 4.8c.7 1.1 2.3 1.1 3 0"/><path d="m900.5 62.1c-3.4 0-6.4-2-7.9-4.9-1.4 3-4.4 4.9-7.9 4.9-2.1 0-4.1-.7-5.7-2.1-.3-.3-.3-.7-.1-1.1s.7-.4 1-.1c1.3 1.1 3 1.8 4.7 1.8 3.5 0 6.5-2.5 7.1-6 .1-.4.4-.6.7-.6.4 0 .7.3.7.6.6 3.5 3.6 6 7.1 6 1.8 0 3.4-.6 4.7-1.7.3-.3.8-.2 1 .1.3.3.2.8-.1 1.1-1.2 1.3-3.2 2-5.3 2"/><path d="m934.2 32.7c-1 .3-2 .5-3.2.8-10.2 2.4-23.8 3.6-38.3 3.6s-28.1-1.3-38.3-3.6c-1.1-.3-2.2-.5-3.2-.8-.2.8-.3 1.5-.4 2.2 2.1.6 4.3 1.1 6.7 1.5.5 6.2 6.5 11.2 13.9 11.3 6.4.1 11.8-3.5 13.6-8.5 2.6.1 5.2.1 7.8.1 2.1 0 4.3 0 6.4-.1 1.8 4.9 7.2 8.5 13.6 8.4 7.3-.1 13.3-4.9 13.9-11 2.9-.5 5.6-1.1 8.1-1.8-.3-.6-.4-1.3-.6-2.1"/></g></svg>