<?xml version="1.0" encoding="utf-8"?>
<!-- Generator: Adobe Illustrator 18.0.0, SVG Export Plug-In . SVG Version: 6.00 Build 0)  -->
<!DOCTYPE svg PUBLIC "-//W3C//DTD SVG 1.1//EN" "http://www.w3.org/Graphics/SVG/1.1/DTD/svg11.dtd">
<svg version="1.1" id="Layer_1" xmlns="http://www.w3.org/2000/svg" xmlns:xlink="http://www.w3.org/1999/xlink" x="0px" y="0px"
	 width="25px" height="25px" viewBox="0 0 25 25" enable-background="new 0 0 25 25" xml:space="preserve">
<path fill="#4D4D4D" d="M12.5,0C5.6,0,0,5.6,0,12.5C0,19.4,5.6,25,12.5,25S25,19.4,25,12.5C25,5.6,19.4,0,12.5,0z M20.9,5.1
	c-6.5,7.5-9.9,11.9-12,15.3c-0.2,0.3-0.5,0.3-0.7,0C7.7,19.7,7,18.5,7,18.5c-1.5-2.6-1.5-2.7-2.9-5.1c-0.1-0.1,0.1-0.2,0.2-0.1
	c1.5,0.7,2.7,1.2,4.3,1.8c0.1,0,0.2,0.1,0.3,0c3.7-3.4,7.2-6.8,10.9-10.2C20.2,4.4,21.2,4.7,20.9,5.1z"/>
</svg>
