<svg xmlns="http://www.w3.org/2000/svg" viewBox="0 0 25 25" style="enable-background:new 0 0 25 25"><defs/><path d="M25,12.5C25,19.4,19.4,25,12.5,25C5.6,25,0,19.4,0,12.5C0,5.6,5.6,0,12.5,0C19.4,0,25,5.6,25,12.5" style="fill:#84bf00"/><path d="m24.9 11.2h-24.8c-.1.5-.1.9-.1 1.3 0 6.9 5.6 12.5 12.5 12.5 6.9 0 12.5-5.6 12.5-12.5 0-.4 0-.8-.1-1.3" style="fill:#64a700"/><path d="m4.3 13.3c1.5.7 2.7 1.2 4.3 1.8.1 0 .2.1.3 0 3.7-3.4 7.2-6.8 10.9-10.2.5-.4 1.4-.2 1.1.2-6.5 7.5-9.9 11.9-12 15.3-.2.3-.5.3-.7 0-.5-.7-1.2-1.9-1.2-1.9-1.5-2.6-1.5-2.7-2.9-5.1-.1-.1.1-.2.2-.1" style="fill:#fff"/></svg>