<svg xmlns="http://www.w3.org/2000/svg" viewBox="0 0 900.8 880.2" xmlns:xlink="http://www.w3.org/1999/xlink" style="enable-background:new 0 0 900.8 880.2"><defs><path id="SVGID_5_" d="m122.5 833.1h-81.5c-2.9 0-5.2-2.3-5.2-5.2v-109.9c0-2.9 2.3-5.2 5.2-5.2h81.5c2.9 0 5.2 2.3 5.2 5.2v110c0 2.8-2.3 5.1-5.2 5.1"/><path id="SVGID_3_" d="m87.4 722h-46v4h46v-4"/><path id="SVGID_1_" d="m756.9 398.1l-35.5 23.6v2.3h71v-2.3l-35.5-23.6"/><clipPath id="SVGID_2_"><use xlink:href="#SVGID_1_"/></clipPath><clipPath id="SVGID_4_"><use xlink:href="#SVGID_3_"/></clipPath><clipPath id="SVGID_6_"><use xlink:href="#SVGID_5_"/></clipPath></defs><path d="m794.4 174v188" style="fill:#fff"/><path d="m793.4 174v188h2v-188" style="fill:#e6e6e6"/><path d="m899.8 451.2c0 58-47 105-105 105-58 0-105-47-105-105 0-58 47-105 105-105 58 0 105 47 105 105" style="fill:#ccc"/><g style="fill:#e6e6e6"><path d="m899.8 451.2h-1c0 28.7-11.6 54.7-30.5 73.5-18.8 18.8-44.8 30.5-73.5 30.5-28.7 0-54.7-11.6-73.5-30.5-18.8-18.8-30.5-44.8-30.5-73.5 0-28.7 11.6-54.7 30.5-73.5 18.8-18.8 44.8-30.5 73.5-30.5 28.7 0 54.7 11.6 73.5 30.5 18.8 18.8 30.5 44.8 30.5 73.5h1 1c0-58.5-47.5-106-106-106-58.5 0-106 47.5-106 106 0 58.5 47.5 106 106 106 58.5 0 106-47.5 106-106h-1"/><path d="m782.4 481h3v-46h-3v-1-2h-17v2 1h-2v46h2v3 2h13 4v-2z"/><path d="m742 486h5.4v-2-3h4v-46h-4v-1-2h-16v2 1h-2v46h2v3 2h4 6.6"/><path d="m889.5 419l-.7 7.9-.7 7.5-.6 6.1-.5 5.1-.1.8-.4 4.3c-.1 1.1-.5 2.1-1.2 2.9-.2.3-.5.5-.7.7-.3.2-.5.4-.8.5-.2.1-.3.1-.5.2-.1.1-.3.1-.4.2-.2.1-.4.1-.7.1-.1 0-.2 0-.3.1-.2 0-.5 0-.7 0 0 0-.1 0-.1 0-.1 0-.1 0-.2 0l-4.4-.4 1.6 9.6 1.3 8.1 1.1 6.6 1.8 10.9c0 .3.1.6.1.9v.1.1c0 .3 0 .5-.1.8v.1c0 .2-.1.5-.2.7v.1c-.1.2-.2.5-.3.7l-.1.2c-.1.2-.3.5-.4.7-.8 1.1-2.1 2-3.6 2.2l-35 5.7-31.1 5.1-3.3.5-1.5.2c-.3 0-.5.1-.8.1h-.1-.1c-.2 0-.4 0-.5 0h-.2c-.2 0-.5-.1-.7-.2h-.1l-.1-.1c-.2-.1-.5-.2-.7-.3h-.1c-1.6-.8-2.8-2.3-3.1-4.2l-.9-5.7h-17.1-4-43-3.2l-.8 1v-1h-21v-12h5v-2-3h2v-46h-2v-1-2h-8v-4-4h-.3l50.2-33.3 50.2 33.3h-.9v4 4h-7v2 1h-2v21.2c.3-.1.6-.2.9-.2l31.9-5.2-10.8-1-3.1-.3-1.3-.1c-.8-.1-1.5-.3-2.1-.7-1.7-1-2.7-2.9-2.5-5l.4-4.3 1.1-12.3 2-21.8c.3-2.9 2.8-5 5.6-4.7l4.3.4 60.5 5.6c-16.4-32.9-50.3-55.4-89.5-55.4-55.2 0-100 44.8-100 100 0 55.2 44.8 100 100 100 55.2 0 100-44.8 100-100-.1-11.2-2-22-5.4-32.1"/></g><g style="fill:#2a7cb3"><path d="m883.8 454.9c-.2.1-.3.1-.5.2.2-.1.4-.2.5-.2"/><path d="m883 455.2c-.2.1-.4.1-.7.1.2 0 .4 0 .7-.1"/><path d="m882 455.4c-.2 0-.5 0-.7 0 .2.1.5.1.7 0"/><path d="m889.5,419-.7,7.9z"/><path d="m886.6 450.7c-.1 1.1-.5 2.1-1.2 2.9.6-.8 1.1-1.8 1.2-2.9l.4-4.3-.4 4.3"/><path d="m823.9 401l-4.3-.4c-2.8-.3-5.4 1.9-5.6 4.7l-2 21.8 37.3 3.5c-9.6-9.1-18.1-18.9-25.4-29.6"/><path d="m876.5 455.1l4.4.4c-1.6-1.1-3.3-2.2-4.9-3.3l.5 2.9"/><path d="m865.4 444.4l-54.6-5.1-.4 4.3c-.2 2.1.9 4 2.5 5 .6.4 1.3.6 2.1.7l1.3.1 3.1.3 10.8 1 35.8-5.8c-.2-.1-.4-.3-.6-.5"/></g><path d="m823.9 401c7.3 10.7 15.8 20.6 25.3 29.5l-37.3-3.5-1.1 12.3 54.6 5.1c.2.2.4.3.7.5l3.1-.5c1.5-.2 2.9.1 4.1 1 .5.3.9.8 1.3 1.3.1.1.2.3.3.5v.1c.1.1.2.3.2.4l.1.1c.1.1.1.3.2.4l.1.2c0 .1.1.2.1.3v.1.1.1l.5 3.1c1.6 1.1 3.3 2.2 4.9 3.3.1 0 .2 0 .3 0 .2 0 .5 0 .7 0 .1 0 .2 0 .3-.1.2 0 .5-.1.7-.1.1 0 .3-.1.4-.2.2-.1.3-.1.5-.2.3-.2.6-.3.8-.5.3-.2.5-.5.7-.7.7-.8 1.1-1.8 1.2-2.9l.4-4.3.1-.8.5-5.1.6-6.1.7-7.5.7-7.9c-1.4-4.3-3.2-8.4-5.2-12.4l-60.5-5.6" style="fill:#4395cc"/><path d="m747.4 432h18 17 17 7v-4h-99v4h8 16 16" style="fill:#bdbdbd"/><g style="fill:#4d4d4d"><path d="m806.4 424h.9l-50.2-33.3-50.1 33.3h.4v4h99v-4m-85 0v-2.3l35.5-23.6 35.5 23.6v2.3h-71"/><use xlink:href="#SVGID_1_"/></g><path d="m721.4 398.1h71v25.9h-71z" style="clip-path:url(#SVGID_2_);fill:#727272"/><g style="fill:#4d4d4d"><path d="m722.4 435h7v46h-7z"/><path d="m722.4 435h-5v46h5v-46"/></g><path d="m722.4 435h-5v46h5v-46" style="fill:#747470"/><g style="fill:#bdbdbd"><path d="m729.4 435h2v-1h-16v1h2 5 7"/><path d="m731.4 432h-16v2h16v-2"/></g><path d="m731.4 432h-16v2h16v-2" style="fill:#8c8c8c"/><path d="m731.4 493v-3-2-2h-16-5v12h21v-3-2" style="fill:#4d4d4d"/><g style="fill:#bdbdbd"><path d="m722.4 484h7 2v-3h-2-7-5-2v3h2 5"/><path d="m731.4 484h-2-7-5-2v2h16v-2"/></g><path d="m731.4 484h-2-7-5-2v2h16v-2" style="fill:#8c8c8c"/><g style="fill:#4d4d4d"><path d="m757.4 435h6v46h-6z"/><path d="m757.4 435h-6v46h6v-46"/></g><path d="m757.4 435h-6v46h6v-46" style="fill:#747470"/><g style="fill:#bdbdbd"><path d="m747.4 435h4 6 6 2v-1h-18v1"/><path d="m765.4 434v-2h-18v2h18"/></g><path d="m765.4 432h-18v2h18v-2" style="fill:#8c8c8c"/><g style="fill:#bdbdbd"><path d="m751.4 481h-4v3h4 6 6 2v-3h-2-6-6"/><path d="m757.4 484h-6-4v2h18v-2h-2-6"/></g><path d="m765.4 484h-2-6-6-4v2h18v-2" style="fill:#8c8c8c"/><g style="fill:#4d4d4d"><path d="m791.4 481h5.3l-3-18.5c-.5-2.8 1.2-5.4 3.7-6.3v-21.2h-6v46"/><path d="m791.4 481v-46h-6v46h6"/></g><path d="m791.4 435h-6v46h6v-46" style="fill:#747470"/><g style="fill:#bdbdbd"><path d="m782.4 435h3 6 6 2v-1h-17v1"/><path d="m782.4 434h17v-2h-17v2"/></g><path d="m799.4 432h-17v2h17v-2" style="fill:#8c8c8c"/><path d="m782.4 486v2 2 3 2 3h17.1l-2-12h-15.1" style="fill:#4d4d4d"/><g style="fill:#bdbdbd"><path d="m785.4 481h-3v3h3 6 5.8l-.5-3h-5.3-6"/><path d="m785.4 484h-3v2h15.1l-.3-2h-5.8-6"/></g><path d="m797.2 484h-5.8-6-3v2h15.1l-.3-2" style="fill:#8c8c8c"/><path d="m765.4 486h-18-5.4l-1.6 2h42v-2h-4-13" style="fill:#bdbdbd"/><path d="m740.4 488l-1.7 2h43.7v-2h-42" style="fill:#ddd"/><path d="m738.7 490l-2.4 3h46.1v-3h-43.7" style="fill:#bdbdbd"/><path d="m736.3 493l-1.6 2h47.7v-2h-46.1" style="fill:#ddd"/><path d="m734.7 495l-2.5 3h3.2 43 4v-3h-47.7" style="fill:#bdbdbd"/><path d="m731.4 499l.8-1h-.8v1" style="fill:#e6e6e6"/><path d="m732.2 498h-.8v1l.8-1" style="fill:#948f8e"/><path d="m740.4 488l1.6-2h-6.6-4v2h9" style="fill:#bdbdbd"/><path d="m742 486h-6.6-4v2h9l1.6-2" style="fill:#7a7574"/><path d="m738.7 490l1.7-2h-9v2h7.3" style="fill:#ddd"/><path d="m740.4 488h-9v2h7.3l1.7-2" style="fill:#8e8988"/><path d="m736.3 493l2.4-3h-7.3v3h4.9" style="fill:#bdbdbd"/><path d="m738.7 490h-7.3v3h4.9l2.4-3" style="fill:#7a7574"/><path d="m736.3 493h-4.9v2h3.3l1.6-2" style="fill:#ddd"/><path d="m736.3 493h-4.9v2h3.3l1.6-2" style="fill:#8e8988"/><path d="m731.4 495v3h.8l2.5-3h-3.3" style="fill:#bdbdbd"/><path d="m734.7 495h-3.3v3h.8l2.5-3" style="fill:#7a7574"/><g style="fill:#3498db"><path d="m806.8 508.4c-.3 0-.5.1-.8.1.3-.1.6-.1.8-.1"/><path d="m805.8 508.4c-.2 0-.4 0-.5 0 .2 0 .4 0 .5 0"/><path d="m808.6 501.4l-.7-4.1.9-.1 1.9 2.4.1-.1-.4-2.5.8-.1.3 1.9c3.8-4.2 7.6-8.4 11.6-12.5l1.2-3 1-.2.1.8c6.4-6.5 13.1-12.7 20.1-18.4l-.1-.2c-.2-.6-.4-1.1-.5-1.8-.7-4.2 2.2-8.1 6.3-8.8 1.6-.3 3.2 0 4.6.7 1.1-1.2 2.6-2.1 4.4-2.4.9-.2 1.8-.1 2.7.1 3.8-2.3 7.6-4.5 11.6-6.4-.4-.5-.8-.9-1.3-1.3-1.2-.8-2.6-1.2-4.1-1l-3.1.5-35.8 5.8-31.9 5.2c-.3.1-.6.1-.9.2-2.5.9-4.2 3.5-3.7 6.3l3 18.5.5 3 .3 2 2 12 .9 5.7c.3 1.9 1.5 3.4 3.1 4.2 1.9-2.2 3.8-4.3 5.7-6.5l-.6.1m2.2-11.3l-.4.1-1-3.1-.9.2v-.6c.3-.1.5-.1.6-.2.2-.1.3-.2.4-.3.1-.1.1-.2.1-.4v-.2l.8-.1.2 1 .5 3.3v.2l-.3.1m1.8-.3c0-.3 0-.6.1-.9v-.1c.1-.3.3-.7.8-1.1.4-.4.6-.6.7-.8.2-.2.2-.5.2-.7 0-.2-.1-.3-.2-.5s-.3-.2-.5-.1c-.3 0-.4.2-.5.4 0 .1 0 .3 0 .6l-.9.1c0-.4 0-.7.1-1 .1-.2.2-.4.4-.5l.3-.2c.2-.1.3-.2.5-.2.5-.1.9 0 1.2.2s.5.6.6 1c.1.3 0 .7-.2 1-.1.2-.3.4-.5.7l-.3.3c-.2.2-.3.3-.4.4-.1.1-.1.2-.2.3l2-.3.1.8-3.3.6m6-4.5c.1.4 0 .6-.1.8-.1.1-.2.2-.3.3.1 0 .2 0 .4.2.3.2.4.4.5.8.1.4 0 .7-.2 1.1-.2.3-.6.5-1.1.6-.6.1-1.1 0-1.4-.4-.2-.2-.3-.5-.4-.8l.9-.1c0 .2.1.3.2.4.1.2.4.3.6.2.2 0 .3-.1.4-.3.1-.1.1-.3.1-.6 0-.3-.2-.5-.5-.5-.1 0-.4 0-.7 0l-.1-.6c.3-.1.5-.1.6-.2.1-.1.2-.2.2-.4v-.2c0-.2-.1-.3-.2-.4-.1-.1-.3-.1-.5-.1-.2 0-.4.1-.4.3-.1.2-.1.3-.1.6l-.8.1c0-.2 0-.4 0-.7 0-.2.1-.4.3-.6.1-.1.2-.2.4-.3.2-.1.3-.1.6-.2.4-.1.8 0 1.1.2.3.2.4.4.5.8m-14.3-17.1l10.6-1.7c.6-.1 1.1.3 1.2.9l1.8 11.1c.1.6-.3 1.1-.9 1.2l-10.6 1.7c-.6.1-1.1-.3-1.2-.9l-1.8-11.1c-.1-.6.3-1.1.9-1.2m1.4 22.2c-.1-.2-.3-.4-.4-.6-.1-.3-.2-.6-.3-1-.1-.8-.1-1.4.1-1.8.2-.4.5-.7 1.1-.8.6-.1 1 0 1.3.4.3.3.5.9.6 1.5v.2c.1.8.1 1.4-.1 1.8-.2.4-.5.7-1.1.8-.4 0-.9-.1-1.2-.5"/><path d="m854.2 458.2l.9-.1h.2c.8-.5 1.5-1 2.3-1.6h-.1l-.7.1-.3.1-.8.1-.4.1-.6.1c.1-.1.1-.2.2-.3-1-.5-2.2-.7-3.5-.5-3.3.5-5.6 3.7-5 7 .1.4.2.8.3 1.2 2.4-1.9 4.8-3.7 7.3-5.5.1-.2.2-.4.2-.7"/><path d="m882.3 492.3c0 .2-.1.5-.2.7.1-.3.1-.5.2-.7"/><path d="m882 493.1c-.1.2-.2.5-.3.7.2-.2.3-.5.3-.7"/><path d="m882.4 491.4c0 .3 0 .5-.1.8 0-.3 0-.6.1-.8"/><path d="m881.7 494c-.1.2-.3.5-.4.7.1-.3.2-.5.4-.7"/><path d="m807.3 488.3c-.1-.5-.2-1-.3-1.2-.1-.3-.3-.4-.6-.3-.3 0-.4.2-.5.5 0 .3 0 .7.1 1.2 0 .3.1.5.2.7 0 .2.1.4.2.5.1.3.3.4.6.3.3 0 .4-.2.5-.5 0-.3 0-.6 0-1l-.2-.2"/><path d="m882.3 490.3c0 .3.1.6.1.9-.1-.3-.1-.6-.1-.9"/><path d="m809.3 501.1c.3-.3.6-.7.9-1l-1.4-1.7.5 2.7"/><path d="m824.2 485.1c.2-.2.3-.3.5-.5l-.1-.5-.4 1"/><path d="m805.1 508.3c-.2 0-.5-.1-.7-.2.2.2.5.2.7.2"/><path d="m804.2 508.1c-.2-.1-.5-.2-.7-.3.3.2.5.2.7.3"/><path d="m874.5 446.7c.1.1.2.3.3.5 0-.2-.1-.4-.3-.5"/><path d="m874.9 447.2c.1.1.2.3.2.4-.1-.1-.1-.3-.2-.4"/><path d="m875.2 447.8c.1.1.1.3.2.4-.1-.2-.2-.3-.2-.4"/><path d="m875.4 448.4c0 .1.1.2.1.3 0-.1-.1-.2-.1-.3"/></g><g style="fill:#5dade2"><path d="m871.7 478.1c-.2-.1-.3-.2-.5-.1-.2 0-.3.1-.4.2-.2.2-.2.4-.2.7 0 .2.1.4.3.6.2.1.3.2.5.2.2 0 .3-.1.4-.3s.1-.4.1-.6c.1-.4 0-.6-.2-.7"/><path d="m853.3 491.8c-.1-.1-.3-.1-.5-.1-.2 0-.3.1-.4.2-.1.1-.1.3-.1.5l1.4-.2c-.2-.2-.3-.3-.4-.4"/><path d="m842 482c.1.1.3.1.4.1.2 0 .3-.1.4-.2.1-.1.1-.3.1-.4 0-.2-.1-.3-.2-.4s-.3-.1-.4-.1c-.2 0-.3.1-.4.2-.1.1-.1.3-.1.4 0 .2.1.4.2.4"/><path d="m845 494l-.2.1-.2.1c-.2.1-.3.1-.3.2-.1.1-.2.2-.1.4 0 .1.1.2.2.3.1 0 .2.1.3 0 .2 0 .3-.1.5-.2.1-.1.2-.3.1-.6v-.3h-.3"/><path d="m832.1 486c.2 0 .3-.1.4-.3s.1-.4.1-.6c0-.3-.1-.5-.3-.6-.2-.1-.3-.2-.5-.1-.2 0-.3.1-.4.2-.2.2-.2.4-.2.7 0 .2.1.4.3.6.2.1.4.1.6.1"/><path d="m810.8 499.4l-.1.2.2.2z"/><path d="m813.9 499.1l-.2.1-.2.1c-.2.1-.3.1-.3.2-.1.1-.2.2-.1.4 0 .1.1.2.2.3.1 0 .2.1.3 0 .2 0 .3-.1.5-.2.1-.1.2-.3.1-.6v-.3h-.3"/><path d="m842.1 483.1c-.1.1-.1.3-.1.6 0 .2.1.4.3.5.1.1.3.1.5.1.2 0 .4-.1.5-.3s.1-.3.1-.6c0-.2-.1-.4-.3-.5-.1-.1-.3-.1-.5-.1-.3 0-.4.1-.5.3"/><path d="m856 458l.7-.1.9-.2h.2l.6-.1.9-.2c-.1-.2-.3-.3-.4-.4-.2-.2-.4-.4-.6-.6l-.7.1c-.8.5-1.5 1-2.3 1.6l.7-.1"/><path d="m855.8 462.4l.4-.1 2.4-.4.8-.1.8-.1.9-.2c0-.3 0-.6-.1-.9l-.1-.2-1 .2-.8.1-.4.1-.4.1-2.9.5-.8.1-.8.1c0-.3-.1-.7-.1-1l.8-.1.8-.1 2.6-.4.8-.1.8-.1 1-.2c-.1-.4-.3-.8-.5-1.1l-1 .2-.8.1-.9.1-1.9.3-.8.1-.8.1c0-.1.1-.2.1-.4-2.5 1.8-4.9 3.6-7.3 5.5.4 1 1 1.8 1.8 2.5 1.3 1.1 3 1.6 4.8 1.3 1.3-.2 2.4-.8 3.3-1.7h.2l1-.2h.1l.9-.1h.3v-.1c.4-.4.7-.8.9-1.3l-.6.1-.9.1-1 .2-1 .2-.9.2c-.2-.3-.4-.5-.6-.8l.9-.1.9-.1 1.3-.2.9-.1.8-.1.7-.1c.1-.4.2-.8.3-1.2l-.8.1-.8.1-.8.1-2.3.4-.8.1-.8.1c0-.1-.1-.2-.1-.3-.1-.2-.2-.5-.2-.7l.8-.1.9-.4"/><path d="m845.6 481.9c.1.1.3.2.5.1.1 0 .2-.1.3-.2.2-.2.2-.4.2-.7 0-.3-.1-.5-.3-.6-.1-.1-.3-.2-.5-.1-.2 0-.3.1-.4.2-.1.2-.2.4-.1.7 0 .3.1.5.3.6"/><path d="m863.2 479.8l1.1-.2-.3-1.9z"/><path d="m823.7 486.2l1.1-.2-.2-1.5c-.2.2-.3.3-.5.5l-.4 1.2"/><path d="m822.1 496.9c-.1-.1-.3-.1-.5-.1-.2 0-.3.1-.4.2-.1.1-.1.3-.1.5l1.4-.2c-.1-.2-.2-.4-.4-.4"/><path d="m831.8 496.2l-.2.1-.2.1c-.2.1-.3.1-.3.2-.1.1-.2.2-.1.4 0 .1.1.2.2.3.1 0 .2.1.3 0 .2 0 .3-.1.5-.2.1-.1.2-.3.1-.6v-.3h-.3"/><path d="m875.6 449.1v-.1-.1c0-.1-.1-.2-.1-.3l-.1-.2c0-.1-.1-.3-.2-.4l-.1-.1c-.1-.1-.1-.3-.2-.4v-.1c-.1-.2-.2-.3-.3-.5-4 1.9-7.8 4.1-11.6 6.4.6.1 1.1.3 1.6.5 1.1.5 2 1.2 2.8 2.1.8 1 1.4 2.2 1.7 3.6.7 4.1-2.2 8.1-6.3 8.7-1.6.3-3.2 0-4.6-.7-1.1 1.3-2.6 2.2-4.4 2.5-2.4.4-4.8-.4-6.4-2-.7-.7-1.3-1.4-1.7-2.3-7 5.7-13.7 11.9-20.1 18.4l.3 2.1.5-.1.1.7-.5.1.2 1-.9.1-.1-1-1.7.3-.2-.8v-.1c-4 4.1-7.8 8.3-11.6 12.5l.3 2.2-1-.1-.8-.9c-.3.3-.6.6-.9.9l-.2.2c-1.9 2.2-3.8 4.4-5.7 6.6h.1c.2.1.4.2.7.3l.1.1h.1c.2.1.5.1.7.2h.2c.2 0 .4 0 .5 0h.1.1c.3 0 .5 0 .8-.1l1.5-.2 3.3-.5 31.1-5.1 35-5.7c1.5-.2 2.7-1.1 3.6-2.2.2-.2.3-.4.4-.7l.1-.2c.1-.2.2-.5.3-.7v-.1c.1-.2.1-.5.2-.7v-.1c0-.3.1-.5.1-.8v-.1-.1c0-.3 0-.6-.1-.9l-1.8-10.9-1.1-6.6-1.3-8.1-1.6-9.6-.5-2.9-.4-3m-61.2 51.4l-.1-.2-.1-.2c-.1.1-.2.3-.3.4-.2.1-.3.2-.6.2-.3 0-.5 0-.7-.1-.2-.1-.3-.3-.4-.6-.1-.4 0-.7.3-.9.1-.1.4-.2.7-.3l.3-.1c.1 0 .2-.1.3-.1.1-.1.1-.2.1-.3 0-.1-.1-.2-.2-.2-.1 0-.2 0-.4 0-.2 0-.3.1-.4.2 0 .1-.1.2-.1.3l-.8.1c0-.3 0-.5.1-.7.2-.3.5-.5 1-.6.3-.1.6 0 .9.1.3.1.4.3.5.7l.2 1.4c0 .1 0 .2.1.3 0 .1 0 .2.1.2l.1.1v.1l-.6.2m4.9-.8l-.3-1.9c0-.1 0-.2-.1-.3-.1-.1-.2-.2-.4-.1-.2 0-.4.1-.4.3 0 .1 0 .2 0 .4l.3 1.8-.8.1-.3-1.8c0-.2-.1-.3-.1-.4-.1-.1-.2-.2-.4-.2-.2 0-.4.1-.4.3 0 .1 0 .2 0 .4l.3 1.8-.8.1-.5-3 .8-.1.1.4c.1-.2.1-.3.2-.4.1-.1.3-.2.6-.3.2 0 .4 0 .6.1.1.1.2.2.3.3.1-.2.2-.3.3-.5.1-.1.3-.2.5-.2.1 0 .3 0 .4 0 .1 0 .3.1.4.2.1.1.2.2.2.4 0 .1.1.2.1.4l.3 1.9-.9.3m3.9-1c-.2.3-.6.5-1.1.6-.4.1-.8 0-1.1-.2-.3-.2-.6-.6-.7-1.1-.1-.5 0-.9.2-1.3.2-.3.6-.5 1-.6.3 0 .5 0 .7 0 .2.1.4.2.6.4.2.2.3.4.3.6 0 .1.1.3.1.6l-2.2.4c.1.3.2.5.4.6.1.1.3.1.5 0 .2 0 .3-.1.4-.2.1-.1.1-.1.1-.2l.8-.1c.2.1.1.3 0 .5m25.5-18.7c.2-.1.3-.2.4-.3.1-.1.1-.2.1-.4v-.2l.8-.1.7 4.6-.9.1-.5-3.1-1.1.2-.1-.6c.3-.1.5-.2.6-.2m-4.1.3c.2-.3.6-.6 1-.6.7-.1 1.2.1 1.6.7.2.3.4.8.4 1.3.1.6.1 1 0 1.4-.2.7-.6 1.2-1.3 1.3-.3.1-.7 0-1-.2-.3-.2-.5-.4-.6-.8l.9-.1c0 .1.1.2.2.3.1.1.2.1.4.1.3 0 .5-.2.5-.6 0-.2 0-.5 0-.8-.1.1-.1.2-.2.3-.2.1-.4.2-.6.3-.4.1-.7 0-1-.2-.3-.2-.5-.5-.6-1 0-.6.1-1 .3-1.4m-3.5.5c.2-.3.5-.4 1-.5.5-.1.8 0 1.1.2.3.2.5.5.5.8 0 .1 0 .3 0 .5 0 .2-.2.4-.4.5.2.1.4.2.6.4.1.2.2.4.3.7.1.4 0 .7-.3 1.1-.2.3-.6.5-1.1.6-.5.1-.9 0-1.2-.2-.3-.2-.5-.5-.6-.9 0-.3 0-.5.1-.7s.2-.4.4-.6c-.2-.1-.4-.2-.5-.4-.1-.2-.2-.3-.2-.5 0-.4.1-.7.3-1m-4.5.4l.1.7c-.1.2-.3.4-.4.8-.2.4-.3.8-.4 1.1-.1.3-.1.7-.2 1.1 0 .4 0 .8 0 1l-.9.2c-.1-.8 0-1.7.4-2.7.2-.6.5-1 .6-1.3l-2.3.4-.1-.8 3.2-.5m-6.3 1.7c.1-.2.2-.4.4-.6.2-.2.4-.3.7-.3.4-.1.8 0 1.1.2.3.2.5.4.6.8l-.9.1-.1-.2c-.1-.1-.3-.2-.5-.1-.3 0-.5.2-.5.6 0 .2 0 .5 0 .8.1-.1.2-.3.3-.4.1-.1.3-.1.5-.2.4-.1.8 0 1.1.3.3.2.5.6.6 1 .1.4 0 .8-.2 1.2-.2.4-.6.6-1.1.7-.6.1-1-.1-1.4-.5-.3-.3-.5-.8-.6-1.4-.1-.3-.1-.6-.1-.9-.1-.5 0-.8.1-1.1m-1.1-.4l.1.8-1.9.3v1c.1-.1.2-.2.3-.2.1-.1.3-.1.5-.1.4-.1.7 0 1 .2.3.2.5.6.6 1 .1.4 0 .8-.2 1.2-.2.4-.6.6-1.1.7-.4.1-.8 0-1.1-.2-.3-.2-.5-.5-.6-.9l.9-.1c.1.2.2.3.3.4.1.1.3.1.5.1.2 0 .4-.1.5-.3s.1-.4.1-.6c0-.2-.1-.4-.3-.6-.1-.1-.3-.2-.5-.2-.1 0-.2 0-.3.1-.1.1-.2.2-.3.3l-.8.1-.1-2.6 2.4-.4m-2.1 15.9l-.7-4.1.9-.1.5 3.3 2-.3.1.7-2.8.5m5.2-.9l-.1-.2-.1-.2c-.1.1-.2.3-.3.4-.2.1-.3.2-.6.2-.3 0-.5 0-.7-.1-.2-.1-.3-.3-.4-.6-.1-.4 0-.7.3-.9.1-.1.4-.2.7-.3l.3-.1c.1 0 .2-.1.3-.1.1-.1.1-.2.1-.3 0-.1-.1-.2-.2-.2-.1 0-.2 0-.4 0-.2 0-.3.1-.4.2 0 .1-.1.2-.1.3l-.8.1c0-.3 0-.5.1-.7.2-.3.5-.5 1-.6.3-.1.6 0 .9.1.3.1.4.3.5.7l.2 1.4c0 .1 0 .2.1.3 0 .1 0 .2.1.2l.1.1v.1l-.6.2m3.6-.7c-.2.2-.5.4-1 .5-.5.1-.8 0-1.1-.1-.3-.2-.4-.4-.5-.7l.8-.1c0 .1.1.2.2.3.1.1.3.1.6.1.2 0 .3-.1.4-.1.1-.1.1-.1.1-.2l-.1-.2c-.1 0-.4-.1-.9-.1-.4 0-.6-.1-.8-.2-.2-.1-.3-.3-.3-.5 0-.3 0-.5.2-.8.2-.2.5-.4.9-.4.4-.1.7 0 1 .1s.4.3.5.7l-.8.1c0-.1-.1-.2-.1-.2-.1-.1-.3-.1-.5-.1-.2 0-.3.1-.4.1h-.1c0 .1.1.1.1.2.1 0 .4.1.9.1.3 0 .6.1.8.2.2.1.3.3.3.5 0 .3 0 .5-.2.8m1.9-.1c-.4.1-.6 0-.8-.1-.1-.1-.2-.2-.2-.4l-.3-1.9-.4.1-.1-.6.4-.1-.1-.8.8-.1.1.8.5-.1.1.6-.5.1.3 1.6c0 .1 0 .2.1.2s.1 0 .3 0h.1.1l.1.6-.5.1m4.4-.8l-.3-1.8c0-.2-.1-.3-.1-.4-.1-.1-.3-.2-.5-.2-.3 0-.4.2-.5.4 0 .1 0 .3 0 .5l.3 1.6-.8.1-.5-3 .8-.1.1.4c.1-.2.2-.3.2-.4.1-.1.3-.2.6-.3.3-.1.6 0 .8.1s.4.4.4.8l.3 2-.8.3m3.3-.5l-.1-.2-.1-.2c-.1.1-.2.3-.3.4-.2.1-.3.2-.6.2-.3 0-.5 0-.7-.1-.2-.1-.3-.3-.4-.6-.1-.4 0-.7.3-.9.1-.1.4-.2.7-.3l.3-.1c.1 0 .2-.1.3-.1.1-.1.1-.1.1-.3 0-.1-.1-.2-.2-.2-.1 0-.2 0-.4 0-.2 0-.3.1-.4.2 0 .1-.1.2-.1.3l-.8.1c0-.3 0-.5.1-.7.2-.3.5-.5 1-.6.3-.1.6 0 .9.1.3.1.4.3.5.7l.2 1.4c0 .1 0 .2.1.3 0 .1 0 .2.1.2l.1.1v.1l-.6.2m4.9-.8l-.3-1.9c0-.1-.1-.2-.1-.3-.1-.1-.2-.2-.4-.1-.2 0-.4.2-.4.3 0 .1 0 .2 0 .4l.3 1.8-.8.1-.3-1.8c0-.2-.1-.3-.1-.4-.1-.1-.2-.2-.4-.2-.2 0-.4.1-.4.3 0 .1 0 .2 0 .4l.3 1.8-.8.1-.5-3 .8-.1.1.4c.1-.2.1-.3.2-.4.1-.1.3-.2.6-.3.2 0 .4 0 .6.1.1.1.2.2.3.3.1-.2.2-.3.3-.5.1-.1.3-.2.5-.2.1 0 .3 0 .4 0 .1 0 .3.1.4.2.1.1.2.2.2.4 0 .1.1.2.1.4l.3 1.9-.9.3m3.9-1c-.2.3-.6.5-1.1.6-.4.1-.8 0-1.1-.2s-.6-.6-.7-1.1c-.1-.5 0-.9.2-1.3s.6-.5 1-.6c.3 0 .5 0 .7 0 .2.1.4.2.6.4.2.2.3.4.3.6 0 .1.1.3.1.6l-2.2.4c.1.3.2.5.4.6.1.1.3.1.5 0 .2 0 .3-.1.4-.2.1-.1.1-.1.1-.2l.8-.1c.2.1.1.3 0 .5m-2.2-10.2c0-.3 0-.6.1-.9.1-.3.3-.7.8-1.1.4-.4.6-.6.7-.8.2-.2.2-.5.2-.7 0-.2-.1-.3-.2-.5-.1-.1-.3-.2-.5-.1-.3 0-.4.2-.5.4 0 .1 0 .3 0 .6l-.9.1c0-.4 0-.7.1-1 .2-.5.6-.8 1.2-.9.5-.1.9 0 1.2.2.3.2.5.6.6 1 .1.3 0 .7-.2 1-.1.2-.3.4-.6.7l-.3.3c-.2.2-.3.3-.4.4-.1.1-.1.2-.2.3l2-.3.1.8-3.2.5m9.8-2c-.2.3-.6.5-1.1.6-.6.1-1.1 0-1.4-.4-.2-.2-.3-.5-.4-.8l.9-.1c0 .2.1.3.2.4.1.2.4.3.6.2.2 0 .3-.1.4-.3.1-.1.1-.3.1-.6 0-.3-.2-.5-.5-.5-.1 0-.4 0-.7 0l-.1-.6c.3-.1.5-.1.6-.2.2-.1.3-.3.2-.6 0-.2-.1-.3-.2-.4-.1-.1-.3-.1-.5-.1-.2 0-.4.1-.4.3-.1.2-.1.3-.1.6l-.8.1c0-.2 0-.4 0-.7 0-.2.1-.4.3-.6.1-.1.2-.2.4-.3.2-.1.3-.1.6-.2.4-.1.8 0 1.1.2.3.2.5.5.5.8 0 .3 0 .5-.1.7-.1.1-.2.2-.3.3.1 0 .2 0 .4.2.3.2.4.4.5.8.1.5 0 .9-.2 1.2m3.6-.2l-.9.1-.2-1-1.8.3-.1-.8 1.2-3 1-.2.5 2.9.5-.1.1.7-.5.1.2 1m3.6-1c-.2.4-.6.6-1.1.7-.4.1-.8 0-1.1-.2s-.5-.5-.6-.9l.9-.1c.1.2.2.3.3.4.1.1.3.1.5.1.2 0 .4-.1.5-.3.1-.2.1-.4.1-.6 0-.2-.1-.4-.3-.6-.1-.1-.3-.2-.5-.2-.1 0-.2 0-.3.1-.1.1-.2.2-.3.3l-.8.1-.1-2.6 2.5-.4.1.8-1.9.3v1c.1-.1.2-.2.3-.2.1-.1.3-.1.5-.1.4-.1.7 0 1 .2.3.2.5.6.6 1 0 .4-.1.8-.3 1.2m3.6-.6c-.2.4-.6.6-1.1.7-.6.1-1-.1-1.4-.5-.3-.3-.5-.8-.6-1.4-.1-.3-.1-.6-.1-.9 0-.4 0-.7.1-1 .1-.2.2-.4.4-.6.2-.2.4-.3.7-.3.4-.1.8 0 1.1.2.3.2.5.4.6.8l-.9.1-.1-.2c-.1-.1-.3-.2-.5-.1-.3 0-.5.2-.5.6 0 .2 0 .5 0 .8.1-.1.2-.3.3-.4.1-.1.3-.1.5-.2.4-.1.8 0 1.1.3.3.2.5.6.6 1 .1.4 0 .8-.2 1.1"/></g><g style="fill:#fff"><path d="m810.4 496.9l.4 2.5.1.4-.2-.2-1.9-2.4-.9.1.7 4.1.6-.2.2-.2h-.1l-.4-2.7 1.4 1.7.7 1 .9-.1-.4-2.2-.3-1.9z"/><path d="m810.7 486.5l-.2-1-.7.1v.2c0 .1-.1.3-.1.4-.1.1-.2.2-.4.3-.1 0-.3.1-.6.2l-.1.6.9-.2 1 3.1.4-.1.5-.1v-.2l-.7-3.3"/><path d="m824.3 483.2l-1.2 3 .1.1.2.8 1.7-.3.1 1 .9-.1-.2-1 .5-.1-.1-.7-.5.1-.3-2.1-.1-.8-1.1.1m.6 2.9l-1.1.2.4-1.2.4-1 .1.5.2 1.5"/><path d="m808.2 490c.2-.4.2-1 .1-1.8v-.2c-.1-.7-.3-1.2-.6-1.5-.3-.4-.7-.5-1.3-.4-.6.1-1 .4-1.1.8-.2.4-.2 1-.1 1.8.1.4.2.7.3 1 .1.3.2.5.4.6.3.4.7.5 1.3.4.4 0 .8-.3 1-.7m-.8-.4c0 .3-.2.5-.5.5-.3 0-.5-.1-.6-.3-.1-.1-.1-.3-.2-.5-.1-.2-.1-.4-.2-.7-.1-.5-.1-1-.1-1.2 0-.3.2-.4.5-.5.3 0 .5.1.6.3.1.2.2.7.3 1.2v.2c.2.4.2.7.2 1"/><path d="m817 484.4c-.2 0-.4.1-.6.2-.2.1-.3.2-.4.3-.1.2-.2.4-.3.6 0 .2 0 .4 0 .7l.8-.1c0-.2 0-.4.1-.6.1-.2.2-.2.4-.3.2 0 .3 0 .5.1.1.1.2.2.2.4v.2c0 .2-.1.3-.2.4-.1.1-.3.1-.6.2l.1.6c.3 0 .5-.1.7 0 .3.1.4.2.5.5 0 .2 0 .4-.1.6-.1.1-.3.2-.4.3-.3 0-.5 0-.6-.2-.1-.1-.1-.3-.2-.4l-.9.1c.1.4.2.6.4.8.3.4.8.5 1.4.4.5-.1.9-.3 1.1-.6.2-.3.3-.7.2-1.1-.1-.4-.2-.6-.5-.8-.2-.1-.3-.2-.4-.2.1-.1.2-.2.3-.3.1-.2.2-.5.1-.7v-.1c-.1-.3-.2-.6-.5-.8-.3-.3-.7-.3-1.1-.2"/><path d="m813.6 488.8c0-.1.1-.2.2-.3.1-.1.2-.2.4-.4l.3-.3c.3-.3.4-.5.5-.7.2-.3.2-.6.2-1-.1-.4-.3-.8-.6-1s-.7-.3-1.2-.2c-.2 0-.4.1-.5.2l-.3.2c-.2.1-.3.3-.4.5-.1.3-.1.6-.1 1l.9-.1c0-.3 0-.4 0-.6.1-.2.2-.4.5-.4.2 0 .4 0 .5.1s.2.3.2.5c0 .2 0 .5-.2.7-.1.1-.3.4-.7.8-.4.4-.7.8-.8 1.1v.1c-.1.3-.1.6-.1.9l3.1-.5-.1-.8-1.8.2"/><path d="m853.5 493.4c-.1.1-.2.2-.4.2-.2 0-.3 0-.5 0-.2-.1-.4-.3-.4-.6l2.2-.4c0-.3-.1-.5-.1-.6-.1-.2-.2-.4-.3-.6-.2-.2-.4-.3-.6-.4-.2-.1-.5-.1-.7 0-.4.1-.8.3-1 .6s-.3.7-.2 1.3c.1.6.3.9.7 1.1s.7.3 1.1.2c.5-.1.8-.3 1.1-.6.1-.2.2-.4.2-.6l-.8.1c-.2.2-.2.2-.3.3m-1.2-1.4c.1-.1.2-.2.4-.2.2 0 .3 0 .5.1.1.1.2.2.3.4l-1.4.2c.1-.2.1-.4.2-.5"/><path d="m853.1 482.4c0-.1.1-.2.2-.3.1-.1.2-.2.4-.4l.3-.3c.3-.3.5-.5.6-.7.2-.3.2-.6.2-1-.1-.4-.3-.8-.6-1-.3-.2-.7-.3-1.2-.2-.6.1-1 .4-1.2.9-.1.3-.1.6-.1 1l.9-.1c0-.3 0-.4 0-.6.1-.2.2-.4.5-.4.2 0 .4 0 .5.1.1.1.2.3.2.5 0 .2 0 .5-.2.7-.1.1-.3.4-.7.8-.4.4-.7.8-.8 1.1-.1.3-.1.6-.1.9l3.1-.5-.1-.8-1.9.3"/><path d="m827.6 485.3c0-.1.1-.3.3-.3.1 0 .2-.1.3-.1.2 0 .4 0 .5.2.1.1.2.3.3.6 0 .2 0 .4-.1.6s-.2.3-.5.3c-.2 0-.3 0-.5-.1-.1-.1-.2-.2-.3-.4l-.9.1c.1.4.3.7.6.9.3.2.7.2 1.1.2.5-.1.9-.3 1.1-.7.2-.4.3-.8.2-1.2-.1-.5-.3-.8-.6-1-.3-.2-.7-.3-1-.2-.2 0-.3.1-.5.1-.1 0-.2.1-.3.2v-1l1.9-.3-.1-.8-2.5.4.1 2.6.9-.1"/><path d="m827.9 497.5l-.6-3.3-.8.1.6 4.1 2.9-.5-.1-.7z"/><path d="m830.8 486.2c.4.4.8.6 1.4.5.5-.1.9-.3 1.1-.7.2-.4.3-.8.2-1.2-.1-.4-.3-.8-.6-1-.3-.2-.7-.3-1.1-.3-.2 0-.4.1-.5.2-.1.1-.2.2-.3.4 0-.4 0-.6 0-.8.1-.3.3-.5.5-.6.2 0 .4 0 .5.1l.1.2.9-.1c-.1-.4-.3-.6-.6-.8-.3-.2-.6-.2-1.1-.2-.3 0-.5.2-.7.3-.2.2-.3.4-.4.6-.1.3-.2.6-.1 1 0 .2 0 .5.1.9.1.7.3 1.2.6 1.5m.6-1.6c.1-.1.2-.2.4-.2.2 0 .4 0 .5.1.2.1.3.3.3.6 0 .2 0 .4-.1.6s-.2.3-.4.3c-.2 0-.4 0-.5-.2-.2-.1-.3-.3-.3-.6-.1-.2-.1-.5.1-.6"/><path d="m846.2 495.1c0 0-.1-.1-.1-.2 0-.1 0-.3-.1-.3l-.2-1.4c-.1-.4-.2-.6-.5-.7-.3-.1-.6-.1-.9-.1-.5.1-.8.3-1 .6-.1.2-.1.4-.1.7l.8-.1c0-.1 0-.2.1-.3.1-.1.2-.2.4-.2.2 0 .3 0 .4 0 .1 0 .1.1.2.2 0 .1 0 .2-.1.3-.1 0-.2.1-.3.1l-.3.1c-.3.1-.5.2-.7.3-.3.2-.4.5-.3.9 0 .3.2.5.4.6.2.1.4.2.7.1.2 0 .4-.1.6-.2.1-.1.2-.2.3-.4l.1.2.1.2.9-.1v-.1l-.4-.2m-1.1-.3c-.1.1-.3.2-.5.2-.1 0-.2 0-.3 0-.1 0-.1-.1-.2-.3 0-.1 0-.3.1-.4.1-.1.2-.1.3-.2l.2-.1.2-.1.1-.1v.3c.3.4.2.6.1.7"/><path d="m850.8 492.1c-.1-.1-.1-.3-.2-.4-.1-.1-.3-.2-.4-.2-.1 0-.3 0-.4 0-.2 0-.4.1-.5.2-.1.1-.2.3-.3.5-.1-.1-.2-.2-.3-.3-.2-.1-.4-.1-.6-.1-.2 0-.4.1-.6.3-.1.1-.1.2-.2.4l-.1-.4-.8.1.5 3 .8-.1-.3-1.8c0-.2 0-.3 0-.4.1-.2.2-.3.4-.3.2 0 .3 0 .4.2 0 .1.1.2.1.4l.3 1.8.8-.1-.3-1.8c0-.1 0-.3 0-.4.1-.2.2-.3.4-.3.2 0 .3 0 .4.1 0 .1.1.2.1.3l.3 1.9.8-.1-.3-1.9c0-.3 0-.5 0-.6"/><path d="m838 496c-.2 0-.3 0-.4 0s-.1-.1-.1-.2l-.3-1.6.5-.1-.1-.6-.5.1-.1-.8-.8.1.1.8-.4.1.1.6.4-.1.3 1.9c0 .2.1.3.2.4.2.1.4.1.8.1l.4-.1-.1-.6"/><path d="m861.3 479.4c.1-.1.2-.2.3-.3.1-.2.2-.5.1-.7-.1-.4-.2-.7-.5-.8-.3-.2-.7-.2-1.1-.2-.2 0-.4.1-.6.2-.2.1-.3.2-.4.3-.1.2-.2.4-.3.6 0 .2 0 .4 0 .7l.8-.1c0-.2 0-.4.1-.6.1-.2.2-.2.4-.3.2 0 .3 0 .5.1.1.1.2.2.2.4 0 .3 0 .5-.2.6-.1.1-.3.1-.6.2l.1.6c.3 0 .5-.1.7 0 .3.1.4.2.5.5 0 .2 0 .4-.1.6-.1.1-.3.2-.4.3-.3 0-.5 0-.6-.2-.1-.1-.1-.3-.2-.4l-.9.1c.1.4.2.6.4.8.3.4.8.5 1.4.4.5-.1.9-.3 1.1-.6.2-.3.3-.7.2-1.1-.1-.4-.2-.6-.5-.8-.2-.3-.3-.3-.4-.3"/><path d="m842.2 493c-.2-.1-.5-.2-.8-.1-.2 0-.4.1-.6.3-.1.1-.2.2-.2.4l-.1-.4-.8.1.5 3 .8-.1-.3-1.6c0-.2 0-.3 0-.5.1-.2.2-.4.5-.4.2 0 .4 0 .5.2.1.1.1.2.1.4l.3 1.8.8-.1-.3-2c0-.6-.1-.9-.4-1"/><path d="m835 495.2c-.5 0-.8-.1-.9-.1-.1 0-.1-.1-.1-.2l.1-.2c.1-.1.2-.1.4-.1.2 0 .4 0 .5.1.1.1.1.1.1.2l.8-.1c-.1-.4-.3-.6-.5-.7s-.6-.1-1-.1c-.4.1-.7.2-.9.4-.2.2-.3.5-.2.8 0 .2.1.4.3.5.2.1.4.2.8.2.5 0 .8.1.9.1l.1.2c0 .1 0 .2-.1.2-.1.1-.2.1-.4.1-.3 0-.5 0-.6-.1-.1-.1-.1-.1-.2-.3l-.8.1c.1.3.2.5.5.7.3.2.6.2 1.1.1.5-.1.8-.2 1-.5.2-.2.3-.5.2-.8 0-.2-.1-.4-.3-.5-.2.1-.5.1-.8 0"/><path d="m867.6 477.7c-.2 0-.3.1-.5.1-.1 0-.2.1-.3.2v-1l1.9-.3-.1-.8-2.5.4.1 2.6.8-.1c0-.1.1-.3.3-.3.1 0 .2-.1.3-.1.2 0 .4 0 .5.2.1.1.2.3.3.6 0 .2 0 .4-.1.6-.1.2-.2.3-.5.3-.2 0-.3 0-.5-.1-.1-.1-.2-.2-.3-.4l-.9.1c.1.4.3.7.6.9s.7.2 1.1.2c.5-.1.9-.3 1.1-.7.2-.4.3-.8.2-1.2-.1-.5-.3-.8-.6-1-.1-.1-.5-.2-.9-.2"/><path d="m872.4 477.4c-.3-.2-.7-.3-1.1-.3-.2 0-.4.1-.5.2-.1.1-.2.2-.3.4 0-.4 0-.6 0-.8.1-.3.3-.5.5-.6.2 0 .4 0 .5.1l.1.2.9-.1c-.1-.4-.3-.6-.6-.8-.3-.2-.6-.2-1.1-.2-.3 0-.5.2-.7.3-.2.2-.3.4-.4.6-.1.3-.2.6-.1 1 0 .2 0 .5.1.9.1.6.3 1.1.6 1.4.4.4.8.6 1.4.5.5-.1.9-.3 1.1-.7.2-.4.3-.8.2-1.2-.2-.3-.3-.6-.6-.9m-.5 1.9c-.1.2-.2.3-.4.3-.2 0-.4 0-.5-.2-.2-.1-.3-.3-.3-.6 0-.3 0-.5.2-.7.1-.1.2-.2.4-.2.2 0 .4 0 .5.1.2.1.3.3.3.6 0 .3-.1.5-.2.7"/><path d="m833 497.2c0 0-.1-.1-.1-.2 0-.1 0-.3-.1-.3l-.2-1.4c-.1-.4-.2-.6-.5-.7-.3-.1-.6-.1-.9-.1-.5.1-.8.3-1 .6-.1.2-.1.4-.1.7l.8-.1c0-.1 0-.2.1-.3.1-.1.2-.2.4-.2.2 0 .3 0 .4 0 .1 0 .2.1.2.2 0 .1 0 .2-.1.3-.1 0-.2.1-.3.1l-.3.1c-.3.1-.5.2-.7.3-.3.2-.4.5-.3.9 0 .3.2.5.4.6.2.1.4.2.7.1.2 0 .4-.1.6-.2.1-.1.2-.2.3-.4l.1.2.1.2.9-.1v-.1l-.4-.2m-1.1-.2c-.1.1-.3.2-.5.2-.1 0-.2 0-.3 0-.1 0-.1-.1-.2-.3 0-.1 0-.3.1-.4.1-.1.2-.1.3-.2l.2-.1.2-.1.1-.1v.3c.3.4.2.5.1.7"/><path d="m865.7 479.4l-.5.1-.5-2.9-1 .2-1.2 3 .1.8 1.8-.3.2 1 .9-.1-.2-1 .5-.1-.1-.7m-2.5.4l.8-2.2.3 2-1.1.2"/><path d="m822.4 498.5c-.1.1-.2.2-.4.2-.2 0-.3 0-.5 0-.2-.1-.4-.3-.4-.6l2.2-.4c0-.3-.1-.5-.1-.6-.1-.2-.2-.4-.3-.6-.2-.2-.4-.3-.6-.4-.2-.1-.5-.1-.7 0-.4.1-.8.3-1 .6-.2.3-.3.7-.2 1.3.1.6.3.9.7 1.1.3.2.7.3 1.1.2.5-.1.8-.3 1.1-.6.1-.2.2-.4.2-.6l-.8.1c-.2.1-.2.2-.3.3m-1.2-1.5c.1-.1.2-.2.4-.2.2 0 .4 0 .5.1.1.1.2.2.3.4l-1.4.2c.1-.2.1-.3.2-.5"/><path d="m849.3 480.6l.5 3.1.9-.1-.7-4.6-.8.1v.2c0 .1-.1.3-.1.4-.1.1-.2.2-.4.3-.1 0-.3.1-.6.2l.1.6 1.1-.2"/><path d="m819.7 497.2c-.1-.1-.1-.3-.2-.4-.1-.1-.3-.2-.4-.2-.1 0-.3 0-.4 0-.2 0-.4.1-.5.2-.1.1-.2.3-.3.5-.1-.1-.2-.2-.3-.3-.2-.1-.4-.1-.6-.1-.2 0-.4.1-.6.3-.1.1-.1.2-.2.4l-.1-.4-.8.1.5 3 .8-.1-.3-1.8c0-.2 0-.3 0-.4.1-.2.2-.3.4-.3.2 0 .3 0 .4.2 0 .1.1.2.1.4l.3 1.8.8-.1-.3-2c0-.1 0-.3 0-.4.1-.2.2-.3.4-.3.2 0 .3 0 .4.1 0 .1.1.2.1.3l.3 1.9.8-.1-.3-1.9c0-.2 0-.3 0-.4"/><path d="m815.1 500.1c0 0-.1-.1-.1-.2 0-.1 0-.3-.1-.3l-.2-1.4c-.1-.4-.2-.6-.5-.7-.3-.1-.6-.1-.9-.1-.5.1-.8.3-1 .6-.1.2-.1.4-.1.7l.8-.1c0-.1 0-.2.1-.3.1-.1.2-.2.4-.2.2 0 .3 0 .4 0 .1 0 .2.1.2.2 0 .1 0 .2-.1.3-.1 0-.2.1-.3.1l-.3.1c-.3.1-.5.2-.7.3-.3.2-.4.5-.3.9 0 .3.2.5.4.6.2.1.4.2.7.1.2 0 .4-.1.6-.2.1-.1.2-.2.3-.4l.1.2.1.2.9-.1v-.1l-.4-.2m-1.1-.2c-.1.1-.3.2-.5.2-.1 0-.2 0-.3 0-.1 0-.1-.1-.2-.3 0-.1 0-.3.1-.4.1-.1.2-.1.3-.2l.2-.1.2-.1.1-.1v.3c.2.4.2.6.1.7"/><path d="m845 482.6c.3.2.7.3 1 .2.2 0 .4-.1.6-.3.1-.1.2-.2.2-.3 0 .4 0 .6 0 .8-.1.3-.2.5-.5.6-.2 0-.3 0-.4-.1-.1-.1-.2-.2-.2-.3l-.9.1c.1.4.3.7.6.8.3.2.6.2 1 .2.7-.1 1.2-.5 1.3-1.3.1-.4.1-.9 0-1.4-.1-.6-.2-1-.4-1.3-.4-.6-.9-.8-1.6-.7-.5.1-.8.3-1 .6-.2.3-.3.8-.2 1.3 0 .5.2.9.5 1.1m.5-2c.1-.1.2-.2.4-.2.2 0 .4 0 .5.1.1.1.2.3.3.6.1.3 0 .6-.2.7-.1.1-.2.1-.3.2-.2 0-.4 0-.5-.1-.1-.1-.2-.3-.3-.6-.1-.3-.1-.5.1-.7"/><path d="m841.6 482.6c-.2.1-.3.3-.4.6s-.1.5-.1.7c.1.4.2.7.6.9.3.2.7.3 1.2.2.5-.1.9-.3 1.1-.6.2-.3.3-.7.3-1.1 0-.3-.1-.5-.3-.7-.1-.2-.3-.3-.6-.4.2-.2.3-.3.4-.5 0-.2 0-.3 0-.5-.1-.3-.2-.6-.5-.8-.3-.2-.7-.3-1.1-.2-.5.1-.8.2-1 .5-.2.3-.3.6-.2.9 0 .1.1.3.2.5 0 .2.1.4.4.5m1.7.8c0 .2 0 .4-.1.6s-.2.2-.5.3c-.2 0-.4 0-.5-.1-.1-.1-.2-.3-.3-.5 0-.2 0-.4.1-.6.1-.1.2-.2.5-.3.2 0 .4 0 .5.1.2.1.3.3.3.5m-1.5-2.2c.1-.1.2-.2.4-.2.2 0 .3 0 .4.1s.2.2.2.4c0 .2 0 .3-.1.4-.1.1-.2.2-.4.2-.2 0-.3 0-.4-.1-.1-.1-.2-.2-.2-.4 0-.1.1-.3.1-.4"/><path d="m835.8 482.2c-.2.3-.4.7-.6 1.3-.4 1-.5 1.9-.4 2.7l.9-.2c0-.3 0-.6 0-1 0-.4.1-.8.2-1.1.1-.4.2-.8.4-1.1.2-.4.3-.6.4-.8l-.1-.7-3.2.5.1.8 2.3-.4"/></g><path d="m806.4 481.4l10.6-1.7c.6-.1 1-.6.9-1.2l-1.8-11.1c-.1-.6-.6-1-1.2-.9l-10.6 1.7c-.6.1-1 .6-.9 1.2l1.8 11.1c.1.6.6 1 1.2.9m3.8-1.5l-.4-2.5 2.6-.4.4 2.5-2.6.4m4.1-.9l-.4-2.3 2.6-.4c-.2 1.2-1.1 2.2-2.2 2.7m1.8-7.2l.5 3.2v-.1l-3 .4-.5-3 3-.5m-4.8-4c1.9-.3 3.6.7 4.4 2.3l-3.6.6-.8.1.7 4.6-2.6.4-1.2-7.5 3.1-.5m-2.7 12.2c-1.2-.2-2.3-.9-3-1.9l2.6-.4.4 2.3m-1.8-11.3l.5 2.8-2.8.5c.2-1.4 1-2.6 2.3-3.3m-1.8 7.8l-.5-3 3-.5.5 3-3 .5" style="fill:#f3f3f3"/><path d="m860.3 453c-1.8.3-3.3 1.2-4.4 2.4-1.4-.7-3-1-4.6-.7-4.2.7-7 4.6-6.3 8.8.1.6.3 1.2.5 1.8l.1.2c.4.9 1 1.7 1.7 2.3 1.7 1.6 4 2.4 6.4 2 1.8-.3 3.3-1.2 4.4-2.5 1.4.7 3 1 4.6.7 4.1-.7 7-4.6 6.3-8.7-.2-1.4-.8-2.6-1.7-3.6-.8-.9-1.7-1.7-2.8-2.1-.5-.2-1.1-.4-1.6-.5-.8-.2-1.7-.3-2.6-.1m-5.8 10.4c0 .1.1.2.1.3l.8-.1.8-.1 2.3-.4.8-.1.8-.1.8-.1c-.1.4-.2.8-.3 1.2l-.7.1-.8.1-.9.1-1.3.2-.9.1-.9.1c.2.3.4.6.6.8l.9-.2 1-.2 1-.2.9-.1.6-.1c-.3.5-.6.9-.9 1.3v.1h-.3l-.9.1h-.1l-1 .2h-.2c-.9.8-2 1.4-3.3 1.7-1.8.3-3.5-.3-4.8-1.3-.8-.7-1.4-1.5-1.8-2.5-.1-.4-.3-.8-.3-1.2-.5-3.3 1.7-6.5 5-7 1.2-.2 2.4 0 3.5.5-.1.1-.1.2-.2.3l.6-.1.4-.1.8-.1.3-.1.7-.1h.1l.7-.1c.2.2.4.4.6.6.1.1.3.3.4.4l-.9.2-.6.1h-.2l-.9.2-.8.2-.6.1h-.2l-.9.1c-.1.2-.1.5-.2.7 0 .1-.1.2-.1.4l.8-.1.8-.1 1.9-.3.9-.1.8-.1 1-.2c.2.3.4.7.5 1.1l-1 .2-.8.1-.8.1-2.6.4-.8.1-.8.1c0 .3 0 .7.1 1l.8-.1.8-.1 2.9-.5.4-.1.4-.1.8-.1 1-.2.1.2c.1.3.1.6.1.9l-.9.2-.8.1-.8.1-2.4.4-.4.1-.8.1-.8.1c-.1.4 0 .6.1.9" style="fill:#fff"/><g style="fill:#a6986d"><path d="m808.6 480l-.4-2.3-2.6.4c.7 1 1.8 1.7 3 1.9"/><path d="m806.8 468.7c-1.3.6-2.1 1.8-2.3 3.2l2.8-.5-.5-2.7"/><path d="m807.5 473.1l-3 .4.5 3v.1l3-.5z"/><path d="m812.1 475.4l-.7-4.6.8-.1 3.6-.6c-.8-1.6-2.6-2.6-4.4-2.3l-2.9.5 1.2 7.5 2.4-.4"/><path d="m810.1572 479.94244h2.4428v2.6h-2.6z" style="stroke-width:.99998068"/><path d="m814.3 479c1.1-.5 2-1.6 2.3-2.8l-2.6.4.3 2.4"/><path d="m813.7 475.2l2.9-.3v.1l-.5-3.2-2.9.4z"/></g><path d="m172.4 25h141" style="fill:#fff"/><path d="m172.4 26h141v-2h-141" style="fill:#e6e6e6"/><circle cx="106" cy="106" r="105" style="fill:#ccc"/><g style="fill:#e6e6e6"><path d="M211,106h-1c0,28.7-11.6,54.7-30.5,73.5C160.7,198.4,134.7,210,106,210c-28.7,0-54.7-11.6-73.5-30.5   C13.6,160.7,2,134.7,2,106c0-28.7,11.6-54.7,30.5-73.5C51.3,13.6,77.3,2,106,2c28.7,0,54.7,11.6,73.5,30.5   C198.4,51.3,210,77.3,210,106H211h1C212,47.5,164.5,0,106,0C47.5,0,0,47.5,0,106c0,58.5,47.5,106,106,106c58.5,0,106-47.5,106-106   H211z"/><circle cx="106" cy="106" r="100"/></g><g style="fill:#84bf00"><path d="m123.2 142.1c5.6 2.1 8.8 5.1 10 6.4 1.4-1.1 3.2-1.8 5.2-1.8v-11.7h-10v-3h10v-3h-10v-35h10v-10h-18v56.9c0 .2.8.4 1.3.7 1 .3 1.5.5 1.5.5"/><path d="m138.4 84v10h9v35h-9v3h9v3h-9v11.8c4 0 8.1 3.7 8.1 8.2 0 4-2.9 7.3-6.6 8 4 13 5.5 28.2 5.9 34.9 3.6-1.6 6.7-3.3 10.7-5.3v-108-.6h-18.1"/></g><path d="m156.4 84h-18v10h9v35h-9v3h9v3h-9v11.8c4 0 8.1 3.7 8.1 8.2 0 4-2.9 7.3-6.6 8 4 13 5.5 28.2 5.9 34.9 3.6-1.6 6.7-3.3 10.7-5.3v-104.8l-.3-3.2h.3v-.6" style="fill:#a4d700"/><g style="fill:#fff"><path d="m133.6 149.2c2.5 3.8 4.5 8.6 6.1 13.8 3.7-.8 6.6-4.1 6.6-8 0-4.5-3.7-8.2-8.2-8.2-1.9 0-3.7.7-5.1 1.8.4.3.6.6.6.6"/><path d="m128.4 129h9.7 9.3v-35h-9.3-9.7v35m2-32h14v5h-14v-5"/><path d="m128.4 135h9.7 9.3v-3h-9.3-9.7z"/></g><path d="m130.4 97h14v5h-14z" style="fill:#84bf00"/><g style="fill:#f39a00"><path d="m181.5 161.5c-4.5.4-8.5-2.9-8.9-7.4-.4-4.5 2.9-8.5 7.4-8.9l-1.1-11.5-9.9 1-.3-3.6 9.9-1-.3-2.9-9.9 1-3.4-35 9.9-1-.9-9.4-17.9 1.7 9.7 101.5c6.1-4.6 11.7-9.8 16.6-15.6l-.9-8.9"/><path d="m191.9 81.2l-17.9 1.7.9 9.4 9-.9 3.3 34.9-9 .9.3 2.9 9-.9.3 3.6-9 .9 1.1 11.5c4.5-.4 8.5 2.9 8.9 7.4.4 4.5-2.9 8.5-7.4 8.9l.9 9c6.4-7.6 11.7-16.1 15.6-25.3l-6-64"/></g><path d="m191.9 81.2l-17.9 1.7.9 9.4 9-.9 3.3 34.9-9 .9.3 2.9 9-.9.3 3.6-9 .9 1.1 11.5c.3 0 .5 0 .8 0 4.2 0 7.7 3.2 8.2 7.4 0 .3 0 .5 0 .8 0 4.2-3.2 7.8-7.4 8.2l.9 9c6.4-7.6 11.7-16.1 15.6-25.3l-6.1-64.1" style="fill:#f9b900"/><g style="fill:#fff"><circle cx="180.8" cy="153.4" r="8.2"/><path d="m168.3 128.2l9.9-1 9-.9-3.3-34.9-9 .9-9.9 1 3.3 34.9m13.3-33.6l.6 5.9-13.8 1.3-.6-5.9 13.8-1.3"/><path d="m168.9 134.7l10-1 9-.8-.4-3.6-9 .8-9.9 1z"/></g><path d="m182.12725 100.43668h-.22725v5.9h-13.9z" style="fill:#f39a00;stroke-width:.9999707"/><path d="m42 86.7c-2 2.6-.9 8.1 0 11.3.5 2.8 1.6 4.6 2.6 5.8 2.6 17.1 16.8 32.9 29.9 32.9 15.2 0 29-17.1 31.7-32.9 1.1-1.1 2.2-2.9 2.7-5.8.9-3.2 2-8.8 0-11.4-.1-.1-.2-.3-.3-.4 1.8-6.7 4.2-20.6-4.1-30-.7-.9-5.4-6.5-15.4-9.5l-4.8-1.6c-7.8-2.4-12.8-3-13-3-.4 0-.7 0-1.1.1-.3.1-1.2.3-1.9.2-1.9-.3-4.7.7-5.2.9-.6.3-15.8 6.3-20.4 20.5-.4 1.2-2.3 7.2.2 21.9-.3.3-.6.6-.9 1" style="fill:#4d4d4d"/><path d="m53.4 128l.1.1-.1-.3-.1.3z"/><g style="fill:#3498db"><path d="m65.2 139.4l10.3 15.7v-13.4c-6.2-.1-10.3-2.3-10.3-2.3"/><path d="m65.2 160.1l10.2 38.4v-42.6z"/></g><g style="fill:#4d4d4d"><path d="m50.1 131.8c.2-.2.4-.3.7-.5-.2.1-.4.3-.7.5"/><path d="m96.7 128.7l.1.1-.1-.1"/><path d="m51 131.1c.1-.1.3-.2.4-.4-.1.1-.2.2-.4.4"/><path d="m53.1 128.7c.1-.2.2-.4.2-.5 0 .1-.1.3-.2.5"/><path d="m52.9 156.1l.5-28-.5 28"/><path d="m72.4 200.2l-5.1-11.5-23.3-31.3 6.1-25.7c-7.2 5.3-23.6 10.3-23.6 10.3-7.3 2.8-10.4 7-10.4 7-.1.1-.1.2-.2.4 11.4 23.6 31.7 42 56.5 50.8"/><path d="m52.1 130c-.1.2-.3.3-.5.5.2-.2.4-.3.5-.5"/><path d="m52.2 129.9c.2-.2.3-.4.4-.5-.1.2-.2.4-.4.5"/><path d="m52.8 129.2c.1-.1.2-.3.3-.4-.2.2-.2.3-.3.4"/><path d="m133.6 149.2c0 0-.2-.3-.6-.7-1.2-1.3-4.3-4.3-9.9-6.4 0 0-.6-.2-1.6-.5-.5-.2-1-.5-1.5-.7-6-2.7-11.3-4.4-11.3-4.4-1.3-.5-2.5-.9-3.6-1.4-2.9-1.4-5.5-3-7.1-4.6l10.3 25.2-24.2 33.3-6 13.1c8.9 2.6 18.2 3.9 27.9 3.9 14.1 0 27.4-2.9 39.6-8.1-.4-6.6-1.8-21.9-5.8-34.9-1.7-5.2-3.7-10-6.2-13.8"/></g><g style="fill:#8ea3b3"><path d="m67.3 188.8l-14.5-32.7.5-28c-.1.2-.1.4-.2.5l-.1.2c-.1.1-.2.3-.3.4l-.1.2c-.1.2-.3.4-.4.5l-.1.1c-.1.2-.3.3-.5.5l-.2.2c-.1.1-.3.2-.4.4l-.2.2c-.2.2-.4.3-.7.5l-6.1 25.7 23.3 31.3"/><path d="m108.6 155.8l-10.4-25.2c-.4-.4-.8-.8-1.1-1.2-.1-.2-.2-.4-.3-.5l-.1-.1c-.1-.2-.3-.4-.3-.6l3.3 26.7h.2l-15.5 34.1 24.2-33.2"/></g><path d="m75.4 141.6v13.4l.4.7 10.7-16.4c-4 1.8-7.9 2.4-11.1 2.3" style="fill:#3498db"/><path d="m86.5 139.4c-3.9 1.7-7.6 2.2-10.8 2.2-.1 0-.2 0-.4 0v13.4l.4.7 10.8-16.3" style="fill:#49b7eb"/><path d="m75.8 155.8l-.4.1v42.6l.4 1.7 10.7-40.1-10.7-4.3" style="fill:#3498db"/><path d="m75.8 155.8l-.4.1v42.6l.4 1.7 10.7-40.1-10.7-4.3" style="fill:#49b7eb"/><circle cx="172.4" cy="24.6" r="15.6" style="fill:#fff"/><path d="m188 24.6h-1c0 4-1.6 7.7-4.3 10.3-2.6 2.6-6.3 4.3-10.3 4.3-4 0-7.7-1.6-10.3-4.3-2.6-2.6-4.3-6.3-4.3-10.3 0-4 1.6-7.7 4.3-10.3 2.6-2.6 6.3-4.3 10.3-4.3 4 0 7.7 1.6 10.3 4.3 2.6 2.6 4.3 6.3 4.3 10.3h1 1c0-9.2-7.4-16.6-16.6-16.6-9.2 0-16.6 7.4-16.6 16.6 0 9.2 7.4 16.6 16.6 16.6 9.2 0 16.6-7.4 16.6-16.6h-1" style="fill:#e6e6e6"/><path d="m736.4 362h-186" style="fill:#fff"/><path d="m736.4 361h-186v2h186" style="fill:#e6e6e6"/><path d="m172.4 689h141" style="fill:#fff"/><path d="m172.4 690h141v-2h-141" style="fill:#e6e6e6"/><path d="m106.4 490v188" style="fill:#fff"/><path d="m105.4 490v188h2v-188" style="fill:#e6e6e6"/><path d="m211 774.2c0 58-47 105-105 105-58 0-105-47-105-105s47-105 105-105c58 0 105 47 105 105" style="fill:#ccc"/><g style="fill:#e6e6e6"><path d="m211 774.2h-1c0 28.7-11.6 54.7-30.5 73.5-18.8 18.8-44.8 30.5-73.5 30.5-28.7 0-54.7-11.6-73.5-30.5-18.9-18.8-30.5-44.8-30.5-73.5 0-28.7 11.6-54.7 30.5-73.5 18.8-18.8 44.8-30.5 73.5-30.5 28.7 0 54.7 11.6 73.5 30.5 18.8 18.8 30.5 44.8 30.5 73.5h1 1c0-58.5-47.5-106-106-106-58.5 0-106 47.5-106 106 0 58.5 47.5 106 106 106 58.5 0 106-47.5 106-106h-1"/><path d="m206 774.2c0 55.2-44.8 100-100 100s-100-44.8-100-100c0-55.2 44.8-100 100-100s100 44.7 100 100"/></g><path d="m122.5 833.1h-81.5c-2.9 0-5.2-2.3-5.2-5.2v-109.9c0-2.9 2.3-5.2 5.2-5.2h81.5c2.9 0 5.2 2.3 5.2 5.2v110c0 2.8-2.3 5.1-5.2 5.1" style="fill:#fff"/><g style="fill:#ccc"><path d="m41.4 722h46v4h-46z" style="clip-path:url(#SVGID_4_)"/><path d="m77.1 733h-35.7v4h33c.2-1.6 1.3-3.1 2.7-4"/><path d="m74.4 745h-33v3h33v-3"/><path d="m74.4 755h-33v4h33v-4"/><path d="m69.4 767h-28v3h26v-1.9l2-1.1"/><path d="m122.4 722h-32v10h32v-10"/><path d="m67.4 777h-26v48h26v-3.6-44.4"/></g><path d="m70.4 825h-3v1.5c0 .2.5.3.5.5l.2-.1c0 2.1 1.4 4 3.2 5.1-.6-.9-.9-2-.9-2.9v-4.1m1.8-55h-4.8v7h3v-6.3l6 3.4v-.3l-5.5-3.1 1.3-.7m5.3-11h-3.1v5.2l-5 2.8h7.9l.2-.1v-7.9m0-11h-3.1v7h3.1v-7m1.1-11h-4.2c0 .2 0 .4 0 .5v7.5h3.1v-4.9c0-1.1.4-2.2 1.1-3.1m11.8-5h-10.2c-1.1 0-2.2.4-3.1 1h4.3v2.1c.4-.1.9-.2 1.4-.2h7.6v-2.9m37.3 0h-5.3v2.9h5.3v-2.9" style="clip-path:url(#SVGID_6_);fill:#dadbdb"/><g style="fill:#aeafaf"><path d="m81.4 733h-4.3c-1.4.9-2.4 2.4-2.6 4h4.2c.7-.9 1.7-1.6 2.8-1.9v-2.1" style="clip-path:url(#SVGID_6_)"/><path d="m77.5 745h-3.1v3h3.1v-3" style="clip-path:url(#SVGID_6_)"/><path d="m77.5 755h-3.1v4h3.1v-4" style="clip-path:url(#SVGID_6_)"/><path d="m77.3 767h-7.9l-2 1.1v1.9h4.8l5.1-3" style="clip-path:url(#SVGID_6_)"/><path d="m122.4 732h-32v2.9h32v-2.9" style="clip-path:url(#SVGID_6_)"/><path d="m70.4 777h-3v44.4 3.6h3v-48" style="clip-path:url(#SVGID_6_)"/></g><path d="m123.3,800.8-52.4-30.1 52.4-30.6 52.4,30.6-52.4,30.1" style="fill:#0d8c79"/><path d="m169.5 804.7h-92v-64.5c0-2.9 2.3-5.2 5.2-5.2h81.5c2.9 0 5.2 2.3 5.2 5.2v64.5" style="fill:#fff"/><g style="fill:#84bf00"><path d="m83.4 745h46v3h-46z"/><path d="m83.4 755h39v4h-39z"/><path d="m83.4 767h43v3h-43z"/><path d="m163.4 782h-80v-5h80v5"/><path d="m163.4 792h-80v-3h80v3"/></g><path d="m132.4 745h31v25h-31z" style="fill:#3498db"/><path d="m76.4 771.1v2l1.1.7v-2.2l-1.1-.5" style="fill:#0b7868"/><path d="m135.4 792h-26.1l13 7.5 13.1-7.5m-33.6-10h-10l12.2 7h14l-16.2-7m51.1 0h-10.5l-16.1 7h14.3l12.3-7m-75.4-10.4v2.2l5.9 3.4v-.2h6.8l-12.7-5.4m90.9-1l-14.6 6.4h7.8l6.8-3.9v1.6-4.1" style="fill:#dadbdb"/><g style="fill:#71a400"><path d="m90.2 777h-6.8v.2l8.4 4.8h10l-11.6-5m71.4 0h-7.8l-11.5 5h10.5l8.8-5"/><path d="m140.6 789h-14.3l-4.1 1.8-4.1-1.8h-14l5.2 3h26.1l5.2-3"/></g><path d="m155.7 782h-2.8l-12.2 7h2.8l12.2-7m12.7-8.9l-6.8 3.9h1.8v.6l5-2.9v-1.6" style="fill:#989999"/><path d="m163.4 777h-1.8l-8.7 5h2.8l7.7-4.4v-.6" style="fill:#4f7200"/><path d="m76.4 773.8v.3l1.1.7v-.3l-1.1-.7" style="fill:#828383"/><path d="m76.4 773.1v.7l1.1.7v-.7l-1.1-.7" style="fill:#085448"/><path d="m91.8 782h-1.8l12.2 7h1.8l-12.2-7m-14.3-8.2v.7.3l5.9 3.4v-1l-5.9-3.4" style="fill:#989999"/><path d="m83.4 777.2v1l6.7 3.8h1.7l-8.4-4.8" style="fill:#4f7200"/><path d="m138.2 792h-2.8l-13.1 7.5-13-7.5h-1.8l15.3 8.8 15.4-8.8" style="fill:#989999"/><path d="m104.1 789h-1.8l5.2 3h1.8l-5.2-3m39.3 0h-2.8l-5.2 3h2.8l5.2-3" style="fill:#4f7200"/><path d="m122.8 800.8l-52.4-30.1v58.4c0 3.2 3.9 6.9 7.1 6.9h92.6c3.2 0 5.3-3.6 5.3-6.9v-58.4l-52.6 30.1" style="fill:#fcf6e3"/><g style="fill:#eae4d3"><path d="m122.7 800.8l-52.3 23.2v5.2c0 1.2.5 2.4 1.4 3.5-.5-.9-.8-1.9-.8-2.9l52.4-28.7-.7-.3"/><path d="m172.9 835c-.9.6-1.9 1-3.1 1h-92.3 92.6c1.1 0 2-.4 2.8-1m-49.2-33.8l51.7 28.3c0-.1 0-.2 0-.4v-5.1l-51.7-22.8"/><path d="m123.3 801l.4.2-.4-.2"/></g><g style="fill:#d6d6d6"><path d="m175.4 829.5c-.1 2.1-1 4.3-2.5 5.5 1.7-1.2 2.8-3.2 2.8-5.4l-.3-.1"/><path d="m72.1 833.1c1.1 1.7 3 2.9 5.1 2.9h.3c-1.8 0-3.9-1.2-5.4-2.9"/></g><path d="m71.8 832.7c.1.2.2.3.3.5h.1c-.2-.2-.3-.4-.4-.5" style="fill:#ededed"/><path d="m123.3 801l-52.4 28.7c0 1 .3 2 .8 2.9 1.4 1.9 3.7 3.3 5.8 3.3h92.3c1.1 0 2.2-.4 3.1-1 1.5-1.2 2.4-3.4 2.5-5.5l-51.7-28.3-.4-.1" style="fill:#d9d4c4"/><path d="m109.7 824.8c.6-.1 1.2.3 1.4.9l1.7-.3c0-.7.4-1.2 1-1.4.6-.1 1.2.3 1.4.9l1.8-.3-.3-1.4c-.7 0-1.3-.4-1.4-1-.1-.6.3-1.2 1-1.4l-.3-1.6c-.7 0-1.3-.4-1.4-1-.1-.6.3-1.2 1-1.4l-.2-1.4c-.7 0-1.3-.4-1.4-1-.1-.6.3-1.2 1-1.4l-.3-1.7c-.7 0-1.3-.4-1.4-1-.1-.6.3-1.2 1-1.4l-.2-1.3c-.7 0-1.3-.4-1.4-1-.1-.6.3-1.2 1-1.4l-.3-1.7c-.7 0-1.3-.4-1.4-1-.1-.6.3-1.2 1-1.4l-.3-1.5-2 .4c0 .7-.4 1.2-1 1.4-.6.1-1.2-.3-1.4-.9l-1.6.3c.1.7-.4 1.4-1 1.5-.7.1-1.3-.4-1.5-1.1l-1.5.3c.1.7-.4 1.4-1 1.5-.6.1-1.3-.3-1.5-1l-1.3.2v.1c.1.8-.3 1.5-1 1.6-.7.1-1.4-.4-1.5-1.2v-.1l-1.6.3c.1.7-.4 1.4-1 1.5-.7.1-1.3-.3-1.5-1l-1.7.3c0 .7-.4 1.3-1 1.4-.6.1-1.2-.3-1.5-1l-1.7.3c.1.7-.4 1.4-1 1.5s-1.3-.4-1.5-1.1l-1.5.3c.1.7-.4 1.4-1 1.5-.7.1-1.3-.4-1.5-1.1l-1.7.3.2 1.3.2-.1c.8-.1 1.5.3 1.7 1 .1.7-.4 1.3-1.2 1.5h-.2l.3 1.6.2-.1c.8-.1 1.5.3 1.7 1 .1.7-.4 1.3-1.2 1.5h-.2l.2 1.3.2-.1c.8-.1 1.5.3 1.7 1 .1.7-.4 1.3-1.2 1.5h-.2l.3 1.6.2-.1c.8-.1 1.5.3 1.7 1 .1.7-.4 1.3-1.2 1.5h-.2l.2 1.4h.2c.8-.1 1.5.3 1.7 1 .1.7-.4 1.3-1.2 1.5h-.2l.3 1.6h.2c.8-.1 1.5.3 1.7 1 .1.7-.4 1.3-1.2 1.5h-.2l.3 1.6 1.7-.3c-.1-.7.4-1.4 1-1.5.6-.1 1.3.3 1.5 1l1.7-.3c-.1-.7.4-1.4 1-1.5.6-.1 1.3.3 1.5 1l1.5-.3c-.1-.7.4-1.4 1-1.5.6-.1 1.3.3 1.5 1l1.7-.3c-.1-.7.4-1.4 1-1.5.7-.1 1.3.3 1.5 1l1.4-.3c-.1-.7.4-1.4 1-1.5.7-.1 1.3.3 1.5 1l1.7-.3c-.1-.7.4-1.4 1-1.5.6-.1 1.3.3 1.5 1l1.6-.3c-.6-.2-.2-.8.4-.9" style="fill:#3498db"/><g style="fill:#fff"><path d="m98.9 823.3c-2.6.5-4.7.1-6.4-1-1.7-1.1-2.7-2.8-3.1-5.2-.3-1.7-.2-3.2.3-4.7.5-1.5 1.3-2.7 2.6-3.7 1.2-1 2.7-1.7 4.5-2 1.5-.3 2.9-.2 4.1.2 1.3.4 2.3 1.1 3.2 2.1.8 1 1.4 2.2 1.6 3.7v.1c.2.9.2 1.8 0 2.7-.2.8-.5 1.6-1 2.1-.5.6-1.1.9-1.8 1h-.1c-.5.1-1 0-1.4-.1s-.8-.4-1-.8h-.2c-.6 1-1.4 1.6-2.6 1.8-1.2.2-2.1 0-3-.6-.8-.6-1.3-1.5-1.6-2.8-.3-1.4 0-2.6.8-3.7.7-1 1.8-1.7 3.3-1.9.6-.1 1.2-.2 1.9-.2.7 0 1.3 0 1.8.1l.6 5c.2.9.5 1.4 1 1.3.4-.1.7-.5.9-1.1.1-.7.1-1.5-.1-2.5v-.1c-.2-1-.6-1.9-1.2-2.7-.6-.7-1.3-1.3-2.2-1.6-.9-.3-1.8-.4-2.8-.2h-.1c-1.4.2-2.5.7-3.4 1.5-.9.7-1.5 1.7-1.9 2.8-.3 1.1-.4 2.4-.2 3.8.3 1.9 1.1 3.2 2.3 4 1.2.8 2.7 1.1 4.6.7 1.6-.3 3.1-.9 4.7-1.8l.3 1.9c-1.1 1-2.7 1.6-4.4 1.9m-1.3-11c-.8.1-1.4.5-1.8 1.1-.4.6-.5 1.4-.3 2.3.3 1.4 1 2 2.1 1.8.6-.1 1-.4 1.3-.9.2-.5.3-1.2.2-2.2l-.3-2.3c-.3.1-.7.2-1.2.2"/><path d="m299.4 1h600v175h-600z"/></g><path d="m899.4 176v-1h-599v-173h598v174h1v-1 1h1v-176h-602v177h602v-1z" style="fill:#e6e6e6"/><path d="m1.4 313h600v175h-600z" style="fill:#fff"/><path d="m1.4 488v1h601v-177h-602v177h1v-1h1v-174h598v173h-599v1h1z" style="fill:#e6e6e6"/><path d="m299.4 665h600v175h-600z" style="fill:#fff"/><path d="m899.4 840v-1h-599v-173h598v174h1v-1 1h1v-176h-602v177h602v-1z" style="fill:#e6e6e6"/><circle cx="794.8" cy="173.4" r="15.6" style="fill:#fff"/><path d="m794.8 189v-1c-4 0-7.7-1.6-10.3-4.3-2.6-2.6-4.3-6.3-4.3-10.3 0-4 1.6-7.7 4.3-10.3 2.6-2.6 6.3-4.3 10.3-4.3 4 0 7.7 1.6 10.3 4.3 2.6 2.6 4.3 6.3 4.3 10.3 0 4-1.6 7.7-4.3 10.3-2.6 2.6-6.3 4.3-10.3 4.3v1 1c9.2 0 16.6-7.4 16.6-16.6 0-9.2-7.4-16.6-16.6-16.6-9.2 0-16.6 7.4-16.6 16.6 0 9.2 7.4 16.6 16.6 16.6v-1" style="fill:#e6e6e6"/><circle cx="736.8" cy="361.4" r="15.6" style="fill:#fff"/><path d="m736.8 377v-1c-4 0-7.7-1.6-10.3-4.3-2.6-2.6-4.3-6.3-4.3-10.3 0-4 1.6-7.7 4.3-10.3 2.6-2.6 6.3-4.3 10.3-4.3 4 0 7.7 1.6 10.3 4.3 2.6 2.6 4.3 6.3 4.3 10.3 0 4-1.6 7.7-4.3 10.3-2.6 2.6-6.3 4.3-10.3 4.3v1 1c9.2 0 16.6-7.4 16.6-16.6 0-9.2-7.4-16.6-16.6-16.6-9.2 0-16.6 7.4-16.6 16.6 0 9.2 7.4 16.6 16.6 16.6v-1" style="fill:#e6e6e6"/><circle cx="172.4" cy="689.8" r="15.6" style="fill:#fff"/><path d="m188 689.8h-1c0 4-1.6 7.7-4.3 10.3-2.6 2.6-6.3 4.3-10.3 4.3-4 0-7.7-1.6-10.3-4.3-2.6-2.6-4.3-6.3-4.3-10.3 0-4 1.6-7.7 4.3-10.3 2.6-2.6 6.3-4.3 10.3-4.3 4 0 7.7 1.6 10.3 4.3 2.6 2.6 4.3 6.3 4.3 10.3h1 1c0-9.2-7.4-16.6-16.6-16.6-9.2 0-16.6 7.4-16.6 16.6 0 9.2 7.4 16.6 16.6 16.6 9.2 0 16.6-7.4 16.6-16.6h-1" style="fill:#e6e6e6"/><circle cx="106.4" cy="489.4" r="15.6" style="fill:#fff"/><path d="m106.4 505v-1c-4 0-7.7-1.6-10.3-4.3-2.6-2.6-4.3-6.3-4.3-10.3 0-4 1.6-7.7 4.3-10.3 2.6-2.6 6.3-4.3 10.3-4.3 4 0 7.7 1.6 10.3 4.3 2.6 2.6 4.3 6.3 4.3 10.3 0 4-1.6 7.7-4.3 10.3-2.6 2.6-6.3 4.3-10.3 4.3v1 1c9.2 0 16.6-7.4 16.6-16.6 0-9.2-7.4-16.6-16.6-16.6-9.2 0-16.6 7.4-16.6 16.6 0 9.2 7.4 16.6 16.6 16.6v-1" style="fill:#e6e6e6"/></svg>