<?xml version="1.0" encoding="utf-8"?>
<!-- Generator: Adobe Illustrator 18.0.0, SVG Export Plug-In . SVG Version: 6.00 Build 0)  -->
<!DOCTYPE svg PUBLIC "-//W3C//DTD SVG 1.1//EN" "http://www.w3.org/Graphics/SVG/1.1/DTD/svg11.dtd">
<svg version="1.1" id="Layer_1" xmlns="http://www.w3.org/2000/svg" xmlns:xlink="http://www.w3.org/1999/xlink" x="0px" y="0px"
	 width="900.8px" height="880.2px" viewBox="0 0 900.8 880.2" enable-background="new 0 0 900.8 880.2" xml:space="preserve">
<g>
	<line fill="#FFFFFF" x1="794.4" y1="174" x2="794.4" y2="362"/>
	<polyline fill="#E6E6E6" points="793.4,174 793.4,362 795.4,362 795.4,174 	"/>
	<path fill="#CCCCCC" d="M899.8,451.2c0,58-47,105-105,105c-58,0-105-47-105-105c0-58,47-105,105-105
		C852.8,346.2,899.8,393.2,899.8,451.2"/>
	<path fill="#E6E6E6" d="M899.8,451.2h-1c0,28.7-11.6,54.7-30.5,73.5c-18.8,18.8-44.8,30.5-73.5,30.5c-28.7,0-54.7-11.6-73.5-30.5
		c-18.8-18.8-30.5-44.8-30.5-73.5c0-28.7,11.6-54.7,30.5-73.5c18.8-18.8,44.8-30.5,73.5-30.5c28.7,0,54.7,11.6,73.5,30.5
		c18.8,18.8,30.5,44.8,30.5,73.5H899.8h1c0-58.5-47.5-106-106-106c-58.5,0-106,47.5-106,106c0,58.5,47.5,106,106,106
		c58.5,0,106-47.5,106-106H899.8z"/>
	<polygon fill="#E6E6E6" points="782.4,481 785.4,481 785.4,435 782.4,435 782.4,434 782.4,432 765.4,432 765.4,434 765.4,435 
		763.4,435 763.4,481 765.4,481 765.4,484 765.4,486 778.4,486 782.4,486 782.4,484 	"/>
	<polyline fill="#E6E6E6" points="742,486 747.4,486 747.4,484 747.4,481 751.4,481 751.4,435 747.4,435 747.4,434 747.4,432 
		731.4,432 731.4,434 731.4,435 729.4,435 729.4,481 731.4,481 731.4,484 731.4,486 735.4,486 742,486 	"/>
	<path fill="#E6E6E6" d="M889.5,419l-0.7,7.9l-0.7,7.5l-0.6,6.1l-0.5,5.1l-0.1,0.8l-0.4,4.3c-0.1,1.1-0.5,2.1-1.2,2.9
		c-0.2,0.3-0.5,0.5-0.7,0.7c-0.3,0.2-0.5,0.4-0.8,0.5c-0.2,0.1-0.3,0.1-0.5,0.2c-0.1,0.1-0.3,0.1-0.4,0.2c-0.2,0.1-0.4,0.1-0.7,0.1
		c-0.1,0-0.2,0-0.3,0.1c-0.2,0-0.5,0-0.7,0c0,0-0.1,0-0.1,0c-0.1,0-0.1,0-0.2,0l0,0l0,0l0,0l-4.4-0.4l1.6,9.6l1.3,8.1l1.1,6.6
		l1.8,10.9c0,0.3,0.1,0.6,0.1,0.9l0,0.1l0,0.1c0,0.3,0,0.5-0.1,0.8l0,0.1c0,0.2-0.1,0.5-0.2,0.7l0,0.1c-0.1,0.2-0.2,0.5-0.3,0.7
		l-0.1,0.2c-0.1,0.2-0.3,0.5-0.4,0.7c-0.8,1.1-2.1,2-3.6,2.2l0,0l-35,5.7l-31.1,5.1l-3.3,0.5l-1.5,0.2c-0.3,0-0.5,0.1-0.8,0.1
		l-0.1,0l-0.1,0c-0.2,0-0.4,0-0.5,0l-0.2,0c-0.2,0-0.5-0.1-0.7-0.2l-0.1,0l0,0l-0.1-0.1c-0.2-0.1-0.5-0.2-0.7-0.3l-0.1,0l0,0
		c-1.6-0.8-2.8-2.3-3.1-4.2l-0.9-5.7h-17.1h-4h-43h-3.2l-0.8,1v-1h-21v-12h5v-2v-3h2v-46h-2v-1v-2h-8v-4v-4H707l50.2-33.3l50.2,33.3
		h-0.9v4v4h-7v2v1h-2v21.2c0.3-0.1,0.6-0.2,0.9-0.2l31.9-5.2l-10.8-1l-3.1-0.3l-1.3-0.1c-0.8-0.1-1.5-0.3-2.1-0.7
		c-1.7-1-2.7-2.9-2.5-5l0.4-4.3l1.1-12.3l2-21.8c0.3-2.9,2.8-5,5.6-4.7l4.3,0.4h0l60.5,5.6c-16.4-32.9-50.3-55.4-89.5-55.4
		c-55.2,0-100,44.8-100,100c0,55.2,44.8,100,100,100c55.2,0,100-44.8,100-100C894.8,439.9,892.9,429.1,889.5,419"/>
	<path fill="#2A7CB3" d="M883.8,454.9c-0.2,0.1-0.3,0.1-0.5,0.2C883.5,455,883.7,454.9,883.8,454.9z"/>
	<path fill="#2A7CB3" d="M883,455.2c-0.2,0.1-0.4,0.1-0.7,0.1C882.5,455.3,882.7,455.3,883,455.2z"/>
	<path fill="#2A7CB3" d="M882,455.4c-0.2,0-0.5,0-0.7,0C881.5,455.5,881.8,455.5,882,455.4z"/>
	<polygon fill="#2A7CB3" points="889.5,419 889.5,419 888.8,426.9 	"/>
	<path fill="#2A7CB3" d="M886.6,450.7c-0.1,1.1-0.5,2.1-1.2,2.9C886,452.8,886.5,451.8,886.6,450.7l0.4-4.3L886.6,450.7z"/>
	<path fill="#2A7CB3" d="M823.9,401l-4.3-0.4c-2.8-0.3-5.4,1.9-5.6,4.7l-2,21.8l37.3,3.5C839.7,421.5,831.2,411.7,823.9,401z"/>
	<path fill="#2A7CB3" d="M876.5,455.1l4.4,0.4l0,0l0,0c-1.6-1.1-3.3-2.2-4.9-3.3L876.5,455.1z"/>
	<path fill="#2A7CB3" d="M865.4,444.4l-54.6-5.1l-0.4,4.3c-0.2,2.1,0.9,4,2.5,5c0.6,0.4,1.3,0.6,2.1,0.7l1.3,0.1l3.1,0.3l10.8,1
		l35.8-5.8C865.8,444.8,865.6,444.6,865.4,444.4z"/>
	<path fill="#4395CC" d="M823.9,401c7.3,10.7,15.8,20.6,25.3,29.5l-37.3-3.5l-1.1,12.3l54.6,5.1c0.2,0.2,0.4,0.3,0.7,0.5l3.1-0.5
		c1.5-0.2,2.9,0.1,4.1,1c0.5,0.3,0.9,0.8,1.3,1.3l0,0l0,0c0.1,0.1,0.2,0.3,0.3,0.5l0,0.1c0.1,0.1,0.2,0.3,0.2,0.4l0.1,0.1
		c0.1,0.1,0.1,0.3,0.2,0.4l0.1,0.2c0,0.1,0.1,0.2,0.1,0.3l0,0.1l0,0l0,0l0,0l0,0l0,0.1l0,0l0,0.1l0.5,3.1c1.6,1.1,3.3,2.2,4.9,3.3
		l0,0c0.1,0,0.2,0,0.3,0c0.2,0,0.5,0,0.7,0c0.1,0,0.2,0,0.3-0.1c0.2,0,0.5-0.1,0.7-0.1c0.1,0,0.3-0.1,0.4-0.2
		c0.2-0.1,0.3-0.1,0.5-0.2c0.3-0.2,0.6-0.3,0.8-0.5c0.3-0.2,0.5-0.5,0.7-0.7c0.7-0.8,1.1-1.8,1.2-2.9l0.4-4.3l0.1-0.8l0.5-5.1
		l0.6-6.1l0.7-7.5l0.7-7.9c-1.4-4.3-3.2-8.4-5.2-12.4L823.9,401L823.9,401z"/>
	<polyline fill="#BDBDBD" points="747.4,432 765.4,432 782.4,432 799.4,432 806.4,432 806.4,428 707.4,428 707.4,432 715.4,432 
		731.4,432 747.4,432 	"/>
	<path fill="#4D4D4D" d="M806.4,424h0.9l-50.2-33.3L707,424h0.4v4h99V424 M721.4,424v-2.3l35.5-23.6l35.5,23.6v2.3H721.4"/>
	<polyline fill="#4D4D4D" points="756.9,398.1 721.4,421.7 721.4,424 792.4,424 792.4,421.7 756.9,398.1 	"/>
	<g>
		<defs>
			<polyline id="SVGID_1_" points="756.9,398.1 721.4,421.7 721.4,424 792.4,424 792.4,421.7 756.9,398.1 			"/>
		</defs>
		<clipPath id="SVGID_2_">
			<use xlink:href="#SVGID_1_"  overflow="visible"/>
		</clipPath>
		<rect x="721.4" y="398.1" clip-path="url(#SVGID_2_)" fill="#727272" width="71" height="25.9"/>
	</g>
	<rect x="722.4" y="435" fill="#4D4D4D" width="7" height="46"/>
	<polyline fill="#4D4D4D" points="722.4,435 717.4,435 717.4,481 722.4,481 722.4,435 	"/>
	<polyline fill="#747470" points="722.4,435 717.4,435 717.4,481 722.4,481 722.4,435 	"/>
	<polyline fill="#BDBDBD" points="729.4,435 731.4,435 731.4,434 715.4,434 715.4,435 717.4,435 722.4,435 729.4,435 	"/>
	<polyline fill="#BDBDBD" points="731.4,432 715.4,432 715.4,434 731.4,434 731.4,432 	"/>
	<polyline fill="#8C8C8C" points="731.4,432 715.4,432 715.4,434 731.4,434 731.4,432 	"/>
	<polyline fill="#4D4D4D" points="731.4,493 731.4,490 731.4,488 731.4,486 715.4,486 710.4,486 710.4,498 731.4,498 731.4,495 
		731.4,493 	"/>
	<polyline fill="#BDBDBD" points="722.4,484 729.4,484 731.4,484 731.4,481 729.4,481 722.4,481 717.4,481 715.4,481 715.4,484 
		717.4,484 722.4,484 	"/>
	<polyline fill="#BDBDBD" points="731.4,484 729.4,484 722.4,484 717.4,484 715.4,484 715.4,486 731.4,486 731.4,484 	"/>
	<polyline fill="#8C8C8C" points="731.4,484 731.4,484 729.4,484 722.4,484 717.4,484 715.4,484 715.4,486 731.4,486 731.4,484 	"/>
	<rect x="757.4" y="435" fill="#4D4D4D" width="6" height="46"/>
	<polyline fill="#4D4D4D" points="757.4,435 751.4,435 751.4,481 757.4,481 757.4,435 	"/>
	<polyline fill="#747470" points="757.4,435 751.4,435 751.4,481 757.4,481 757.4,435 	"/>
	<polyline fill="#BDBDBD" points="747.4,435 751.4,435 757.4,435 763.4,435 765.4,435 765.4,434 747.4,434 747.4,435 	"/>
	<polyline fill="#BDBDBD" points="765.4,434 765.4,432 747.4,432 747.4,434 765.4,434 	"/>
	<polyline fill="#8C8C8C" points="765.4,432 747.4,432 747.4,434 765.4,434 765.4,432 	"/>
	<polyline fill="#BDBDBD" points="751.4,481 747.4,481 747.4,484 751.4,484 757.4,484 763.4,484 765.4,484 765.4,481 763.4,481 
		757.4,481 751.4,481 	"/>
	<polyline fill="#BDBDBD" points="757.4,484 751.4,484 747.4,484 747.4,486 765.4,486 765.4,484 763.4,484 757.4,484 	"/>
	<polyline fill="#8C8C8C" points="765.4,484 765.4,484 763.4,484 757.4,484 751.4,484 747.4,484 747.4,486 765.4,486 765.4,484 	"/>
	<path fill="#4D4D4D" d="M791.4,481h5.3l-3-18.5c-0.5-2.8,1.2-5.4,3.7-6.3V435h-6V481z"/>
	<polyline fill="#4D4D4D" points="791.4,481 791.4,435 785.4,435 785.4,481 791.4,481 	"/>
	<polyline fill="#747470" points="791.4,435 785.4,435 785.4,481 791.4,481 791.4,435 	"/>
	<polyline fill="#BDBDBD" points="782.4,435 785.4,435 791.4,435 797.4,435 799.4,435 799.4,434 782.4,434 782.4,435 	"/>
	<polyline fill="#BDBDBD" points="782.4,434 799.4,434 799.4,432 782.4,432 782.4,434 	"/>
	<polyline fill="#8C8C8C" points="799.4,432 782.4,432 782.4,434 799.4,434 799.4,432 	"/>
	<polyline fill="#4D4D4D" points="782.4,486 782.4,488 782.4,490 782.4,493 782.4,495 782.4,498 799.5,498 797.5,486 782.4,486 	"/>
	<polyline fill="#BDBDBD" points="785.4,481 782.4,481 782.4,484 785.4,484 791.4,484 797.2,484 796.7,481 791.4,481 785.4,481 	"/>
	<polyline fill="#BDBDBD" points="785.4,484 782.4,484 782.4,486 797.5,486 797.2,484 791.4,484 785.4,484 	"/>
	<polyline fill="#8C8C8C" points="797.2,484 797.2,484 791.4,484 785.4,484 782.4,484 782.4,486 797.5,486 797.2,484 	"/>
	<polyline fill="#BDBDBD" points="765.4,486 747.4,486 742,486 740.4,488 782.4,488 782.4,486 778.4,486 765.4,486 	"/>
	<polyline fill="#DDDDDD" points="740.4,488 738.7,490 782.4,490 782.4,488 740.4,488 	"/>
	<polyline fill="#BDBDBD" points="738.7,490 736.3,493 782.4,493 782.4,490 738.7,490 	"/>
	<polyline fill="#DDDDDD" points="736.3,493 734.7,495 782.4,495 782.4,493 736.3,493 	"/>
	<polyline fill="#BDBDBD" points="734.7,495 732.2,498 735.4,498 778.4,498 782.4,498 782.4,495 734.7,495 	"/>
	<polyline fill="#E6E6E6" points="731.4,499 732.2,498 731.4,498 731.4,499 	"/>
	<polyline fill="#948F8E" points="732.2,498 731.4,498 731.4,499 732.2,498 	"/>
	<polyline fill="#BDBDBD" points="740.4,488 742,486 735.4,486 731.4,486 731.4,488 740.4,488 	"/>
	<polyline fill="#7A7574" points="742,486 735.4,486 731.4,486 731.4,488 740.4,488 742,486 	"/>
	<polyline fill="#DDDDDD" points="738.7,490 740.4,488 731.4,488 731.4,490 738.7,490 	"/>
	<polyline fill="#8E8988" points="740.4,488 731.4,488 731.4,490 738.7,490 740.4,488 	"/>
	<polyline fill="#BDBDBD" points="736.3,493 738.7,490 731.4,490 731.4,493 736.3,493 	"/>
	<polyline fill="#7A7574" points="738.7,490 731.4,490 731.4,493 736.3,493 738.7,490 	"/>
	<polyline fill="#DDDDDD" points="736.3,493 731.4,493 731.4,495 734.7,495 736.3,493 	"/>
	<polyline fill="#8E8988" points="736.3,493 731.4,493 731.4,495 734.7,495 736.3,493 	"/>
	<polyline fill="#BDBDBD" points="731.4,495 731.4,498 732.2,498 734.7,495 731.4,495 	"/>
	<polyline fill="#7A7574" points="734.7,495 731.4,495 731.4,498 732.2,498 734.7,495 	"/>
	<path fill="#3498DB" d="M806.8,508.4c-0.3,0-0.5,0.1-0.8,0.1C806.3,508.4,806.6,508.4,806.8,508.4z"/>
	<path fill="#3498DB" d="M805.8,508.4c-0.2,0-0.4,0-0.5,0C805.5,508.4,805.7,508.4,805.8,508.4z"/>
	<path fill="#3498DB" d="M808.6,501.4l-0.7-4.1l0.9-0.1l1.9,2.4l0.1-0.1l-0.4-2.5l0.8-0.1l0.3,1.9c3.8-4.2,7.6-8.4,11.6-12.5l1.2-3
		l1-0.2l0.1,0.8c6.4-6.5,13.1-12.7,20.1-18.4l-0.1-0.2c-0.2-0.6-0.4-1.1-0.5-1.8c-0.7-4.2,2.2-8.1,6.3-8.8c1.6-0.3,3.2,0,4.6,0.7
		c1.1-1.2,2.6-2.1,4.4-2.4c0.9-0.2,1.8-0.1,2.7,0.1c3.8-2.3,7.6-4.5,11.6-6.4c-0.4-0.5-0.8-0.9-1.3-1.3c-1.2-0.8-2.6-1.2-4.1-1
		l-3.1,0.5l-35.8,5.8l-31.9,5.2c-0.3,0.1-0.6,0.1-0.9,0.2c-2.5,0.9-4.2,3.5-3.7,6.3l3,18.5l0.5,3l0.3,2l2,12l0.9,5.7
		c0.3,1.9,1.5,3.4,3.1,4.2c1.9-2.2,3.8-4.3,5.7-6.5L808.6,501.4z M810.8,490.1l-0.4,0.1v0l-1-3.1v0l-0.9,0.2l0-0.6
		c0.3-0.1,0.5-0.1,0.6-0.2c0.2-0.1,0.3-0.2,0.4-0.3c0.1-0.1,0.1-0.2,0.1-0.4l0-0.2l0.8-0.1l0.2,1l0.5,3.3l0,0.2L810.8,490.1z
		 M812.6,489.8c0-0.3,0-0.6,0.1-0.9l0-0.1c0.1-0.3,0.3-0.7,0.8-1.1c0.4-0.4,0.6-0.6,0.7-0.8c0.2-0.2,0.2-0.5,0.2-0.7
		c0-0.2-0.1-0.3-0.2-0.5s-0.3-0.2-0.5-0.1c-0.3,0-0.4,0.2-0.5,0.4c0,0.1,0,0.3,0,0.6l-0.9,0.1c0-0.4,0-0.7,0.1-1
		c0.1-0.2,0.2-0.4,0.4-0.5l0.3-0.2c0.2-0.1,0.3-0.2,0.5-0.2c0.5-0.1,0.9,0,1.2,0.2s0.5,0.6,0.6,1c0.1,0.3,0,0.7-0.2,1
		c-0.1,0.2-0.3,0.4-0.5,0.7l0,0l-0.3,0.3c-0.2,0.2-0.3,0.3-0.4,0.4c-0.1,0.1-0.1,0.2-0.2,0.3l2-0.3l0.1,0.8L812.6,489.8z
		 M818.6,485.3L818.6,485.3c0.1,0.4,0,0.6-0.1,0.8c-0.1,0.1-0.2,0.2-0.3,0.3c0.1,0,0.2,0,0.4,0.2c0.3,0.2,0.4,0.4,0.5,0.8
		c0.1,0.4,0,0.7-0.2,1.1c-0.2,0.3-0.6,0.5-1.1,0.6c-0.6,0.1-1.1,0-1.4-0.4c-0.2-0.2-0.3-0.5-0.4-0.8l0.9-0.1c0,0.2,0.1,0.3,0.2,0.4
		c0.1,0.2,0.4,0.3,0.6,0.2c0.2,0,0.3-0.1,0.4-0.3c0.1-0.1,0.1-0.3,0.1-0.6c0-0.3-0.2-0.5-0.5-0.5c-0.1,0-0.4,0-0.7,0l-0.1-0.6
		c0.3-0.1,0.5-0.1,0.6-0.2c0.1-0.1,0.2-0.2,0.2-0.4l0-0.2c0-0.2-0.1-0.3-0.2-0.4c-0.1-0.1-0.3-0.1-0.5-0.1c-0.2,0-0.4,0.1-0.4,0.3
		c-0.1,0.2-0.1,0.3-0.1,0.6l-0.8,0.1c0-0.2,0-0.4,0-0.7c0-0.2,0.1-0.4,0.3-0.6c0.1-0.1,0.2-0.2,0.4-0.3c0.2-0.1,0.3-0.1,0.6-0.2
		c0.4-0.1,0.8,0,1.1,0.2C818.4,484.7,818.5,484.9,818.6,485.3z M804.3,468.2l10.6-1.7c0.6-0.1,1.1,0.3,1.2,0.9l1.8,11.1
		c0.1,0.6-0.3,1.1-0.9,1.2l-10.6,1.7c-0.6,0.1-1.1-0.3-1.2-0.9l-1.8-11.1C803.3,468.8,803.7,468.3,804.3,468.2z M805.7,490.4
		c-0.1-0.2-0.3-0.4-0.4-0.6c-0.1-0.3-0.2-0.6-0.3-1c-0.1-0.8-0.1-1.4,0.1-1.8c0.2-0.4,0.5-0.7,1.1-0.8c0.6-0.1,1,0,1.3,0.4
		c0.3,0.3,0.5,0.9,0.6,1.5l0,0.2c0.1,0.8,0.1,1.4-0.1,1.8c-0.2,0.4-0.5,0.7-1.1,0.8C806.5,490.9,806,490.8,805.7,490.4z"/>
	<path fill="#3498DB" d="M854.2,458.2l0.9-0.1l0.2,0c0.8-0.5,1.5-1,2.3-1.6l-0.1,0l-0.7,0.1l-0.3,0.1l-0.8,0.1l-0.4,0.1l-0.6,0.1
		c0.1-0.1,0.1-0.2,0.2-0.3c-1-0.5-2.2-0.7-3.5-0.5c-3.3,0.5-5.6,3.7-5,7c0.1,0.4,0.2,0.8,0.3,1.2l0,0c2.4-1.9,4.8-3.7,7.3-5.5
		C854.1,458.7,854.2,458.5,854.2,458.2z"/>
	<path fill="#3498DB" d="M882.3,492.3c0,0.2-0.1,0.5-0.2,0.7C882.2,492.7,882.2,492.5,882.3,492.3z"/>
	<path fill="#3498DB" d="M882,493.1c-0.1,0.2-0.2,0.5-0.3,0.7C881.9,493.6,882,493.3,882,493.1z"/>
	<path fill="#3498DB" d="M882.4,491.4c0,0.3,0,0.5-0.1,0.8C882.3,491.9,882.3,491.6,882.4,491.4z"/>
	<path fill="#3498DB" d="M881.7,494c-0.1,0.2-0.3,0.5-0.4,0.7C881.4,494.4,881.5,494.2,881.7,494z"/>
	<path fill="#3498DB" d="M807.3,488.3c-0.1-0.5-0.2-1-0.3-1.2c-0.1-0.3-0.3-0.4-0.6-0.3c-0.3,0-0.4,0.2-0.5,0.5c0,0.3,0,0.7,0.1,1.2
		c0,0.3,0.1,0.5,0.2,0.7c0,0.2,0.1,0.4,0.2,0.5c0.1,0.3,0.3,0.4,0.6,0.3c0.3,0,0.4-0.2,0.5-0.5c0-0.3,0-0.6,0-1L807.3,488.3z"/>
	<path fill="#3498DB" d="M882.3,490.3c0,0.3,0.1,0.6,0.1,0.9C882.3,490.9,882.3,490.6,882.3,490.3z"/>
	<path fill="#3498DB" d="M809.3,501.1c0.3-0.3,0.6-0.7,0.9-1l-1.4-1.7L809.3,501.1z"/>
	<path fill="#3498DB" d="M824.2,485.1c0.2-0.2,0.3-0.3,0.5-0.5l-0.1-0.5L824.2,485.1z"/>
	<path fill="#3498DB" d="M805.1,508.3c-0.2,0-0.5-0.1-0.7-0.2C804.6,508.3,804.9,508.3,805.1,508.3z"/>
	<path fill="#3498DB" d="M804.2,508.1c-0.2-0.1-0.5-0.2-0.7-0.3C803.8,508,804,508,804.2,508.1z"/>
	<path fill="#3498DB" d="M874.5,446.7c0.1,0.1,0.2,0.3,0.3,0.5C874.8,447,874.7,446.8,874.5,446.7z"/>
	<path fill="#3498DB" d="M874.9,447.2c0.1,0.1,0.2,0.3,0.2,0.4C875,447.5,875,447.3,874.9,447.2z"/>
	<path fill="#3498DB" d="M875.2,447.8c0.1,0.1,0.1,0.3,0.2,0.4C875.3,448,875.2,447.9,875.2,447.8z"/>
	<path fill="#3498DB" d="M875.4,448.4c0,0.1,0.1,0.2,0.1,0.3C875.5,448.6,875.4,448.5,875.4,448.4z"/>
	<path fill="#5DADE2" d="M871.7,478.1c-0.2-0.1-0.3-0.2-0.5-0.1c-0.2,0-0.3,0.1-0.4,0.2c-0.2,0.2-0.2,0.4-0.2,0.7
		c0,0.2,0.1,0.4,0.3,0.6c0.2,0.1,0.3,0.2,0.5,0.2c0.2,0,0.3-0.1,0.4-0.3s0.1-0.4,0.1-0.6C872,478.4,871.9,478.2,871.7,478.1z"/>
	<path fill="#5DADE2" d="M853.3,491.8c-0.1-0.1-0.3-0.1-0.5-0.1c-0.2,0-0.3,0.1-0.4,0.2c-0.1,0.1-0.1,0.3-0.1,0.5l1.4-0.2
		C853.5,492,853.4,491.9,853.3,491.8z"/>
	<path fill="#5DADE2" d="M842,482c0.1,0.1,0.3,0.1,0.4,0.1c0.2,0,0.3-0.1,0.4-0.2c0.1-0.1,0.1-0.3,0.1-0.4c0-0.2-0.1-0.3-0.2-0.4
		s-0.3-0.1-0.4-0.1c-0.2,0-0.3,0.1-0.4,0.2c-0.1,0.1-0.1,0.3-0.1,0.4C841.8,481.8,841.9,482,842,482z"/>
	<path fill="#5DADE2" d="M845,494l-0.2,0.1l-0.2,0.1c-0.2,0.1-0.3,0.1-0.3,0.2c-0.1,0.1-0.2,0.2-0.1,0.4c0,0.1,0.1,0.2,0.2,0.3
		c0.1,0,0.2,0.1,0.3,0c0.2,0,0.3-0.1,0.5-0.2c0.1-0.1,0.2-0.3,0.1-0.6l0-0.3L845,494z"/>
	<path fill="#5DADE2" d="M832.1,486c0.2,0,0.3-0.1,0.4-0.3s0.1-0.4,0.1-0.6c0-0.3-0.1-0.5-0.3-0.6c-0.2-0.1-0.3-0.2-0.5-0.1
		c-0.2,0-0.3,0.1-0.4,0.2c-0.2,0.2-0.2,0.4-0.2,0.7c0,0.2,0.1,0.4,0.3,0.6C831.7,486,831.9,486,832.1,486z"/>
	<polygon fill="#5DADE2" points="810.8,499.4 810.7,499.6 810.9,499.8 	"/>
	<path fill="#5DADE2" d="M813.9,499.1l-0.2,0.1l-0.2,0.1c-0.2,0.1-0.3,0.1-0.3,0.2c-0.1,0.1-0.2,0.2-0.1,0.4c0,0.1,0.1,0.2,0.2,0.3
		c0.1,0,0.2,0.1,0.3,0c0.2,0,0.3-0.1,0.5-0.2c0.1-0.1,0.2-0.3,0.1-0.6l0-0.3L813.9,499.1z"/>
	<path fill="#5DADE2" d="M842.1,483.1c-0.1,0.1-0.1,0.3-0.1,0.6c0,0.2,0.1,0.4,0.3,0.5c0.1,0.1,0.3,0.1,0.5,0.1
		c0.2,0,0.4-0.1,0.5-0.3s0.1-0.3,0.1-0.6c0-0.2-0.1-0.4-0.3-0.5c-0.1-0.1-0.3-0.1-0.5-0.1C842.3,482.8,842.2,482.9,842.1,483.1z"/>
	<path fill="#5DADE2" d="M856,458l0.7-0.1l0.9-0.2l0.2,0l0.6-0.1l0.9-0.2c-0.1-0.2-0.3-0.3-0.4-0.4c-0.2-0.2-0.4-0.4-0.6-0.6
		l-0.7,0.1c-0.8,0.5-1.5,1-2.3,1.6L856,458z"/>
	<path fill="#5DADE2" d="M855.8,462.4l0.4-0.1l2.4-0.4l0.8-0.1l0.8-0.1l0.9-0.2c0-0.3,0-0.6-0.1-0.9l-0.1-0.2l-1,0.2l-0.8,0.1
		l-0.4,0.1l-0.4,0.1l-2.9,0.5l-0.8,0.1l-0.8,0.1c0-0.3-0.1-0.7-0.1-1l0.8-0.1l0.8-0.1l2.6-0.4l0.8-0.1l0.8-0.1l1-0.2
		c-0.1-0.4-0.3-0.8-0.5-1.1l-1,0.2l-0.8,0.1l-0.9,0.1l-1.9,0.3l0,0l-0.8,0.1l-0.8,0.1c0-0.1,0.1-0.2,0.1-0.4
		c-2.5,1.8-4.9,3.6-7.3,5.5c0.4,1,1,1.8,1.8,2.5c1.3,1.1,3,1.6,4.8,1.3c1.3-0.2,2.4-0.8,3.3-1.7l0.2,0l1-0.2l0.1,0l0.9-0.1l0.3,0
		l0-0.1c0.4-0.4,0.7-0.8,0.9-1.3l-0.6,0.1l-0.9,0.1l-1,0.2l0,0l-1,0.2l-0.9,0.2c-0.2-0.3-0.4-0.5-0.6-0.8l0.9-0.1l0.9-0.1l1.3-0.2
		l0.9-0.1l0.8-0.1l0.7-0.1c0.1-0.4,0.2-0.8,0.3-1.2l-0.8,0.1l-0.8,0.1l-0.8,0.1l-2.3,0.4l-0.8,0.1l-0.8,0.1c0-0.1-0.1-0.2-0.1-0.3
		c-0.1-0.2-0.2-0.5-0.2-0.7l0.8-0.1L855.8,462.4z"/>
	<path fill="#5DADE2" d="M845.6,481.9c0.1,0.1,0.3,0.2,0.5,0.1c0.1,0,0.2-0.1,0.3-0.2c0.2-0.2,0.2-0.4,0.2-0.7
		c0-0.3-0.1-0.5-0.3-0.6c-0.1-0.1-0.3-0.2-0.5-0.1c-0.2,0-0.3,0.1-0.4,0.2c-0.1,0.2-0.2,0.4-0.1,0.7
		C845.3,481.6,845.4,481.8,845.6,481.9z"/>
	<polygon fill="#5DADE2" points="863.2,479.8 864.3,479.6 864,477.7 	"/>
	<path fill="#5DADE2" d="M823.7,486.2l1.1-0.2l-0.2-1.5c-0.2,0.2-0.3,0.3-0.5,0.5L823.7,486.2z"/>
	<path fill="#5DADE2" d="M822.1,496.9c-0.1-0.1-0.3-0.1-0.5-0.1c-0.2,0-0.3,0.1-0.4,0.2c-0.1,0.1-0.1,0.3-0.1,0.5l1.4-0.2
		C822.4,497.1,822.3,496.9,822.1,496.9z"/>
	<path fill="#5DADE2" d="M831.8,496.2l-0.2,0.1l-0.2,0.1c-0.2,0.1-0.3,0.1-0.3,0.2c-0.1,0.1-0.2,0.2-0.1,0.4c0,0.1,0.1,0.2,0.2,0.3
		c0.1,0,0.2,0.1,0.3,0c0.2,0,0.3-0.1,0.5-0.2c0.1-0.1,0.2-0.3,0.1-0.6l0-0.3L831.8,496.2z"/>
	<path fill="#5DADE2" d="M875.6,449.1L875.6,449.1L875.6,449.1l0-0.1l0,0l0,0l0,0l0,0l0-0.1c0-0.1-0.1-0.2-0.1-0.3l-0.1-0.2
		c0-0.1-0.1-0.3-0.2-0.4l-0.1-0.1c-0.1-0.1-0.1-0.3-0.2-0.4l0-0.1c-0.1-0.2-0.2-0.3-0.3-0.5l0,0l0,0c-4,1.9-7.8,4.1-11.6,6.4
		c0.6,0.1,1.1,0.3,1.6,0.5c1.1,0.5,2,1.2,2.8,2.1c0.8,1,1.4,2.2,1.7,3.6c0.7,4.1-2.2,8.1-6.3,8.7c-1.6,0.3-3.2,0-4.6-0.7
		c-1.1,1.3-2.6,2.2-4.4,2.5c-2.4,0.4-4.8-0.4-6.4-2c-0.7-0.7-1.3-1.4-1.7-2.3c-7,5.7-13.7,11.9-20.1,18.4l0.3,2.1l0.5-0.1l0.1,0.7
		l-0.5,0.1l0.2,1l-0.9,0.1l-0.1-1l-1.7,0.3v0l-0.2-0.8l0-0.1c-4,4.1-7.8,8.3-11.6,12.5l0.3,2.2L811,501l-0.8-0.9
		c-0.3,0.3-0.6,0.6-0.9,0.9l0,0h0l-0.2,0.2c-1.9,2.2-3.8,4.4-5.7,6.6l0,0l0.1,0c0.2,0.1,0.4,0.2,0.7,0.3l0.1,0.1l0,0l0.1,0
		c0.2,0.1,0.5,0.1,0.7,0.2l0.2,0c0.2,0,0.4,0,0.5,0l0.1,0l0.1,0c0.3,0,0.5,0,0.8-0.1l1.5-0.2l3.3-0.5l31.1-5.1l35-5.7l0,0
		c1.5-0.2,2.7-1.1,3.6-2.2c0.2-0.2,0.3-0.4,0.4-0.7l0.1-0.2c0.1-0.2,0.2-0.5,0.3-0.7l0-0.1c0.1-0.2,0.1-0.5,0.2-0.7l0-0.1
		c0-0.3,0.1-0.5,0.1-0.8l0-0.1l0-0.1c0-0.3,0-0.6-0.1-0.9l-1.8-10.9l-1.1-6.6l-1.3-8.1l-1.6-9.6l-0.5-2.9L875.6,449.1z M814.4,500.5
		l-0.1-0.2l-0.1-0.2c-0.1,0.1-0.2,0.3-0.3,0.4c-0.2,0.1-0.3,0.2-0.6,0.2c-0.3,0-0.5,0-0.7-0.1c-0.2-0.1-0.3-0.3-0.4-0.6
		c-0.1-0.4,0-0.7,0.3-0.9c0.1-0.1,0.4-0.2,0.7-0.3l0.3-0.1c0.1,0,0.2-0.1,0.3-0.1c0.1-0.1,0.1-0.2,0.1-0.3c0-0.1-0.1-0.2-0.2-0.2
		c-0.1,0-0.2,0-0.4,0c-0.2,0-0.3,0.1-0.4,0.2c0,0.1-0.1,0.2-0.1,0.3l-0.8,0.1c0-0.3,0-0.5,0.1-0.7c0.2-0.3,0.5-0.5,1-0.6
		c0.3-0.1,0.6,0,0.9,0.1c0.3,0.1,0.4,0.3,0.5,0.7l0.2,1.4c0,0.1,0,0.2,0.1,0.3c0,0.1,0,0.2,0.1,0.2l0.1,0.1l0,0.1L814.4,500.5z
		 M819.3,499.7l-0.3-1.9c0-0.1,0-0.2-0.1-0.3c-0.1-0.1-0.2-0.2-0.4-0.1c-0.2,0-0.4,0.1-0.4,0.3c0,0.1,0,0.2,0,0.4l0.3,1.8l-0.8,0.1
		l-0.3-1.8c0-0.2-0.1-0.3-0.1-0.4c-0.1-0.1-0.2-0.2-0.4-0.2c-0.2,0-0.4,0.1-0.4,0.3c0,0.1,0,0.2,0,0.4l0.3,1.8l-0.8,0.1l-0.5-3
		l0.8-0.1l0.1,0.4c0.1-0.2,0.1-0.3,0.2-0.4c0.1-0.1,0.3-0.2,0.6-0.3c0.2,0,0.4,0,0.6,0.1c0.1,0.1,0.2,0.2,0.3,0.3
		c0.1-0.2,0.2-0.3,0.3-0.5c0.1-0.1,0.3-0.2,0.5-0.2c0.1,0,0.3,0,0.4,0c0.1,0,0.3,0.1,0.4,0.2c0.1,0.1,0.2,0.2,0.2,0.4
		c0,0.1,0.1,0.2,0.1,0.4l0.3,1.9L819.3,499.7z M823.2,498.7c-0.2,0.3-0.6,0.5-1.1,0.6c-0.4,0.1-0.8,0-1.1-0.2
		c-0.3-0.2-0.6-0.6-0.7-1.1c-0.1-0.5,0-0.9,0.2-1.3c0.2-0.3,0.6-0.5,1-0.6c0.3,0,0.5,0,0.7,0c0.2,0.1,0.4,0.2,0.6,0.4
		c0.2,0.2,0.3,0.4,0.3,0.6c0,0.1,0.1,0.3,0.1,0.6l-2.2,0.4c0.1,0.3,0.2,0.5,0.4,0.6c0.1,0.1,0.3,0.1,0.5,0c0.2,0,0.3-0.1,0.4-0.2
		c0.1-0.1,0.1-0.1,0.1-0.2l0.8-0.1C823.4,498.3,823.3,498.5,823.2,498.7z M848.7,480c0.2-0.1,0.3-0.2,0.4-0.3
		c0.1-0.1,0.1-0.2,0.1-0.4l0-0.2l0.8-0.1l0.7,4.6l-0.9,0.1l-0.5-3.1l-1.1,0.2l-0.1-0.6C848.4,480.1,848.6,480,848.7,480z
		 M844.6,480.3c0.2-0.3,0.6-0.6,1-0.6c0.7-0.1,1.2,0.1,1.6,0.7c0.2,0.3,0.4,0.8,0.4,1.3c0.1,0.6,0.1,1,0,1.4
		c-0.2,0.7-0.6,1.2-1.3,1.3c-0.3,0.1-0.7,0-1-0.2c-0.3-0.2-0.5-0.4-0.6-0.8l0.9-0.1c0,0.1,0.1,0.2,0.2,0.3c0.1,0.1,0.2,0.1,0.4,0.1
		c0.3,0,0.5-0.2,0.5-0.6c0-0.2,0-0.5,0-0.8c-0.1,0.1-0.1,0.2-0.2,0.3c-0.2,0.1-0.4,0.2-0.6,0.3c-0.4,0.1-0.7,0-1-0.2
		c-0.3-0.2-0.5-0.5-0.6-1C844.3,481.1,844.4,480.7,844.6,480.3z M841.1,480.8c0.2-0.3,0.5-0.4,1-0.5c0.5-0.1,0.8,0,1.1,0.2
		c0.3,0.2,0.5,0.5,0.5,0.8c0,0.1,0,0.3,0,0.5c0,0.2-0.2,0.4-0.4,0.5c0.2,0.1,0.4,0.2,0.6,0.4c0.1,0.2,0.2,0.4,0.3,0.7
		c0.1,0.4,0,0.7-0.3,1.1c-0.2,0.3-0.6,0.5-1.1,0.6c-0.5,0.1-0.9,0-1.2-0.2c-0.3-0.2-0.5-0.5-0.6-0.9c0-0.3,0-0.5,0.1-0.7
		s0.2-0.4,0.4-0.6c-0.2-0.1-0.4-0.2-0.5-0.4c-0.1-0.2-0.2-0.3-0.2-0.5C840.8,481.4,840.9,481.1,841.1,480.8z M836.6,481.2l0.1,0.7
		c-0.1,0.2-0.3,0.4-0.4,0.8c-0.2,0.4-0.3,0.8-0.4,1.1c-0.1,0.3-0.1,0.7-0.2,1.1c0,0.4,0,0.8,0,1l-0.9,0.2c-0.1-0.8,0-1.7,0.4-2.7
		c0.2-0.6,0.5-1,0.6-1.3l-2.3,0.4l-0.1-0.8L836.6,481.2z M830.3,482.9c0.1-0.2,0.2-0.4,0.4-0.6c0.2-0.2,0.4-0.3,0.7-0.3
		c0.4-0.1,0.8,0,1.1,0.2c0.3,0.2,0.5,0.4,0.6,0.8l-0.9,0.1l-0.1-0.2c-0.1-0.1-0.3-0.2-0.5-0.1c-0.3,0-0.5,0.2-0.5,0.6
		c0,0.2,0,0.5,0,0.8c0.1-0.1,0.2-0.3,0.3-0.4c0.1-0.1,0.3-0.1,0.5-0.2c0.4-0.1,0.8,0,1.1,0.3c0.3,0.2,0.5,0.6,0.6,1
		c0.1,0.4,0,0.8-0.2,1.2c-0.2,0.4-0.6,0.6-1.1,0.7c-0.6,0.1-1-0.1-1.4-0.5c-0.3-0.3-0.5-0.8-0.6-1.4c-0.1-0.3-0.1-0.6-0.1-0.9
		C830.1,483.5,830.2,483.2,830.3,482.9z M829.2,482.5l0.1,0.8l-1.9,0.3l0,1c0.1-0.1,0.2-0.2,0.3-0.2c0.1-0.1,0.3-0.1,0.5-0.1
		c0.4-0.1,0.7,0,1,0.2c0.3,0.2,0.5,0.6,0.6,1c0.1,0.4,0,0.8-0.2,1.2c-0.2,0.4-0.6,0.6-1.1,0.7c-0.4,0.1-0.8,0-1.1-0.2
		c-0.3-0.2-0.5-0.5-0.6-0.9l0.9-0.1c0.1,0.2,0.2,0.3,0.3,0.4c0.1,0.1,0.3,0.1,0.5,0.1c0.2,0,0.4-0.1,0.5-0.3s0.1-0.4,0.1-0.6
		c0-0.2-0.1-0.4-0.3-0.6c-0.1-0.1-0.3-0.2-0.5-0.2c-0.1,0-0.2,0-0.3,0.1c-0.1,0.1-0.2,0.2-0.3,0.3l-0.8,0.1l-0.1-2.6L829.2,482.5z
		 M827.1,498.4l-0.7-4.1l0.9-0.1l0.5,3.3l2-0.3l0.1,0.7L827.1,498.4z M832.3,497.5l-0.1-0.2l-0.1-0.2c-0.1,0.1-0.2,0.3-0.3,0.4
		c-0.2,0.1-0.3,0.2-0.6,0.2c-0.3,0-0.5,0-0.7-0.1c-0.2-0.1-0.3-0.3-0.4-0.6c-0.1-0.4,0-0.7,0.3-0.9c0.1-0.1,0.4-0.2,0.7-0.3l0.3-0.1
		c0.1,0,0.2-0.1,0.3-0.1c0.1-0.1,0.1-0.2,0.1-0.3c0-0.1-0.1-0.2-0.2-0.2c-0.1,0-0.2,0-0.4,0c-0.2,0-0.3,0.1-0.4,0.2
		c0,0.1-0.1,0.2-0.1,0.3l-0.8,0.1c0-0.3,0-0.5,0.1-0.7c0.2-0.3,0.5-0.5,1-0.6c0.3-0.1,0.6,0,0.9,0.1c0.3,0.1,0.4,0.3,0.5,0.7
		l0.2,1.4c0,0.1,0,0.2,0.1,0.3c0,0.1,0,0.2,0.1,0.2l0.1,0.1l0,0.1L832.3,497.5z M835.9,496.8c-0.2,0.2-0.5,0.4-1,0.5
		c-0.5,0.1-0.8,0-1.1-0.1c-0.3-0.2-0.4-0.4-0.5-0.7l0.8-0.1c0,0.1,0.1,0.2,0.2,0.3c0.1,0.1,0.3,0.1,0.6,0.1c0.2,0,0.3-0.1,0.4-0.1
		c0.1-0.1,0.1-0.1,0.1-0.2l-0.1-0.2c-0.1,0-0.4-0.1-0.9-0.1c-0.4,0-0.6-0.1-0.8-0.2c-0.2-0.1-0.3-0.3-0.3-0.5c0-0.3,0-0.5,0.2-0.8
		c0.2-0.2,0.5-0.4,0.9-0.4c0.4-0.1,0.7,0,1,0.1s0.4,0.3,0.5,0.7l-0.8,0.1c0-0.1-0.1-0.2-0.1-0.2c-0.1-0.1-0.3-0.1-0.5-0.1
		c-0.2,0-0.3,0.1-0.4,0.1L834,495c0,0.1,0.1,0.1,0.1,0.2c0.1,0,0.4,0.1,0.9,0.1c0.3,0,0.6,0.1,0.8,0.2c0.2,0.1,0.3,0.3,0.3,0.5
		C836.1,496.3,836.1,496.5,835.9,496.8z M837.8,496.7c-0.4,0.1-0.6,0-0.8-0.1c-0.1-0.1-0.2-0.2-0.2-0.4l-0.3-1.9l-0.4,0.1l-0.1-0.6
		l0.4-0.1l-0.1-0.8l0.8-0.1l0.1,0.8l0.5-0.1l0.1,0.6l-0.5,0.1l0.3,1.6c0,0.1,0,0.2,0.1,0.2s0.1,0,0.3,0l0.1,0l0.1,0l0.1,0.6
		L837.8,496.7z M842.2,495.9l-0.3-1.8c0-0.2-0.1-0.3-0.1-0.4c-0.1-0.1-0.3-0.2-0.5-0.2c-0.3,0-0.4,0.2-0.5,0.4c0,0.1,0,0.3,0,0.5
		l0.3,1.6l-0.8,0.1l-0.5-3l0.8-0.1l0.1,0.4c0.1-0.2,0.2-0.3,0.2-0.4c0.1-0.1,0.3-0.2,0.6-0.3c0.3-0.1,0.6,0,0.8,0.1s0.4,0.4,0.4,0.8
		l0.3,2L842.2,495.9z M845.5,495.4l-0.1-0.2l-0.1-0.2c-0.1,0.1-0.2,0.3-0.3,0.4c-0.2,0.1-0.3,0.2-0.6,0.2c-0.3,0-0.5,0-0.7-0.1
		c-0.2-0.1-0.3-0.3-0.4-0.6c-0.1-0.4,0-0.7,0.3-0.9c0.1-0.1,0.4-0.2,0.7-0.3l0.3-0.1c0.1,0,0.2-0.1,0.3-0.1c0.1-0.1,0.1-0.1,0.1-0.3
		c0-0.1-0.1-0.2-0.2-0.2c-0.1,0-0.2,0-0.4,0c-0.2,0-0.3,0.1-0.4,0.2c0,0.1-0.1,0.2-0.1,0.3l-0.8,0.1c0-0.3,0-0.5,0.1-0.7
		c0.2-0.3,0.5-0.5,1-0.6c0.3-0.1,0.6,0,0.9,0.1c0.3,0.1,0.4,0.3,0.5,0.7l0.2,1.4c0,0.1,0,0.2,0.1,0.3c0,0.1,0,0.2,0.1,0.2l0.1,0.1
		l0,0.1L845.5,495.4z M850.4,494.6l-0.3-1.9c0-0.1-0.1-0.2-0.1-0.3c-0.1-0.1-0.2-0.2-0.4-0.1c-0.2,0-0.4,0.2-0.4,0.3
		c0,0.1,0,0.2,0,0.4l0.3,1.8l-0.8,0.1l-0.3-1.8c0-0.2-0.1-0.3-0.1-0.4c-0.1-0.1-0.2-0.2-0.4-0.2c-0.2,0-0.4,0.1-0.4,0.3
		c0,0.1,0,0.2,0,0.4l0.3,1.8l-0.8,0.1l-0.5-3l0.8-0.1l0.1,0.4c0.1-0.2,0.1-0.3,0.2-0.4c0.1-0.1,0.3-0.2,0.6-0.3c0.2,0,0.4,0,0.6,0.1
		c0.1,0.1,0.2,0.2,0.3,0.3c0.1-0.2,0.2-0.3,0.3-0.5c0.1-0.1,0.3-0.2,0.5-0.2c0.1,0,0.3,0,0.4,0c0.1,0,0.3,0.1,0.4,0.2
		c0.1,0.1,0.2,0.2,0.2,0.4c0,0.1,0.1,0.2,0.1,0.4l0.3,1.9L850.4,494.6z M854.3,493.6c-0.2,0.3-0.6,0.5-1.1,0.6
		c-0.4,0.1-0.8,0-1.1-0.2s-0.6-0.6-0.7-1.1c-0.1-0.5,0-0.9,0.2-1.3s0.6-0.5,1-0.6c0.3,0,0.5,0,0.7,0c0.2,0.1,0.4,0.2,0.6,0.4
		c0.2,0.2,0.3,0.4,0.3,0.6c0,0.1,0.1,0.3,0.1,0.6l-2.2,0.4c0.1,0.3,0.2,0.5,0.4,0.6c0.1,0.1,0.3,0.1,0.5,0c0.2,0,0.3-0.1,0.4-0.2
		c0.1-0.1,0.1-0.1,0.1-0.2l0.8-0.1C854.5,493.2,854.4,493.4,854.3,493.6z M852.1,483.4c0-0.3,0-0.6,0.1-0.9c0.1-0.3,0.3-0.7,0.8-1.1
		c0.4-0.4,0.6-0.6,0.7-0.8c0.2-0.2,0.2-0.5,0.2-0.7c0-0.2-0.1-0.3-0.2-0.5c-0.1-0.1-0.3-0.2-0.5-0.1c-0.3,0-0.4,0.2-0.5,0.4
		c0,0.1,0,0.3,0,0.6l-0.9,0.1c0-0.4,0-0.7,0.1-1c0.2-0.5,0.6-0.8,1.2-0.9c0.5-0.1,0.9,0,1.2,0.2c0.3,0.2,0.5,0.6,0.6,1
		c0.1,0.3,0,0.7-0.2,1c-0.1,0.2-0.3,0.4-0.6,0.7l-0.3,0.3c-0.2,0.2-0.3,0.3-0.4,0.4c-0.1,0.1-0.1,0.2-0.2,0.3l2-0.3l0.1,0.8
		L852.1,483.4z M861.9,481.4c-0.2,0.3-0.6,0.5-1.1,0.6c-0.6,0.1-1.1,0-1.4-0.4c-0.2-0.2-0.3-0.5-0.4-0.8l0.9-0.1
		c0,0.2,0.1,0.3,0.2,0.4c0.1,0.2,0.4,0.3,0.6,0.2c0.2,0,0.3-0.1,0.4-0.3c0.1-0.1,0.1-0.3,0.1-0.6c0-0.3-0.2-0.5-0.5-0.5
		c-0.1,0-0.4,0-0.7,0l-0.1-0.6c0.3-0.1,0.5-0.1,0.6-0.2c0.2-0.1,0.3-0.3,0.2-0.6c0-0.2-0.1-0.3-0.2-0.4c-0.1-0.1-0.3-0.1-0.5-0.1
		c-0.2,0-0.4,0.1-0.4,0.3c-0.1,0.2-0.1,0.3-0.1,0.6l-0.8,0.1c0-0.2,0-0.4,0-0.7c0-0.2,0.1-0.4,0.3-0.6c0.1-0.1,0.2-0.2,0.4-0.3
		c0.2-0.1,0.3-0.1,0.6-0.2c0.4-0.1,0.8,0,1.1,0.2c0.3,0.2,0.5,0.5,0.5,0.8c0,0.3,0,0.5-0.1,0.7c-0.1,0.1-0.2,0.2-0.3,0.3
		c0.1,0,0.2,0,0.4,0.2c0.3,0.2,0.4,0.4,0.5,0.8C862.2,480.7,862.1,481.1,861.9,481.4z M865.5,481.2l-0.9,0.1l-0.2-1l-1.8,0.3
		l-0.1-0.8l1.2-3l1-0.2l0.5,2.9l0.5-0.1l0.1,0.7l-0.5,0.1L865.5,481.2z M869.1,480.2c-0.2,0.4-0.6,0.6-1.1,0.7
		c-0.4,0.1-0.8,0-1.1-0.2s-0.5-0.5-0.6-0.9l0.9-0.1c0.1,0.2,0.2,0.3,0.3,0.4c0.1,0.1,0.3,0.1,0.5,0.1c0.2,0,0.4-0.1,0.5-0.3
		c0.1-0.2,0.1-0.4,0.1-0.6c0-0.2-0.1-0.4-0.3-0.6c-0.1-0.1-0.3-0.2-0.5-0.2c-0.1,0-0.2,0-0.3,0.1c-0.1,0.1-0.2,0.2-0.3,0.3l-0.8,0.1
		l-0.1-2.6l2.5-0.4l0.1,0.8l-1.9,0.3l0,1c0.1-0.1,0.2-0.2,0.3-0.2c0.1-0.1,0.3-0.1,0.5-0.1c0.4-0.1,0.7,0,1,0.2
		c0.3,0.2,0.5,0.6,0.6,1C869.4,479.4,869.3,479.8,869.1,480.2z M872.7,479.6c-0.2,0.4-0.6,0.6-1.1,0.7c-0.6,0.1-1-0.1-1.4-0.5
		c-0.3-0.3-0.5-0.8-0.6-1.4c-0.1-0.3-0.1-0.6-0.1-0.9c0-0.4,0-0.7,0.1-1c0.1-0.2,0.2-0.4,0.4-0.6c0.2-0.2,0.4-0.3,0.7-0.3
		c0.4-0.1,0.8,0,1.1,0.2c0.3,0.2,0.5,0.4,0.6,0.8l-0.9,0.1l-0.1-0.2c-0.1-0.1-0.3-0.2-0.5-0.1c-0.3,0-0.5,0.2-0.5,0.6
		c0,0.2,0,0.5,0,0.8c0.1-0.1,0.2-0.3,0.3-0.4c0.1-0.1,0.3-0.1,0.5-0.2c0.4-0.1,0.8,0,1.1,0.3c0.3,0.2,0.5,0.6,0.6,1
		C873,478.9,872.9,479.3,872.7,479.6z"/>
	<polygon fill="#FFFFFF" points="810.4,496.9 810.8,499.4 810.9,499.8 810.7,499.6 808.8,497.2 807.9,497.3 808.6,501.4 
		809.2,501.2 809.4,501 809.4,501 809.3,501 808.9,498.3 810.3,500 811,501 811.9,500.9 811.5,498.7 811.2,496.8 	"/>
	<path fill="#FFFFFF" d="M810.7,486.5l-0.2-1l-0.7,0.1l0,0.2c0,0.1-0.1,0.3-0.1,0.4c-0.1,0.1-0.2,0.2-0.4,0.3
		c-0.1,0-0.3,0.1-0.6,0.2l-0.1,0.6l0.9-0.2v0l1,3.1v0l0.4-0.1l0.5-0.1l0-0.2L810.7,486.5z"/>
	<path fill="#FFFFFF" d="M824.3,483.2l-1.2,3l0.1,0.1l0.2,0.8v0l1.7-0.3l0.1,1l0.9-0.1l-0.2-1l0.5-0.1l-0.1-0.7l-0.5,0.1l-0.3-2.1
		l-0.1-0.8L824.3,483.2z M824.9,486.1l-1.1,0.2l0.4-1.2l0.4-1l0.1,0.5L824.9,486.1z"/>
	<path fill="#FFFFFF" d="M808.2,490c0.2-0.4,0.2-1,0.1-1.8l0-0.2c-0.1-0.7-0.3-1.2-0.6-1.5c-0.3-0.4-0.7-0.5-1.3-0.4
		c-0.6,0.1-1,0.4-1.1,0.8c-0.2,0.4-0.2,1-0.1,1.8c0.1,0.4,0.2,0.7,0.3,1c0.1,0.3,0.2,0.5,0.4,0.6c0.3,0.4,0.7,0.5,1.3,0.4
		C807.6,490.7,808,490.4,808.2,490z M807.4,489.6c0,0.3-0.2,0.5-0.5,0.5c-0.3,0-0.5-0.1-0.6-0.3c-0.1-0.1-0.1-0.3-0.2-0.5
		c-0.1-0.2-0.1-0.4-0.2-0.7c-0.1-0.5-0.1-1-0.1-1.2c0-0.3,0.2-0.4,0.5-0.5c0.3,0,0.5,0.1,0.6,0.3c0.1,0.2,0.2,0.7,0.3,1.2l0,0.2
		C807.4,489,807.4,489.3,807.4,489.6z"/>
	<path fill="#FFFFFF" d="M817,484.4c-0.2,0-0.4,0.1-0.6,0.2c-0.2,0.1-0.3,0.2-0.4,0.3c-0.1,0.2-0.2,0.4-0.3,0.6c0,0.2,0,0.4,0,0.7
		l0.8-0.1c0-0.2,0-0.4,0.1-0.6c0.1-0.2,0.2-0.2,0.4-0.3c0.2,0,0.3,0,0.5,0.1c0.1,0.1,0.2,0.2,0.2,0.4l0,0.2c0,0.2-0.1,0.3-0.2,0.4
		c-0.1,0.1-0.3,0.1-0.6,0.2l0.1,0.6c0.3,0,0.5-0.1,0.7,0c0.3,0.1,0.4,0.2,0.5,0.5c0,0.2,0,0.4-0.1,0.6c-0.1,0.1-0.3,0.2-0.4,0.3
		c-0.3,0-0.5,0-0.6-0.2c-0.1-0.1-0.1-0.3-0.2-0.4l-0.9,0.1c0.1,0.4,0.2,0.6,0.4,0.8c0.3,0.4,0.8,0.5,1.4,0.4
		c0.5-0.1,0.9-0.3,1.1-0.6c0.2-0.3,0.3-0.7,0.2-1.1c-0.1-0.4-0.2-0.6-0.5-0.8c-0.2-0.1-0.3-0.2-0.4-0.2c0.1-0.1,0.2-0.2,0.3-0.3
		c0.1-0.2,0.2-0.5,0.1-0.7l0-0.1c-0.1-0.3-0.2-0.6-0.5-0.8C817.8,484.3,817.4,484.3,817,484.4z"/>
	<path fill="#FFFFFF" d="M813.6,488.8c0-0.1,0.1-0.2,0.2-0.3c0.1-0.1,0.2-0.2,0.4-0.4l0.3-0.3l0,0c0.3-0.3,0.4-0.5,0.5-0.7
		c0.2-0.3,0.2-0.6,0.2-1c-0.1-0.4-0.3-0.8-0.6-1s-0.7-0.3-1.2-0.2c-0.2,0-0.4,0.1-0.5,0.2l-0.3,0.2c-0.2,0.1-0.3,0.3-0.4,0.5
		c-0.1,0.3-0.1,0.6-0.1,1l0.9-0.1c0-0.3,0-0.4,0-0.6c0.1-0.2,0.2-0.4,0.5-0.4c0.2,0,0.4,0,0.5,0.1s0.2,0.3,0.2,0.5
		c0,0.2,0,0.5-0.2,0.7c-0.1,0.1-0.3,0.4-0.7,0.8c-0.4,0.4-0.7,0.8-0.8,1.1l0,0.1c-0.1,0.3-0.1,0.6-0.1,0.9l3.1-0.5l-0.1-0.8
		L813.6,488.8z"/>
	<path fill="#FFFFFF" d="M853.5,493.4c-0.1,0.1-0.2,0.2-0.4,0.2c-0.2,0-0.3,0-0.5,0c-0.2-0.1-0.4-0.3-0.4-0.6l2.2-0.4
		c0-0.3-0.1-0.5-0.1-0.6c-0.1-0.2-0.2-0.4-0.3-0.6c-0.2-0.2-0.4-0.3-0.6-0.4c-0.2-0.1-0.5-0.1-0.7,0c-0.4,0.1-0.8,0.3-1,0.6
		s-0.3,0.7-0.2,1.3c0.1,0.6,0.3,0.9,0.7,1.1s0.7,0.3,1.1,0.2c0.5-0.1,0.8-0.3,1.1-0.6c0.1-0.2,0.2-0.4,0.2-0.6l-0.8,0.1
		C853.6,493.3,853.6,493.3,853.5,493.4z M852.3,492c0.1-0.1,0.2-0.2,0.4-0.2c0.2,0,0.3,0,0.5,0.1c0.1,0.1,0.2,0.2,0.3,0.4l-1.4,0.2
		C852.2,492.3,852.2,492.1,852.3,492z"/>
	<path fill="#FFFFFF" d="M853.1,482.4c0-0.1,0.1-0.2,0.2-0.3c0.1-0.1,0.2-0.2,0.4-0.4l0.3-0.3c0.3-0.3,0.5-0.5,0.6-0.7
		c0.2-0.3,0.2-0.6,0.2-1c-0.1-0.4-0.3-0.8-0.6-1c-0.3-0.2-0.7-0.3-1.2-0.2c-0.6,0.1-1,0.4-1.2,0.9c-0.1,0.3-0.1,0.6-0.1,1l0.9-0.1
		c0-0.3,0-0.4,0-0.6c0.1-0.2,0.2-0.4,0.5-0.4c0.2,0,0.4,0,0.5,0.1c0.1,0.1,0.2,0.3,0.2,0.5c0,0.2,0,0.5-0.2,0.7
		c-0.1,0.1-0.3,0.4-0.7,0.8c-0.4,0.4-0.7,0.8-0.8,1.1c-0.1,0.3-0.1,0.6-0.1,0.9l3.1-0.5l-0.1-0.8L853.1,482.4z"/>
	<path fill="#FFFFFF" d="M827.6,485.3c0-0.1,0.1-0.3,0.3-0.3c0.1,0,0.2-0.1,0.3-0.1c0.2,0,0.4,0,0.5,0.2c0.1,0.1,0.2,0.3,0.3,0.6
		c0,0.2,0,0.4-0.1,0.6s-0.2,0.3-0.5,0.3c-0.2,0-0.3,0-0.5-0.1c-0.1-0.1-0.2-0.2-0.3-0.4l-0.9,0.1c0.1,0.4,0.3,0.7,0.6,0.9
		c0.3,0.2,0.7,0.2,1.1,0.2c0.5-0.1,0.9-0.3,1.1-0.7c0.2-0.4,0.3-0.8,0.2-1.2c-0.1-0.5-0.3-0.8-0.6-1c-0.3-0.2-0.7-0.3-1-0.2
		c-0.2,0-0.3,0.1-0.5,0.1c-0.1,0-0.2,0.1-0.3,0.2l0-1l1.9-0.3l-0.1-0.8l-2.5,0.4l0.1,2.6L827.6,485.3z"/>
	<polygon fill="#FFFFFF" points="827.9,497.5 827.3,494.2 826.5,494.3 827.1,498.4 830,497.9 829.9,497.2 	"/>
	<path fill="#FFFFFF" d="M830.8,486.2c0.4,0.4,0.8,0.6,1.4,0.5c0.5-0.1,0.9-0.3,1.1-0.7c0.2-0.4,0.3-0.8,0.2-1.2
		c-0.1-0.4-0.3-0.8-0.6-1c-0.3-0.2-0.7-0.3-1.1-0.3c-0.2,0-0.4,0.1-0.5,0.2c-0.1,0.1-0.2,0.2-0.3,0.4c0-0.4,0-0.6,0-0.8
		c0.1-0.3,0.3-0.5,0.5-0.6c0.2,0,0.4,0,0.5,0.1l0.1,0.2l0.9-0.1c-0.1-0.4-0.3-0.6-0.6-0.8c-0.3-0.2-0.6-0.2-1.1-0.2
		c-0.3,0-0.5,0.2-0.7,0.3c-0.2,0.2-0.3,0.4-0.4,0.6c-0.1,0.3-0.2,0.6-0.1,1c0,0.2,0,0.5,0.1,0.9
		C830.3,485.4,830.5,485.9,830.8,486.2z M831.4,484.6c0.1-0.1,0.2-0.2,0.4-0.2c0.2,0,0.4,0,0.5,0.1c0.2,0.1,0.3,0.3,0.3,0.6
		c0,0.2,0,0.4-0.1,0.6s-0.2,0.3-0.4,0.3c-0.2,0-0.4,0-0.5-0.2c-0.2-0.1-0.3-0.3-0.3-0.6C831.2,485,831.2,484.7,831.4,484.6z"/>
	<path fill="#FFFFFF" d="M846.2,495.1c0,0-0.1-0.1-0.1-0.2c0-0.1,0-0.3-0.1-0.3l-0.2-1.4c-0.1-0.4-0.2-0.6-0.5-0.7
		c-0.3-0.1-0.6-0.1-0.9-0.1c-0.5,0.1-0.8,0.3-1,0.6c-0.1,0.2-0.1,0.4-0.1,0.7l0.8-0.1c0-0.1,0-0.2,0.1-0.3c0.1-0.1,0.2-0.2,0.4-0.2
		c0.2,0,0.3,0,0.4,0c0.1,0,0.1,0.1,0.2,0.2c0,0.1,0,0.2-0.1,0.3c-0.1,0-0.2,0.1-0.3,0.1l-0.3,0.1c-0.3,0.1-0.5,0.2-0.7,0.3
		c-0.3,0.2-0.4,0.5-0.3,0.9c0,0.3,0.2,0.5,0.4,0.6c0.2,0.1,0.4,0.2,0.7,0.1c0.2,0,0.4-0.1,0.6-0.2c0.1-0.1,0.2-0.2,0.3-0.4l0.1,0.2
		l0.1,0.2l0.9-0.1l0-0.1L846.2,495.1z M845.1,494.8c-0.1,0.1-0.3,0.2-0.5,0.2c-0.1,0-0.2,0-0.3,0c-0.1,0-0.1-0.1-0.2-0.3
		c0-0.1,0-0.3,0.1-0.4c0.1-0.1,0.2-0.1,0.3-0.2l0.2-0.1l0.2-0.1l0.1-0.1l0,0.3C845.3,494.5,845.2,494.7,845.1,494.8z"/>
	<path fill="#FFFFFF" d="M850.8,492.1c-0.1-0.1-0.1-0.3-0.2-0.4c-0.1-0.1-0.3-0.2-0.4-0.2c-0.1,0-0.3,0-0.4,0
		c-0.2,0-0.4,0.1-0.5,0.2c-0.1,0.1-0.2,0.3-0.3,0.5c-0.1-0.1-0.2-0.2-0.3-0.3c-0.2-0.1-0.4-0.1-0.6-0.1c-0.2,0-0.4,0.1-0.6,0.3
		c-0.1,0.1-0.1,0.2-0.2,0.4l-0.1-0.4l-0.8,0.1l0.5,3l0.8-0.1l-0.3-1.8c0-0.2,0-0.3,0-0.4c0.1-0.2,0.2-0.3,0.4-0.3
		c0.2,0,0.3,0,0.4,0.2c0,0.1,0.1,0.2,0.1,0.4l0.3,1.8l0.8-0.1l-0.3-1.8c0-0.1,0-0.3,0-0.4c0.1-0.2,0.2-0.3,0.4-0.3
		c0.2,0,0.3,0,0.4,0.1c0,0.1,0.1,0.2,0.1,0.3l0.3,1.9l0.8-0.1l-0.3-1.9C850.8,492.4,850.8,492.2,850.8,492.1z"/>
	<path fill="#FFFFFF" d="M838,496L838,496c-0.2,0-0.3,0-0.4,0s-0.1-0.1-0.1-0.2l-0.3-1.6l0.5-0.1l-0.1-0.6l-0.5,0.1l-0.1-0.8
		l-0.8,0.1l0.1,0.8l-0.4,0.1l0.1,0.6l0.4-0.1l0.3,1.9c0,0.2,0.1,0.3,0.2,0.4c0.2,0.1,0.4,0.1,0.8,0.1l0.4-0.1L838,496L838,496z"/>
	<path fill="#FFFFFF" d="M861.3,479.4c0.1-0.1,0.2-0.2,0.3-0.3c0.1-0.2,0.2-0.5,0.1-0.7c-0.1-0.4-0.2-0.7-0.5-0.8
		c-0.3-0.2-0.7-0.2-1.1-0.2c-0.2,0-0.4,0.1-0.6,0.2c-0.2,0.1-0.3,0.2-0.4,0.3c-0.1,0.2-0.2,0.4-0.3,0.6c0,0.2,0,0.4,0,0.7l0.8-0.1
		c0-0.2,0-0.4,0.1-0.6c0.1-0.2,0.2-0.2,0.4-0.3c0.2,0,0.3,0,0.5,0.1c0.1,0.1,0.2,0.2,0.2,0.4c0,0.3,0,0.5-0.2,0.6
		c-0.1,0.1-0.3,0.1-0.6,0.2l0.1,0.6c0.3,0,0.5-0.1,0.7,0c0.3,0.1,0.4,0.2,0.5,0.5c0,0.2,0,0.4-0.1,0.6c-0.1,0.1-0.3,0.2-0.4,0.3
		c-0.3,0-0.5,0-0.6-0.2c-0.1-0.1-0.1-0.3-0.2-0.4l-0.9,0.1c0.1,0.4,0.2,0.6,0.4,0.8c0.3,0.4,0.8,0.5,1.4,0.4
		c0.5-0.1,0.9-0.3,1.1-0.6c0.2-0.3,0.3-0.7,0.2-1.1c-0.1-0.4-0.2-0.6-0.5-0.8C861.5,479.4,861.4,479.4,861.3,479.4z"/>
	<path fill="#FFFFFF" d="M842.2,493c-0.2-0.1-0.5-0.2-0.8-0.1c-0.2,0-0.4,0.1-0.6,0.3c-0.1,0.1-0.2,0.2-0.2,0.4l-0.1-0.4l-0.8,0.1
		l0.5,3l0.8-0.1l-0.3-1.6c0-0.2,0-0.3,0-0.5c0.1-0.2,0.2-0.4,0.5-0.4c0.2,0,0.4,0,0.5,0.2c0.1,0.1,0.1,0.2,0.1,0.4l0.3,1.8l0.8-0.1
		l-0.3-2C842.6,493.4,842.5,493.1,842.2,493z"/>
	<path fill="#FFFFFF" d="M835,495.2c-0.5,0-0.8-0.1-0.9-0.1c-0.1,0-0.1-0.1-0.1-0.2l0.1-0.2c0.1-0.1,0.2-0.1,0.4-0.1
		c0.2,0,0.4,0,0.5,0.1c0.1,0.1,0.1,0.1,0.1,0.2l0.8-0.1c-0.1-0.4-0.3-0.6-0.5-0.7s-0.6-0.1-1-0.1c-0.4,0.1-0.7,0.2-0.9,0.4
		c-0.2,0.2-0.3,0.5-0.2,0.8c0,0.2,0.1,0.4,0.3,0.5c0.2,0.1,0.4,0.2,0.8,0.2c0.5,0,0.8,0.1,0.9,0.1l0.1,0.2c0,0.1,0,0.2-0.1,0.2
		c-0.1,0.1-0.2,0.1-0.4,0.1c-0.3,0-0.5,0-0.6-0.1c-0.1-0.1-0.1-0.1-0.2-0.3l-0.8,0.1c0.1,0.3,0.2,0.5,0.5,0.7
		c0.3,0.2,0.6,0.2,1.1,0.1c0.5-0.1,0.8-0.2,1-0.5c0.2-0.2,0.3-0.5,0.2-0.8c0-0.2-0.1-0.4-0.3-0.5C835.6,495.3,835.3,495.3,835,495.2
		z"/>
	<path fill="#FFFFFF" d="M867.6,477.7c-0.2,0-0.3,0.1-0.5,0.1c-0.1,0-0.2,0.1-0.3,0.2l0-1l1.9-0.3l-0.1-0.8l-2.5,0.4l0.1,2.6
		l0.8-0.1c0-0.1,0.1-0.3,0.3-0.3c0.1,0,0.2-0.1,0.3-0.1c0.2,0,0.4,0,0.5,0.2c0.1,0.1,0.2,0.3,0.3,0.6c0,0.2,0,0.4-0.1,0.6
		c-0.1,0.2-0.2,0.3-0.5,0.3c-0.2,0-0.3,0-0.5-0.1c-0.1-0.1-0.2-0.2-0.3-0.4l-0.9,0.1c0.1,0.4,0.3,0.7,0.6,0.9s0.7,0.2,1.1,0.2
		c0.5-0.1,0.9-0.3,1.1-0.7c0.2-0.4,0.3-0.8,0.2-1.2c-0.1-0.5-0.3-0.8-0.6-1C868.4,477.8,868,477.7,867.6,477.7z"/>
	<path fill="#FFFFFF" d="M872.4,477.4c-0.3-0.2-0.7-0.3-1.1-0.3c-0.2,0-0.4,0.1-0.5,0.2c-0.1,0.1-0.2,0.2-0.3,0.4c0-0.4,0-0.6,0-0.8
		c0.1-0.3,0.3-0.5,0.5-0.6c0.2,0,0.4,0,0.5,0.1l0.1,0.2l0.9-0.1c-0.1-0.4-0.3-0.6-0.6-0.8c-0.3-0.2-0.6-0.2-1.1-0.2
		c-0.3,0-0.5,0.2-0.7,0.3c-0.2,0.2-0.3,0.4-0.4,0.6c-0.1,0.3-0.2,0.6-0.1,1c0,0.2,0,0.5,0.1,0.9c0.1,0.6,0.3,1.1,0.6,1.4
		c0.4,0.4,0.8,0.6,1.4,0.5c0.5-0.1,0.9-0.3,1.1-0.7c0.2-0.4,0.3-0.8,0.2-1.2C872.8,478,872.7,477.7,872.4,477.4z M871.9,479.3
		c-0.1,0.2-0.2,0.3-0.4,0.3c-0.2,0-0.4,0-0.5-0.2c-0.2-0.1-0.3-0.3-0.3-0.6c0-0.3,0-0.5,0.2-0.7c0.1-0.1,0.2-0.2,0.4-0.2
		c0.2,0,0.4,0,0.5,0.1c0.2,0.1,0.3,0.3,0.3,0.6C872.1,478.9,872,479.1,871.9,479.3z"/>
	<path fill="#FFFFFF" d="M833,497.2c0,0-0.1-0.1-0.1-0.2c0-0.1,0-0.3-0.1-0.3l-0.2-1.4c-0.1-0.4-0.2-0.6-0.5-0.7
		c-0.3-0.1-0.6-0.1-0.9-0.1c-0.5,0.1-0.8,0.3-1,0.6c-0.1,0.2-0.1,0.4-0.1,0.7l0.8-0.1c0-0.1,0-0.2,0.1-0.3c0.1-0.1,0.2-0.2,0.4-0.2
		c0.2,0,0.3,0,0.4,0c0.1,0,0.2,0.1,0.2,0.2c0,0.1,0,0.2-0.1,0.3c-0.1,0-0.2,0.1-0.3,0.1l-0.3,0.1c-0.3,0.1-0.5,0.2-0.7,0.3
		c-0.3,0.2-0.4,0.5-0.3,0.9c0,0.3,0.2,0.5,0.4,0.6c0.2,0.1,0.4,0.2,0.7,0.1c0.2,0,0.4-0.1,0.6-0.2c0.1-0.1,0.2-0.2,0.3-0.4l0.1,0.2
		l0.1,0.2l0.9-0.1l0-0.1L833,497.2z M831.9,497c-0.1,0.1-0.3,0.2-0.5,0.2c-0.1,0-0.2,0-0.3,0c-0.1,0-0.1-0.1-0.2-0.3
		c0-0.1,0-0.3,0.1-0.4c0.1-0.1,0.2-0.1,0.3-0.2l0.2-0.1l0.2-0.1l0.1-0.1l0,0.3C832.1,496.7,832,496.8,831.9,497z"/>
	<path fill="#FFFFFF" d="M865.7,479.4l-0.5,0.1l-0.5-2.9l-1,0.2l-1.2,3l0.1,0.8l1.8-0.3l0.2,1l0.9-0.1l-0.2-1l0.5-0.1L865.7,479.4z
		 M863.2,479.8l0.8-2.2l0.3,2L863.2,479.8z"/>
	<path fill="#FFFFFF" d="M822.4,498.5c-0.1,0.1-0.2,0.2-0.4,0.2c-0.2,0-0.3,0-0.5,0c-0.2-0.1-0.4-0.3-0.4-0.6l2.2-0.4
		c0-0.3-0.1-0.5-0.1-0.6c-0.1-0.2-0.2-0.4-0.3-0.6c-0.2-0.2-0.4-0.3-0.6-0.4c-0.2-0.1-0.5-0.1-0.7,0c-0.4,0.1-0.8,0.3-1,0.6
		c-0.2,0.3-0.3,0.7-0.2,1.3c0.1,0.6,0.3,0.9,0.7,1.1c0.3,0.2,0.7,0.3,1.1,0.2c0.5-0.1,0.8-0.3,1.1-0.6c0.1-0.2,0.2-0.4,0.2-0.6
		l-0.8,0.1C822.5,498.3,822.5,498.4,822.4,498.5z M821.2,497c0.1-0.1,0.2-0.2,0.4-0.2c0.2,0,0.4,0,0.5,0.1c0.1,0.1,0.2,0.2,0.3,0.4
		l-1.4,0.2C821.1,497.3,821.1,497.2,821.2,497z"/>
	<path fill="#FFFFFF" d="M849.3,480.6l0.5,3.1l0.9-0.1L850,479l-0.8,0.1l0,0.2c0,0.1-0.1,0.3-0.1,0.4c-0.1,0.1-0.2,0.2-0.4,0.3
		c-0.1,0-0.3,0.1-0.6,0.2l0.1,0.6L849.3,480.6z"/>
	<path fill="#FFFFFF" d="M819.7,497.2c-0.1-0.1-0.1-0.3-0.2-0.4c-0.1-0.1-0.3-0.2-0.4-0.2c-0.1,0-0.3,0-0.4,0
		c-0.2,0-0.4,0.1-0.5,0.2c-0.1,0.1-0.2,0.3-0.3,0.5c-0.1-0.1-0.2-0.2-0.3-0.3c-0.2-0.1-0.4-0.1-0.6-0.1c-0.2,0-0.4,0.1-0.6,0.3
		c-0.1,0.1-0.1,0.2-0.2,0.4l-0.1-0.4l-0.8,0.1l0.5,3l0.8-0.1l-0.3-1.8c0-0.2,0-0.3,0-0.4c0.1-0.2,0.2-0.3,0.4-0.3
		c0.2,0,0.3,0,0.4,0.2c0,0.1,0.1,0.2,0.1,0.4l0.3,1.8l0.8-0.1L818,498c0-0.1,0-0.3,0-0.4c0.1-0.2,0.2-0.3,0.4-0.3
		c0.2,0,0.3,0,0.4,0.1c0,0.1,0.1,0.2,0.1,0.3l0.3,1.9l0.8-0.1l-0.3-1.9C819.7,497.4,819.7,497.3,819.7,497.2z"/>
	<path fill="#FFFFFF" d="M815.1,500.1c0,0-0.1-0.1-0.1-0.2c0-0.1,0-0.3-0.1-0.3l-0.2-1.4c-0.1-0.4-0.2-0.6-0.5-0.7
		c-0.3-0.1-0.6-0.1-0.9-0.1c-0.5,0.1-0.8,0.3-1,0.6c-0.1,0.2-0.1,0.4-0.1,0.7l0.8-0.1c0-0.1,0-0.2,0.1-0.3c0.1-0.1,0.2-0.2,0.4-0.2
		c0.2,0,0.3,0,0.4,0c0.1,0,0.2,0.1,0.2,0.2c0,0.1,0,0.2-0.1,0.3c-0.1,0-0.2,0.1-0.3,0.1l-0.3,0.1c-0.3,0.1-0.5,0.2-0.7,0.3
		c-0.3,0.2-0.4,0.5-0.3,0.9c0,0.3,0.2,0.5,0.4,0.6c0.2,0.1,0.4,0.2,0.7,0.1c0.2,0,0.4-0.1,0.6-0.2c0.1-0.1,0.2-0.2,0.3-0.4l0.1,0.2
		l0.1,0.2l0.9-0.1l0-0.1L815.1,500.1z M814,499.9c-0.1,0.1-0.3,0.2-0.5,0.2c-0.1,0-0.2,0-0.3,0c-0.1,0-0.1-0.1-0.2-0.3
		c0-0.1,0-0.3,0.1-0.4c0.1-0.1,0.2-0.1,0.3-0.2l0.2-0.1l0.2-0.1l0.1-0.1l0,0.3C814.1,499.6,814.1,499.8,814,499.9z"/>
	<path fill="#FFFFFF" d="M845,482.6c0.3,0.2,0.7,0.3,1,0.2c0.2,0,0.4-0.1,0.6-0.3c0.1-0.1,0.2-0.2,0.2-0.3c0,0.4,0,0.6,0,0.8
		c-0.1,0.3-0.2,0.5-0.5,0.6c-0.2,0-0.3,0-0.4-0.1c-0.1-0.1-0.2-0.2-0.2-0.3l-0.9,0.1c0.1,0.4,0.3,0.7,0.6,0.8c0.3,0.2,0.6,0.2,1,0.2
		c0.7-0.1,1.2-0.5,1.3-1.3c0.1-0.4,0.1-0.9,0-1.4c-0.1-0.6-0.2-1-0.4-1.3c-0.4-0.6-0.9-0.8-1.6-0.7c-0.5,0.1-0.8,0.3-1,0.6
		c-0.2,0.3-0.3,0.8-0.2,1.3C844.5,482,844.7,482.4,845,482.6z M845.5,480.6c0.1-0.1,0.2-0.2,0.4-0.2c0.2,0,0.4,0,0.5,0.1
		c0.1,0.1,0.2,0.3,0.3,0.6c0.1,0.3,0,0.6-0.2,0.7c-0.1,0.1-0.2,0.1-0.3,0.2c-0.2,0-0.4,0-0.5-0.1c-0.1-0.1-0.2-0.3-0.3-0.6
		C845.3,481,845.3,480.8,845.5,480.6z"/>
	<path fill="#FFFFFF" d="M841.6,482.6c-0.2,0.1-0.3,0.3-0.4,0.6s-0.1,0.5-0.1,0.7c0.1,0.4,0.2,0.7,0.6,0.9c0.3,0.2,0.7,0.3,1.2,0.2
		c0.5-0.1,0.9-0.3,1.1-0.6c0.2-0.3,0.3-0.7,0.3-1.1c0-0.3-0.1-0.5-0.3-0.7c-0.1-0.2-0.3-0.3-0.6-0.4c0.2-0.2,0.3-0.3,0.4-0.5
		c0-0.2,0-0.3,0-0.5c-0.1-0.3-0.2-0.6-0.5-0.8c-0.3-0.2-0.7-0.3-1.1-0.2c-0.5,0.1-0.8,0.2-1,0.5c-0.2,0.3-0.3,0.6-0.2,0.9
		c0,0.1,0.1,0.3,0.2,0.5C841.2,482.3,841.3,482.5,841.6,482.6z M843.3,483.4c0,0.2,0,0.4-0.1,0.6s-0.2,0.2-0.5,0.3
		c-0.2,0-0.4,0-0.5-0.1c-0.1-0.1-0.2-0.3-0.3-0.5c0-0.2,0-0.4,0.1-0.6c0.1-0.1,0.2-0.2,0.5-0.3c0.2,0,0.4,0,0.5,0.1
		C843.2,483,843.3,483.2,843.3,483.4z M841.8,481.2c0.1-0.1,0.2-0.2,0.4-0.2c0.2,0,0.3,0,0.4,0.1s0.2,0.2,0.2,0.4
		c0,0.2,0,0.3-0.1,0.4c-0.1,0.1-0.2,0.2-0.4,0.2c-0.2,0-0.3,0-0.4-0.1c-0.1-0.1-0.2-0.2-0.2-0.4
		C841.7,481.5,841.8,481.3,841.8,481.2z"/>
	<path fill="#FFFFFF" d="M835.8,482.2c-0.2,0.3-0.4,0.7-0.6,1.3c-0.4,1-0.5,1.9-0.4,2.7l0.9-0.2c0-0.3,0-0.6,0-1
		c0-0.4,0.1-0.8,0.2-1.1c0.1-0.4,0.2-0.8,0.4-1.1c0.2-0.4,0.3-0.6,0.4-0.8l-0.1-0.7l-3.2,0.5l0.1,0.8L835.8,482.2z"/>
	<path fill="#F3F3F3" d="M806.4,481.4l10.6-1.7c0.6-0.1,1-0.6,0.9-1.2l-1.8-11.1c-0.1-0.6-0.6-1-1.2-0.9l-10.6,1.7
		c-0.6,0.1-1,0.6-0.9,1.2l1.8,11.1C805.3,481.1,805.8,481.5,806.4,481.4z M810.2,479.9l-0.4-2.5l2.6-0.4l0.4,2.5L810.2,479.9z
		 M814.3,479l-0.4-2.3l2.6-0.4C816.3,477.5,815.4,478.5,814.3,479z M816.1,471.8l0.5,3.2h0l0-0.1l-3,0.4l-0.5-3L816.1,471.8z
		 M811.3,467.8c1.9-0.3,3.6,0.7,4.4,2.3l-3.6,0.6l-0.8,0.1l0.7,4.6l-2.6,0.4l-1.2-7.5L811.3,467.8z M808.6,480
		c-1.2-0.2-2.3-0.9-3-1.9l2.6-0.4L808.6,480z M806.8,468.7l0.5,2.8l-2.8,0.5C804.7,470.6,805.5,469.4,806.8,468.7z M805,476.5
		l-0.5-3l3-0.5l0.5,3L805,476.5L805,476.5z"/>
	<path fill="#FFFFFF" d="M860.3,453c-1.8,0.3-3.3,1.2-4.4,2.4c-1.4-0.7-3-1-4.6-0.7c-4.2,0.7-7,4.6-6.3,8.8c0.1,0.6,0.3,1.2,0.5,1.8
		l0.1,0.2c0.4,0.9,1,1.7,1.7,2.3c1.7,1.6,4,2.4,6.4,2c1.8-0.3,3.3-1.2,4.4-2.5c1.4,0.7,3,1,4.6,0.7c4.1-0.7,7-4.6,6.3-8.7
		c-0.2-1.4-0.8-2.6-1.7-3.6c-0.8-0.9-1.7-1.7-2.8-2.1c-0.5-0.2-1.1-0.4-1.6-0.5C862.1,452.9,861.2,452.8,860.3,453z M854.5,463.4
		c0,0.1,0.1,0.2,0.1,0.3l0.8-0.1l0.8-0.1l2.3-0.4l0.8-0.1l0.8-0.1l0.8-0.1c-0.1,0.4-0.2,0.8-0.3,1.2l-0.7,0.1l-0.8,0.1l-0.9,0.1
		l-1.3,0.2l-0.9,0.1l-0.9,0.1c0.2,0.3,0.4,0.6,0.6,0.8l0.9-0.2l1-0.2l0,0l1-0.2l0.9-0.1l0.6-0.1c-0.3,0.5-0.6,0.9-0.9,1.3l0,0.1
		l-0.3,0l-0.9,0.1l-0.1,0l-1,0.2l-0.2,0c-0.9,0.8-2,1.4-3.3,1.7c-1.8,0.3-3.5-0.3-4.8-1.3c-0.8-0.7-1.4-1.5-1.8-2.5l0,0
		c-0.1-0.4-0.3-0.8-0.3-1.2c-0.5-3.3,1.7-6.5,5-7c1.2-0.2,2.4,0,3.5,0.5c-0.1,0.1-0.1,0.2-0.2,0.3l0.6-0.1l0.4-0.1l0.8-0.1l0.3-0.1
		l0.7-0.1l0.1,0l0.7-0.1c0.2,0.2,0.4,0.4,0.6,0.6c0.1,0.1,0.3,0.3,0.4,0.4l-0.9,0.2l-0.6,0.1l-0.2,0l-0.9,0.2L856,458l-0.6,0.1
		l-0.2,0l-0.9,0.1c-0.1,0.2-0.1,0.5-0.2,0.7c0,0.1-0.1,0.2-0.1,0.4l0.8-0.1l0.8-0.1l0,0l1.9-0.3l0.9-0.1l0.8-0.1l1-0.2
		c0.2,0.3,0.4,0.7,0.5,1.1l-1,0.2l-0.8,0.1l-0.8,0.1l-2.6,0.4l-0.8,0.1l-0.8,0.1c0,0.3,0,0.7,0.1,1l0.8-0.1l0.8-0.1l2.9-0.5l0.4-0.1
		l0.4-0.1l0.8-0.1l1-0.2l0.1,0.2c0.1,0.3,0.1,0.6,0.1,0.9l-0.9,0.2l-0.8,0.1l-0.8,0.1l-2.4,0.4l-0.4,0.1l-0.8,0.1l-0.8,0.1
		C854.3,462.9,854.4,463.1,854.5,463.4z"/>
	<path fill="#A6986D" d="M808.6,480l-0.4-2.3l-2.6,0.4C806.3,479.1,807.4,479.8,808.6,480z"/>
	<path fill="#A6986D" d="M806.8,468.7c-1.3,0.6-2.1,1.8-2.3,3.2l2.8-0.5L806.8,468.7z"/>
	<polygon fill="#A6986D" points="807.5,473.1 804.5,473.5 805,476.5 805,476.6 808,476.1 	"/>
	<path fill="#A6986D" d="M812.1,475.4l-0.7-4.6l0.8-0.1l3.6-0.6c-0.8-1.6-2.6-2.6-4.4-2.3l-2.9,0.5l1.2,7.5L812.1,475.4z"/>
	
		<rect x="810" y="477.1" transform="matrix(-0.1606 -0.987 0.987 -0.1606 469.3455 1356.0347)" fill="#A6986D" width="2.6" height="2.6"/>
	<path fill="#A6986D" d="M814.3,479c1.1-0.5,2-1.6,2.3-2.8l-2.6,0.4L814.3,479z"/>
	<polygon fill="#A6986D" points="813.7,475.2 816.6,474.9 816.6,475 816.6,475 816.1,471.8 813.2,472.2 	"/>
	<line fill="#FFFFFF" x1="172.4" y1="25" x2="313.4" y2="25"/>
	<polyline fill="#E6E6E6" points="172.4,26 313.4,26 313.4,24 172.4,24 	"/>
	<circle fill="#CCCCCC" cx="106" cy="106" r="105"/>
	<path fill="#E6E6E6" d="M211,106h-1c0,28.7-11.6,54.7-30.5,73.5C160.7,198.4,134.7,210,106,210c-28.7,0-54.7-11.6-73.5-30.5
		C13.6,160.7,2,134.7,2,106c0-28.7,11.6-54.7,30.5-73.5C51.3,13.6,77.3,2,106,2c28.7,0,54.7,11.6,73.5,30.5
		C198.4,51.3,210,77.3,210,106H211h1C212,47.5,164.5,0,106,0C47.5,0,0,47.5,0,106c0,58.5,47.5,106,106,106c58.5,0,106-47.5,106-106
		H211z"/>
	<circle fill="#E6E6E6" cx="106" cy="106" r="100"/>
	<path fill="#84BF00" d="M123.2,142.1c5.6,2.1,8.8,5.1,10,6.4c1.4-1.1,3.2-1.8,5.2-1.8V135h-10v-3h10v-3h-10V94h10V84h-18v56.9
		c0,0.2,0.8,0.4,1.3,0.7C122.7,141.9,123.2,142.1,123.2,142.1"/>
	<path fill="#84BF00" d="M138.4,84v10h9v35h-9v3h9v3h-9v11.8c4,0,8.1,3.7,8.1,8.2c0,4-2.9,7.3-6.6,8c4,13,5.5,28.2,5.9,34.9
		c3.6-1.6,6.7-3.3,10.7-5.3v-108V84H138.4"/>
	<path fill="#A4D700" d="M156.4,84h-18v10h9v35h-9v3h9v3h-9v11.8c4,0,8.1,3.7,8.1,8.2c0,4-2.9,7.3-6.6,8c4,13,5.5,28.2,5.9,34.9
		c3.6-1.6,6.7-3.3,10.7-5.3V87.8l-0.3-3.2l0.3,0V84"/>
	<path fill="#FFFFFF" d="M133.6,149.2c2.5,3.8,4.5,8.6,6.1,13.8c3.7-0.8,6.6-4.1,6.6-8c0-4.5-3.7-8.2-8.2-8.2
		c-1.9,0-3.7,0.7-5.1,1.8C133.4,148.9,133.6,149.2,133.6,149.2z"/>
	<path fill="#FFFFFF" d="M128.4,129h9.7h9.3V94h-9.3h-9.7V129z M130.4,97h14v5h-14V97z"/>
	<polygon fill="#FFFFFF" points="128.4,135 138.1,135 147.4,135 147.4,132 138.1,132 128.4,132 	"/>
	<rect x="130.4" y="97" fill="#84BF00" width="14" height="5"/>
	<path fill="#F39A00" d="M181.5,161.5c-4.5,0.4-8.5-2.9-8.9-7.4c-0.4-4.5,2.9-8.5,7.4-8.9l-1.1-11.5l-9.9,1l-0.3-3.6l9.9-1l-0.3-2.9
		l-9.9,1L165,93.2l9.9-1l-0.9-9.4l-17.9,1.7l9.7,101.5c6.1-4.6,11.7-9.8,16.6-15.6L181.5,161.5"/>
	<path fill="#F39A00" d="M191.9,81.2L174,82.9l0.9,9.4l9-0.9l3.3,34.9l-9,0.9l0.3,2.9l9-0.9l0.3,3.6l-9,0.9l1.1,11.5
		c4.5-0.4,8.5,2.9,8.9,7.4c0.4,4.5-2.9,8.5-7.4,8.9l0.9,9c6.4-7.6,11.7-16.1,15.6-25.3L191.9,81.2"/>
	<path fill="#F9B900" d="M191.9,81.2L174,82.9l0.9,9.4l9-0.9l3.3,34.9l-9,0.9l0.3,2.9l9-0.9l0.3,3.6l-9,0.9l1.1,11.5
		c0.3,0,0.5,0,0.8,0c4.2,0,7.7,3.2,8.2,7.4c0,0.3,0,0.5,0,0.8c0,4.2-3.2,7.8-7.4,8.2l0.9,9c6.4-7.6,11.7-16.1,15.6-25.3L191.9,81.2"
		/>
	<circle fill="#FFFFFF" cx="180.8" cy="153.4" r="8.2"/>
	<path fill="#FFFFFF" d="M168.3,128.2l9.9-1l9-0.9l-3.3-34.9l-9,0.9l-9.9,1L168.3,128.2z M181.6,94.6l0.6,5.9l-13.8,1.3l-0.6-5.9
		L181.6,94.6z"/>
	<polygon fill="#FFFFFF" points="168.9,134.7 178.9,133.7 187.9,132.9 187.5,129.3 178.5,130.1 168.6,131.1 	"/>
	
		<rect x="168" y="95.3" transform="matrix(-0.9954 9.549911e-002 -9.549911e-002 -0.9954 358.4556 179.2543)" fill="#F39A00" width="13.9" height="5.9"/>
	<path fill="#4D4D4D" d="M42,86.7c-2,2.6-0.9,8.1,0,11.3c0.5,2.8,1.6,4.6,2.6,5.8c2.6,17.1,16.8,32.9,29.9,32.9
		c15.2,0,29-17.1,31.7-32.9c1.1-1.1,2.2-2.9,2.7-5.8c0.9-3.2,2-8.8,0-11.4c-0.1-0.1-0.2-0.3-0.3-0.4c1.8-6.7,4.2-20.6-4.1-30
		c-0.7-0.9-5.4-6.5-15.4-9.5l-4.8-1.6c-7.8-2.4-12.8-3-13-3c-0.4,0-0.7,0-1.1,0.1c-0.3,0.1-1.2,0.3-1.9,0.2
		c-1.9-0.3-4.7,0.7-5.2,0.9c-0.6,0.3-15.8,6.3-20.4,20.5c-0.4,1.2-2.3,7.2,0.2,21.9C42.6,86,42.3,86.3,42,86.7z"/>
	<polygon points="53.4,128 53.5,128.1 53.4,127.8 53.3,128.1 	"/>
	<path fill="#3498DB" d="M65.2,139.4l10.3,15.7v-13.4C69.3,141.6,65.2,139.4,65.2,139.4z"/>
	<polygon fill="#3498DB" points="65.2,160.1 75.4,198.5 75.4,155.9 	"/>
	<path fill="#4D4D4D" d="M50.1,131.8c0.2-0.2,0.4-0.3,0.7-0.5C50.6,131.4,50.4,131.6,50.1,131.8z"/>
	<path fill="#4D4D4D" d="M96.7,128.7l0.1,0.1L96.7,128.7z"/>
	<rect x="98.1" y="128.1" fill="#4D4D4D" width="0" height="26.9"/>
	<path fill="#4D4D4D" d="M97.1,129.4L97.1,129.4L97.1,129.4z"/>
	<path fill="#4D4D4D" d="M51,131.1c0.1-0.1,0.3-0.2,0.4-0.4C51.3,130.8,51.2,130.9,51,131.1z"/>
	<path fill="#4D4D4D" d="M53.1,128.7c0.1-0.2,0.2-0.4,0.2-0.5C53.3,128.3,53.2,128.5,53.1,128.7z"/>
	<path fill="#4D4D4D" d="M52.9,156.1l0.5-28L52.9,156.1z"/>
	<path fill="#4D4D4D" d="M72.4,200.2l-5.1-11.5l-23.3-31.3l6.1-25.7c-7.2,5.3-23.6,10.3-23.6,10.3c-7.3,2.8-10.4,7-10.4,7
		c-0.1,0.1-0.1,0.2-0.2,0.4C27.3,173,47.6,191.4,72.4,200.2z"/>
	<path fill="#4D4D4D" d="M52.1,130c-0.1,0.2-0.3,0.3-0.5,0.5C51.8,130.3,52,130.2,52.1,130z"/>
	<path fill="#4D4D4D" d="M52.2,129.9c0.2-0.2,0.3-0.4,0.4-0.5C52.5,129.6,52.4,129.8,52.2,129.9z"/>
	<path fill="#4D4D4D" d="M52.8,129.2c0.1-0.1,0.2-0.3,0.3-0.4C52.9,129,52.9,129.1,52.8,129.2z"/>
	<path fill="#4D4D4D" d="M133.6,149.2c0,0-0.2-0.3-0.6-0.7c-1.2-1.3-4.3-4.3-9.9-6.4c0,0-0.6-0.2-1.6-0.5c-0.5-0.2-1-0.5-1.5-0.7
		c-6-2.7-11.3-4.4-11.3-4.4c-1.3-0.5-2.5-0.9-3.6-1.4c-2.9-1.4-5.5-3-7.1-4.6l10.3,25.2L84.1,189l-6,13.1c8.9,2.6,18.2,3.9,27.9,3.9
		c14.1,0,27.4-2.9,39.6-8.1c-0.4-6.6-1.8-21.9-5.8-34.9C138.1,157.8,136.1,153,133.6,149.2z"/>
	<path fill="#8EA3B3" d="M67.3,188.8L67.3,188.8l-14.5-32.7l0.5-28v0l0,0c-0.1,0.2-0.1,0.4-0.2,0.5l-0.1,0.2
		c-0.1,0.1-0.2,0.3-0.3,0.4l-0.1,0.2c-0.1,0.2-0.3,0.4-0.4,0.5l-0.1,0.1c-0.1,0.2-0.3,0.3-0.5,0.5l-0.2,0.2
		c-0.1,0.1-0.3,0.2-0.4,0.4l-0.2,0.2c-0.2,0.2-0.4,0.3-0.7,0.5l0,0v0l-6.1,25.7L67.3,188.8z"/>
	<path fill="#8EA3B3" d="M108.6,155.8l-10.4-25.2l0,0c-0.4-0.4-0.8-0.8-1.1-1.2l0,0c-0.1-0.2-0.2-0.4-0.3-0.5l-0.1-0.1
		c-0.1-0.2-0.3-0.4-0.3-0.6v0l3.3,26.7l0.2,0L84.4,189v0L108.6,155.8z"/>
	<path fill="#3498DB" d="M75.4,141.6v13.4l0.4,0.7l10.7-16.4C82.5,141.1,78.6,141.7,75.4,141.6"/>
	<path fill="#49B7EB" d="M86.5,139.4c-3.9,1.7-7.6,2.2-10.8,2.2c-0.1,0-0.2,0-0.4,0v13.4l0.4,0.7L86.5,139.4"/>
	<polyline fill="#3498DB" points="75.8,155.8 75.4,155.9 75.4,198.5 75.8,200.2 86.5,160.1 75.8,155.8 	"/>
	<polyline fill="#49B7EB" points="75.8,155.8 75.4,155.9 75.4,198.5 75.8,200.2 86.5,160.1 75.8,155.8 	"/>
	<circle fill="#FFFFFF" cx="172.4" cy="24.6" r="15.6"/>
	<path fill="#E6E6E6" d="M188,24.6h-1c0,4-1.6,7.7-4.3,10.3c-2.6,2.6-6.3,4.3-10.3,4.3c-4,0-7.7-1.6-10.3-4.3
		c-2.6-2.6-4.3-6.3-4.3-10.3c0-4,1.6-7.7,4.3-10.3c2.6-2.6,6.3-4.3,10.3-4.3c4,0,7.7,1.6,10.3,4.3c2.6,2.6,4.3,6.3,4.3,10.3H188h1
		c0-9.2-7.4-16.6-16.6-16.6c-9.2,0-16.6,7.4-16.6,16.6c0,9.2,7.4,16.6,16.6,16.6c9.2,0,16.6-7.4,16.6-16.6H188z"/>
	<line fill="#FFFFFF" x1="736.4" y1="362" x2="550.4" y2="362"/>
	<polyline fill="#E6E6E6" points="736.4,361 550.4,361 550.4,363 736.4,363 	"/>
	<line fill="#FFFFFF" x1="172.4" y1="689" x2="313.4" y2="689"/>
	<polyline fill="#E6E6E6" points="172.4,690 313.4,690 313.4,688 172.4,688 	"/>
	<line fill="#FFFFFF" x1="106.4" y1="490" x2="106.4" y2="678"/>
	<polyline fill="#E6E6E6" points="105.4,490 105.4,678 107.4,678 107.4,490 	"/>
	<path fill="#CCCCCC" d="M211,774.2c0,58-47,105-105,105c-58,0-105-47-105-105s47-105,105-105C164,669.2,211,716.2,211,774.2"/>
	<path fill="#E6E6E6" d="M211,774.2h-1c0,28.7-11.6,54.7-30.5,73.5c-18.8,18.8-44.8,30.5-73.5,30.5c-28.7,0-54.7-11.6-73.5-30.5
		C13.6,828.9,2,802.9,2,774.2c0-28.7,11.6-54.7,30.5-73.5c18.8-18.8,44.8-30.5,73.5-30.5c28.7,0,54.7,11.6,73.5,30.5
		c18.8,18.8,30.5,44.8,30.5,73.5H211h1c0-58.5-47.5-106-106-106c-58.5,0-106,47.5-106,106c0,58.5,47.5,106,106,106
		c58.5,0,106-47.5,106-106H211z"/>
	<path fill="#E6E6E6" d="M206,774.2c0,55.2-44.8,100-100,100S6,829.4,6,774.2c0-55.2,44.8-100,100-100S206,718.9,206,774.2"/>
	<path fill="#FFFFFF" d="M122.5,833.1H41c-2.9,0-5.2-2.3-5.2-5.2V718c0-2.9,2.3-5.2,5.2-5.2h81.5c2.9,0,5.2,2.3,5.2,5.2v110
		C127.7,830.8,125.4,833.1,122.5,833.1"/>
	<g>
		<defs>
			<polyline id="SVGID_3_" points="87.4,722 41.4,722 41.4,726 87.4,726 87.4,722 			"/>
		</defs>
		<clipPath id="SVGID_4_">
			<use xlink:href="#SVGID_3_"  overflow="visible"/>
		</clipPath>
		<rect x="41.4" y="722" clip-path="url(#SVGID_4_)" fill="#CCCCCC" width="46" height="4"/>
	</g>
	<path fill="#CCCCCC" d="M77.1,733H41.4v4h33C74.6,735.4,75.7,733.9,77.1,733"/>
	<polyline fill="#CCCCCC" points="74.4,745 41.4,745 41.4,748 74.4,748 74.4,745 	"/>
	<polyline fill="#CCCCCC" points="74.4,755 41.4,755 41.4,759 74.4,759 74.4,755 	"/>
	<polyline fill="#CCCCCC" points="69.4,767 41.4,767 41.4,770 67.4,770 67.4,768.1 69.4,767 	"/>
	<polyline fill="#CCCCCC" points="122.4,722 90.4,722 90.4,732 122.4,732 122.4,722 	"/>
	<polyline fill="#CCCCCC" points="67.4,777 41.4,777 41.4,825 67.4,825 67.4,821.4 67.4,777 	"/>
	<g>
		<defs>
			<path id="SVGID_5_" d="M122.5,833.1H41c-2.9,0-5.2-2.3-5.2-5.2V718c0-2.9,2.3-5.2,5.2-5.2h81.5c2.9,0,5.2,2.3,5.2,5.2v110
				C127.7,830.8,125.4,833.1,122.5,833.1"/>
		</defs>
		<clipPath id="SVGID_6_">
			<use xlink:href="#SVGID_5_"  overflow="visible"/>
		</clipPath>
		<path clip-path="url(#SVGID_6_)" fill="#DADBDB" d="M70.4,825h-3v1.5c0,0.2,0.5,0.3,0.5,0.5l0.2-0.1c0,2.1,1.4,4,3.2,5.1
			c-0.6-0.9-0.9-2-0.9-2.9V825 M72.2,770h-4.8v7h3v-6.3l6,3.4v-0.3l-5.5-3.1L72.2,770 M77.5,759h-3.1v5.2l-5,2.8h7.9l0.2-0.1V759
			 M77.5,748h-3.1v7h3.1V748 M78.6,737h-4.2c0,0.2,0,0.4,0,0.5v7.5h3.1v-4.9C77.5,739,77.9,737.9,78.6,737 M90.4,732H80.2
			c-1.1,0-2.2,0.4-3.1,1h4.3v2.1c0.4-0.1,0.9-0.2,1.4-0.2h7.6V732 M127.7,732h-5.3v2.9h5.3V732"/>
		<path clip-path="url(#SVGID_6_)" fill="#AEAFAF" d="M81.4,733h-4.3c-1.4,0.9-2.4,2.4-2.6,4h4.2c0.7-0.9,1.7-1.6,2.8-1.9V733"/>
		<polyline clip-path="url(#SVGID_6_)" fill="#AEAFAF" points="77.5,745 74.4,745 74.4,748 77.5,748 77.5,745 		"/>
		<polyline clip-path="url(#SVGID_6_)" fill="#AEAFAF" points="77.5,755 74.4,755 74.4,759 77.5,759 77.5,755 		"/>
		<polyline clip-path="url(#SVGID_6_)" fill="#AEAFAF" points="77.3,767 69.4,767 67.4,768.1 67.4,770 72.2,770 77.3,767 		"/>
		<polyline clip-path="url(#SVGID_6_)" fill="#AEAFAF" points="122.4,732 90.4,732 90.4,734.9 122.4,734.9 122.4,732 		"/>
		<polyline clip-path="url(#SVGID_6_)" fill="#AEAFAF" points="70.4,777 67.4,777 67.4,821.4 67.4,825 70.4,825 70.4,777 		"/>
	</g>
	<polyline fill="#0D8C79" points="123.3,800.8 70.9,770.7 123.3,740.1 175.7,770.7 123.3,800.8 	"/>
	<path fill="#FFFFFF" d="M169.5,804.7H77.5v-64.5c0-2.9,2.3-5.2,5.2-5.2h81.5c2.9,0,5.2,2.3,5.2,5.2V804.7"/>
	<rect x="83.4" y="745" fill="#84BF00" width="46" height="3"/>
	<rect x="83.4" y="755" fill="#84BF00" width="39" height="4"/>
	<rect x="83.4" y="767" fill="#84BF00" width="43" height="3"/>
	<polyline fill="#84BF00" points="163.4,782 83.4,782 83.4,777 163.4,777 163.4,782 	"/>
	<polyline fill="#84BF00" points="163.4,792 83.4,792 83.4,789 163.4,789 163.4,792 	"/>
	<rect x="132.4" y="745" fill="#3498DB" width="31" height="25"/>
	<polyline fill="#0B7868" points="76.4,771.1 76.4,773.1 77.5,773.8 77.5,771.6 76.4,771.1 	"/>
	<path fill="#DADBDB" d="M135.4,792h-26.1l13,7.5L135.4,792 M101.8,782h-10l12.2,7h14L101.8,782 M152.9,782h-10.5l-16.1,7h14.3
		L152.9,782 M77.5,771.6v2.2l5.9,3.4V777h6.8L77.5,771.6 M168.4,770.6l-14.6,6.4h7.8l6.8-3.9v1.6V770.6"/>
	<path fill="#71A400" d="M90.2,777h-6.8v0.2l8.4,4.8h10L90.2,777 M161.6,777h-7.8l-11.5,5h10.5L161.6,777"/>
	<polyline fill="#71A400" points="140.6,789 126.3,789 122.2,790.8 118.1,789 104.1,789 109.3,792 135.4,792 140.6,789 	"/>
	<path fill="#989999" d="M155.7,782h-2.8l-12.2,7h2.8L155.7,782 M168.4,773.1l-6.8,3.9h1.8v0.6l5-2.9V773.1"/>
	<polyline fill="#4F7200" points="163.4,777 161.6,777 152.9,782 155.7,782 163.4,777.6 163.4,777 	"/>
	<polyline fill="#828383" points="76.4,773.8 76.4,774.1 77.5,774.8 77.5,774.5 76.4,773.8 	"/>
	<polyline fill="#085448" points="76.4,773.1 76.4,773.8 77.5,774.5 77.5,773.8 76.4,773.1 	"/>
	<path fill="#989999" d="M91.8,782h-1.8l12.2,7h1.8L91.8,782 M77.5,773.8v0.7v0.3l5.9,3.4v-1L77.5,773.8"/>
	<polyline fill="#4F7200" points="83.4,777.2 83.4,778.2 90.1,782 91.8,782 83.4,777.2 	"/>
	<polyline fill="#989999" points="138.2,792 135.4,792 122.3,799.5 109.3,792 107.5,792 122.8,800.8 138.2,792 	"/>
	<path fill="#4F7200" d="M104.1,789h-1.8l5.2,3h1.8L104.1,789 M143.4,789h-2.8l-5.2,3h2.8L143.4,789"/>
	<path fill="#FCF6E3" d="M122.8,800.8l-52.4-30.1v58.4c0,3.2,3.9,6.9,7.1,6.9h92.6c3.2,0,5.3-3.6,5.3-6.9v-58.4L122.8,800.8"/>
	<path fill="#EAE4D3" d="M122.7,800.8L70.4,824v5.2c0,1.2,0.5,2.4,1.4,3.5c-0.5-0.9-0.8-1.9-0.8-2.9l52.4-28.7L122.7,800.8"/>
	<path fill="#EAE4D3" d="M172.9,835c-0.9,0.6-1.9,1-3.1,1H77.5l0,0h92.6C171.2,836,172.1,835.6,172.9,835 M123.7,801.2l51.7,28.3
		c0-0.1,0-0.2,0-0.4V824L123.7,801.2"/>
	<polyline fill="#EAE4D3" points="123.3,801 123.3,801 123.7,801.2 123.3,801 	"/>
	<path fill="#D6D6D6" d="M175.4,829.5c-0.1,2.1-1,4.3-2.5,5.5c1.7-1.2,2.8-3.2,2.8-5.4L175.4,829.5"/>
	<path fill="#D6D6D6" d="M72.1,833.1L72.1,833.1c1.1,1.7,3,2.9,5.1,2.9h0.3C75.7,836,73.6,834.8,72.1,833.1"/>
	<path fill="#EDEDED" d="M71.8,832.7c0.1,0.2,0.2,0.3,0.3,0.5h0.1C72,833,71.9,832.8,71.8,832.7"/>
	<path fill="#D9D4C4" d="M123.3,801l-52.4,28.7c0,1,0.3,2,0.8,2.9c1.4,1.9,3.7,3.3,5.8,3.3h92.3c1.1,0,2.2-0.4,3.1-1
		c1.5-1.2,2.4-3.4,2.5-5.5l-51.7-28.3L123.3,801"/>
	<path fill="#3498DB" d="M109.7,824.8c0.6-0.1,1.2,0.3,1.4,0.9l1.7-0.3c0-0.7,0.4-1.2,1-1.4c0.6-0.1,1.2,0.3,1.4,0.9l1.8-0.3
		l-0.3-1.4c-0.7,0-1.3-0.4-1.4-1c-0.1-0.6,0.3-1.2,1-1.4l-0.3-1.6c-0.7,0-1.3-0.4-1.4-1c-0.1-0.6,0.3-1.2,1-1.4l-0.2-1.4
		c-0.7,0-1.3-0.4-1.4-1c-0.1-0.6,0.3-1.2,1-1.4l-0.3-1.7c-0.7,0-1.3-0.4-1.4-1c-0.1-0.6,0.3-1.2,1-1.4l-0.2-1.3
		c-0.7,0-1.3-0.4-1.4-1c-0.1-0.6,0.3-1.2,1-1.4l-0.3-1.7c-0.7,0-1.3-0.4-1.4-1c-0.1-0.6,0.3-1.2,1-1.4l-0.3-1.5l-2,0.4
		c0,0.7-0.4,1.2-1,1.4c-0.6,0.1-1.2-0.3-1.4-0.9l-1.6,0.3c0.1,0.7-0.4,1.4-1,1.5c-0.7,0.1-1.3-0.4-1.5-1.1l-1.5,0.3
		c0.1,0.7-0.4,1.4-1,1.5c-0.6,0.1-1.3-0.3-1.5-1l-1.3,0.2l0,0.1c0.1,0.8-0.3,1.5-1,1.6c-0.7,0.1-1.4-0.4-1.5-1.2l0-0.1l-1.6,0.3
		c0.1,0.7-0.4,1.4-1,1.5c-0.7,0.1-1.3-0.3-1.5-1l-1.7,0.3c0,0.7-0.4,1.3-1,1.4c-0.6,0.1-1.2-0.3-1.5-1l-1.7,0.3
		c0.1,0.7-0.4,1.4-1,1.5s-1.3-0.4-1.5-1.1l-1.5,0.3c0.1,0.7-0.4,1.4-1,1.5c-0.7,0.1-1.3-0.4-1.5-1.1l-1.7,0.3l0.2,1.3l0.2-0.1
		c0.8-0.1,1.5,0.3,1.7,1c0.1,0.7-0.4,1.3-1.2,1.5l-0.2,0l0.3,1.6l0.2-0.1c0.8-0.1,1.5,0.3,1.7,1c0.1,0.7-0.4,1.3-1.2,1.5l-0.2,0
		l0.2,1.3l0.2-0.1c0.8-0.1,1.5,0.3,1.7,1c0.1,0.7-0.4,1.3-1.2,1.5l-0.2,0l0.3,1.6l0.2-0.1c0.8-0.1,1.5,0.3,1.7,1
		c0.1,0.7-0.4,1.3-1.2,1.5l-0.2,0l0.2,1.4l0.2,0c0.8-0.1,1.5,0.3,1.7,1c0.1,0.7-0.4,1.3-1.2,1.5l-0.2,0l0.3,1.6l0.2,0
		c0.8-0.1,1.5,0.3,1.7,1c0.1,0.7-0.4,1.3-1.2,1.5l-0.2,0l0.3,1.6l1.7-0.3c-0.1-0.7,0.4-1.4,1-1.5c0.6-0.1,1.3,0.3,1.5,1l1.7-0.3
		c-0.1-0.7,0.4-1.4,1-1.5c0.6-0.1,1.3,0.3,1.5,1l1.5-0.3c-0.1-0.7,0.4-1.4,1-1.5c0.6-0.1,1.3,0.3,1.5,1l1.7-0.3
		c-0.1-0.7,0.4-1.4,1-1.5c0.7-0.1,1.3,0.3,1.5,1l1.4-0.3c-0.1-0.7,0.4-1.4,1-1.5c0.7-0.1,1.3,0.3,1.5,1l1.7-0.3
		c-0.1-0.7,0.4-1.4,1-1.5c0.6-0.1,1.3,0.3,1.5,1l1.6-0.3C108.7,825.5,109.1,824.9,109.7,824.8"/>
	<path fill="#FFFFFF" d="M98.9,823.3c-2.6,0.5-4.7,0.1-6.4-1c-1.7-1.1-2.7-2.8-3.1-5.2c-0.3-1.7-0.2-3.2,0.3-4.7
		c0.5-1.5,1.3-2.7,2.6-3.7c1.2-1,2.7-1.7,4.5-2c1.5-0.3,2.9-0.2,4.1,0.2c1.3,0.4,2.3,1.1,3.2,2.1c0.8,1,1.4,2.2,1.6,3.7l0,0.1
		c0.2,0.9,0.2,1.8,0,2.7c-0.2,0.8-0.5,1.6-1,2.1c-0.5,0.6-1.1,0.9-1.8,1l-0.1,0c-0.5,0.1-1,0-1.4-0.1s-0.8-0.4-1-0.8l-0.2,0
		c-0.6,1-1.4,1.6-2.6,1.8c-1.2,0.2-2.1,0-3-0.6c-0.8-0.6-1.3-1.5-1.6-2.8c-0.3-1.4,0-2.6,0.8-3.7c0.7-1,1.8-1.7,3.3-1.9
		c0.6-0.1,1.2-0.2,1.9-0.2c0.7,0,1.3,0,1.8,0.1l0.6,5c0.2,0.9,0.5,1.4,1,1.3c0.4-0.1,0.7-0.5,0.9-1.1c0.1-0.7,0.1-1.5-0.1-2.5l0-0.1
		c-0.2-1-0.6-1.9-1.2-2.7c-0.6-0.7-1.3-1.3-2.2-1.6c-0.9-0.3-1.8-0.4-2.8-0.2l-0.1,0c-1.4,0.2-2.5,0.7-3.4,1.5
		c-0.9,0.7-1.5,1.7-1.9,2.8c-0.3,1.1-0.4,2.4-0.2,3.8c0.3,1.9,1.1,3.2,2.3,4c1.2,0.8,2.7,1.1,4.6,0.7c1.6-0.3,3.1-0.9,4.7-1.8
		l0.3,1.9C102.2,822.4,100.6,823,98.9,823.3z M97.6,812.3c-0.8,0.1-1.4,0.5-1.8,1.1c-0.4,0.6-0.5,1.4-0.3,2.3c0.3,1.4,1,2,2.1,1.8
		c0.6-0.1,1-0.4,1.3-0.9c0.2-0.5,0.3-1.2,0.2-2.2l-0.3-2.3C98.5,812.2,98.1,812.3,97.6,812.3z"/>
	<rect x="299.4" y="1" fill="#FFFFFF" width="600" height="175"/>
	<polygon fill="#E6E6E6" points="899.4,176 899.4,175 300.4,175 300.4,2 898.4,2 898.4,176 899.4,176 899.4,175 899.4,176 
		900.4,176 900.4,0 298.4,0 298.4,177 900.4,177 900.4,176 	"/>
	<rect x="1.4" y="313" fill="#FFFFFF" width="600" height="175"/>
	<polygon fill="#E6E6E6" points="1.4,488 1.4,489 602.4,489 602.4,312 0.4,312 0.4,489 1.4,489 1.4,488 2.4,488 2.4,314 600.4,314 
		600.4,487 1.4,487 1.4,488 2.4,488 	"/>
	<rect x="299.4" y="665" fill="#FFFFFF" width="600" height="175"/>
	<polygon fill="#E6E6E6" points="899.4,840 899.4,839 300.4,839 300.4,666 898.4,666 898.4,840 899.4,840 899.4,839 899.4,840 
		900.4,840 900.4,664 298.4,664 298.4,841 900.4,841 900.4,840 	"/>
	<circle fill="#FFFFFF" cx="794.8" cy="173.4" r="15.6"/>
	<path fill="#E6E6E6" d="M794.8,189v-1c-4,0-7.7-1.6-10.3-4.3c-2.6-2.6-4.3-6.3-4.3-10.3c0-4,1.6-7.7,4.3-10.3
		c2.6-2.6,6.3-4.3,10.3-4.3c4,0,7.7,1.6,10.3,4.3c2.6,2.6,4.3,6.3,4.3,10.3c0,4-1.6,7.7-4.3,10.3c-2.6,2.6-6.3,4.3-10.3,4.3V189v1
		c9.2,0,16.6-7.4,16.6-16.6c0-9.2-7.4-16.6-16.6-16.6c-9.2,0-16.6,7.4-16.6,16.6c0,9.2,7.4,16.6,16.6,16.6V189z"/>
	<circle fill="#FFFFFF" cx="736.8" cy="361.4" r="15.6"/>
	<path fill="#E6E6E6" d="M736.8,377v-1c-4,0-7.7-1.6-10.3-4.3c-2.6-2.6-4.3-6.3-4.3-10.3c0-4,1.6-7.7,4.3-10.3
		c2.6-2.6,6.3-4.3,10.3-4.3c4,0,7.7,1.6,10.3,4.3c2.6,2.6,4.3,6.3,4.3,10.3c0,4-1.6,7.7-4.3,10.3c-2.6,2.6-6.3,4.3-10.3,4.3V377v1
		c9.2,0,16.6-7.4,16.6-16.6c0-9.2-7.4-16.6-16.6-16.6c-9.2,0-16.6,7.4-16.6,16.6c0,9.2,7.4,16.6,16.6,16.6V377z"/>
	<circle fill="#FFFFFF" cx="172.4" cy="689.8" r="15.6"/>
	<path fill="#E6E6E6" d="M188,689.8h-1c0,4-1.6,7.7-4.3,10.3c-2.6,2.6-6.3,4.3-10.3,4.3c-4,0-7.7-1.6-10.3-4.3
		c-2.6-2.6-4.3-6.3-4.3-10.3c0-4,1.6-7.7,4.3-10.3c2.6-2.6,6.3-4.3,10.3-4.3c4,0,7.7,1.6,10.3,4.3c2.6,2.6,4.3,6.3,4.3,10.3H188h1
		c0-9.2-7.4-16.6-16.6-16.6c-9.2,0-16.6,7.4-16.6,16.6c0,9.2,7.4,16.6,16.6,16.6c9.2,0,16.6-7.4,16.6-16.6H188z"/>
	<circle fill="#FFFFFF" cx="106.4" cy="489.4" r="15.6"/>
	<path fill="#E6E6E6" d="M106.4,505v-1c-4,0-7.7-1.6-10.3-4.3c-2.6-2.6-4.3-6.3-4.3-10.3c0-4,1.6-7.7,4.3-10.3
		c2.6-2.6,6.3-4.3,10.3-4.3c4,0,7.7,1.6,10.3,4.3c2.6,2.6,4.3,6.3,4.3,10.3c0,4-1.6,7.7-4.3,10.3c-2.6,2.6-6.3,4.3-10.3,4.3V505v1
		c9.2,0,16.6-7.4,16.6-16.6c0-9.2-7.4-16.6-16.6-16.6c-9.2,0-16.6,7.4-16.6,16.6c0,9.2,7.4,16.6,16.6,16.6V505z"/>
</g>
</svg>
