<svg xmlns="http://www.w3.org/2000/svg" viewBox="0 0 150 150" style="enable-background:new 0 0 150 150"><defs/><path d="m75 148c-40.3 0-73-32.8-73-73s32.7-73 73-73 73 32.8 73 73-32.7 73-73 73" style="fill:#3397da"/><g style="fill:#fff"><path d="M75,3.9c39.2,0,71.1,31.8,71.1,71.1s-31.8,71.1-71.1,71.1S3.9,114.2,3.9,75S35.8,3.9,75,3.9 M75,0  C33.6,0,0,33.6,0,75s33.6,75,75,75s75-33.6,75-75S116.4,0,75,0L75,0z"/><path d="m62.5 77.1l3-6.9 26.8-4.4 13.4 16.4v-3.6h11.8v31.9h-11.8v-4.7l-14.8-6-36.7 4.7-19.3-10.4.2-3.6-2.8-2.8 1.9-11.2 23.8 7.7 19.1-5.2v-1.3l-14.6-.6m-4.9-6.5l-.6 3.1c-.6 2.9-5.8 3.5-10.7 2.5-4.9-.9-9.6-3.5-9-6.4l.6-2.8c.7-2.8 5.8-3.3 10.7-2.4 4.6 1 9 3.2 9 6m-17.6-3c-.2.6 2.3 2.7 7.2 3.6s7.9-.1 8.1-.7c.2-.6-2.2-2.7-7.2-3.6-5-.9-7.9 0-8.1.7m24.7-3.7l-2.5 1.9c-2.4 1.7-6.6-1.4-9.6-5.4-3-4-4.7-9.1-2.3-10.8l2.2-1.7c2.4-1.6 6.6 1.5 9.6 5.5 2.7 3.8 4.4 8.5 2.6 10.5m-10.9-14.1c-.5.4-.2 3.5 2.8 7.6 3 4.1 5.8 5.4 6.4 5 .6-.4.2-3.5-2.8-7.6-3-4-6-5.4-6.4-5m20.3 9.8l-3.2-.2c-3-.2-4.1-5.4-3.7-10.4s2.4-9.9 5.3-9.7l2.8.2c2.8.4 4 5.4 3.6 10.4-.4 4.7-2.2 9.3-4.8 9.7m.8-17.8c-.6-.1-2.4 2.5-2.8 7.6-.4 5.1.9 7.9 1.6 7.9.6.1 2.4-2.5 2.8-7.6.4-5.1-.9-7.9-1.6-7.9"/></g></svg>