<svg xmlns="http://www.w3.org/2000/svg" viewBox="0 0 150 150" style="enable-background:new 0 0 150 150"><defs/><path d="m75 148c-40.3 0-73-32.8-73-73s32.7-73 73-73 73 32.8 73 73-32.7 73-73 73" style="fill:#3397da"/><g style="fill:#fff"><path d="M75,3.9c39.2,0,71.1,31.8,71.1,71.1s-31.8,71.1-71.1,71.1S3.9,114.2,3.9,75S35.8,3.9,75,3.9 M75,0  C33.6,0,0,33.6,0,75s33.6,75,75,75s75-33.6,75-75S116.4,0,75,0L75,0z"/><path d="m102.9 104.6h-4.7v-3.2c0-.2-.2-.3-.3-.3s-.3.2-.3.3v3.2h-6v-3.2c0-.2-.2-.3-.3-.3s-.3.2-.3.3v3.2h-6v-3.2c0-.2-.2-.3-.3-.3s-.3.2-.3.3v3.2h-6v-3.2c0-.2-.2-.3-.3-.3s-.3.2-.3.3v3.2h-6v-3.2c0-.2-.2-.3-.3-.3s-.3.2-.3.3v3.2h-6v-3.2c0-.2-.2-.3-.3-.3s-.3.2-.3.3v3.2h-6v-3.2c0-.2-.2-.3-.3-.3s-.3.2-.3.3v3.2h-6v-3.2c0-.2-.2-.3-.3-.3-.2 0-.3.2-.3.3v3.2h-12.5v-7.5h2.7c.2 0 .3-.2.3-.3s-.2-.3-.3-.3h-2.7v-6h2.7c.2 0 .3-.2.3-.3s-.2-.3-.3-.3h-2.7v-6h2.7c.2 0 .3-.2.3-.3s-.2-.3-.3-.3h-2.7v-6h2.7c.2 0 .3-.2.3-.3s-.2-.3-.3-.3h-2.7v-6h2.7c.2 0 .3-.2.3-.3s-.2-.3-.3-.3h-2.7v-6h2.7c.2 0 .3-.2.3-.3s-.2-.5-.3-.5h-2.7v-6h2.7c.2 0 .3-.2.3-.3s-.2-.3-.3-.3h-2.7v-6h2.7c.2 0 .3-.2.3-.3 0-.2-.2-.3-.3-.3h-2.7v-5.4c0-.6-.5-1-1-1s-1 .5-1 1v61.2c0 .6.5 1 1 1h65c.6 0 1-.5 1-1 0-.8-.4-1.3-1-1.3"/><path d="m47.3 52.5h6.8v45.1h-6.8z"/><path d="m68.6 73.7c-.9-1.2-1.6-2.4-2.1-3.7h-4.7v27.6h6.8v-23.9"/><path d="m82.9 80.4c-.2 0-.5 0-.6 0-2.1 0-4.2-.4-6.2-1.1v18.2h6.8c0 0 0-17.1 0-17.1"/><path d="m97.8 84.5l-6.6-6.6c-.1.1-.2.1-.2.2v19.6h6.8c0-.1 0-13.2 0-13.2"/><path d="m112.5 91.4l-18.4-18.6c4.6-5.9 4.2-14.6-1.3-20.1-5.9-5.9-15.6-5.9-21.5 0-5.9 5.9-5.9 15.6 0 21.5 5.4 5.4 14.1 5.8 20.1 1.3l18.4 18.6c.7.7 2 .7 2.7 0 .8-.8.8-2 0-2.7m-22.3-20c-4.4 4.4-11.6 4.4-16 0-4.4-4.4-4.4-11.6 0-16 4.4-4.4 11.6-4.4 16 0 4.4 4.4 4.4 11.6 0 16"/><path d="m82.7 61.8c-1.7-.7-2.2-1.2-2.2-2 0-.6.5-1.3 1.7-1.3 1.2 0 2 .5 2.3.6.1.1.2.1.3 0 .1 0 .2-.1.2-.2l.5-1.3c.1-.2 0-.3-.2-.4-.7-.4-1.5-.6-2.4-.7v-1.6c0-.2-.2-.3-.3-.3h-1.2c-.2 0-.3.2-.3.3v1.7c-1.8.4-3 1.7-3 3.5 0 2.1 1.7 3 3.5 3.7 1.4.6 2.1 1.2 2.1 2.1 0 .9-.8 1.6-2 1.6-.9 0-1.9-.3-2.7-.8-.1-.1-.2-.1-.3 0-.1 0-.2.1-.2.2l-.5 1.4c-.1.2 0 .3.2.4.7.5 1.8.9 2.8.9v1.7c0 .2.2.3.3.3h1.3c.2 0 .3-.2.3-.3v-1.7c1.9-.4 3.1-1.8 3.1-3.6 0-2.1-1.1-3.2-3.3-4.2"/></g></svg>