<svg xmlns="http://www.w3.org/2000/svg" viewBox="0 0 60.7 50" style="enable-background:new 0 0 60.7 50"><defs/><g style="fill:#fff"><path d="m30.7 9.1c10.2.1 16.6-.5 17.5 10.8h12.5c0-17.5-15.3-19.9-30.3-19.9-15 0-30.3 2.4-30.3 19.9h12.4c.9-11.5 8.1-10.9 18.2-10.8"/><path d="m6.2 25.6c3 0 5.6.2 6.1-2.8.1-.4.1-.9.1-1.4h-.1-12.3c0 4.4 2.8 4.2 6.2 4.2"/><path d="m48.3 21.4h-.1c0 .5 0 1 .1 1.4.6 2.8 3.1 2.6 6.1 2.6 3.5 0 6.3.2 6.3-4h-12.4"/><path d="m42.2 18.4v-1.8c0-.8-.9-.8-2-.8h-1.8c-1.1 0-2 0-2 .8v1.5 1.2h-13v-1.2-1.5c0-.8-.9-.8-2-.8h-1.8c-1.1 0-2 0-2 .8v1.8 1.5c-3 3.1-12.6 16.2-13 17.8v10.6c0 1 .8 1.8 1.8 1.8h47.3c1 0 1.8-.8 1.8-1.8v-10.7c-.3-1.5-10-14.6-13-17.7v-1.5zm-19.8 20.7c-1 0-1.7-.8-1.7-1.7s.8-1.7 1.7-1.7c1 0 1.7.8 1.7 1.7s-.8 1.7-1.7 1.7m0-5.9c-1 0-1.7-.8-1.7-1.7 0-1 .8-1.7 1.7-1.7 1 0 1.7.8 1.7 1.7 0 .9-.8 1.7-1.7 1.7m0-5.9c-1 0-1.7-.8-1.7-1.7 0-1 .8-1.7 1.7-1.7 1 0 1.7.8 1.7 1.7 0 .9-.8 1.7-1.7 1.7m7 11.8c-1 0-1.7-.8-1.7-1.7s.8-1.7 1.7-1.7c1 0 1.7.8 1.7 1.7s-.7 1.7-1.7 1.7m0-5.9c-1 0-1.7-.8-1.7-1.7 0-1 .8-1.7 1.7-1.7 1 0 1.7.8 1.7 1.7.1.9-.7 1.7-1.7 1.7m0-5.9c-1 0-1.7-.8-1.7-1.7 0-1 .8-1.7 1.7-1.7 1 0 1.7.8 1.7 1.7.1.9-.7 1.7-1.7 1.7m7.1 11.8c-1 0-1.7-.8-1.7-1.7s.8-1.7 1.7-1.7c1 0 1.7.8 1.7 1.7s-.7 1.7-1.7 1.7m0-5.9c-1 0-1.7-.8-1.7-1.7 0-1 .8-1.7 1.7-1.7 1 0 1.7.8 1.7 1.7.1.9-.7 1.7-1.7 1.7m0-5.9c-1 0-1.7-.8-1.7-1.7 0-1 .8-1.7 1.7-1.7 1 0 1.7.8 1.7 1.7.1.9-.7 1.7-1.7 1.7"/></g></svg>