<svg xmlns="http://www.w3.org/2000/svg" viewBox="0 0 150 150" style="enable-background:new 0 0 150 150"><defs/><path d="m75 148c-40.3 0-73-32.8-73-73s32.7-73 73-73 73 32.8 73 73-32.7 73-73 73" style="fill:#3397da"/><g style="fill:#fff"><path d="M75,3.9c39.2,0,71.1,31.8,71.1,71.1s-31.8,71.1-71.1,71.1S3.9,114.2,3.9,75S35.8,3.9,75,3.9 M75,0  C33.6,0,0,33.6,0,75s33.6,75,75,75s75-33.6,75-75S116.4,0,75,0L75,0z"/><path d="m50.3 89.4l-3.3-7v32l51.6.1v-3.3l-48.3-.1z"/><path d="m96.3 54v3.3h3.3v-8.2l-13.5-13.6h-39.1v9.2h3.3v-5.9h32.2v15.2h13.8m-10.4-13.9l10.4 10.4v.2h-10.5l.1-10.6"/><path d="m68.4 104.9l-.2-16.3-14.7-30.7-4.7-9.9-11.6 5.6 4.7 9.9 14.7 30.5 11.8 10.9m-6.9-11.1l.3-3.5 3.2 1.8 1.6-4.3.5 1 .1 9.3-2.8 1.4-6.6-6.2-.8-1.3 4.5 1.8m-19.3-35.5l-1.7-3.6 7.3-3.5 1.7 3.6-7.3 3.5"/><path d="m92.2 114.5v-7.1c-5-.2-9.9-1.6-12.7-3.2l2.2-8.8c3.2 1.7 7.5 3.3 12.4 3.3 4.3 0 7.2-1.7 7.2-4.7 0-2.8-2.4-4.7-7.9-6.5-8-2.7-13.4-6.4-13.4-13.7 0-6.6 4.7-11.7 12.6-13.3v-7.1h7.3v6.6c5 .2 8.4 1.3 10.8 2.4l-2.2 8.5c-2-.8-5.4-2.5-10.7-2.5-4.8 0-6.4 2.1-6.4 4.2 0 2.4 2.6 4 8.9 6.4 8.9 3.2 12.5 7.3 12.5 14 0 6.6-4.7 12.3-13.3 13.8v7.6l-7.3.1"/></g></svg>