<svg xmlns="http://www.w3.org/2000/svg" viewBox="0 0 34.4 50" style="enable-background:new 0 0 34.4 50"><defs/><path d="m33.6 12.4c-.2-.7-.5-1.4-.8-2-3.2-7.6-10.2-10.4-15.8-10.4-7.6 0-15.9 5.1-17 15.5v2.1c0 .1 0 .9.1 1.3.6 5 4.6 10.3 7.5 15.2 3.2 5.3 6.4 10.6 9.7 15.8 2-3.4 4-6.9 5.9-10.2.5-1 1.2-2 1.7-2.9.4-.6 1-1.2 1.3-1.8 3.2-5.8 8.2-11.6 8.2-17.3v-2.4c0-.5-.7-2.7-.8-2.9m-16.5 10.8c-2.2 0-4.7-1.1-5.9-4.2-.2-.5-.2-1.5-.2-1.6v-1.4c0-3.9 3.3-5.7 6.2-5.7 3.6 0 6.3 2.8 6.3 6.4.1 3.6-2.8 6.5-6.4 6.5" style="fill:#fff"/></svg>