<svg xmlns="http://www.w3.org/2000/svg" viewBox="0 0 1000 200" style="enable-background:new 0 0 1000 200"><defs/><circle cx="50" cy="50" r="49" style="fill:#3498db"/><path d="m50 100c-27.6 0-50-22.4-50-50s22.4-50 50-50 50 22.4 50 50-22.4 50-50 50m0-98c-26.5 0-48 21.5-48 48s21.6 48 48 48 48-21.6 48-48c0-26.5-21.5-48-48-48" style="fill:#fff"/><circle cx="50" cy="150" r="49.5" style="fill:#3498db"/><g style="fill:#fff"><path d="m50 200c-27.6 0-50-22.4-50-50s22.4-50 50-50 50 22.4 50 50-22.4 50-50 50m0-99c-27 0-49 22-49 49s22 49 49 49 49-22 49-49-22-49-49-49"/><circle cx="50" cy="150" r="46.5"/></g><circle cx="150" cy="50" r="49" style="fill:#3498db"/><path d="m150 100c-27.6 0-50-22.4-50-50s22.4-50 50-50 50 22.4 50 50-22.4 50-50 50m0-98c-26.5 0-48 21.6-48 48 0 26.5 21.6 48 48 48s48-21.6 48-48c0-26.5-21.5-48-48-48" style="fill:#fff"/><circle cx="150" cy="150" r="49.5" style="fill:#3498db"/><g style="fill:#fff"><path d="m150 200c-27.6 0-50-22.4-50-50s22.4-50 50-50 50 22.4 50 50-22.4 50-50 50m0-99c-27 0-49 22-49 49s22 49 49 49 49-22 49-49-22-49-49-49"/><circle cx="150" cy="150" r="46.5"/></g><circle cx="250" cy="50" r="49" style="fill:#3498db"/><path d="m250 100c-27.6 0-50-22.4-50-50s22.4-50 50-50 50 22.4 50 50-22.4 50-50 50m0-98c-26.5 0-48 21.6-48 48 0 26.5 21.6 48 48 48s48-21.6 48-48c0-26.5-21.5-48-48-48" style="fill:#fff"/><circle cx="250" cy="150" r="49.5" style="fill:#3498db"/><g style="fill:#fff"><path d="m250 200c-27.6 0-50-22.4-50-50s22.4-50 50-50 50 22.4 50 50-22.4 50-50 50m0-99c-27 0-49 22-49 49s22 49 49 49 49-22 49-49-22-49-49-49"/><circle cx="250" cy="150" r="46.5"/></g><circle cx="350" cy="50" r="49" style="fill:#3498db"/><path d="m350 100c-27.6 0-50-22.4-50-50s22.4-50 50-50 50 22.4 50 50-22.4 50-50 50m0-98c-26.5 0-48 21.6-48 48 0 26.5 21.6 48 48 48s48-21.6 48-48c0-26.5-21.5-48-48-48" style="fill:#fff"/><circle cx="350" cy="150" r="49.5" style="fill:#3498db"/><g style="fill:#fff"><path d="m350 200c-27.6 0-50-22.4-50-50s22.4-50 50-50 50 22.4 50 50-22.4 50-50 50m0-99c-27 0-49 22-49 49s22 49 49 49 49-22 49-49-22-49-49-49"/><circle cx="350" cy="150" r="46.5"/></g><circle cx="450" cy="50" r="49" style="fill:#3498db"/><path d="m450 100c-27.6 0-50-22.4-50-50s22.4-50 50-50 50 22.4 50 50-22.4 50-50 50m0-98c-26.5 0-48 21.6-48 48 0 26.5 21.6 48 48 48s48-21.6 48-48c0-26.5-21.5-48-48-48" style="fill:#fff"/><circle cx="450" cy="150" r="49.5" style="fill:#3498db"/><g style="fill:#fff"><path d="m450 200c-27.6 0-50-22.4-50-50s22.4-50 50-50 50 22.4 50 50-22.4 50-50 50m0-99c-27 0-49 22-49 49s22 49 49 49 49-22 49-49-22-49-49-49"/><circle cx="450" cy="150" r="46.5"/></g><circle cx="550" cy="50" r="49" style="fill:#3498db"/><path d="m550 100c-27.6 0-50-22.4-50-50s22.4-50 50-50 50 22.4 50 50-22.4 50-50 50m0-98c-26.5 0-48 21.6-48 48 0 26.5 21.6 48 48 48s48-21.6 48-48c0-26.5-21.5-48-48-48" style="fill:#fff"/><circle cx="550" cy="150" r="49.5" style="fill:#3498db"/><g style="fill:#fff"><path d="m550 200c-27.6 0-50-22.4-50-50s22.4-50 50-50 50 22.4 50 50-22.4 50-50 50m0-99c-27 0-49 22-49 49s22 49 49 49 49-22 49-49-22-49-49-49"/><circle cx="550" cy="150" r="46.5"/></g><circle cx="650" cy="50" r="49" style="fill:#3498db"/><path d="m650 100c-27.6 0-50-22.4-50-50s22.4-50 50-50 50 22.4 50 50-22.4 50-50 50m0-98c-26.5 0-48 21.6-48 48 0 26.5 21.6 48 48 48s48-21.6 48-48c0-26.5-21.5-48-48-48" style="fill:#fff"/><circle cx="650" cy="150" r="49.5" style="fill:#3498db"/><g style="fill:#fff"><path d="m650 200c-27.6 0-50-22.4-50-50s22.4-50 50-50 50 22.4 50 50-22.4 50-50 50m0-99c-27 0-49 22-49 49s22 49 49 49 49-22 49-49-22-49-49-49"/><circle cx="650" cy="150" r="46.5"/></g><circle cx="750" cy="50" r="49" style="fill:#3498db"/><path d="m750 100c-27.6 0-50-22.4-50-50s22.4-50 50-50 50 22.4 50 50-22.4 50-50 50m0-98c-26.5 0-48 21.6-48 48 0 26.5 21.6 48 48 48s48-21.6 48-48c0-26.5-21.5-48-48-48" style="fill:#fff"/><circle cx="750" cy="150" r="49.5" style="fill:#3498db"/><g style="fill:#fff"><path d="m750 200c-27.6 0-50-22.4-50-50s22.4-50 50-50 50 22.4 50 50-22.4 50-50 50m0-99c-27 0-49 22-49 49s22 49 49 49 49-22 49-49-22-49-49-49"/><circle cx="750" cy="150" r="46.5"/></g><circle cx="850" cy="50" r="49" style="fill:#3498db"/><path d="m850 100c-27.6 0-50-22.4-50-50s22.4-50 50-50 50 22.4 50 50-22.4 50-50 50m0-98c-26.5 0-48 21.6-48 48 0 26.5 21.6 48 48 48s48-21.6 48-48c0-26.5-21.5-48-48-48" style="fill:#fff"/><circle cx="850" cy="150" r="49.5" style="fill:#3498db"/><g style="fill:#fff"><path d="m850 200c-27.6 0-50-22.4-50-50s22.4-50 50-50 50 22.4 50 50-22.4 50-50 50m0-99c-27 0-49 22-49 49s22 49 49 49 49-22 49-49-22-49-49-49"/><circle cx="850" cy="150" r="46.5"/></g><circle cx="950" cy="50" r="49" style="fill:#3498db"/><path d="m950 100c-27.6 0-50-22.4-50-50s22.4-50 50-50 50 22.4 50 50-22.4 50-50 50m0-98c-26.5 0-48 21.6-48 48 0 26.5 21.6 48 48 48s48-21.6 48-48c0-26.5-21.5-48-48-48" style="fill:#fff"/><circle cx="950" cy="150" r="49.5" style="fill:#3498db"/><g style="fill:#fff"><path d="m950 200c-27.6 0-50-22.4-50-50s22.4-50 50-50 50 22.4 50 50-22.4 50-50 50m0-99c-27 0-49 22-49 49s22 49 49 49 49-22 49-49-22-49-49-49"/><circle cx="950" cy="150" r="46.5"/><path d="m32.5 60.2l-2.4-4.9v22.7h36.7v-2.4h-34.3z"/><path d="m65.2 35.1v2.4h2.4v-5.8l-9.8-9.7h-27.7v6.6h2.4v-4.2h22.9v10.7h9.8m-7.5-9.9l7.4 7.4v.1h-7.4c0 0 0-7.5 0-7.5"/><path d="m45.3 71.2l-.1-11.6-10.5-21.8-3.4-7-8.2 4 3.4 7 10.5 21.6 8.3 7.8m-4.9-7.9l.2-2.5 2.2 1.3 1.1-3.1.3.7.1 6.6-2 1-4.6-4.3-.5-1 3.2 1.3m-13.7-25.2l-1.2-2.6 5.2-2.5 1.2 2.6-5.2 2.5"/><path d="m62.2 78v-5c-3.6-.2-7-1.1-9-2.3l1.6-6.2c2.2 1.2 5.4 2.3 8.8 2.3 3 0 5.1-1.2 5.1-3.3 0-2-1.7-3.3-5.6-4.6-5.7-1.9-9.5-4.6-9.5-9.7 0-4.7 3.3-8.3 9-9.4v-5h5.2v4.7c3.6.2 5.9.9 7.7 1.7l-1.5 6c-1.4-.6-3.8-1.8-7.6-1.8-3.4 0-4.6 1.5-4.6 3 0 1.7 1.9 2.9 6.4 4.6 6.3 2.2 8.8 5.1 8.8 9.9 0 4.7-3.3 8.7-9.4 9.8v5.3h-5.4"/><path d="m141.2 51.5l2.1-4.8 18.9-3.1 9.5 11.6v-2.5h8.3v22.4h-8.3v-3.3l-10.4-4.2-25.9 3.3-13.7-7.3.2-2.5-1.9-1.9 1.3-7.9 16.8 5.4 13.3-3.7v-1l-10.2-.5m-3.4-4.5l-.4 2.2c-.4 2-4.1 2.4-7.6 1.8-3.5-.7-6.8-2.4-6.4-4.5l.4-1.9c.5-2 4.1-2.4 7.6-1.7 3.2.6 6.4 2.2 6.4 4.1m-12.4-2.1c-.1.4 1.6 1.9 5.1 2.6 3.5.7 5.6 0 5.7-.5.1-.4-1.6-1.9-5.1-2.6-3.5-.7-5.6.1-5.7.5m17.4-2.6l-1.8 1.3c-1.7 1.2-4.7-1-6.8-3.8s-3.3-6.4-1.6-7.6l1.6-1.2c1.7-1.1 4.6 1.1 6.7 3.9 1.9 2.7 3.1 6 1.9 7.4m-7.8-9.9c-.4.3-.1 2.5 2 5.3 2.1 2.9 4.1 3.8 4.5 3.5s.1-2.5-2-5.3c-2.1-2.9-4.1-3.8-4.5-3.5m14.3 6.9l-2.2-.2c-2.1-.2-2.9-3.8-2.6-7.3.3-3.5 1.6-7 3.7-6.8l2 .2c2 .3 2.8 3.8 2.5 7.3-.3 3.2-1.5 6.5-3.4 6.8m.6-12.6c-.4 0-1.7 1.8-2 5.3s.7 5.5 1.1 5.6c.4 0 1.7-1.8 2-5.3.3-3.6-.6-5.6-1.1-5.6"/><path d="m255.9 49.2h18.2v3.5h-18.2z"/><path d="m259.5 42.9h14.6v3.5h-14.6z"/><path d="m226.5 22v5.4l2.4-.7v-2.3h47.6v30.3h-37.9l-.1 2.4h40.4v-35.1z"/><circle cx="230.3" cy="35" r="7"/><path d="m236.3 59.5h.4l.7-12.8 12.2-6.3-1.6-3-11.2 5.7h-3.9l-2.7 3.1-2.6-3.1-5.7 1.1-.4 12.6h2.4l.2 2.7h.3v15.3h-.4l-2.9.6v2.6h2.4l2.8-.4.1.4h3.1v-15.7h1.8v15.7h3.1v-.4l2.8.4h2.4v-2.6l-2.8-.6h-.5z"/><path d="m250.3 49.7l-.9-.4 7.5-16 10-1.6 7.4-4.7.5.8-7.6 4.8-9.6 1.5z"/><circle cx="249.6" cy="49.5" r="2"/><circle cx="257" cy="33.6" r="2"/><circle cx="267.3" cy="31.7" r="2"/><circle cx="273.8" cy="27" r="2"/><path d="m356.4 49.2h19.5v3.7h-19.5z"/><path d="m360.2 42.4h15.7v3.7h-15.7z"/><path d="m324.9 20v5.8l2.5-.8v-2.5h51v32.5h-40.6l-.1 2.6h43.2v-37.6z"/><circle cx="328.9" cy="33.9" r="7.5"/><path d="m335.3 60.1h.5l.7-13.6 13-6.7-1.7-3.3-11.9 6.1h-4.2l-2.9 3.4-2.8-3.4-6.1 1.2-.4 13.5h2.6l.1 2.8h.4v16.5h-.5l-3 .6v2.8h2.6l3-.5v.5h3.3v-16.9h1.9v16.9h3.4v-.5l3 .5h2.6v-2.8l-3.1-.6h-.5z"/><path d="m350.3 49.6l-.9-.4 8-17.1 10.7-1.7 7.9-5 .5.8-8.1 5.2-10.3 1.6z"/><circle cx="349.5" cy="49.4" r="2.2"/><circle cx="357.5" cy="32.4" r="2.2"/><circle cx="368.5" cy="30.4" r="2.2"/><circle cx="375.5" cy="25.4" r="2.2"/><path d="m475.7 40.7c-.2-1.8-.3-5 1.4-6 0 0 .1 0 .1-.1 1.4-.4 2.3-1.1 1.6-1.9l-20.4-6.2-33.1 4.6c0 0-3.8.5-3.5 6.4.2 3.2 1.2 4.8 2.1 5.6l-2.7.8c-.8.8.2 1.5 1.6 1.9 0 0 0 .1.1.1 1.7 1.1 1.7 4.2 1.4 6-6.1 1.7-3.9 2.3-3.9 2.3l1.3.3c-.9.8-1.9 2.5-1.7 5.5.3 5.9 3.5 6.3 3.5 6.3l21.6 7 32.7-7.9c0 0 2.2-.6-3.9-2.3-.2-1.8-.3-5 1.4-6 0 0 .1 0 .1-.1 1.4-.4 2.3-1.1 1.6-1.9l-1.4-.4c.9-.6 2.4-2.1 2.6-5.9.2-2.7-.5-4.2-1.3-5.1l2.8-.7c-.1 0 2.1-.5-4-2.3m-27.3 0l5.5-1.1 18.6-3.8 2.8-.6c-.9 1.6-.8 3.8-.7 5.3 0 .3.1.6.1.8l-3 .8-23.4 5.8.1-7.2m-23.6 5.7l2.8.6 17.8 3.7 1.6.3 4.7 1 .2 7.2-24.1-6-2.4-.6c0-.2.1-.5.1-.8.1-1.6.2-3.8-.7-5.4m-1.1-9.1c0-1.6.2-2.7.8-3.3.4-.4.8-.4 1.1-.4.2 0 .3 0 .3 0l14.3 4.6 7.1 2.3-.2 7.2-20-5.6-1.1-.3h-.1c-.1.1-2.1-.1-2.2-4.5m21.5 33l-21-5.9h-.1c-.1 0-2.1-.2-2.2-4.6 0-1.6.2-2.7.8-3.3.4-.4.8-.4 1.1-.4.2 0 .3 0 .3 0l21.4 7-.3 7.2m27.5-7.4c0 .3.1.6.1.8l-26.5 6.6.2-7.2 5.7-1.2.8.2 3.1-1 14.4-3 2.8-.6c-.8 1.7-.8 4-.6 5.4m1.5-9.8h-.1l-2 .6-19 5.3-.2-7.2 6.2-2 15.1-4.9c0 0 .8-.2 1.4.4.6.6.8 1.7.8 3.3-.2 4.4-2.2 4.5-2.2 4.5"/><path d="m573.1 31.3l-.8-1.8c0 0 1.8-4.1 1.7-4.2l-2.4-2.3c-.2-.2-4.3 1.7-4.3 1.7l-1.9-.8c0 0-1.7-4.1-1.9-4.1h-3.4c-.2 0-1.8 4.2-1.8 4.2l-1.9.8c0 0-4.2-1.8-4.3-1.6l-2.4 2.3c-.2.2 1.7 4.2 1.7 4.2l-.8 1.8c0 0-4.2 1.6-4.2 1.8v3.3c0 .2 4.2 1.7 4.2 1.7l.8 1.8c0 0-1.8 4.1-1.7 4.2l2.4 2.3c.2.2 4.3-1.7 4.3-1.7l1.9.8c0 0 1.7 4.1 1.9 4.1h3.4c.2 0 1.8-4.2 1.8-4.2l1.9-.8c0 0 4.2 1.8 4.3 1.6l2.4-2.3c.2-.2-1.7-4.2-1.7-4.2l.8-1.8c0 0 4.2-1.6 4.2-1.9v-3.3c0-.1-4.2-1.6-4.2-1.6m-6.2 3.5c0 2.7-2.2 4.8-4.9 4.8s-4.9-2.2-4.9-4.8 2.2-4.8 4.9-4.8 4.9 2.1 4.9 4.8"/><path d="m564 72.1c-.7 0-1 .6-1 1.3v3.8h-33.9c-2 0-3.7-1.7-3.8-3.7v-.1c0-.1 0-.3 0-.4.1-2 1.8-3.7 3.8-3.7h34.6c.1 0 .2.1.3.1l-.2.1c.7 0 1.1-.5 1.1-1.3v-17.6c-1 1-.5 1.6-1.3 1.6h-3.4c-1.2 0-1.6-.9-3.2-4.9l-.5-.5c-3.5 1.6-3.9 1.3-4.3 1.3h-.7l-.5-.4-2.4-2.3c-.9-.9-.7-1.6 1-5.4l-.1-.5c-3.9-1.4-4.6-1.8-4.6-3.1v-3.3c0-1.3.6-1.6 4.6-3.2l.2-.3c-.1-.2-.2-.5-.3-.5h-20.3c-3.6 0-6.5 2.8-6.5 6.3 0 0 0 0 0 .1 0 3.3 0 33.5 0 37.5 0 .1 0 .1 0 .2 0 3.4 2.7 6.5 6.1 6.7.1 0 .1.2.2.2h35.2c.7 0 .9-1 .9-1.8v-5c0-.6-.3-1.2-1-1.2"/><path d="m690 54.2c0 .2-.1.4-.2.5l-15.4 11.8c-.1.1-.2.1-.4.1-.1 0-.3 0-.4-.1-.2-.2-.3-.5-.2-.7l3.1-7.8h-18.1c-.3 0-.6-.3-.6-.6v-6.3c0-.3.3-.6.6-.6h18.1l-3.1-7.8c-.1-.3 0-.6.2-.7.2-.2.5-.2.8 0l15.4 11.8c.1 0 .2.2.2.4"/><path d="m610 45.7c0-.2.1-.4.2-.5l15.4-11.8c.1-.1.2-.1.4-.1.1 0 .3 0 .4.1.2.2.3.5.2.7l-3.1 7.8h18.1c.3 0 .6.3.6.6v6.3c0 .3-.3.6-.6.6h-18.1l3.1 7.8c.1.3 0 .6-.2.7-.2.2-.5.2-.8 0l-15.4-11.8c-.1 0-.2-.2-.2-.4"/><path d="m652.5 63.6h1.4c.6 0 1.4-.3 1.4-1.4v-2.7c0-1.1-.8-1.4-1.4-1.4h-1.4v5.5"/><path d="m647 51.3v2.7c0 1.1.8 1.4 1.4 1.4h1.4v-5.4h-1.4c-.6 0-1.4.2-1.4 1.3"/><path d="m657.2 41c.5-.5.8-1.2.8-1.9 0-1.5-1.2-2.7-2.6-2.7.9-.6 7.9-5.4 5.4-7.5-2.7-2.3-8.8 2.2-10.9 2-2.1.2-8.2-4.3-10.9-2-2.6 2.2 4.5 6.9 5.4 7.5-1.5.1-2.6 1.2-2.6 2.7 0 .7.3 1.4.8 1.9-6.9 3.7-11.7 12.5-11.7 22.7 0 1.9.2 3.7.5 5.5 12.2 3.6 25.1 3.6 37.3 0 .3-1.8.5-3.6.5-5.5-.3-10.3-5.1-19-12-22.7m-3.3 14.4c1.6 0 4.1 1.1 4.1 4.1v2.7c0 3-2.5 4.1-4.1 4.1h-1.4v1.4c0 .8-.6 1.4-1.4 1.4-.8 0-1.4-.6-1.4-1.4v-1.4h-4.1c-.8 0-1.4-.6-1.4-1.4s.6-1.4 1.4-1.4h4.1v-5.5h-1.4c-1.6 0-4.1-1.1-4.1-4.1v-2.7c0-3 2.5-4.1 4.1-4.1h1.4v-1.4c0-.8.6-1.4 1.4-1.4.8 0 1.4.6 1.4 1.4v1.4h4.1c.8 0 1.4.6 1.4 1.4 0 .8-.6 1.4-1.4 1.4h-4.1v5.5c0 0 1.4 0 1.4 0"/><path d="m772 73.3h-3.7v-2.5c0-.1-.1-.3-.3-.3-.1 0-.3.1-.3.3v2.5h-4.7v-2.5c0-.1-.1-.3-.3-.3-.1 0-.3.1-.3.3v2.5h-4.7v-2.5c0-.1-.1-.3-.3-.3-.1 0-.3.1-.3.3v2.5h-4.7v-2.5c0-.1-.1-.3-.3-.3-.1 0-.3.1-.3.3v2.5h-4.7v-2.5c0-.1-.1-.3-.3-.3-.1 0-.3.1-.3.3v2.5h-4.7v-2.5c0-.1-.1-.3-.3-.3s-.3.1-.3.3v2.5h-4.7v-2.5c0-.1-.1-.3-.3-.3s-.3.1-.3.3v2.5h-4.7v-2.5c0-.1-.1-.3-.3-.3-.1 0-.3.1-.3.3v2.5h-9.5v-5.9h2.1c.1 0 .3-.1.3-.3s-.1-.3-.3-.3h-2.1v-4.7h2.1c.1 0 .3-.1.3-.3 0-.1-.1-.3-.3-.3h-2.1v-4.7h2.1c.1 0 .3-.1.3-.3 0-.1-.1-.3-.3-.3h-2.1v-4.7h2.1c.1 0 .3-.1.3-.3 0-.1-.1-.3-.3-.3h-2.1v-4.7h2.1c.1 0 .3-.1.3-.3 0-.1-.1-.3-.3-.3h-2.1v-4.7h2.1c.1 0 .3-.1.3-.3 0-.1-.1-.3-.3-.3h-2.1v-4.3h2.1c.1 0 .3-.1.3-.3 0-.1-.1-.3-.3-.3h-2.1v-4.7h2.1c.1 0 .3-.1.3-.3s-.1-.3-.3-.3h-2.1v-4.3c0-.4-.4-.8-.8-.8s-.8.4-.8.8v48.2c0 .4.4.8.8.8h51.7c.4 0 .8-.4.8-.8 0-.3-.4-.7-.8-.7"/><path d="m728.2 32.3h5.4v35.5h-5.4z"/><path d="m744.9 49c-.7-.9-1.3-1.9-1.7-2.9h-3.7v21.7h5.4v-18.8"/><path d="m756.2 54.2c-.2 0-.3 0-.5 0-1.7 0-3.3-.3-4.8-.9v14.4h5.4v-13.5h-.1"/><path d="m768 57.5l-5.2-5.2c-.1 0-.1.1-.2.1v15.4h5.4v-10.3"/><path d="m779.6 62.9l-14.5-14.7c3.6-4.7 3.3-11.5-1-15.8-4.7-4.7-12.3-4.7-16.9 0-4.7 4.7-4.7 12.3 0 16.9 4.3 4.3 11.1 4.6 15.8 1l14.4 14.7c.6.6 1.5.6 2.1 0s.6-1.5.1-2.1m-17.7-15.7c-3.5 3.5-9.2 3.5-12.7 0s-3.5-9.2 0-12.7 9.2-3.5 12.7 0 3.5 9.2 0 12.7"/><path d="m756.1 39.6c-1.4-.6-1.8-.9-1.8-1.5 0-.5.4-1.1 1.4-1.1s1.6.3 1.8.5c.1 0 .1 0 .2 0 .1 0 .1-.1.2-.2l.4-1c0-.1 0-.3-.1-.3-.6-.3-1.2-.5-1.9-.6v-1.3c0-.1-.1-.3-.3-.3h-1c-.1 0-.3.1-.3.3v1.4c-1.4.3-2.3 1.4-2.3 2.7 0 1.6 1.3 2.4 2.7 2.9 1.1.5 1.6.9 1.6 1.6 0 .8-.6 1.3-1.6 1.3-.7 0-1.5-.2-2.1-.6-.1 0-.2-.1-.2 0s-.1.1-.2.2l-.4 1c0 .1 0 .2.1.3.5.4 1.4.7 2.3.7v1.3c0 .1.1.3.3.3h1c.1 0 .3-.1.3-.3v-1.4c1.5-.3 2.5-1.5 2.5-2.9-.1-1.3-.8-2.3-2.6-3"/><path d="m858.1 47.9c1.1-.7 2.3-1 3.6-.9l14.1-14.1-7.9-7.9-14.1 14.1c.1 1.3-.2 2.5-.9 3.6l5.2 5.2"/><path d="m833.5,65.1-.5-.5-2.7,2.1-4.5,7.1 1.2,1.2 7.1-4.5 2.1-2.7-.5-.5 9-9-2.2-2.2z"/><path d="m845.8 40.2c1-3.7.1-7.8-2.8-10.8-2.9-2.9-7-3.8-10.7-2.8l6.2 6.2-1.6 6.1-6.1 1.6-6.2-6.2c-1 3.7-.1 7.8 2.8 10.7 3 3 7.4 3.9 11.2 2.7l25.7 25.7c1 1 2.3 1.5 3.7 1.5 1.3 0 2.7-.5 3.7-1.5 2-2 2-5.3 0-7.4l-25.9-25.8m22.6 32.3c-1.1 0-2-.9-2-2s.9-2 2-2 2 .9 2 2-.9 2-2 2"/><path d="m965.1 62c-4.2-2.1-8.5-3.9-12.8-5.6-.3-.1-.7-.4-.8-.7-.4-.8-.6-1.6-.9-2.4-.2-.5-.3-1-.9-1.3-.2-.1-.3-.4-.3-.6 0-1.9-.4-3.9 1-5.6 0-.1.1-.1.1-.2.8-1.7.9-3.6 2-5.1v-.1c.1-1.2.3-2.4.4-3.6 0-.1-.1-.4-.2-.5-.6-.2-.6-.7-.6-1.2 0-2.3 0-2.7 0-5 0-1.4-.4-2.5-1.4-3.5-1.2-1-2.4-2.1-3.6-3.1-.6-.5-.6-.9-.1-1.4.2-.2.5-.4.8-.6-.1-.1-.1-.2-.2-.3-.4 0-.7 0-1.1 0-1.3.2-2.6.4-3.9.7-2.5.6-4.9 1.4-6.9 3-1.4 1.1-2.5 2.5-2.6 4.3-.1 1-.1 2-.1 2.9 0 1.6 0 1.2 0 2.8 0 .3-.2.7-.3.7-.6.2-.7.6-.6 1.2.1.4 0 .8.1 1.1.2 1 .5 2 .7 3 .2.7.6 1.4.7 2.2.2 1.5.8 2.8 1.8 3.9.2.2.3.5.3.7-.1 1.1-.2 2.3-.4 3.4 0 .2-.3.6-.5.6-.8.2-.9.7-1.1 1.3-.2.8-.5 1.6-.8 2.3-.1.2-.3.5-.6.6-1.3.6-2.7 1.1-4.1 1.7-1.4.6-2.9 1.2-4.3 1.9-1.5.7-2.9 1.5-4.3 2.2-.8.4-1.6.9-2.3 1.6l-2 8.5c9.7 0 14.7 7 24.8 7.9l-3.7-5.1 5.7-15.7-1.8-3.8h3.6l-1.8 3.8 5.7 15.7-3.6 5c7.3-1.2 19-7.7 24.7-7.7l-2-8.6c-.3-.3-1-.9-1.8-1.3"/><path d="m972.2 20c-6.7 0-12.2 5.5-12.2 12.2 0 .3 0 .5 0 .8l-5.6 3.6c-.3.2-.5.6-.4 1s.4.7.7.8l8.5 2.1c2.3 2.5 5.5 3.9 8.9 3.9 6.7 0 12.2-5.5 12.2-12.2s-5.3-12.2-12.1-12.2m0 22.3c-2.9 0-5.7-1.2-7.6-3.4-.1-.2-.3-.3-.5-.3l-6.6-1.6 4.1-2.7c.3-.2.5-.6.4-1 0-.4-.1-.8-.1-1.2 0-5.6 4.6-10.2 10.2-10.2s10.2 4.6 10.2 10.2-4.4 10.2-10.1 10.2"/><path d="m968.6 31.8h-1.7c-.1 0-.2.1-.2.2v5.6c0 .1.1.2.2.2h1.7c.1 0 .2-.1.2-.2v-5.6c0-.1-.1-.2-.2-.2"/><path d="m972.9 29.5h-1.7c-.1 0-.2.1-.2.2v8c0 .1.1.2.2.2h1.7c.1 0 .2-.1.2-.2v-8c0-.1-.1-.2-.2-.2"/><path d="m977.1 25h-1.7c-.1 0-.2.1-.2.2v12.5c0 .1.1.2.2.2h1.7c.1 0 .2-.1.2-.2v-12.5c0-.1-.1-.2-.2-.2"/></g><g style="fill:#3498db"><path d="m32.5 160.2l-2.4-4.9v22.7h36.7v-2.4h-34.3z"/><path d="m65.2 135.1v2.4h2.4v-5.8l-9.7-9.7h-27.8v6.6h2.4v-4.2h22.9v10.7h9.8m-7.5-9.9l7.4 7.4v.1h-7.4c0 0 0-7.5 0-7.5"/><path d="m45.3 171.2l-.1-11.6-10.5-21.9-3.4-7-8.2 4 3.4 7 10.5 21.7 8.3 7.8m-4.9-7.9l.2-2.5 2.2 1.3 1.1-3.1.3.7.1 6.6-2 1-4.7-4.4-.5-1 3.3 1.4m-13.7-25.2l-1.2-2.6 5.2-2.5 1.2 2.6-5.2 2.5"/><path d="m62.2 178v-5c-3.6-.2-7-1.1-9-2.3l1.6-6.2c2.2 1.2 5.4 2.3 8.8 2.3 3 0 5.1-1.2 5.1-3.3 0-2-1.7-3.3-5.6-4.6-5.7-1.9-9.5-4.6-9.5-9.7 0-4.7 3.3-8.3 9-9.4v-5h5.2v4.7c3.6.2 5.9.9 7.7 1.7l-1.5 6c-1.4-.6-3.8-1.8-7.6-1.8-3.4 0-4.6 1.5-4.6 3 0 1.7 1.9 2.9 6.4 4.6 6.3 2.2 8.8 5.1 8.8 9.9 0 4.7-3.3 8.7-9.4 9.8v5.4l-5.4-.1"/><path d="m141.2 151.5l2.1-4.8 18.9-3.1 9.5 11.6v-2.5h8.3v22.4h-8.3v-3.3l-10.4-4.2-25.9 3.3-13.7-7.3.2-2.5-1.9-1.9 1.3-7.9 16.8 5.4 13.3-3.7v-1l-10.2-.5m-3.4-4.5l-.4 2.2c-.4 2-4.1 2.4-7.6 1.8-3.5-.7-6.8-2.4-6.4-4.5l.4-1.9c.5-2 4.1-2.4 7.6-1.7 3.2.6 6.4 2.2 6.4 4.1m-12.4-2.1c-.1.4 1.6 1.9 5.1 2.6 3.5.7 5.6 0 5.7-.5.1-.4-1.6-1.9-5.1-2.6-3.5-.7-5.6.1-5.7.5m17.4-2.6l-1.8 1.3c-1.7 1.2-4.7-1-6.8-3.8s-3.3-6.4-1.6-7.6l1.6-1.2c1.7-1.1 4.6 1.1 6.7 3.9 1.9 2.7 3.1 6 1.9 7.4m-7.8-9.9c-.4.3-.1 2.5 2 5.3 2.1 2.9 4.1 3.8 4.5 3.5s.1-2.5-2-5.3c-2.1-2.9-4.1-3.8-4.5-3.5m14.3 6.9l-2.2-.2c-2.1-.2-2.9-3.8-2.6-7.3.3-3.5 1.6-7 3.7-6.8l2 .2c2 .3 2.8 3.8 2.5 7.3-.3 3.2-1.5 6.5-3.4 6.8m.6-12.6c-.4 0-1.7 1.8-2 5.3s.7 5.5 1.1 5.6c.4 0 1.7-1.8 2-5.3.3-3.6-.6-5.6-1.1-5.6"/><path d="m255.9 149.2h18.2v3.5h-18.2z"/><path d="m259.5 142.9h14.6v3.5h-14.6z"/><path d="m226.5 122v5.4l2.4-.7v-2.3h47.6v30.3h-37.9l-.1 2.4h40.4v-35.1z"/><circle cx="230.3" cy="135" r="7"/><path d="m236.3 159.5h.4l.7-12.8 12.2-6.3-1.6-3-11.2 5.7h-3.9l-2.7 3.1-2.6-3.1-5.7 1.1-.4 12.6h2.4l.2 2.7h.3v15.3h-.4l-2.9.6v2.6h2.4l2.8-.4.1.4h3.1v-15.7h1.8v15.7h3.1v-.4l2.8.4h2.4v-2.6l-2.8-.6h-.5z"/><path d="m250.3 149.7l-.9-.4 7.5-16 10-1.6 7.4-4.7.5.8-7.6 4.8-9.6 1.5z"/><circle cx="249.6" cy="149.5" r="2"/><circle cx="257" cy="133.6" r="2"/><circle cx="267.3" cy="131.7" r="2"/><circle cx="273.8" cy="127" r="2"/><path d="m356.4 149.2h19.5v3.7h-19.5z"/><path d="m360.2 142.4h15.7v3.7h-15.7z"/><path d="m324.9 120v5.8l2.5-.8v-2.5h51v32.5h-40.6l-.1 2.6h43.2v-37.6z"/><circle cx="328.9" cy="133.9" r="7.5"/><path d="m335.3 160.1h.5l.7-13.6 13-6.7-1.7-3.3-11.9 6.1h-4.2l-2.9 3.4-2.8-3.4-6.1 1.2-.4 13.5h2.6l.1 2.8h.4v16.5h-.5l-3 .6v2.8h2.6l3-.5v.5h3.3v-16.9h1.9v16.9h3.4v-.5l3 .5h2.6v-2.8l-3.1-.6h-.5z"/><path d="m350.3 149.6l-.9-.4 8-17.1 10.7-1.7 7.9-5 .5.8-8.1 5.2-10.3 1.6z"/><circle cx="349.5" cy="149.4" r="2.2"/><circle cx="357.5" cy="132.4" r="2.2"/><circle cx="368.5" cy="130.4" r="2.2"/><circle cx="375.5" cy="125.4" r="2.2"/><path d="m475.7 140.7c-.2-1.8-.3-5 1.4-6 0 0 .1 0 .1-.1 1.4-.4 2.3-1.1 1.6-1.9l-20.4-6.2-33.1 4.6c0 0-3.8.5-3.5 6.4.2 3.2 1.2 4.8 2.1 5.6l-2.7.8c-.8.8.2 1.5 1.6 1.9 0 0 0 .1.1.1 1.7 1.1 1.7 4.2 1.4 6-6.1 1.7-3.9 2.3-3.9 2.3l1.3.3c-.9.8-1.9 2.5-1.7 5.5.3 5.9 3.5 6.3 3.5 6.3l21.6 7 32.7-7.9c0 0 2.2-.6-3.9-2.3-.2-1.8-.3-5 1.4-6 0 0 .1 0 .1-.1 1.4-.4 2.3-1.1 1.6-1.9l-1.4-.4c.9-.6 2.4-2.1 2.6-5.9.2-2.7-.5-4.2-1.3-5.1l2.8-.7c-.1 0 2.1-.5-4-2.3m-27.3 0l5.5-1.1 18.6-3.8 2.8-.6c-.9 1.6-.8 3.8-.7 5.3 0 .3.1.6.1.8l-3 .8-23.4 5.8.1-7.2m-23.6 5.7l2.8.6 17.8 3.7 1.6.3 4.7 1 .2 7.2-24.1-6-2.4-.6c0-.2.1-.5.1-.8.1-1.6.2-3.8-.7-5.4m-1.1-9.1c0-1.6.2-2.7.8-3.3.4-.4.8-.4 1.1-.4.2 0 .3 0 .3 0l14.3 4.6 7.1 2.3-.2 7.2-20-5.6-1.1-.3h-.1c-.1.1-2.1-.1-2.2-4.5m21.5 33l-21-5.9h-.1c-.1 0-2.1-.2-2.2-4.6 0-1.6.2-2.7.8-3.3.4-.4.8-.4 1.1-.4.2 0 .3 0 .3 0l21.4 7-.3 7.2m27.5-7.4c0 .3.1.6.1.8l-26.5 6.6.2-7.2 5.7-1.2.8.2 3.1-1 14.4-3 2.8-.6c-.8 1.7-.8 4-.6 5.4m1.5-9.8h-.1l-2 .6-19 5.3-.2-7.2 6.2-2 15.1-4.9c0 0 .8-.2 1.4.4.6.6.8 1.7.8 3.3-.2 4.4-2.2 4.5-2.2 4.5"/><path d="m573.1 131.4l-.8-1.8c0 0 1.8-4.1 1.7-4.2l-2.4-2.3c-.2-.2-4.3 1.7-4.3 1.7l-1.9-.8c0 0-1.7-4.1-1.9-4.1h-3.4c-.2 0-1.8 4.2-1.8 4.2l-1.9.8c0 0-4.2-1.8-4.3-1.6l-2.4 2.3c-.2.2 1.7 4.2 1.7 4.2l-.8 1.8c0 0-4.2 1.6-4.2 1.8v3.3c0 .2 4.2 1.7 4.2 1.7l.8 1.8c0 0-1.8 4.1-1.7 4.2l2.4 2.3c.2.2 4.3-1.7 4.3-1.7l1.9.8c0 0 1.7 4.1 1.9 4.1h3.4c.2 0 1.8-4.2 1.8-4.2l1.9-.8c0 0 4.2 1.8 4.3 1.6l2.4-2.3c.2-.2-1.7-4.2-1.7-4.2l.8-1.8c0 0 4.2-1.6 4.2-1.9v-3.3c0-.1-4.2-1.6-4.2-1.6m-6.2 3.4c0 2.7-2.2 4.8-4.9 4.8s-4.9-2.2-4.9-4.8 2.2-4.8 4.9-4.8 4.9 2.2 4.9 4.8"/><path d="m564 172.1c-.7 0-1 .6-1 1.3v3.8h-33.9c-2 0-3.7-1.7-3.8-3.7v-.1c0-.1 0-.3 0-.4.1-2 1.8-3.7 3.8-3.7h34.6c.1 0 .2.1.3.1l-.2.1c.7 0 1.1-.5 1.1-1.3v-17.5c-1 1-.5 1.6-1.3 1.6h-3.4c-1.2 0-1.6-.9-3.2-4.8l-.5-.5c-3.5 1.6-3.9 1.3-4.3 1.3h-.7l-.5-.4-2.4-2.3c-.9-.9-.7-1.6 1-5.4l-.1-.5c-3.9-1.4-4.6-1.8-4.6-3.1v-3.3c0-1.3.6-1.6 4.6-3.2l.2-.4c-.1-.2-.2-.5-.3-.5h-20.3c-3.6 0-6.5 2.8-6.5 6.3 0 0 0 0 0 .1 0 3.3 0 33.5 0 37.5 0 .1 0 .1 0 .2 0 3.4 2.7 6.4 6.1 6.6.1 0 .1.2.2.2h35.2c.7 0 .9-1 .9-1.8v-5c0-.6-.3-1.2-1-1.2"/><path d="m690 154.2c0 .2-.1.4-.2.5l-15.4 11.8c-.1.1-.2.1-.4.1-.1 0-.3 0-.4-.1-.2-.2-.3-.5-.2-.7l3.1-7.8h-18.1c-.3 0-.6-.3-.6-.6v-6.3c0-.3.3-.6.6-.6h18.1l-3.1-7.8c-.1-.3 0-.6.2-.7.2-.2.5-.2.8 0l15.4 11.8c.1 0 .2.2.2.4"/><path d="m610 145.7c0-.2.1-.4.2-.5l15.4-11.8c.1-.1.2-.1.4-.1.1 0 .3 0 .4.1.2.2.3.5.2.7l-3.1 7.8h18.1c.3 0 .6.3.6.6v6.3c0 .3-.3.6-.6.6h-18.1l3.1 7.8c.1.3 0 .6-.2.7-.2.2-.5.2-.8 0l-15.4-11.8c-.1 0-.2-.2-.2-.4"/><path d="m652.5 163.6h1.4c.6 0 1.4-.3 1.4-1.4v-2.7c0-1.1-.8-1.4-1.4-1.4h-1.4v5.5"/><path d="m647 151.3v2.7c0 1.1.8 1.4 1.4 1.4h1.4v-5.4h-1.4c-.6 0-1.4.2-1.4 1.3"/><path d="m657.2 141c.5-.5.8-1.2.8-1.9 0-1.5-1.2-2.7-2.6-2.7.9-.6 7.9-5.4 5.4-7.5-2.7-2.3-8.8 2.2-10.9 2-2.1.2-8.2-4.3-10.9-2-2.6 2.2 4.5 6.9 5.4 7.5-1.5.1-2.6 1.2-2.6 2.7 0 .7.3 1.4.8 1.9-6.9 3.7-11.7 12.5-11.7 22.7 0 1.9.2 3.7.5 5.5 12.2 3.6 25.1 3.6 37.3 0 .3-1.8.5-3.6.5-5.5-.3-10.3-5.1-19-12-22.7m-3.3 14.4c1.6 0 4.1 1.1 4.1 4.1v2.7c0 3-2.5 4.1-4.1 4.1h-1.4v1.4c0 .8-.6 1.4-1.4 1.4-.8 0-1.4-.6-1.4-1.4v-1.4h-4.1c-.8 0-1.4-.6-1.4-1.4s.6-1.4 1.4-1.4h4.1v-5.5h-1.4c-1.6 0-4.1-1.1-4.1-4.1v-2.7c0-3 2.5-4.1 4.1-4.1h1.4v-1.4c0-.8.6-1.4 1.4-1.4.8 0 1.4.6 1.4 1.4v1.4h4.1c.8 0 1.4.6 1.4 1.4s-.6 1.4-1.4 1.4h-4.1v5.5h1.4"/><path d="m772 173.3h-3.7v-2.5c0-.1-.1-.3-.3-.3-.1 0-.3.1-.3.3v2.5h-4.7v-2.5c0-.1-.1-.3-.3-.3-.1 0-.3.1-.3.3v2.5h-4.7v-2.5c0-.1-.1-.3-.3-.3-.1 0-.3.1-.3.3v2.5h-4.7v-2.5c0-.1-.1-.3-.3-.3-.1 0-.3.1-.3.3v2.5h-4.7v-2.5c0-.1-.1-.3-.3-.3-.1 0-.3.1-.3.3v2.5h-4.7v-2.5c0-.1-.1-.3-.3-.3s-.3.1-.3.3v2.5h-4.7v-2.5c0-.1-.1-.3-.3-.3s-.3.1-.3.3v2.5h-4.7v-2.5c0-.1-.1-.3-.3-.3-.1 0-.3.1-.3.3v2.5h-9.5v-5.9h2.1c.1 0 .3-.1.3-.3 0-.1-.1-.3-.3-.3h-2.1v-4.7h2.1c.1 0 .3-.1.3-.3 0-.1-.1-.3-.3-.3h-2.1v-4.7h2.1c.1 0 .3-.1.3-.3 0-.1-.1-.3-.3-.3h-2.1v-4.7h2.1c.1 0 .3-.1.3-.3 0-.1-.1-.3-.3-.3h-2.1v-4.7h2.1c.1 0 .3-.1.3-.3 0-.1-.1-.3-.3-.3h-2.1v-4.7h2.1c.1 0 .3-.1.3-.3 0-.1-.1-.3-.3-.3h-2.1v-4.3h2.1c.1 0 .3-.1.3-.3 0-.1-.1-.3-.3-.3h-2.1v-4.7h2.1c.1 0 .3-.1.3-.3 0-.1-.1-.3-.3-.3h-2.1v-4.3c0-.4-.4-.8-.8-.8s-.8.4-.8.8v48.2c0 .4.4.8.8.8h51.7c.4 0 .8-.4.8-.8s-.4-.7-.8-.7"/><path d="m728.2 132.3h5.4v35.5h-5.4z"/><path d="m744.9 149c-.7-.9-1.3-1.9-1.7-2.9h-3.7v21.7h5.4v-18.8"/><path d="m756.2 154.2c-.2 0-.3 0-.5 0-1.7 0-3.3-.3-4.8-.9v14.4h5.4v-13.5h-.1"/><path d="m768 157.5l-5.2-5.2c-.1 0-.1.1-.2.1v15.4h5.4v-10.3"/><path d="m779.6 162.9l-14.5-14.7c3.6-4.7 3.3-11.5-1-15.8-4.7-4.7-12.3-4.7-16.9 0-4.7 4.7-4.7 12.3 0 16.9 4.3 4.3 11.1 4.6 15.8 1l14.5 14.7c.6.6 1.5.6 2.1 0 .5-.6.5-1.5 0-2.1m-17.7-15.7c-3.5 3.5-9.2 3.5-12.7 0s-3.5-9.2 0-12.7 9.2-3.5 12.7 0 3.5 9.2 0 12.7"/><path d="m756.1 139.6c-1.4-.6-1.8-.9-1.8-1.5 0-.5.4-1.1 1.4-1.1s1.6.3 1.8.5c.1 0 .1 0 .2 0 .1 0 .1-.1.2-.2l.4-1c0-.1 0-.3-.1-.3-.6-.3-1.2-.5-1.9-.6v-1.3c0-.1-.1-.3-.3-.3h-1c-.1 0-.3.1-.3.3v1.4c-1.4.3-2.3 1.4-2.3 2.7 0 1.6 1.3 2.4 2.7 2.9 1.1.5 1.6.9 1.6 1.6 0 .8-.6 1.3-1.6 1.3-.7 0-1.5-.2-2.1-.6-.1 0-.2-.1-.2 0s-.1.1-.2.2l-.4 1c0 .1 0 .2.1.3.5.4 1.4.7 2.3.7v1.3c0 .1.1.3.3.3h1c.1 0 .3-.1.3-.3v-1.4c1.5-.3 2.5-1.5 2.5-2.9-.1-1.3-.8-2.3-2.6-3"/><path d="m858.1 147.9c1.1-.7 2.3-1 3.6-.9l14.1-14.1-7.9-7.9-14.1 14.1c.1 1.3-.2 2.5-.9 3.6l5.2 5.2"/><path d="m833.5,165.1-.5-.5-2.7,2.1-4.5,7.1 1.2,1.2 7.1-4.5 2.1-2.7-.5-.5 9-9-2.2-2.2z"/><path d="m845.8 140.2c1-3.7.1-7.8-2.8-10.8-2.9-2.9-7-3.8-10.7-2.8l6.2 6.2-1.6 6.1-6.1 1.6-6.2-6.2c-1 3.7-.1 7.8 2.8 10.7 3 3 7.4 3.9 11.2 2.7l25.7 25.7c1 1 2.3 1.5 3.7 1.5 1.3 0 2.7-.5 3.7-1.5 2-2 2-5.3 0-7.4l-25.9-25.8m22.6 32.3c-1.1 0-2-.9-2-2s.9-2 2-2 2 .9 2 2-.9 2-2 2"/><path d="m965.1 162c-4.2-2.1-8.5-3.9-12.8-5.6-.3-.1-.7-.4-.8-.7-.4-.8-.6-1.6-.9-2.4-.2-.5-.3-1-.9-1.3-.2-.1-.3-.4-.3-.6 0-1.9-.4-3.9 1-5.6 0-.1.1-.1.1-.2.8-1.7.9-3.6 2-5.1v-.1c.1-1.2.3-2.4.4-3.6 0-.1-.1-.4-.2-.5-.6-.2-.6-.7-.6-1.2 0-2.3 0-2.7 0-5 0-1.4-.4-2.5-1.4-3.5-1.2-1-2.4-2.1-3.6-3.1-.6-.5-.6-.9-.1-1.4.2-.2.5-.4.8-.6-.1-.1-.1-.2-.2-.3-.4 0-.7 0-1.1 0-1.3.2-2.6.4-3.9.7-2.5.6-4.9 1.4-6.9 3-1.4 1.1-2.5 2.5-2.6 4.3-.1 1-.1 2-.1 2.9 0 1.6 0 1.2 0 2.8 0 .3-.2.7-.3.7-.6.2-.7.6-.6 1.2.1.4 0 .8.1 1.1.2 1 .5 2 .7 3 .2.7.6 1.4.7 2.2.2 1.5.8 2.8 1.8 3.9.2.2.3.5.3.7-.1 1.1-.2 2.3-.4 3.4 0 .2-.3.6-.5.6-.8.2-.9.7-1.1 1.3-.2.8-.5 1.6-.8 2.3-.1.2-.3.5-.6.6-1.3.6-2.7 1.1-4.1 1.7-1.4.6-2.9 1.2-4.3 1.9-1.5.7-2.9 1.5-4.3 2.2-.8.4-1.6.9-2.3 1.6l-2 8.5c9.7 0 14.7 7 24.8 7.9l-3.7-5.1 5.7-15.7-1.8-3.8h3.6l-1.8 3.8 5.7 15.7-3.6 5c7.3-1.2 19-7.7 24.7-7.7l-2-8.6c-.3-.3-1-.9-1.8-1.3"/><path d="m972.2 120c-6.7 0-12.2 5.5-12.2 12.2 0 .3 0 .5 0 .8l-5.6 3.6c-.3.2-.5.6-.4 1s.4.7.7.8l8.5 2.1c2.3 2.5 5.5 3.9 8.9 3.9 6.7 0 12.2-5.5 12.2-12.2.1-6.7-5.3-12.2-12.1-12.2m0 22.3c-2.9 0-5.7-1.2-7.6-3.4-.1-.2-.3-.3-.5-.3l-6.6-1.6 4.1-2.7c.3-.2.5-.6.4-1 0-.4-.1-.8-.1-1.2 0-5.6 4.6-10.2 10.2-10.2s10.2 4.6 10.2 10.2c.1 5.7-4.4 10.2-10.1 10.2"/><path d="m968.6 131.8h-1.7c-.1 0-.2.1-.2.2v5.6c0 .1.1.2.2.2h1.7c.1 0 .2-.1.2-.2v-5.6c0-.1-.1-.2-.2-.2"/><path d="m972.9 129.5h-1.7c-.1 0-.2.1-.2.2v8c0 .1.1.2.2.2h1.7c.1 0 .2-.1.2-.2v-8c0-.1-.1-.2-.2-.2"/><path d="m977.1 125h-1.7c-.1 0-.2.1-.2.2v12.5c0 .1.1.2.2.2h1.7c.1 0 .2-.1.2-.2v-12.5c0-.1-.1-.2-.2-.2"/></g></svg>