<svg xmlns="http://www.w3.org/2000/svg" viewBox="298 370 60 60" style="enable-background:new 298 370 60 60"><defs/><path d="m347.1 429h-38.3c-2.6 0-4.6-2-4.6-4.6v-48.7c0-2.6 2-4.6 4.6-4.6h38.3c2.6 0 4.6 2 4.6 4.6v48.7c.1 2.6-1.9 4.6-4.6 4.6" style="fill:#3498db"/><g style="fill:#fff"><path d="m308.9 387.2v-9.2c0-1.3 1.1-2.3 2.3-2.3h33.6c1.3 0 2.3 1.1 2.3 2.3v9.3c0 1.3-1.1 2.3-2.3 2.3h-33.6c-1.3 0-2.3-1.1-2.3-2.4"/><path d="m308.2 398.4h10.6v9.7h-10.6z"/><path d="m322.7 398.4h10.6v9.7h-10.6z"/><path d="m336.2 398.4h10.6v9.7h-10.6z"/><path d="m308.2 412.9h10.6v10.6h-10.6z"/><path d="m322.7 412.9h10.6v10.6h-10.6z"/><path d="m336.2 412.9h10.6v10.6h-10.6z"/></g><g style="fill:#3498db"><path d="m312.7 404h-2.7v-1.5h2.7v-2.7h1.5v2.7h2.7v1.5h-2.7v2.7h-1.5v-2.7"/><path d="m325.5 404.3v-2.3h5v2.3h-5"/><path d="m338.1 402.6v-1.5h7v1.5h-7m0 2.7v-1.5h7v1.5h-7"/><path d="m313.4 417c0 .6-.1 1.1-.4 1.4-.3.3-.6.5-1.1.5s-.8-.2-1.1-.5c-.3-.3-.3-.8-.3-1.4 0-1.3.5-1.8 1.4-1.8.5 0 .8.2 1.1.5.3.3.4.7.4 1.3m-1.7 0c0 .4 0 .6.1.8.1.2.2.3.3.3.3 0 .4-.4.4-1.1 0-.7-.1-1-.4-1-.1 0-.2.1-.3.3-.1.1-.1.3-.1.7m4.5-1.8l-3.3 6h-1l3.3-5.9h1v-.1m1.4 4.1c0 .6-.1 1.1-.4 1.4s-.6.5-1.1.5c-.5 0-.8-.2-1.1-.5s-.4-.8-.4-1.4c0-1.3.5-1.8 1.4-1.8.5 0 .8.2 1.1.5.3.3.5.8.5 1.3m-1.9 0c0 .4 0 .6.1.8.1.2.2.3.3.3.3 0 .4-.4.4-1.1 0-.7-.1-1-.4-1-.1 0-.2.1-.3.3 0 .2-.1.4-.1.7"/><path d="m329.9 414.7l-2.6 7h-1.3l2.6-7h1.3"/><circle cx="341.5" cy="418.2" r="1.9"/></g><path d="m298 370h60v60h-60z" style="fill:none"/></svg>