<?xml version="1.0" encoding="utf-8"?>
<!-- Generator: Adobe Illustrator 17.1.0, SVG Export Plug-In . SVG Version: 6.00 Build 0)  -->
<!DOCTYPE svg PUBLIC "-//W3C//DTD SVG 1.1//EN" "http://www.w3.org/Graphics/SVG/1.1/DTD/svg11.dtd">
<svg version="1.1" id="Layer_1" xmlns="http://www.w3.org/2000/svg" xmlns:xlink="http://www.w3.org/1999/xlink" x="0px" y="0px"
	 viewBox="0 0 100 100" enable-background="new 0 0 100 100" xml:space="preserve">
<g>
	<path fill="#F3C649" d="M76.5,98.8l-10.4,0.7c-10.4,0.7-20.9,0.7-31.3,0l-11-0.7C12,98,2.6,88.8,1.5,77l-0.3-3.4
		c-1.5-15.7-1.5-31.6,0-47.3L1.5,23C2.6,11.2,12,2,23.7,1.3L35,0.5c10.4-0.7,20.9-0.7,31.3,0l10.1,0.7C88.5,2,98,11.6,98.8,23.7
		l0.7,11c0.7,10.5,0.7,21.1,0,31.6l-0.7,9.9C98,88.4,88.5,98,76.5,98.8z"/>
	<circle fill="#FFFFFF" cx="50" cy="32.1" r="10.1"/>
	<path fill="#4D4D4D" d="M10.5,86.5c-0.3,0-0.6,0.1-0.8-0.2c-0.2-0.2-0.3-0.5-0.2-0.8l7-26.2c0.1-0.4,0.5-0.9,1-0.9h65
		c0.5,0,0.8,0.5,1,1l7,26.1c0.1,0.3,0,0.4-0.2,0.7c-0.2,0.2-0.5,0.2-0.8,0.2H10.5z"/>
	<polygon fill="#CBCCBC" points="89.5,85.5 10.5,85.5 17.5,59.5 82.5,59.5 	"/>
	<path fill="#54A88D" d="M82.5,59.5H54.3c0,0,0,0.8,0,1.2c0,0.9,0.2,1.7,0.1,2.6c-0.1,0.7-0.2,1.6,0,2.3c0.5,1.2,1.7,1.6,2.8,2
		c0.9,0.3,1.1,1.1,1.8,1.7c0.9,0.8,2.6,0.3,3.7,0.5c1.1,0.2,1.8,0.7,2.5,1.6c0.7,0.9,1,2.6,1.8,3.3c0.9,0.8,2.5,0.4,3.3,1.5
		c0.7,0.9,0.7,2.1,1.7,2.8c1,0.7,2.8,0.5,3.4,1.6c0.6,1,0.7,2.6,1.8,3.3c0.6,0.3,1.2,0.2,1.8,0.4c0.8,0.2,1.2,0.3,1.7,1.3h8.8
		L82.5,59.5z"/>
	<polygon fill="#A6986D" points="64.2,85.5 71.3,85.5 69.7,59.5 65.3,59.5 	"/>
	<path fill="#FFFFFF" d="M86,73.1c-7.1,0.2-22.3,0.7-37.5,1.1c-5.2,0.2-10.4,0.3-15.3,0.4c-0.6,0-1.2,0-1.8,0.1
		c-0.5,0-0.9,0-1.3-0.1c-0.8-0.2-1.6-0.5-2.2-1c-1.3-1-2-2.6-2-4c0-0.2,0-0.4,0-0.5l0-0.2c0-0.1,0-0.1,0-0.3c0-0.2,0.1-0.5,0.1-0.7
		c0-0.2,0.1-0.4,0.1-0.5c0.2-0.9,0.4-1.7,0.6-2.4c0.4-1.5,0.7-3.1,1-4.2c0.1-0.4,0.2-1.3,0.3-1.3H24c0,0,0,0.3,0,0.3
		c-0.3,1.1-0.6,2.6-1,4.1c-0.2,0.8-0.4,1.6-0.6,2.5l-0.1,0.4l0,0.2l-0.1,0.3c0,0.2-0.1,0.5-0.1,0.7c-0.1,0.5-0.2,1.3-0.1,1.9
		c0.1,2.5,1.3,5.1,3.5,6.9c1.1,0.9,2.5,1.6,3.9,1.9c0.4,0.1,0.7,0.1,1.1,0.2c0.4,0,0.8,0,1.1,0c0.6,0,1.2,0,1.8,0
		c4.9,0,10.1-0.1,15.3-0.1c16.2-0.1,32.5-0.3,38.8-0.3L86,73.1z"/>
	<path fill="#4D4D4D" d="M49.7,71.5c-0.3,0-0.7-0.1-0.8-0.4C48.8,70.9,37.1,51.4,33,44.4c-4.2-7.2-4-12.3-4-12.5
		C29,20.4,38.4,11,50,11s21,9.4,21,21c0,0.2,0.2,5.2-4,12.4c-4.1,7-16.3,26.5-16.4,26.7C50.4,71.4,50.1,71.5,49.7,71.5
		C49.7,71.5,49.7,71.5,49.7,71.5z M50,24.4c-4.2,0-7.6,3.4-7.6,7.6s3.4,7.6,7.6,7.6s7.6-3.4,7.6-7.6S54.2,24.4,50,24.4z"/>
	<path fill="#F28281" d="M58.6,32c0,4.7-3.8,8.6-8.6,8.6s-8.6-3.8-8.6-8.6s3.8-8.6,8.6-8.6S58.6,27.3,58.6,32z M49.8,70.7
		c0,0,12.3-19.7,16.4-26.8S70,32,70,32c0-11-9-20-20-20s-20,9-20,20c0,0-0.3,4.9,3.9,11.9S49.8,70.7,49.8,70.7z"/>
	<g opacity="0.5">
		<defs>
			<rect id="SVGID_1_" x="50" y="7.5" opacity="0.5" width="22" height="66"/>
		</defs>
		<clipPath id="SVGID_2_">
			<use xlink:href="#SVGID_1_"  overflow="visible"/>
		</clipPath>
		<path clip-path="url(#SVGID_2_)" fill="#F28281" d="M58.6,32c0,4.7-3.8,8.6-8.6,8.6s-8.6-3.8-8.6-8.6s3.8-8.6,8.6-8.6
			S58.6,27.3,58.6,32z M49.8,70.7c0,0,12.3-19.7,16.4-26.8S70,32,70,32c0-11-9-20-20-20s-20,9-20,20c0,0-0.3,4.9,3.9,11.9
			S49.8,70.7,49.8,70.7z"/>
	</g>
	<polygon opacity="0.5" fill="#B1B2A4" points="89.5,85.5 82.5,59.5 81.2,59.5 11.4,85.5 	"/>
</g>
</svg>
