<svg xmlns="http://www.w3.org/2000/svg" viewBox="0 0 100 100" xmlns:xlink="http://www.w3.org/1999/xlink" style="enable-background:new 0 0 100 100"><defs><path id="SVGID_1_" d="m50 7.5h22v66h-22z" style="opacity:.5"/><clipPath id="SVGID_2_"><use xlink:href="#SVGID_1_"/></clipPath></defs><path d="m76.5 98.8l-10.4.7c-10.4.7-20.9.7-31.3 0l-11-.7c-11.8-.8-21.2-10-22.3-21.8l-.3-3.4c-1.5-15.7-1.5-31.6 0-47.3l.3-3.3c1.1-11.8 10.5-21 22.2-21.7l11.3-.8c10.4-.7 20.9-.7 31.3 0l10.1.7c12.1.8 21.6 10.4 22.4 22.5l.7 11c.7 10.5.7 21.1 0 31.6l-.7 9.9c-.8 12.2-10.3 21.8-22.3 22.6" style="fill:#f3c649"/><circle cx="50" cy="32.1" r="10.1" style="fill:#fff"/><path d="m10.5 86.5c-.3 0-.6.1-.8-.2-.2-.2-.3-.5-.2-.8l7-26.2c.1-.4.5-.9 1-.9h65c.5 0 .8.5 1 1l7 26.1c.1.3 0 .4-.2.7-.2.2-.5.2-.8.2h-79z" style="fill:#4d4d4d"/><path d="m89.5 85.5h-79l7-26h65z" style="fill:#cbccbc"/><path d="m82.5 59.5h-28.2c0 0 0 .8 0 1.2 0 .9.2 1.7.1 2.6-.1.7-.2 1.6 0 2.3.5 1.2 1.7 1.6 2.8 2 .9.3 1.1 1.1 1.8 1.7.9.8 2.6.3 3.7.5 1.1.2 1.8.7 2.5 1.6.7.9 1 2.6 1.8 3.3.9.8 2.5.4 3.3 1.5.7.9.7 2.1 1.7 2.8 1 .7 2.8.5 3.4 1.6.6 1 .7 2.6 1.8 3.3.6.3 1.2.2 1.8.4.8.2 1.2.3 1.7 1.3h8.8l-7-26.1" style="fill:#54a88d"/><path d="m64.2 85.5h7.1l-1.6-26h-4.4z" style="fill:#a6986d"/><path d="m86 73.1c-7.1.2-22.3.7-37.5 1.1-5.2.2-10.4.3-15.3.4-.6 0-1.2 0-1.8.1-.5 0-.9 0-1.3-.1-.8-.2-1.6-.5-2.2-1-1.3-1-2-2.6-2-4 0-.2 0-.4 0-.5v-.2c0-.1 0-.1 0-.3 0-.2.1-.5.1-.7 0-.2.1-.4.1-.5.2-.9.4-1.7.6-2.4.4-1.5.7-3.1 1-4.2.1-.4.2-1.3.3-1.3h-4c0 0 0 .3 0 .3-.3 1.1-.6 2.6-1 4.1-.2.8-.4 1.6-.6 2.5l-.1.4v.2l-.1.3c0 .2-.1.5-.1.7-.1.5-.2 1.3-.1 1.9.1 2.5 1.3 5.1 3.5 6.9 1.1.9 2.5 1.6 3.9 1.9.4.1.7.1 1.1.2.4 0 .8 0 1.1 0 .6 0 1.2 0 1.8 0 4.9 0 10.1-.1 15.3-.1 16.2-.1 32.5-.3 38.8-.3l-1.5-5.4" style="fill:#fff"/><path d="m49.7 71.5c-.3 0-.7-.1-.8-.4-.1-.2-11.8-19.7-15.9-26.7-4.2-7.2-4-12.3-4-12.5 0-11.5 9.4-20.9 21-20.9s21 9.4 21 21c0 .2.2 5.2-4 12.4-4.1 7-16.3 26.5-16.4 26.7-.2.3-.5.4-.9.4m.3-47.1c-4.2 0-7.6 3.4-7.6 7.6s3.4 7.6 7.6 7.6 7.6-3.4 7.6-7.6-3.4-7.6-7.6-7.6" style="fill:#4d4d4d"/><path d="m58.6 32c0 4.7-3.8 8.6-8.6 8.6s-8.6-3.8-8.6-8.6 3.8-8.6 8.6-8.6 8.6 3.9 8.6 8.6m-8.8 38.7c0 0 12.3-19.7 16.4-26.8s3.8-11.9 3.8-11.9c0-11-9-20-20-20s-20 9-20 20c0 0-.3 4.9 3.9 11.9s15.9 26.8 15.9 26.8" style="fill:#f28281"/><g style="opacity:.5"><path d="m58.6 32c0 4.7-3.8 8.6-8.6 8.6s-8.6-3.8-8.6-8.6 3.8-8.6 8.6-8.6 8.6 3.9 8.6 8.6m-8.8 38.7c0 0 12.3-19.7 16.4-26.8s3.8-11.9 3.8-11.9c0-11-9-20-20-20s-20 9-20 20c0 0-.3 4.9 3.9 11.9s15.9 26.8 15.9 26.8" style="clip-path:url(#SVGID_2_);fill:#f28281"/></g><path d="m89.5,85.5-7-26-1.3,0-69.8,26z" style="fill:#b1b2a4;opacity:.5"/></svg>