<svg xmlns="http://www.w3.org/2000/svg" viewBox="295 215 50 50" style="enable-background:new 295 215 50 50"><defs/><g style="fill:#fff"><path d="m309 258.7c0 .2-.2.5-.5.5h-8c-.2 0-.5-.2-.5-.5v-25.8c0-.2.2-.5.5-.5h7.9c.2 0 .5.2.5.5v25.8h.1"/><circle cx="304.5" cy="225.2" r="4.4"/><path d="m339.9 240.6v18.2c0 .2-.2.5-.5.5h-7.9c-.2 0-.5-.2-.5-.5v-14.5c0-2.8-.2-5.2-4-5.2-2.7 0-4.2 2.3-4.2 3.9v15.7c0 .2-.2.5-.5.5h-7.9c-.2 0-.5-.2-.5-.5v-25.8c0-.2.2-.5.5-.5h7.9c.2 0 .5.2.5.5v2.5c1.3-1.5 4-3.4 7.9-3.4 6.4 0 8.7 4.5 9.3 6.7-.1.1-.1.1-.1 1.9"/></g><path d="m295 215h50v50h-50z" style="fill:none"/></svg>