<svg xmlns="http://www.w3.org/2000/svg" viewBox="0 0 150 150" style="enable-background:new 0 0 150 150"><defs/><path d="m75 148c-40.3 0-73-32.8-73-73s32.7-73 73-73 73 32.8 73 73-32.7 73-73 73" style="fill:#3397da"/><g style="fill:#fff"><path d="M75,3.9c39.2,0,71.1,31.8,71.1,71.1s-31.8,71.1-71.1,71.1S3.9,114.2,3.9,75S35.8,3.9,75,3.9 M75,0  C33.6,0,0,33.6,0,75s33.6,75,75,75s75-33.6,75-75S116.4,0,75,0L75,0z"/><path d="m125.5 80.3c0 .2-.1.5-.3.6l-19.5 15c-.2.1-.3.2-.5.2-.2 0-.3-.1-.5-.2-.3-.2-.4-.6-.2-.9l3.9-9.9h-23c-.5 0-.8-.4-.8-.8v-7.9c0-.5.4-.8.8-.8h23l-3.9-9.9c-.2-.3 0-.7.2-.9.3-.2.7-.2.9 0l19.5 15c.3 0 .4.3.4.5"/><path d="m24.5 69.6c0-.2.1-.5.3-.6l19.5-15c.2-.1.3-.2.5-.2.2 0 .3.1.5.2.3.2.4.6.2.9l-3.9 9.9h23c.5 0 .8.4.8.8v8c0 .5-.4.8-.8.8h-23l3.9 9.9c.2.3 0 .7-.2.9-.3.2-.7.2-.9 0l-19.5-15c-.3-.2-.4-.4-.4-.6"/><path d="m78.2 92.3h1.7c.8 0 1.7-.3 1.7-1.7v-3.5c0-1.4-.9-1.7-1.7-1.7h-1.7v6.9"/><path d="m71.3 76.7v3.5c0 1.4.9 1.7 1.7 1.7h1.7v-6.9h-1.7c-.8 0-1.7.3-1.7 1.7"/><path d="m84.1 63.6c.6-.6 1-1.5 1-2.4 0-1.9-1.5-3.4-3.3-3.4 1.2-.8 10-6.8 6.8-9.5-3.5-2.9-11.1 2.8-13.8 2.5-2.7.2-10.3-5.4-13.8-2.5-3.2 2.8 5.6 8.8 6.8 9.5-1.8.1-3.3 1.6-3.3 3.4 0 .9.4 1.8 1 2.4-8.7 4.7-14.8 15.8-14.8 28.7 0 2.4.2 4.7.6 6.9 15.4 4.6 31.8 4.6 47.1 0 .4-2.2.6-4.5.6-6.9-.1-13-6.2-24-14.9-28.7m-4.2 18.3c2.1 0 5.2 1.3 5.2 5.2v3.5c0 3.8-3.1 5.2-5.2 5.2h-1.7v1.7c0 .9-.8 1.7-1.7 1.7s-1.7-.8-1.7-1.7v-1.7h-5.2c-.9 0-1.7-.8-1.7-1.7 0-.9.8-1.7 1.7-1.7h5.2v-6.9h-1.7c-2.1 0-5.2-1.3-5.2-5.2v-3.5c0-3.8 3.1-5.2 5.2-5.2h1.7v-1.7c0-.9.8-1.7 1.7-1.7s1.7.8 1.7 1.7v1.7h5.2c.9 0 1.7.8 1.7 1.7s-.8 1.7-1.7 1.7h-5.2v6.9h1.7"/></g></svg>