<svg xmlns="http://www.w3.org/2000/svg" viewBox="0 0 100 100" style="enable-background:new 0 0 100 100"><defs/><path d="m76.5 98.8l-10.4.7c-10.4.7-20.9.7-31.3 0l-11-.7c-11.8-.8-21.2-10-22.3-21.8l-.3-3.4c-1.5-15.7-1.5-31.6 0-47.3l.3-3.3c1.1-11.8 10.5-21 22.2-21.7l11.3-.8c10.4-.7 20.9-.7 31.3 0l10.1.7c12.1.8 21.6 10.4 22.4 22.5l.7 11c.7 10.5.7 21.1 0 31.6l-.7 9.9c-.8 12.2-10.3 21.8-22.3 22.6" style="fill:#f28281"/><circle cx="50" cy="50" r="45" style="fill:#f7e9ba"/><circle cx="50" cy="50" r="38.4" style="fill:#fff"/><path d="m81.8 18.2l-63.6 63.6c17.6 17.6 46.1 17.6 63.6 0 17.6-17.6 17.6-46 0-63.6" style="fill:#b1b2a4;opacity:.3"/><path d="m48 23.7h3v26h-3z"/><path d="m50 48.7h22v2h-22z"/><path d="m61.76089 69.83749h-5.36089v23.1h-.9z" style="fill:#f28281;stroke-width:1.0000268"/><circle cx="50" cy="50" r="2.6"/><path d="m80 47.7h6v3h-6z"/><path d="m14 47.7h6v3h-6z"/><path d="m48 79.7h3v6h-3z"/><path d="m48 12.7h3v6h-3z"/></svg>