<svg xmlns="http://www.w3.org/2000/svg" viewBox="0 0 150 150" style="enable-background:new 0 0 150 150"><defs/><path d="m75 148c-40.3 0-73-32.8-73-73s32.7-73 73-73 73 32.8 73 73-32.7 73-73 73" style="fill:#3397da"/><g style="fill:#fff"><path d="M75,3.9c39.2,0,71.1,31.8,71.1,71.1s-31.8,71.1-71.1,71.1S3.9,114.2,3.9,75S35.8,3.9,75,3.9 M75,0  C33.6,0,0,33.6,0,75s33.6,75,75,75s75-33.6,75-75S116.4,0,75,0L75,0z"/><path d="m94.9 90.8c-5.4-2.8-11.1-5.1-16.9-7.3-.4-.2-.9-.5-1.1-.9-.5-1-.8-2.1-1.1-3.2-.2-.7-.4-1.3-1.2-1.7-.2-.1-.4-.5-.4-.7.1-2.5-.6-5.1 1.3-7.3.1-.1.1-.2.2-.2 1-2.2 1.2-4.7 2.6-6.8 0-.1.1-.1.1-.2.2-1.6.3-3.2.5-4.7 0-.2-.2-.6-.3-.6-.8-.2-.7-.9-.7-1.5 0-3.1 0-3.5 0-6.6 0-1.8-.6-3.3-1.9-4.6-1.5-1.3-3.1-2.7-4.7-4-.8-.6-.8-1.1-.1-1.8.3-.3.7-.6 1.1-.8-.1-.2-.2-.2-.2-.4-.5 0-.9-.1-1.4 0-1.7.3-3.5.6-5.2.9-3.2.8-6.4 1.8-9.1 3.9-1.8 1.5-3.2 3.2-3.4 5.7-.1 1.3-.1 2.6-.1 3.9 0 2.1 0 1.6 0 3.7 0 .3-.2.9-.5.9-.9.3-.9.8-.8 1.5.1.5 0 1 .2 1.5.3 1.3.6 2.6.9 3.9.3.9.8 1.9.9 2.8.3 2 1 3.6 2.4 5.1.2.2.4.6.3.9-.1 1.5-.2 3-.5 4.5-.1.3-.3.7-.6.8-1 .2-1.2.9-1.4 1.7-.3 1-.6 2.1-1 3.1-.2.3-.5.6-.7.8-1.7.8-3.6 1.5-5.4 2.2-1.9.8-3.8 1.6-5.7 2.4-1.9.9-3.8 2-5.7 2.9-1.1.6-2.1 1.3-3 2.1l-2.6 11.1c12.7 0 19.3 9.2 32.6 10.3l-4.9-6.7 7.6-20.7-2.3-4.7h4.7l-2.4 5.1 7.6 20.7-4.7 6.6c9.6-1.6 25-10.2 32.4-10.2l-2.6-11.3c-.8-.8-1.7-1.6-2.8-2.1"/><path d="m104.3 35.5c-8.8 0-16 7.2-16 16 0 .3 0 .7 0 1l-7.3 4.7c-.5.3-.6.8-.6 1.3.1.6.5.9.9 1l11.2 2.7c3 3.2 7.3 5.1 11.7 5.1 8.8 0 16-7.2 16-16s-7.1-15.8-15.9-15.8m0 29.4c-3.8 0-7.5-1.7-10-4.5-.2-.2-.4-.3-.7-.4l-8.6-2.1 5.4-3.6c.4-.2.6-.8.6-1.3-.1-.6-.1-1.1-.1-1.6 0-7.3 6-13.3 13.3-13.3s13.3 6 13.3 13.3-5.9 13.5-13.2 13.5"/><path d="m99.4 51.1h-2.2c-.2 0-.3.2-.3.3v7.4c0 .2.2.3.3.3h2.2c.2 0 .3-.2.3-.3v-7.5c0-.1-.1-.2-.3-.2"/><path d="m105.2 48h-2.2c-.2 0-.3.2-.3.3v10.5c0 .2.2.3.3.3h2.2c.2 0 .3-.2.3-.3v-10.5c0-.1-.2-.3-.3-.3"/><path d="m110.7 42.1h-2.2c-.2 0-.3.2-.3.3v16.4c0 .2.2.3.3.3h2.2c.2 0 .3-.2.3-.3v-16.4c-.1-.2-.2-.3-.3-.3"/></g></svg>