<svg xmlns="http://www.w3.org/2000/svg" viewBox="0 0 150 150" style="enable-background:new 0 0 150 150"><defs/><path d="m75 148c-40.3 0-73-32.8-73-73s32.7-73 73-73 73 32.8 73 73-32.7 73-73 73" style="fill:#3397da"/><g style="fill:#fff"><path d="M75,3.9c39.2,0,71.1,31.8,71.1,71.1s-31.8,71.1-71.1,71.1S3.9,114.2,3.9,75S35.8,3.9,75,3.9 M75,0  C33.6,0,0,33.6,0,75s33.6,75,75,75s75-33.6,75-75S116.4,0,75,0L75,0z"/><path d="m83.4 74h25.7v4.9h-25.7z"/><path d="m88.4 65h20.6v4.9h-20.6z"/><path d="m41.9 35.5v7.7l3.4-1v-3.4h67v42.8h-53.3l-.2 3.3h56.9v-49.4z"/><circle cx="47.3" cy="53.8" r="9.9"/><path d="m55.7 88.3h.7l.8-17.9 17.2-8.9-2.2-4.3-15.8 8.1h-5.5l-3.8 4.4-3.7-4.4-8 1.5-.5 17.8h3.4l.1 3.7h.6v21.7h-.7l-4 .8v3.7h3.4l4-.7v.7h4.4v-22.2h2.5v22.2h4.4l.1-.7 3.9.7h3.4v-3.7l-4-.8h-.7z"/><path d="m75.4 74.5l-1.3-.5 10.7-22.5 14-2.3 10.4-6.6.7 1.1-10.7 6.7-13.5 2.3z"/><circle cx="74.4" cy="74.2" r="2.8"/><circle cx="84.9" cy="51.9" r="2.8"/><circle cx="99.4" cy="49.3" r="2.8"/><circle cx="108.6" cy="42.6" r="2.8"/></g></svg>