<svg xmlns="http://www.w3.org/2000/svg" viewBox="0 0 150 150" style="enable-background:new 0 0 150 150"><defs/><path d="m75 148c-40.3 0-73-32.8-73-73s32.7-73 73-73 73 32.8 73 73-32.7 73-73 73" style="fill:#3397da"/><g style="fill:#fff"><path d="M75,3.9c39.2,0,71.1,31.8,71.1,71.1s-31.8,71.1-71.1,71.1S3.9,114.2,3.9,75S35.8,3.9,75,3.9 M75,0   C33.6,0,0,33.6,0,75s33.6,75,75,75s75-33.6,75-75S116.4,0,75,0L75,0z"/><path d="m107.8 48.7l-1.1-2.6c0 0 2.6-5.8 2.4-6l-3.4-3.3c-.2-.2-6.1 2.4-6.1 2.4l-2.7-1.1c0 0-2.4-5.9-2.7-5.9h-4.8c-.3 0-2.5 5.9-2.5 5.9l-2.7 1.1c0 0-5.9-2.5-6.2-2.3l-3.4 3.3c-.2.2 2.4 5.9 2.4 5.9l-1 2.7c0 0-6 2.3-6 2.6v4.7c0 .3 6 2.4 6 2.4l1.1 2.6c0 0-2.6 5.8-2.4 6l3.4 3.3c.2.2 6.1-2.4 6.1-2.4l2.7 1.1c0 0 2.4 5.9 2.7 5.9h4.8c.3 0 2.5-5.9 2.5-5.9l2.7-1.1c0 0 5.9 2.5 6.2 2.3l3.4-3.3c.2-.2-2.4-5.9-2.4-5.9l1.1-2.6c0 0 6-2.3 6-2.6v-4.7c-.1-.4-6.1-2.5-6.1-2.5m-8.8 4.9c0 3.8-3.2 6.9-7 6.9s-7-3.1-7-6.9 3.2-6.9 7-6.9 7 3.1 7 6.9"/><path d="m94.7 106.6c-1 0-1.6.9-1.6 1.9v4.1h-47.8c-2.9 0-5.3-1.7-5.4-4.6 0-.1 0 .2 0 .2 0-.1 0-.8 0-.9.2-2.8 2.5-5.7 5.4-5.7h49.2c.2 0 .3.7.5.7 0 0-.3.4-.2.4 1 0 1.6-.5 1.6-1.5v-25c-1.6 1.5-.8.9-1.9.9h-4.8c-1.7 0-2.3-.6-4.6-6.2l-.8-.9c-5 2.2-5.6 1.6-6.1 1.6h-.9-.8l-3.4-3c-1.3-1.3-1-2.1 1.4-7.6l-.2-.6c-5.5-2-6.5-2.4-6.5-4.3v-4.7c0-1.8.9-2.3 6.5-4.5l.2-1c-.2-.3-.2-1.2-.4-1.2h-28.8c-5.1 0-9.2 4.4-9.2 9.6 0 .1 0 .3 0 .4 0 4.7-.1 47.8 0 53.4 0 .1 0 .2 0 .4 0 4.9 3.8 8.8 8.6 9.1.1 0 .2-.1.3-.1h50c1 0 1.3-.6 1.3-1.7v-7.2c0-1.2-.5-2-1.6-2"/></g></svg>