<svg xmlns="http://www.w3.org/2000/svg" viewBox="294 214 50 50" style="enable-background:new 294 214 50 50"><defs/><path d="m330.8 238.4v-5.7h-6.3v-3.3h6.3v-6.1h3.4v6.2h5.8v3.3h-5.8v5.7l-3.4-.1m-9.9 10.9c0 3.7-3.7 7.3-10.3 7.3-5.8 0-10.7-2.2-10.7-5.9 0-3.8 4.4-7.3 10.3-7.3.7 0 1.2 0 1.8 0-.8-.8-1.4-1.7-1.4-2.8 0-.7.3-1.3.5-1.9-.3 0-.7 0-1 0-4.8 0-7.9-3.4-7.9-7.5 0-4 4.4-7.7 9.1-7.7 2.6 0 10.4 0 10.4 0l-2.3 2.2h-3.3c2.2.5 3.3 3.3 3.3 5.8 0 2.2-1.3 4-2.9 5.3-1.7 1.3-2 1.8-2 2.9 0 .9 1.8 2.5 2.8 3.2 2.8 1.8 3.6 3.5 3.6 6.4m-5.1-17.6c-.5-3.4-3-6.2-5.7-6.3-2.7-.1-4.5 2.6-4 6s3 6.3 5.7 6.3c2.6.1 4.5-2.6 4-6m2.5 18.1c0-.3-.1-.7-.2-1.1-.4-1.7-2-2.5-4.2-4-.8-.3-1.7-.4-2.6-.4-4-.1-7.6 2.3-7.6 5.3 0 2.9 2.9 5.4 6.9 5.4 5.7.1 7.7-2.2 7.7-5.2" style="fill:#fff"/><path d="m294 214h50v50h-50z" style="fill:none"/></svg>