<?xml version="1.0" encoding="utf-8"?>
<!-- Generator: Adobe Illustrator 17.1.0, SVG Export Plug-In . SVG Version: 6.00 Build 0)  -->
<!DOCTYPE svg PUBLIC "-//W3C//DTD SVG 1.1//EN" "http://www.w3.org/Graphics/SVG/1.1/DTD/svg11.dtd">
<svg version="1.1" id="Layer_1" xmlns="http://www.w3.org/2000/svg" xmlns:xlink="http://www.w3.org/1999/xlink" x="0px" y="0px"
	 viewBox="0 0 100 100" enable-background="new 0 0 100 100" xml:space="preserve">
<g>
	<path fill="#F7E9BA" d="M76.5,98.8l-10.4,0.7c-10.4,0.7-20.9,0.7-31.3,0l-11-0.7C12,98,2.6,88.8,1.5,77l-0.3-3.4
		c-1.5-15.7-1.5-31.6,0-47.3L1.5,23C2.6,11.2,12,2,23.7,1.3L35,0.5c10.4-0.7,20.9-0.7,31.3,0l10.1,0.7C88.5,2,98,11.6,98.8,23.7
		l0.7,11c0.7,10.5,0.7,21.1,0,31.6l-0.7,9.9C98,88.4,88.5,98,76.5,98.8z"/>
	<g>
		<defs>
			<path id="SVGID_1_" d="M76.5,98.8l-10.4,0.7c-10.4,0.7-20.9,0.7-31.3,0l-11-0.7C12,98,2.6,88.8,1.5,77l-0.3-3.4
				c-1.5-15.7-1.5-31.6,0-47.3L1.5,23C2.6,11.2,12,2,23.7,1.3L35,0.5c10.4-0.7,20.9-0.7,31.3,0l10.1,0.7C88.5,2,98,11.6,98.8,23.7
				l0.7,11c0.7,10.5,0.7,21.1,0,31.6l-0.7,9.9C98,88.4,88.5,98,76.5,98.8z"/>
		</defs>
		<clipPath id="SVGID_2_">
			<use xlink:href="#SVGID_1_"  overflow="visible"/>
		</clipPath>
		<g clip-path="url(#SVGID_2_)">
			<path fill="#2D3E50" d="M100,101H0V35.5c0-4.5,3-8.4,7.3-9.6l12.4-3.5c0.9-0.3,1.8-0.4,2.7-0.4h55.2c0.9,0,1.9,0.1,2.7,0.4
				l12.4,3.5c4.3,1.2,7.3,5.2,7.3,9.6V101z"/>
			<linearGradient id="SVGID_3_" gradientUnits="userSpaceOnUse" x1="50" y1="100.8472" x2="50" y2="14.2118">
				<stop  offset="0" style="stop-color:#CCD8E1"/>
				<stop  offset="1" style="stop-color:#FFFFF5"/>
			</linearGradient>
			<polygon fill="url(#SVGID_3_)" points="69,100.8 31,100.8 21,21.9 50,14.2 79,21.9 			"/>
			<polygon opacity="0.5" fill="#2D3E50" points="21,22 2.1,47.7 16.8,49.3 31,101 			"/>
			<polygon fill="#A3023C" points="68.9,29.9 65.4,22.8 33.6,22.8 31.1,29.9 50,44.4 			"/>
			<g>
				<linearGradient id="SVGID_4_" gradientUnits="userSpaceOnUse" x1="35.8555" y1="116.4398" x2="35.8555" y2="12.5394">
					<stop  offset="0" style="stop-color:#CCD8E1"/>
					<stop  offset="1" style="stop-color:#FFFFF5"/>
				</linearGradient>
				<polygon fill="url(#SVGID_4_)" points="50,24.9 50,24.8 21.7,24.8 22.1,29.1 30.5,51.6 				"/>
				<linearGradient id="SVGID_5_" gradientUnits="userSpaceOnUse" x1="64.1445" y1="116.5705" x2="64.1445" y2="12.5218">
					<stop  offset="0" style="stop-color:#CCD8E1"/>
					<stop  offset="1" style="stop-color:#FFFFF5"/>
				</linearGradient>
				<polygon fill="url(#SVGID_5_)" points="50,24.9 69.5,51.7 77.9,29 78.3,24.8 50,24.8 				"/>
			</g>
			<polygon fill="#FFFFFF" points="50,25 50,25 50,25 			"/>
			<linearGradient id="SVGID_6_" gradientUnits="userSpaceOnUse" x1="50" y1="37.2101" x2="50" y2="12.7961">
				<stop  offset="0" style="stop-color:#CCD8E1"/>
				<stop  offset="1" style="stop-color:#FFFFF5"/>
			</linearGradient>
			<polygon fill="url(#SVGID_6_)" points="50,25 50,25 50,25 			"/>
			<path fill="#DF8A75" d="M66.3-0.2H34V18c0,0,4.5,5.4,16,5.4s16.2-5.1,16.2-5.2L66.3-0.2z"/>
			<path fill="#CC7E6B" d="M27.7-0.2c4.1,7,12.5,13,22.3,13s18.2-6,22.3-13H27.7z"/>
			<polygon fill="#466780" points="21,22 3.3,46.1 17.8,47.6 31,101 			"/>
			<polygon opacity="0.5" fill="#2D3E50" points="79.1,22 98,47.7 83.3,49.3 69.1,101 			"/>
			<polygon fill="#466780" points="79.1,22 96.9,46.1 82.4,47.6 69.1,101 			"/>
			<polygon fill="#A3023C" points="63.5,100.8 62.8,95.6 53.1,100.8 			"/>
			<polygon fill="#A3023C" points="45.8,34 45.8,34 45.9,34 			"/>
			<polygon fill="#A3023C" points="55.2,40.8 54.2,33.8 45.9,33.8 45.8,34 44,46.9 			"/>
			<polygon fill="#8C0233" points="42.2,60 56.7,52 55.2,40.9 44,47 			"/>
			<polygon fill="#A3023C" points="40.4,73 58.3,63.2 56.7,52 42.2,60 			"/>
			<polygon fill="#8C0233" points="38.7,84.9 59.7,73.4 58.3,63.2 40.4,73 			"/>
			<polygon fill="#A3023C" points="36.9,97.9 61.2,84.6 59.7,73.4 38.7,84.9 			"/>
			<polygon fill="#8C0233" points="36.9,97.8 36.5,100.8 53.1,100.8 62.8,95.6 61.2,84.5 			"/>
		</g>
	</g>
</g>
</svg>
