<svg xmlns="http://www.w3.org/2000/svg" viewBox="294.6 215 50 50" style="enable-background:new 294.6 215 50 50"><defs/><path d="m339.6 241.6c0 3.2-.4 6.5-.4 6.5s-.4 2.7-1.6 4c-1.6 1.6-3.2 1.6-4 1.7-5.7.4-14 .4-14 .4s-10.4-.1-13.7-.4c-.9-.2-2.9-.1-4.4-1.8-1.2-1.2-1.6-4-1.6-4s-.4-3.2-.4-6.5v-3c0-3.2.4-6.5.4-6.5s.4-2.7 1.6-4c1.6-1.6 3.2-1.6 4-1.7 5.7-.4 14-.4 14-.4 0 0 8.4 0 14 .4.8.1 2.5.1 4 1.7 1.2 1.2 1.6 4 1.6 4s.4 3.2.4 6.5v3.1zm-24.1 3.6l10.8-5.7-10.8-5.7v11.4" style="fill:#fff"/><path d="m294.6 215h50v50h-50z" style="fill:none"/></svg>