<svg xmlns="http://www.w3.org/2000/svg" viewBox="610 370 60 60" style="enable-background:new 610 370 60 60"><defs/><path d="m664.4 417.9h-48.7c-2.6 0-4.6-2.1-4.6-4.6v-39.4c0-1.3 1-2.3 2.3-2.3h53.4c1.3 0 2.3 1 2.3 2.3v39.4c-.1 2.5-2.2 4.6-4.7 4.6" style="fill:#3498db"/><path d="m614 375h52v34h-52z" style="fill:#fff"/><g style="fill:#3498db"><path d="m630 423h20v5h-20z"/><path d="m635 417h10v11h-10z"/><path d="m651.2 386.5l-10.7 10.5-10.8-6.5-12.7 10.6v5.9h46v-27z"/></g><path d="m610 370h60v60h-60z" style="fill:none"/></svg>