<svg xmlns="http://www.w3.org/2000/svg" viewBox="0 0 150 150" style="enable-background:new 0 0 150 150"><defs/><path d="m75 148c-40.3 0-73-32.8-73-73s32.7-73 73-73 73 32.8 73 73-32.7 73-73 73" style="fill:#3397da"/><g style="fill:#fff"><path d="M75,3.9c39.2,0,71.1,31.8,71.1,71.1s-31.8,71.1-71.1,71.1S3.9,114.2,3.9,75S35.8,3.9,75,3.9 M75,0   C33.6,0,0,33.6,0,75s33.6,75,75,75s75-33.6,75-75S116.4,0,75,0L75,0z"/><path d="m114 60.9c-.4-2.8-.4-7.5 2.1-9.2.1 0 .1-.1.2-.1 2.1-.7 3.6-1.6 2.4-2.9l-31-9.3-50.2 6.9c0 0-5.8.8-5.2 9.8.3 4.9 1.8 7.3 3.2 8.4l-4.1 1.3c-1.1 1.3.3 2.2 2.4 2.9.1 0 .1.1.2.1 2.6 1.6 2.5 6.4 2.1 9.2-9.2 2.6-5.9 3.5-5.9 3.5l2.1.5c-1.4 1.3-2.8 3.7-2.6 8.4.6 8.9 5.2 9.6 5.2 9.6l32.8 10.6 49.6-12c0 0 3.3-.9-5.9-3.5-.4-2.8-.4-7.5 2.1-9.2.1 0 .1-.1.2-.1 2.1-.7 3.6-1.6 2.4-2.9l-2.1-.6c1.4-.9 3.6-3.2 3.9-9 .2-4-.8-6.4-2.1-7.8l4.3-1c-.2-.1 3.1-.9-6.1-3.6m-41.4-.1l8.4-1.7 28.2-5.8 4.2-.9c-1.3 2.4-1.3 5.8-1 8 .1.5.1.9.2 1.3l-4.6 1.1-35.5 8.8.1-10.8m-35.9 8.7l4.2.9 27.1 5.5 2.4.5 7.1 1.4.3 10.9-36.6-9.1-3.6-.9c.1-.3.1-.8.2-1.3.3-2.1.3-5.4-1.1-7.9m-1.6-13.8c-.1-2.4.4-4.1 1.3-5 .6-.6 1.2-.7 1.7-.7.2 0 .4 0 .4 0l21.5 7.2 10.8 3.6-.3 11-30.3-8.6-1.6-.5c-.1 0-.2 0-.2 0-.1 0-3.1-.3-3.3-7m32.6 50.1l-31.9-8.9c-.1 0-.2 0-.2 0-.2 0-3.2-.3-3.2-6.9-.1-2.4.4-4.1 1.3-5 .6-.6 1.2-.7 1.7-.7.2 0 .4 0 .4 0l32.4 10.6-.5 10.9m41.7-11.3c.1.5.1.9.2 1.3l-40.1 10 .3-10.9 8.6-1.7 1.3.3 4.7-1.6 21.9-4.5 4.2-.9c-1.3 2.6-1.3 5.9-1.1 8m2.2-14.8c-.1 0-.2 0-.2 0l-3 .9-28.8 8.1-.3-11 9.5-3.1 22.9-7.5c0 0 1.2-.2 2.1.6.9.9 1.3 2.6 1.3 5-.4 6.8-3.4 7-3.5 7"/></g></svg>