<svg xmlns="http://www.w3.org/2000/svg" viewBox="0 0 100 100" xmlns:xlink="http://www.w3.org/1999/xlink" style="enable-background:new 0 0 100 100"><defs><path id="SVGID_1_" d="m76.5 98.8l-10.4.7c-10.4.7-20.9.7-31.3 0l-11-.7c-11.8-.8-21.2-10-22.3-21.8l-.3-3.4c-1.5-15.7-1.5-31.6 0-47.3l.3-3.3c1.1-11.8 10.5-21 22.2-21.7l11.3-.8c10.4-.7 20.9-.7 31.3 0l10.1.7c12.1.8 21.6 10.4 22.4 22.5l.7 11c.7 10.5.7 21.1 0 31.6l-.7 9.9c-.8 12.2-10.3 21.8-22.3 22.6"/><clipPath id="SVGID_2_"><use xlink:href="#SVGID_1_"/></clipPath><linearGradient id="SVGID_6_" y1="37.21" y2="12.796" gradientUnits="userSpaceOnUse" x2="0" xlink:href="#SVGID_5_"/><linearGradient id="SVGID_4_" y1="116.44" y2="12.539" gradientUnits="userSpaceOnUse" x2="0" xlink:href="#SVGID_5_"/><linearGradient id="SVGID_5_" y1="116.57" y2="12.522" gradientUnits="userSpaceOnUse" x2="0"><stop style="stop-color:#ccd8e1"/><stop offset="1" style="stop-color:#fffff5"/></linearGradient><linearGradient id="SVGID_3_" y1="100.847" y2="14.212" gradientUnits="userSpaceOnUse" x2="0" xlink:href="#SVGID_5_"/></defs><path d="m76.5 98.8l-10.4.7c-10.4.7-20.9.7-31.3 0l-11-.7c-11.8-.8-21.2-10-22.3-21.8l-.3-3.4c-1.5-15.7-1.5-31.6 0-47.3l.3-3.3c1.1-11.8 10.5-21 22.2-21.7l11.3-.8c10.4-.7 20.9-.7 31.3 0l10.1.7c12.1.8 21.6 10.4 22.4 22.5l.7 11c.7 10.5.7 21.1 0 31.6l-.7 9.9c-.8 12.2-10.3 21.8-22.3 22.6" style="fill:#f7e9ba"/><g style="clip-path:url(#SVGID_2_)"><path d="m100 101h-100v-65.5c0-4.5 3-8.4 7.3-9.6l12.4-3.5c.9-.3 1.8-.4 2.7-.4h55.2c.9 0 1.9.1 2.7.4l12.4 3.5c4.3 1.2 7.3 5.2 7.3 9.6v65.5" style="fill:#2d3e50"/><path d="m69 100.8h-38l-10-78.9 29-7.7 29 7.7z" style="fill:url(#SVGID_3_)"/><path d="M21,22 2.1,47.7 16.8,49.3 31,101z" style="fill:#2d3e50;opacity:.5"/><path d="m68.9,29.9-3.5-7.1-31.8,0-2.5,7.1 18.9,14.5z" style="fill:#a3023c"/><g><path d="m50 24.9v-.1h-28.3l.4 4.3 8.4 22.5z" style="fill:url(#SVGID_4_)"/><path d="m50 24.9l19.5 26.8 8.4-22.7.4-4.2h-28.3z" style="fill:url(#SVGID_5_)"/></g><path d="M66.3-0.2H34V18c0,0,4.5,5.4,16,5.4s16.2-5.1,16.2-5.2L66.3-0.2z" style="fill:#df8a75"/><path d="m27.7-.2c4.1 7 12.5 13 22.3 13s18.2-6 22.3-13h-44.6" style="fill:#cc7e6b"/><path d="M21,22 3.3,46.1 17.8,47.6 31,101z" style="fill:#466780"/><path d="M79.1,22 98,47.7 83.3,49.3 69.1,101z" style="fill:#2d3e50;opacity:.5"/><path d="m79.1 22l17.8 24.1-14.5 1.5-13.3 53.4z" style="fill:#466780"/><g style="fill:#a3023c"><path d="m63.5,100.8-.7-5.2-9.7,5.2z"/><path d="m45.8 34h.1z"/><path d="m55.2 40.8l-1-7h-8.3l-.1.2-1.8 12.9z"/></g><path d="M42.2,60 56.7,52 55.2,40.9 44,47z" style="fill:#8c0233"/><path d="m40.4 73l17.9-9.8-1.6-11.2-14.5 8z" style="fill:#a3023c"/><path d="m38.7 84.9l21-11.5-1.4-10.2-17.9 9.8z" style="fill:#8c0233"/><path d="m36.9 97.9l24.3-13.3-1.5-11.2-21 11.5z" style="fill:#a3023c"/><path d="m36.9 97.8l-.4 3h16.6l9.7-5.2-1.6-11.1z" style="fill:#8c0233"/></g></svg>