<svg xmlns="http://www.w3.org/2000/svg" viewBox="370 370 60 60" style="enable-background:new 370 370 60 60"><defs/><path d="m400 371c-16 0-29 13-29 29s13 29 29 29 29-13 29-29-13-29-29-29m16.4 38.7c.5-2.4.9-5 1-7.7h7.7c-.2 2.7-.9 5.2-1.8 7.7h-6.9m-32.8-19.4c-.5 2.4-.9 5-1 7.7h-7.7c.2-2.7.9-5.2 1.8-7.7h6.9m28.9 0c.6 2.5 1 5 1.1 7.7h-11.6v-7.7h10.5m-10.6-3.8v-11.3c.9.3 1.7.7 2.6 1.3 1.6 1.2 3.2 2.9 4.4 5 .9 1.5 1.6 3.2 2.3 5h-9.3m-10.9-5.1c1.3-2.1 2.8-3.9 4.4-5 .9-.6 1.7-1 2.6-1.3v11.3h-9.4c.8-1.8 1.5-3.4 2.4-5m7.1 8.9v7.7h-11.6c.1-2.7.5-5.2 1.1-7.7h10.5m-21.3 19.4c-1.1-2.5-1.6-5-1.8-7.7h7.7c.1 2.7.4 5.3 1 7.7h-6.9m9.7-7.8h11.6v7.7h-10.5c-.6-2.4-.9-5-1.1-7.7m11.6 11.6v11.3c-.9-.3-1.7-.7-2.6-1.3-1.6-1.2-3.2-2.9-4.4-5-.9-1.5-1.6-3.2-2.3-5h9.3m10.9 5.1c-1.3 2.1-2.8 3.9-4.4 5-.9.6-1.7 1.1-2.6 1.3v-11.3h9.4c-.8 1.8-1.5 3.4-2.4 5m-7.1-8.9v-7.7h11.6c-.1 2.7-.5 5.2-1.1 7.7h-10.5m15.5-11.6c-.1-2.7-.4-5.3-1-7.7h6.8c1.1 2.5 1.6 5 1.8 7.7h-7.6m3.8-11.6h-5.8c-1.2-3.6-2.7-6.7-4.5-9.2 2.6 1.3 4.9 2.9 7 4.9 1.1 1.4 2.3 2.7 3.3 4.3m-39-4.3c2-2 4.4-3.7 7-4.9-1.8 2.5-3.4 5.6-4.5 9.2h-5.8c.9-1.6 2.1-2.9 3.3-4.3m-3.4 31.3h5.8c1.2 3.6 2.7 6.7 4.5 9.2-2.6-1.3-4.9-2.9-7-4.9-1.1-1.4-2.3-2.7-3.3-4.3m39 4.3c-2 2-4.4 3.7-7 4.9 1.8-2.5 3.4-5.6 4.5-9.2h5.8c-.9 1.6-2.1 2.9-3.3 4.3" style="fill:#3498db"/><path d="m370 370h60v60h-60z" style="fill:none"/></svg>