<?xml version="1.0" encoding="utf-8"?>
<!-- Generator: Adobe Illustrator 18.0.0, SVG Export Plug-In . SVG Version: 6.00 Build 0)  -->
<!DOCTYPE svg PUBLIC "-//W3C//DTD SVG 1.1//EN" "http://www.w3.org/Graphics/SVG/1.1/DTD/svg11.dtd">
<svg version="1.1" id="Layer_1" xmlns="http://www.w3.org/2000/svg" xmlns:xlink="http://www.w3.org/1999/xlink" x="0px" y="0px"
	 width="23.2px" height="24px" viewBox="0 0 23.2 24" enable-background="new 0 0 23.2 24" xml:space="preserve">
<g id="c186_exit">
	<path fill="#FFFFFF" d="M12.7,21.8H2V2.2h10.8v7.2c0.7,0,1.4,0,2.1,0V0H0v24h14.8v-5.3c-0.6,0-1.3,0-2.1,0V21.8z"/>
	<path fill="#FFFFFF" d="M23,13.6c-0.5-0.5-5.4-5.2-5.4-5.2S17,7.7,17,8.6c0,0.9,0,2.3,0,2.3s-0.4,0-1,0c-1.8,0-7.9,0-9.2,0
		c0,0-0.3,0-0.3,0.4s0,5,0,5.5c0,0.6,0.4,0.5,0.4,0.5c1.4,0,7.4,0,9.2,0c0.6,0,1.1,0,1.1,0s0,1.7,0,2.4c0,0.7,0.6,0.1,0.6,0.1
		l5.2-5.4C23,14.4,23.4,14,23,13.6z"/>
</g>
</svg>
