<svg xmlns="http://www.w3.org/2000/svg" viewBox="0 0 1280 800" style="enable-background:new 0 0 1280 800"><defs/><path d="m43.2 554h1193.6v246h-1193.6z" style="fill:#4d4d4d"/><g style="fill:#fff"><path d="m130.7 621.4h30.1c13.7 0 23.7 1.8 30.1 6.4 6.4 4.6 9.1 10.9 9.1 20 0 6.4-1.8 11.8-5.5 15.5-3.6 3.6-8.2 6.4-15.5 8.2v.9c16.4 2.7 23.7 10.9 23.7 25.5 0 9.1-2.7 16.4-9.1 21.9-6.4 5.5-15.5 8.2-26.4 8.2h-36.4v-106.6h-.1m12.7 44.7h20c8.2 0 14.6-.9 18.2-3.6 3.6-2.7 5.5-7.3 5.5-13.7 0-5.5-1.8-10-6.4-12.8-4.6-2.7-10.9-3.6-20-3.6h-18.2v33.7h.9m0 10.9v39.2h21.9c8.2 0 14.6-1.8 19.1-4.6 4.6-3.6 6.4-8.2 6.4-15.5 0-6.4-1.8-10.9-6.4-14.6-4.6-2.7-10.9-4.6-20-4.6l-21 .1"/><path d="m318.4 673.3c0 17.3-4.6 30.1-12.8 40.1s-20 14.6-35.5 14.6-27.3-4.6-35.5-14.6c-8.2-9.1-12.8-22.8-12.8-40.1s4.6-30.1 12.8-40.1 20-14.6 36.4-14.6c15.5 0 27.3 4.6 35.5 14.6 7.3 10.1 11.9 23.7 11.9 40.1m-84.8 0c0 14.6 2.7 25.5 9.1 32.8 6.4 7.3 14.6 10.9 26.4 10.9s20-3.6 26.4-10.9 9.1-18.2 9.1-32.8-2.7-24.6-9.1-31.9c-6.4-7.3-14.6-10.9-26.4-10.9s-21 3.6-26.4 10.9c-5.4 7.3-9.1 18.3-9.1 31.9"/><path d="m433.2 673.3c0 17.3-4.6 30.1-12.8 40.1s-20 14.6-35.5 14.6-27.3-4.6-35.5-14.6c-8.2-9.1-12.8-22.8-12.8-40.1s4.6-30.1 12.8-40.1 20-14.6 36.4-14.6c15.5 0 27.3 4.6 35.5 14.6 7.3 10.1 11.9 23.7 11.9 40.1m-83.9 0c0 14.6 2.7 25.5 9.1 32.8s14.6 10.9 26.4 10.9 20-3.6 26.4-10.9 9.1-18.2 9.1-32.8-2.7-24.6-9.1-31.9c-6.4-7.3-14.6-10.9-26.4-10.9s-21 3.6-26.4 10.9c-6.3 7.3-9.1 18.3-9.1 31.9"/><path d="m532.5 726.2h-14.6l-38.3-51-10.9 10v41h-11.8v-104.8h11.8v51.9l47.4-51.9h14.6l-42 45.6 43.8 59.2"/><path d="m622.7 726.2h-14.6l-38.3-51-10.9 10v41h-11.8v-104.8h11.8v51.9l47.4-51.9h14.6l-41.9 45.6 43.7 59.2"/><path d="M696.5,726.2h-58.3V621.4h58.3v10.9H650V666h43.7v11H650v39.2h46.5V726.2z"/><path d="M778.5,726.2h-58.3V621.4h58.3v10.9H732V666h43.7v11H732v39.2h46.5V726.2z"/><path d="m868.7 651.5c0 10.9-3.6 19.1-10.9 24.6-7.3 5.5-17.3 8.2-31 8.2h-12.8v41h-11.8v-103.9h27.3c25.5 0 39.2 10 39.2 30.1m-54.7 22.8h11c10.9 0 19.1-1.8 23.7-5.5 4.6-3.6 7.3-9.1 7.3-17.3 0-7.3-2.7-11.8-7.3-15.5-4.6-3.6-11.8-5.5-21-5.5h-13.7v43.8"/><path d="m890.6 726.2v-104.8h11.8v105.7h-11.8v-.9"/><path d="m1013.6 726.2h-13.7l-57.4-88.4h-.9c.9 10 .9 20 .9 28.2v60.1h-10.9v-104.7h13.7l57.4 88.4h.9c0-.9 0-5.5-.9-12.8s-.9-11.8 0-15.5v-60.1h11.8v104.8h-.9"/><path d="m1089.2 671.5h35.5v51c-5.5 1.8-10.9 2.7-17.3 3.6-5.5.9-12.8 1.8-20 1.8-16.4 0-28.2-4.6-37.4-14.6-9.1-10-13.7-22.8-13.7-40.1 0-10.9 1.8-21 6.4-29.2s10.9-14.6 19.1-19.1c8.2-4.6 18.2-6.4 29.2-6.4 10.9 0 21.9 1.8 31 6.4l-4.6 10.9c-9.1-3.6-18.2-6.4-27.3-6.4-12.8 0-22.8 3.6-30.1 11.8-7.3 8.2-10.9 18.2-10.9 31.9 0 14.6 3.6 24.6 10 31.9 6.4 7.3 17.3 10.9 31 10.9 7.3 0 14.6-.9 21-2.7v-32.8h-23.7v-9.1h1.8v.2"/></g><g style="fill:#3498db"><path d="m884.2 373.6c33.7 14.6 62 25.5 83.8 31 22.8 5.5 43.7 9.1 64.7 9.1 21 0 37.4-4.6 49.2-12.8s18.2-21.9 18.2-38.3c0-9.1-2.7-18.2-7.3-24.6-5.5-7.3-12.8-14.6-23.7-21.9-10.9-7.3-31-18.2-62-32.8-31-14.6-53.8-28.2-68.3-41-31.9-28.2-48.3-63.8-48.3-105.7s14.6-75.6 43.8-100.2 69.3-36.4 120.3-36.4c42.8 0 91.1 10.9 144 33.7l-32.8 80.2c-24.6-10-46.5-17.3-62.9-21.9-17.3-4.6-34.6-6.4-52.8-6.4-18.2 0-31.9 4.6-42.8 13.7-10.9 9.1-15.5 21-15.5 35.5 0 9.1 1.8 17.3 6.4 23.7 3.6 6.4 10.9 13.7 20 19.1 9.1 6.4 31 17.3 65.6 33.7 44.6 21.9 75.6 42.8 92.9 65.6 17.3 21 25.5 47.4 25.5 80.2 0 43.7-15.5 77.4-47.4 103.9-31.9 24.6-74.7 37.4-128.5 37.4-53.8 0-101.1-10-140.3-29.2v-95.7h-1.8v.1"/><path d="m55 373.6c33.7 14.6 62 25.5 83.8 31 22.8 5.5 43.7 9.1 64.7 9.1s37.4-4.6 49.2-12.8c11.8-8.2 18.2-21.9 18.2-38.3 0-9.1-2.7-18.2-7.3-24.6-5.5-7.3-12.8-14.6-23.7-21.9s-31-18.2-62-32.8c-31-14.6-53.8-28.2-68.3-41-32.8-28.2-49.2-63.8-49.2-105.7s14.7-75.6 43.8-100.2 69.3-36.4 120.3-36.4c42.8 0 91.1 10.9 144 33.7l-32.8 80.2c-24.6-10-46.5-17.3-62.9-21.9-17.3-4.6-34.6-6.4-52.8-6.4s-31.9 4.6-42.8 13.7c-10.9 9.1-15.5 20-15.5 35.5 0 9.1 1.8 17.3 6.4 23.7 3.6 6.4 10.9 13.7 20 19.1 9.1 5.5 31 17.3 65.6 33.7 44.6 21.9 75.6 42.8 92.9 65.6 17.3 21 25.5 47.4 25.5 80.2 0 43.7-15.5 77.4-47.4 103.9-31.9 24.6-74.7 37.4-128.5 37.4s-101.1-10-140.3-29.2v-95.7h-.9v.1"/><path d="m458.7 7.3h150.3c68.3 0 118.5 10 149.4 29.2 31 19.1 46.5 51 46.5 92.9 0 29.2-7.3 52.8-21 71.1-13.7 19.1-31.9 30.1-53.8 33.7v3.6c30.1 6.4 51.9 19.1 66.5 38.3 13.7 18.2 21 43.7 21 75.6 0 43.7-15.5 78.4-47.4 103-31.8 24.6-75.5 37.3-130.2 37.3h-181.3v-484.7m102.9 83.8v107.5h59.2c28.2 0 48.3-4.6 61-12.8 12.8-8.2 18.2-22.8 18.2-41.9s-6.4-32.8-20-41-34.6-11.8-64.7-11.8c.1 0-53.7 0-53.7 0m0 189.5v126.7h66.5c28.2 0 49.2-5.5 62.9-16.4s20-27.3 20-50.1c0-40.1-29.2-60.1-86.6-60.1l-62.8-.1"/></g></svg>