<svg xmlns="http://www.w3.org/2000/svg" viewBox="0 0 102 102" style="enable-background:new 0 0 102 102"><defs/><circle cx="51" cy="51" r="50" style="fill:#12baa0;stroke-miterlimit:10;stroke:#fff"/><circle cx="51" cy="51" r="47" style="fill:#fff"/><g style="fill:#12baa0"><path d="m59.1 48.9c1.1-.7 2.3-1 3.6-.9l14.1-14.1-7.9-7.9-14.1 14.1c.1 1.3-.2 2.5-.9 3.6l5.2 5.2"/><path d="m34.5,66.1-.5-.5-2.7,2.1-4.5,7.1 1.2,1.2 7.1-4.5 2.1-2.7-.5-.5 9-9-2.2-2.2z"/><path d="m46.8 41.2c1-3.7.1-7.8-2.8-10.8-2.9-2.9-7-3.8-10.7-2.8l6.2 6.2-1.6 6.2-6.1 1.6-6.2-6.2c-1 3.7-.1 7.8 2.8 10.7 3 3 7.4 3.9 11.2 2.7l25.7 25.7c1 1 2.3 1.5 3.7 1.5 1.3 0 2.7-.5 3.7-1.5 2-2 2-5.3 0-7.4l-25.9-25.9m22.6 32.3c-1.1 0-2-.9-2-2 0-1.1.9-2 2-2 1.1 0 2 .9 2 2 0 1.1-.9 2-2 2"/></g></svg>