<svg xmlns="http://www.w3.org/2000/svg" viewBox="0 0 102 102" style="enable-background:new 0 0 102 102"><defs/><circle cx="51" cy="51" r="50" style="fill:#12baa0;stroke-miterlimit:10;stroke:#fff"/><circle cx="51" cy="51" r="47" style="fill:#fff"/><g style="fill:#12baa0"><path d="m73 74.3h-3.7v-2.5c0-.1-.1-.3-.3-.3s-.3.1-.3.3v2.5h-4.7v-2.5c0-.1-.1-.3-.3-.3-.1 0-.3.1-.3.3v2.5h-4.7v-2.5c0-.1-.1-.3-.3-.3-.1 0-.3.1-.3.3v2.5h-4.7v-2.5c0-.1-.1-.3-.3-.3-.1 0-.3.1-.3.3v2.5h-4.7v-2.5c0-.1-.1-.3-.3-.3-.1 0-.3.1-.3.3v2.5h-4.7v-2.5c0-.1-.1-.3-.3-.3-.1 0-.3.1-.3.3v2.5h-4.7v-2.5c0-.1-.1-.3-.3-.3-.1 0-.3.1-.3.3v2.5h-4.7v-2.5c0-.1-.1-.3-.3-.3-.1 0-.3.1-.3.3v2.5h-9.5v-5.9h2.1c.1 0 .3-.1.3-.3s-.1-.3-.3-.3h-2.1v-4.7h2.1c.1 0 .3-.1.3-.3 0-.1-.1-.3-.3-.3h-2.1v-4.7h2.1c.1 0 .3-.1.3-.3 0-.1-.1-.3-.3-.3h-2.1v-4.7h2.1c.1 0 .3-.1.3-.3 0-.1-.1-.3-.3-.3h-2.1v-4.7h2.1c.1 0 .3-.1.3-.3 0-.1-.1-.3-.3-.3h-2.1v-4.7h2.1c.1 0 .3-.1.3-.3 0-.1-.1-.3-.3-.3h-2.1v-4.3h2.1c.1 0 .3-.1.3-.3 0-.1-.1-.3-.3-.3h-2.1v-4.7h2.1c.1 0 .3-.1.3-.3 0-.1-.1-.3-.3-.3h-2.1v-4.3c0-.4-.4-.8-.8-.8-.4 0-.8.4-.8.8v48.2c0 .4.4.8.8.8h51.7c.4 0 .8-.4.8-.8s-.4-.7-.8-.7"/><path d="m29.2 33.3h5.4v35.5h-5.4z"/><path d="m45.9 50c-.7-.9-1.3-1.9-1.7-2.9h-3.7v21.7h5.4v-18.8"/><path d="m57.2 55.2c-.2 0-.3 0-.5 0-1.7 0-3.3-.3-4.8-.9v14.4h5.4v-13.5z"/><path d="m69 58.5l-5.2-5.2c-.1 0-.1.1-.2.1v15.4h5.4v-10.3"/><path d="m80.6 63.9l-14.5-14.7c3.6-4.7 3.3-11.5-1-15.8-4.7-4.7-12.3-4.7-16.9 0-4.7 4.7-4.7 12.3 0 16.9 4.3 4.3 11.1 4.6 15.8 1l14.4 14.7c.6.6 1.5.6 2.1 0 .6-.6.6-1.5.1-2.1m-17.7-15.7c-3.5 3.5-9.2 3.5-12.7 0-3.5-3.5-3.5-9.2 0-12.7 3.5-3.5 9.2-3.5 12.7 0 3.5 3.5 3.5 9.2 0 12.7"/><path d="m57.1 40.6c-1.4-.6-1.8-.9-1.8-1.5 0-.5.4-1.1 1.4-1.1 1 0 1.6.3 1.8.5.1 0 .1 0 .2 0 .1 0 .1-.1.2-.2l.4-1c0-.1 0-.3-.1-.3-.6-.3-1.2-.5-1.9-.6v-1.3c0-.1-.1-.3-.3-.3h-1c-.1 0-.3.1-.3.3v1.4c-1.4.3-2.3 1.4-2.3 2.7 0 1.6 1.3 2.4 2.7 2.9 1.1.5 1.6.9 1.6 1.6 0 .8-.6 1.3-1.6 1.3-.7 0-1.5-.2-2.1-.6-.1 0-.2-.1-.2 0s-.1.1-.2.2l-.4 1c0 .1 0 .2.1.3.5.4 1.4.7 2.3.7v1.3c0 .1.1.3.3.3h1c.1 0 .3-.1.3-.3v-1.4c1.5-.3 2.5-1.5 2.5-2.9-.1-1.3-.8-2.3-2.6-3"/></g></svg>