<svg xmlns="http://www.w3.org/2000/svg" viewBox="0 0 102 102" style="enable-background:new 0 0 102 102"><defs/><circle cx="51" cy="51" r="50" style="fill:#12baa0;stroke-miterlimit:10;stroke:#fff"/><circle cx="51" cy="51" r="47" style="fill:#fff"/><g style="fill:#12baa0"><path d="m33.5 61.2l-2.4-4.9v22.7h36.7v-2.4h-34.3z"/><path d="m66.2 36.1v2.4h2.4v-5.8l-9.8-9.7h-27.7v6.6h2.4v-4.2h22.9v10.7h9.8m-7.5-9.9l7.4 7.4v.1h-7.4v-7.5"/><path d="m46.3 72.2l-.1-11.6-10.5-21.8-3.4-7-8.2 4 3.4 7 10.5 21.6 8.3 7.8m-4.9-7.9l.2-2.5 2.2 1.3 1.1-3.1.3.7.1 6.6-2 1-4.6-4.3-.5-1 3.2 1.3m-13.7-25.2l-1.2-2.6 5.2-2.5 1.2 2.6-5.2 2.5"/><path d="m63.2 79v-5c-3.6-.2-7-1.1-9-2.3l1.6-6.2c2.2 1.2 5.4 2.3 8.8 2.3 3 0 5.1-1.2 5.1-3.3 0-2-1.7-3.3-5.6-4.6-5.7-1.9-9.5-4.6-9.5-9.7 0-4.7 3.3-8.3 9-9.4v-5h5.2v4.7c3.6.2 5.9.9 7.7 1.7l-1.5 6c-1.4-.6-3.8-1.8-7.6-1.8-3.4 0-4.6 1.5-4.6 3 0 1.7 1.9 2.9 6.4 4.6 6.3 2.2 8.8 5.1 8.8 9.9 0 4.7-3.3 8.7-9.4 9.8v5.3h-5.4"/></g></svg>