<svg xmlns="http://www.w3.org/2000/svg" viewBox="0 0 150 150" xmlns:xlink="http://www.w3.org/1999/xlink" style="enable-background:new 0 0 150 150"><defs><path id="SVGID_1_" d="m91.8 133.8h-81.6c-2.9 0-5.2-2.3-5.2-5.2v-110c0-2.9 2.3-5.2 5.2-5.2h81.6c2.9 0 5.2 2.3 5.2 5.2v110c0 2.9-2.3 5.2-5.2 5.2"/><clipPath id="SVGID_2_"><use xlink:href="#SVGID_1_"/></clipPath></defs><path d="m91.8 133.8h-81.6c-2.9 0-5.2-2.3-5.2-5.2v-110c0-2.9 2.3-5.2 5.2-5.2h81.6c2.9 0 5.2 2.3 5.2 5.2v110c0 2.9-2.3 5.2-5.2 5.2" style="fill:#ecf0f1"/><g style="fill:#7f8c8d;opacity:.5"><path d="m11 23h46v4h-46z"/><path d="m11 34h40v5h-40z"/><path d="m11 46h43v3h-43z"/><path d="m11 56h81v4h-81z"/><path d="m11 68h81v3h-81z"/><path d="m60 23h32v26h-32z"/><path d="m11 78h38v48h-38z"/><path d="m54 78h38v48h-38z"/></g><path d="m142.3 69l-6.3-3.9v-27c0-2.9-2.2-5.2-5.1-5.2h-81.5c-2.9 0-5.4 2.3-5.4 5.2v26.7l-7 3.9v53.3 5.2c0 .2.3.3.3.5l.1.1c0 3.2 3.2 6.2 6.4 6.2h.3 92.3.3c3.2 0 5.2-3.5 5.2-6.8v-5.2-53h.4" style="clip-path:url(#SVGID_2_);fill:#dadbdb"/><path d="m92.6,101.4-52.4-30 52.4-30.6 52.4,30.6z" style="fill:#0d8c79"/><path d="m138.8 105.4h-92v-64.6c0-2.9 2.3-5.2 5.2-5.2h81.6c2.9 0 5.2 2.3 5.2 5.2v64.6" style="fill:#ecf0f1"/><g style="fill:#84bf00"><path d="m53 46h46v3h-46z"/><path d="m53 56h39v4h-39z"/><path d="m53 68h43v3h-43z"/><path d="m53 78h80v5h-80z"/><path d="m53 90h80v3h-80z"/></g><path d="m102 46h31v25h-31z" style="fill:#3498db"/><path d="m91.9 100.1l-45.9-26.3v10.6l38.4 21.6h16.3l37.3-22.1v-10.1z" style="opacity:.3"/><path d="m46 71.7v12.7l38.4 21.6h16.3l37.3-22.1v-12.6l-46.2 20.1z" style="fill:#dadbdb"/><path d="m92.4 101.4l-52.4-30v58.5c0 3.2 3.5 7.2 6.8 7.2h92.7c3.2 0 5.6-3.9 5.6-7.2v-58.5l-52.7 30" style="fill:#fcf6e3"/><g style="fill:#4d4d4d"><path d="m145 129.8v-5.2l-52.7-23.2-52.3 23.3v5.2c0 3.2 3.5 7.2 6.8 7.2h92.7c3.2-.1 5.5-4 5.5-7.3" style="opacity:.1"/><path d="m145 130.5l-52.4-28.7-52.4 28.9c0 3.2 3 6.4 6.3 6.4h92.7c3.1-.1 5.8-3.4 5.8-6.6" style="opacity:.1"/></g><path d="m5.7 592.2c.5.1 1-.2 1.1-.7l1.4.2c0 .5.3 1 .8 1.1s1-.2 1.1-.7l1.4.3-.2 1.2c-.6 0-1.1.3-1.2.8-.1.5.3 1 .8 1.1l-.2 1.3c-.6 0-1.1.3-1.2.8-.1.5.3 1 .8 1.1l-.2 1.1c-.5 0-1 .3-1.1.8-.1.5.2.9.8 1.1l-.1 1.3c-.5 0-1 .3-1.1.8s.2.9.8 1.1l-.2 1c-.5 0-1 .3-1.1.8s.2.9.8 1.1l-.2 1.3c-.5 0-1 .3-1.1.8-.1.5.2.9.8 1.1l-.2 1.2-1.7-.2c0-.5-.3-1-.8-1.1-.5-.1-1 .2-1.1.7l-1.2-.2c.1-.6-.3-1.1-.8-1.2-.5-.1-1.1.3-1.2.9l-1.4-.2c0-.6-.3-1.1-.8-1.2-.5-.1-1 .3-1.2.8l-1-.2c0 0 0 0 0-.1.1-.6-.3-1.2-.8-1.3s-1.1.3-1.2.9c0 0 0 0 0 .1l-1.3-.2c0-.6-.3-1.1-.8-1.2s-1 .3-1.2.8l-1.4-.2c0-.6-.3-1-.8-1.1-.5-.1-1 .3-1.2.8l-1.3-.2c.1-.6-.3-1.1-.8-1.2-.5-.1-1.1.3-1.2.9l-1.2-.2c.1-.6-.3-1.1-.8-1.2-.5-.1-1.1.3-1.2.9l-1.3-.2.2-1.1c.1 0 .1 0 .2 0 .6.1 1.2-.2 1.3-.8.1-.5-.3-1.1-1-1.2-.1 0-.1 0-.2 0l.2-1.3c.1 0 .1 0 .2 0 .6.1 1.2-.2 1.3-.8.1-.5-.3-1.1-1-1.2-.1 0-.1 0-.2 0l.2-1c.1 0 .1 0 .2 0 .6.1 1.2-.2 1.3-.8.1-.5-.3-1.1-1-1.2-.1 0-.1 0-.2 0l.2-1.3c.1 0 .1 0 .2 0 .6.1 1.2-.2 1.3-.8.1-.5-.3-1.1-1-1.2-.1 0-.1 0-.2 0l.2-1.1c0 0 .1 0 .1 0 .6.1 1.2-.2 1.3-.8.1-.5-.3-1.1-1-1.2 0 0-.1 0-.1 0l.2-1.3c0 0 .1 0 .1 0 .6.1 1.2-.2 1.3-.8.1-.5-.3-1.1-1-1.2 0 0-.1 0-.1 0l.2-1.2 1.3.2c0 .6.3 1.1.8 1.2.5.1 1-.3 1.2-.8l1.3.2c0 .6.3 1.1.8 1.2.5.1 1-.3 1.2-.8l1.2.2c0 .6.3 1.1.8 1.2s1-.3 1.2-.8l1.3.2c0 .6.3 1.1.8 1.2.5.1 1-.3 1.2-.8l1.1.2c0 .6.3 1.1.8 1.2.5.1 1-.3 1.2-.8l1.3.2c0 .6.3 1.1.8 1.2s1-.3 1.2-.8l1.3.2c.3.5.7 1 1.2 1.1" transform="matrix(1.25 0 0-1.25 71.875 865.75503)" style="fill:#3498db"/><path d="m68.1 124c-2.6.5-4.7.1-6.4-1-1.7-1.1-2.7-2.8-3.1-5.2-.3-1.7-.2-3.2.3-4.7s1.3-2.7 2.6-3.7c1.2-1 2.7-1.7 4.5-2 1.5-.3 2.9-.2 4.2.2 1.3.4 2.3 1.1 3.2 2.1.8 1 1.4 2.2 1.6 3.7 0 0 0 0 0 .1.2.9.2 1.8 0 2.7-.2.9-.5 1.6-1 2.1-.5.6-1.1.9-1.8 1 0 0-.1 0-.1 0-.5.1-1 0-1.4-.1-.4-.2-.8-.4-1-.8h-.2c-.6 1-1.4 1.6-2.6 1.8s-2.1 0-3-.6c-.8-.6-1.3-1.5-1.6-2.8-.3-1.4 0-2.6.8-3.7.7-1 1.8-1.7 3.3-1.9.6-.1 1.2-.2 1.9-.2.7 0 1.3 0 1.8.1l.6 5c.2.9.5 1.4 1 1.3.4-.1.7-.5.9-1.1.1-.7.1-1.5-.1-2.5 0 0 0-.1 0-.1-.2-1-.6-1.9-1.2-2.7-.6-.7-1.3-1.3-2.2-1.6s-1.8-.4-2.8-.2c0 0-.1 0-.1 0-1.4.2-2.5.7-3.4 1.5-.9.7-1.5 1.7-1.9 2.8-.3 1.1-.4 2.4-.2 3.8.3 1.9 1.1 3.2 2.3 4 1.2.8 2.7 1.1 4.6.7 1.6-.3 3.1-.9 4.7-1.8l.3 1.9c-1.2 1-2.7 1.6-4.5 1.9m-1.2-11c-.8.1-1.4.5-1.8 1.1-.4.6-.5 1.4-.3 2.3.3 1.4 1 2 2.1 1.8.6-.1 1-.4 1.3-.9.2-.5.3-1.2.2-2.2l-.3-2.3c-.4.1-.8.1-1.2.2" style="fill:#fff"/><path d="m0 0h150v150h-150z" style="fill:none"/></svg>