<svg xmlns="http://www.w3.org/2000/svg" viewBox="0 0 150 150" xmlns:xlink="http://www.w3.org/1999/xlink" style="enable-background:new 0 0 150 150"><defs><path id="SVGID_1_" d="m53 84h8v43h-8z"/><clipPath id="SVGID_2_"><use xlink:href="#SVGID_1_"/></clipPath></defs><g style="fill:#84bf00"><path d="m83.6 47.2h26.4v85.1h-26.4z"/><path d="m96.8 47.2h13.2v85.1h-13.2z" style="opacity:.5"/></g><g style="fill:#fff"><circle cx="96.8" cy="99.2" r="6"/><path d="m89.5 54.2h14v25.7h-14z"/><path d="m89.5 82.1h14v2.7h-14z"/></g><path d="m91.3 56.3h10.2v4.3h-10.2z" style="fill:#84bf00"/><g style="fill:#f39a00;stroke-width:.9999707"><path d="m144.11084 129.87629h-3.81084v81.9h-26.4z"/><path d="m144.1809 129.83898h-3.9809v81.9h-13.2z" style="opacity:.5"/></g><g style="fill:#fff"><circle cx="128.1" cy="101.4" r="6"/><g style="stroke-width:.9999707"><path d="m132.93467 81.53635h-1.23467v25.7h-14z"/><path d="m133.36183 86.37703h-.06183v2.7h-14z"/></g></g><path d="m129.11073 62.55352h-.11073v4.3h-10.2z" style="fill:#f39a00;stroke-width:.9999707"/><path d="m30.1 56.6c.3 1.9 1.1 3.2 1.8 3.9 1.8 11.7 11.6 22.5 20.5 22.5 10.4 0 19.9-11.7 21.7-22.5.7-.8 1.5-2 1.8-4 .6-2.2 1.4-6 0-7.8-.1-.1-.1-.2-.2-.3 1.3-4.6 2.9-14.1-2.8-20.6-.5-.6-3.7-4.5-10.5-6.5l-3.3-1.1c-5.4-1.7-8.7-2-8.9-2-.2 0-.5 0-.7.1-.2 0-.8.2-1.3.2-1.3-.2-3.2.5-3.6.6-.4.2-10.8 4.3-14 14-.3.8-1.5 4.9.1 15-.2.2-.5.4-.7.6-1.2 1.9-.5 5.7.1 7.9" style="fill:#4d4d4d"/><path d="m38 77.1v-.2.2c-.1 0-.1 0 0 0"/><path d="m46 84.9l7.3 11.2 7.3-11.2c-8.1 3.4-14.6 0-14.6 0m7.3 41.6l7.3-27.5-7.3-3-7.3 3 7.3 27.5" style="fill:#3498db"/><path d="m99.8 132c.6-2 1.3-2.2 1.3-5.1 0 0-.9-24.5-8.3-35.5 0 0-2.1-2.8-7.1-4.8 0 0-.4-.1-1.1-.3-4.5-2.1-8.7-3.4-8.7-3.4-.9-.3-1.7-.6-2.4-1-3-1.5-5.6-3.2-6.1-4.8l2.3 18.2-14.8 32.3c-.7 1.4-2.7 1.4-3.3 0l-14-31.3.3-19.1c-1.4 4.4-18.3 9.6-18.3 9.6-5 1.9-7.1 4.8-7.1 4.8-7.4 11-8.3 35.4-8.3 35.4 0 2.8.7 3.1 1.3 5.1h94.3z" style="fill:#4d4d4d"/><g style="fill:#8ea3b3;opacity:.5"><path d="m37.6 96.3l.3-19.1c-.3.8-1.1 1.7-2.2 2.5l-4.1 17.6 15.9 21.4-9.9-22.4"/><path d="m75.6 96.1l-7-17.2c-.6-.6-1-1.1-1.2-1.7l2.3 18.2-10.7 23.4 16.6-22.7"/></g><path d="m46 84.9l7.3 11.2 7.3-11.2c-8.1 3.4-14.6 0-14.6 0m7.3 41.6l7.3-27.5-7.3-3-7.3 3 7.3 27.5" style="clip-path:url(#SVGID_2_);fill:#3498db;opacity:.5"/><path d="m0 0h150v150h-150z" style="fill:none"/></svg>