<svg xmlns="http://www.w3.org/2000/svg" viewBox="0 0 150 150" xmlns:xlink="http://www.w3.org/1999/xlink" style="enable-background:new 0 0 150 150"><defs><path id="SVGID_1_" d="m85.9 78.2c.5.3 1 .5 1.6.5l1 .1 2.5.2 22.1 2 24.9 2.3c1.1.1 2.1-.2 2.8-.9.8-.7 1.4-1.6 1.5-2.7l.7-7.7.4-4.7.5-5.8 1-11.1c.1-1.1-.3-2.2-.9-3-.6-.8-1.6-1.3-2.6-1.4l-50.4-4.6c-2.2-.2-4.1 1.4-4.3 3.6l-2.7 29.4c-.1 1.6.7 3 1.9 3.8"/><clipPath id="SVGID_2_"><use xlink:href="#SVGID_1_"/></clipPath></defs><path d="m0 0h150v150h-150z" style="fill:none"/><path d="m85.9 78.2c.5.3 1 .5 1.6.5l1 .1 2.5.2 22.1 2 24.9 2.3c1.1.1 2.1-.2 2.8-.9.8-.7 1.4-1.6 1.5-2.7l.7-7.7.4-4.7.5-5.8 1-11.1c.1-1.1-.3-2.2-.9-3-.6-.8-1.6-1.3-2.6-1.4l-50.4-4.6c-2.2-.2-4.1 1.4-4.3 3.6l-2.7 29.4c-.1 1.6.7 3 1.9 3.8" style="fill:#2a7cb3"/><g style="fill:#4395cc"><path d="m140.8 82.5c.8-.7 1.4-1.6 1.5-2.7l.7-7.8.4-4.7.5-5.8 1-11.1c.1-1.1-.3-2.2-.9-3-.6-.8-1.6-1.3-2.6-1.4l-47.1-4.4c11.3 16.6 26.7 30.7 43.7 41.6 1 .3 2-.1 2.8-.7"/><path d="m84.5 64.4h58.7v9.4h-58.7z" transform="matrix(.9957.09231-.09231.9957 6.8615-10.2108)" style="clip-path:url(#SVGID_2_)"/></g><path d="m6 57h102v4h-102z" style="fill:#bdbdbd"/><g style="fill:#4d4d4d"><path d="m6 53h102v4h-102z"/><path d="m109 53h-104l52-34.6z"/></g><path d="m20 51.2l37-24.4 37 24.4v1.8h-74z" style="fill:#bdbdbd"/><path d="m16 64h12v51h-12z" style="fill:#4d4d4d"/><path d="m16 64h5v51h-5z" style="fill:#fffff5;opacity:.5"/><g style="fill:#bdbdbd"><path d="m14 61h16v3h-16z"/><path d="m14 61h16v2h-16z"/></g><path d="m9 117h26v13h-26z" style="fill:#4d4d4d"/><g style="fill:#bdbdbd"><path d="m14 112h16v5h-16z"/><path d="m14 115h16v2h-16z"/></g><path d="m51 64h13v51h-13z" style="fill:#4d4d4d"/><path d="m51 64h6v51h-6z" style="fill:#fffff5;opacity:.5"/><g style="fill:#bdbdbd"><path d="m47 61h19v3h-19z"/><path d="m47 61h19v2h-19z"/><path d="m47 112h19v5h-19z"/><path d="m47 115h19v2h-19z"/></g><path d="m87 64h12v51h-12z" style="fill:#4d4d4d"/><path d="m87 64h6v51h-6z" style="fill:#fffff5;opacity:.5"/><g style="fill:#bdbdbd"><path d="m83 61h18v3h-18z"/><path d="m83 61h18v2h-18z"/></g><path d="m79 117h26v13h-26z" style="fill:#4d4d4d"/><g style="fill:#bdbdbd"><path d="m83 112h18v5h-18z"/><path d="m83 115h18v2h-18z"/><path d="m30 117h53v2h-53z"/></g><path d="m30 119h53v3h-53z" style="fill:#ddd"/><path d="m30 122h53v3h-53z" style="fill:#bdbdbd"/><path d="m30 125h53v2h-53z" style="fill:#ddd"/><path d="m30 127h53v3h-53z" style="fill:#bdbdbd"/><path d="m30 131.4v-14.4h11.3z" style="fill:#4a3e3c;opacity:.5"/><path d="m79.5 123.7c.6.2 1.2.2 1.9.1l1.1-.2 2.5-.4 23.8-3.9 26.7-4.3c1.1-.2 2.1-.8 2.7-1.7.7-.9 1-2.1.8-3.3l-1.4-8.4-.8-5-1-6.2-1.9-11.9c-.2-1.2-.9-2.2-1.8-2.9-.9-.6-2-.9-3.1-.7l-54.2 8.8c-2.3.4-3.9 2.6-3.5 5l5.1 31.5c.3 1.7 1.5 3 3.1 3.5" style="fill:#3498db"/><path d="m79.4 123.7c0 0 0 0 0 0m54.5-45.2l1.9 12 1 6.2.8 5 1.4 8.4c0 .2.1.5.1.7 0-.2 0-.5-.1-.7l-1.4-8.4-.8-5-1-6.2-1.9-12m-.1-.1c0 .1.1.1 0 0m0-.1c0 0 0 0 0 0" style="fill:#fff"/><path d="m133.1 76.6c-21.3 10.3-38.7 28.7-54.3 46.8.2.1.4.2.7.3.4.1.8.2 1.2.2.2 0 .4 0 .6-.1l1.1-.2 2.5-.4 23.8-3.9 26.7-4.3c1.1-.2 2.1-.8 2.7-1.7.5-.7.8-1.6.9-2.6 0-.2 0-.5-.1-.7l-1.4-8.4-.8-5-1-6.2-1.9-11.9c0 0 0 0 0-.1-.1-.7-.4-1.3-.7-1.8" style="fill:#5dade2"/><path d="m80 108.8c-.1-.6-.1-1 .1-1.4.1-.3.4-.5.9-.6.4-.1.8 0 1 .3.2.3.4.7.5 1.2v.1c.1.6.1 1-.1 1.4-.1.3-.4.5-.9.6-.4.1-.8 0-1-.3-.1-.1-.2-.3-.3-.5-.1-.2-.2-.5-.2-.8m32.9 3.1c-.1-.1-.2-.1-.3-.1-.2 0-.3.1-.3.2 0 .1 0 .2 0 .3l.2 1.4-.6.1-.4-2.3.6-.1.1.3c.1-.1.1-.2.2-.3.1-.1.2-.2.4-.2.2 0 .3 0 .4 0 .1.1.2.1.2.2.1-.1.1-.3.2-.3.1-.1.2-.1.4-.2.1 0 .2 0 .3 0 .1 0 .2.1.3.2.1.1.1.2.2.3 0 .1.1.2.1.3l.2 1.5-.6.1-.2-1.5c0-.1 0-.2-.1-.2-.1-.1-.2-.1-.3-.1-.2 0-.3.1-.3.3 0 .1 0 .2 0 .3l.2 1.4-.6.1-.2-1.4c0-.2 0-.3-.1-.3m-1.2-7.8c-.1.1-.3.2-.5.2-.3 0-.5 0-.8-.2-.2-.2-.4-.4-.5-.8-.1-.4 0-.7.2-1 .2-.3.4-.4.8-.5.5-.1.9.1 1.2.5.2.2.3.6.3 1 .1.4.1.8 0 1.1-.1.6-.5.9-1 1-.3 0-.5 0-.7-.1-.2-.1-.4-.3-.5-.6l.7-.1c0 .1.1.2.2.2.1.1.2.1.3.1.2 0 .4-.2.4-.5 0-.1 0-.4 0-.6.1.2 0 .2-.1.3m-4.2-.3c-.1-.1-.1-.2-.1-.4 0-.3 0-.5.2-.7.2-.2.4-.3.8-.4.3-.1.6 0 .9.1.2.1.4.3.4.6 0 .1 0 .2 0 .4 0 .1-.1.3-.3.4.2.1.3.2.5.3.1.1.2.3.2.5 0 .3 0 .6-.2.8-.2.2-.5.4-.9.5-.4.1-.7 0-.9-.2-.2-.2-.4-.4-.4-.7 0-.2 0-.4 0-.6.1-.2.2-.3.3-.4-.3 0-.5-.1-.5-.2m2.9 8.3c-.1 0-.2 0-.3 0-.1 0-.2.1-.3.2 0 .1-.1.1-.1.2l-.6.1c0-.2 0-.4.1-.5.1-.2.4-.4.8-.4.3 0 .5 0 .7 0 .2.1.3.2.4.5l.2 1.1c0 .1 0 .2 0 .3 0 .1 0 .1.1.2l.1.1v.1l-.7.1-.1-.1v-.1c-.1.1-.2.2-.3.3-.1.1-.3.2-.4.2-.2 0-.4 0-.5-.1-.2-.1-.3-.3-.3-.5 0-.3 0-.5.2-.7.1-.1.3-.2.5-.2l.2-.1c.1 0 .2-.1.2-.1.1-.1.1-.1.1-.2.1-.3.1-.4 0-.4m-2.4.6c-.1-.1-.2-.2-.4-.1-.2 0-.3.1-.4.3 0 .1 0 .2 0 .4l.2 1.2-.6.1-.4-2.3.6-.1.1.3c.1-.1.1-.2.2-.3.1-.1.3-.2.4-.2.2 0 .4 0 .6.1.2.1.3.3.3.6l.3 1.5-.6.1-.2-1.4c0-.1 0-.2-.1-.2m-3.1 1.7c0 0 .1 0 .2 0h.1.1l.1.4-.3.1c-.3.1-.5 0-.6-.1-.1-.1-.1-.2-.2-.3l-.2-1.4-.3.1-.1-.4.3-.1-.1-.6.6-.1.1.6.4-.1.1.4-.4.1.2 1.2c-.1.1 0 .2 0 .2m-1.4-9.3c-.1.2-.1.5-.1.8 0 .3 0 .6 0 .8l-.7.1c-.1-.6 0-1.3.3-2.1.2-.5.3-.8.5-1l-1.7.3-.1-.6 2.5-.4.1.5c-.1.1-.2.3-.3.6-.3.4-.4.7-.5 1m-9.7 2.4l-.1-.6.9-2.3.8-.1.4 2.2.4-.1.1.5-.4.1.1.8-.7.1-.1-.8-1.4.2m2.5 5.6l.7-.1.4 2.6 1.6-.3.1.6-2.2.4-.6-3.2m.7-5.5c-.2-.1-.4-.4-.5-.7l.7-.1c.1.1.1.3.2.3.1.1.2.1.4.1.2 0 .3-.1.4-.2.1-.1.1-.3.1-.5 0-.2-.1-.3-.2-.4-.1-.1-.2-.1-.4-.1-.1 0-.2 0-.2.1-.1.1-.2.1-.2.3l-.6.1-.1-2 1.9-.3.1.6-1.4.2v.8c.1-.1.2-.1.2-.2.1-.1.2-.1.4-.1.3 0 .6 0 .8.2.2.2.4.4.5.8.1.3 0 .6-.2.9-.2.3-.5.5-.9.5-.5-.1-.8-.2-1-.3m3.3 6.2c-.1 0-.2 0-.3 0-.1 0-.2.1-.3.2 0 .1-.1.1-.1.2l-.6.1c0-.2 0-.4.1-.5.1-.2.4-.4.8-.4.3 0 .5 0 .7 0 .2.1.3.2.4.5l.2 1.1c0 .1 0 .2 0 .3 0 .1 0 .1.1.2l.1.1v.1l-.7.1-.1-.1v-.1c-.1.1-.2.2-.3.3-.1.1-.3.2-.4.2-.2 0-.4 0-.5-.1-.2-.1-.3-.3-.3-.5 0-.3 0-.5.2-.7.1-.1.3-.2.5-.2l.2-.1c.1 0 .2-.1.2-.1.1-.1.1-.1.1-.2.1-.4.1-.4 0-.4m-.7-6.9c-.2-.3-.4-.6-.4-1.1 0-.3-.1-.5-.1-.7 0-.3 0-.6.1-.8.1-.2.2-.3.3-.5.1-.1.3-.2.6-.2.3-.1.6 0 .8.1.2.1.4.3.4.6l-.7.1-.1-.2c-.1-.1-.2-.1-.4-.1-.2 0-.4.2-.4.5 0 .1 0 .4 0 .6.1-.1.2-.2.3-.3.1-.1.2-.1.4-.1.3-.1.6 0 .8.2.2.2.4.4.4.8.1.3 0 .6-.2.9-.2.3-.4.5-.8.5-.4.1-.7 0-1-.3m3.4 7.5c-.1 0-.3-.1-.7-.1-.3 0-.5-.1-.6-.2-.1-.1-.2-.2-.2-.4 0-.2 0-.4.2-.6.1-.2.4-.3.7-.3.3 0 .5 0 .7.1s.3.3.4.5l-.6.1c0-.1-.1-.1-.1-.2-.1-.1-.2-.1-.4-.1-.1 0-.2.1-.3.1l-.1.2c0 .1 0 .1.1.1.1 0 .3 0 .7.1.2 0 .4.1.6.2.1.1.2.2.2.4 0 .2 0 .4-.2.6-.1.2-.4.3-.8.3-.4.1-.6 0-.8-.1-.2-.1-.3-.3-.4-.5l.6-.1c0 .1.1.2.1.2.1.1.2.1.4.1.1 0 .2-.1.3-.1.1 0 .1-.1.1-.2l.1-.1m-10.4 2c.1 0 .2.1.3 0 .1 0 .2-.1.3-.2 0 0 .1-.1.1-.2l.6-.1c0 .1 0 .3-.2.5-.2.3-.4.4-.8.5-.3 0-.6 0-.9-.2-.3-.2-.4-.4-.5-.9-.1-.4 0-.7.2-1 .2-.2.4-.4.8-.5.2 0 .4 0 .6 0 .2 0 .3.1.5.3.1.1.2.3.3.4 0 .1.1.3.1.5l-1.7.3c0 .4.1.5.3.6m-2.3-10.2c0 .2 0 .4-.1.6-.1.1-.1.2-.2.2.1 0 .2 0 .3.1.2.1.3.3.4.6 0 .3 0 .6-.2.8-.2.3-.5.4-.9.5-.5.1-.9 0-1.1-.3-.1-.2-.2-.4-.3-.6l.8-.1c0 .1.1.3.1.3.1.2.3.2.5.2.1 0 .2-.1.3-.2.1-.1.1-.2.1-.4 0-.2-.2-.4-.4-.4-.1 0-.3 0-.5 0l-.1-.5c.2 0 .4-.1.5-.1.1-.1.1-.2.2-.3v-.2c0-.1-.1-.2-.2-.3-.1-.1-.2-.1-.3-.1-.2 0-.3.1-.3.2-.1.1-.1.3 0 .4l-.6.1c0-.2 0-.3 0-.5 0-.1.1-.3.2-.4.1-.1.2-.2.3-.2.1-.1.3-.1.4-.1.3-.1.6 0 .8.1.1.1.3.3.3.6m.2 9.3c-.1-.1-.2-.1-.3-.1-.2 0-.3.1-.3.3 0 .1 0 .2 0 .3l.2 1.4-.6.1-.2-1.4c0-.1-.1-.2-.1-.3-.1-.1-.2-.1-.3-.1-.2 0-.3.1-.3.2 0 .1 0 .2 0 .3l.2 1.4-.6.1-.4-2.3.6-.1.1.3c.1-.1.1-.2.2-.3.1-.1.2-.2.4-.2.2 0 .3 0 .4 0 .1.1.2.1.2.2.1-.1.1-.3.2-.3.1-.1.2-.1.4-.2.1 0 .2 0 .3 0 .1 0 .2.1.3.2.1.1.1.2.2.3 0 .1.1.2.1.3l.2 1.5-.6.1-.2-1.5c0-.1-.1-.1-.1-.2m26.5-13.8c-.1-.1-.2-.1-.4-.1-.2 0-.3.1-.4.3 0 .1 0 .2 0 .4l-.7.1c0-.3 0-.5 0-.7.1-.4.4-.6.9-.7.4-.1.7 0 .9.2.3.2.4.4.5.8 0 .3 0 .5-.1.7-.1.1-.2.3-.4.5l-.2.2c-.2.1-.3.3-.3.3-.1.1-.1.1-.1.2l1.5-.2.1.6-2.4.4c0-.3 0-.5 0-.7.1-.2.3-.5.6-.9.3-.3.5-.5.5-.6.1-.2.2-.4.1-.5.1-.1 0-.2-.1-.3m-.1 8.9c.2 0 .3.1.5.3.1.1.2.3.3.4 0 .1.1.3.1.5l-1.7.3c0 .2.2.4.3.4.1 0 .2.1.3 0 .1 0 .2-.1.3-.2 0 0 .1-.1.1-.2l.6-.1c0 .1 0 .3-.2.5-.2.3-.4.4-.8.5-.3.1-.6 0-.9-.2-.3-.2-.4-.4-.5-.9-.1-.4 0-.7.2-1 .2-.2.4-.4.8-.5.2.2.4.2.6.2m-2-5.7l-.7.1-.4-2.4-.8.1-.1-.5c.2 0 .4-.1.4-.1.1-.1.2-.1.3-.2 0-.1.1-.2.1-.3v-.1l.6-.1.6 3.5m7.6-2.8c-.1 0-.3 0-.5 0l-.1-.5c.2 0 .4-.1.5-.1.1-.1.2-.2.2-.4 0-.1-.1-.2-.2-.3-.1-.1-.2-.1-.3-.1-.2 0-.3.1-.3.2-.1.1-.1.3 0 .4l-.6.1c0-.2 0-.3 0-.5 0-.1.1-.3.2-.4.1-.1.2-.2.3-.2.1-.1.3-.1.4-.1.3-.1.6 0 .8.1.2.1.4.4.4.6 0 .2 0 .4-.1.6-.1.1-.1.2-.2.2.1 0 .2 0 .3.1.2.1.3.3.4.6 0 .3 0 .6-.2.8-.2.3-.5.4-.9.5-.5.1-.9 0-1.1-.3-.1-.2-.2-.4-.3-.6l.7-.1c0 .1.1.3.1.3.1.2.3.2.5.2.1 0 .2-.1.3-.2.1-.1.1-.2.1-.4-.1-.3-.2-.4-.4-.5m3.8-.4l.1.5-.4.1.1.8-.7.1-.1-.8-1.4.2-.1-.6.9-2.3.8-.1.4 2.2.4-.1m1.9-.6c-.1-.1-.2-.1-.4-.1-.1 0-.2 0-.2.1-.1.1-.2.1-.2.3l-.6.1-.1-2 1.9-.3.1.6-1.4.2v.8c.1-.1.2-.1.2-.2.1-.1.2-.1.4-.1.3 0 .6 0 .8.2.2.2.4.4.5.8.1.3 0 .6-.2.9-.2.3-.5.5-.9.5-.3.1-.6 0-.9-.1-.2-.1-.4-.4-.5-.7l.7-.1c.1.1.1.3.2.3.1.1.2.1.4.1.2 0 .3-.1.4-.2.1-.1.1-.3.1-.5-.2-.3-.2-.5-.3-.6m3.3-1.6l-.7.1-.1-.2c-.1-.1-.2-.1-.4-.1-.2 0-.4.2-.4.5 0 .1 0 .4 0 .6.1-.1.2-.2.3-.3.1-.1.2-.1.4-.1.3-.1.6 0 .8.2.2.2.4.4.4.8.1.3 0 .6-.2.9-.2.3-.4.5-.8.5-.4.1-.8-.1-1.1-.4-.2-.3-.4-.6-.4-1.1 0-.3-.1-.5-.1-.7 0-.3 0-.6.1-.8.1-.2.2-.3.3-.5.1-.1.3-.2.6-.2.3-.1.6 0 .8.1.3.2.4.4.5.7m-45.2 6.4c.4-.1.7 0 .9.2s.4.4.5.8c0 .3 0 .5-.1.7-.1.1-.2.3-.4.5l-.2.2c-.2.1-.3.3-.3.3-.1.1-.1.1-.1.2l1.5-.2.1.6-2.4.4c0-.2 0-.5 0-.7.1-.2.3-.5.6-.9.3-.3.5-.5.5-.6.1-.2.2-.4.1-.5 0-.1-.1-.3-.2-.3-.1-.1-.2-.1-.4-.1-.2 0-.3.1-.4.3 0 .1 0 .2 0 .4l-.7.1c0-.3 0-.5 0-.7.1-.2.2-.3.3-.4l.2-.1c.3-.1.4-.2.5-.2m-3 12.5l-.6.1-.5-3.1.7-.1 1.6 2-.4-2.2.6-.1.5 3.1-.6.1-1.6-2 .3 2.2m.7-8.5l-.4-2.4-.8.1-.1-.5c.2 0 .4-.1.4-.1.1-.1.2-.1.3-.2 0-.1.1-.2.1-.3v-.1l.6-.1.1.8.4 2.5v.2l-.4.1h-.2m1.7 6.8c.1-.1.3-.2.5-.2l.2-.1c.1 0 .2-.1.2-.1.1-.1.1-.1.1-.2 0-.1-.1-.2-.1-.2-.1 0-.2 0-.3 0-.1 0-.2.1-.3.2 0 .1-.1.1-.1.2l-.6.1c0-.2 0-.4.1-.5.1-.2.4-.4.8-.4.3 0 .5 0 .7 0 .2.1.3.2.4.5l.2 1.1c0 .1 0 .2 0 .3 0 .1 0 .1.1.2l.1.1v.1l-.7.1-.1-.1v-.1c-.1.1-.2.2-.3.3-.1.1-.3.2-.4.2-.2 0-.4 0-.5-.1-.2-.1-.3-.3-.3-.5 0-.5.1-.7.3-.9m39.6-14.8l-.2-1.5-.6 1.6.8-.1m-30.4 3.4l-.6 1.6.9-.1-.3-1.5m6 1.2c.1-.1.1-.3.1-.5 0-.2-.1-.4-.2-.4-.1-.1-.2-.1-.4-.1-.1 0-.2.1-.3.2-.1.1-.2.3-.1.5 0 .2.1.3.2.4.1.1.3.1.4.1.1 0 .3-.1.3-.2m-14.5 11c.1 0 .2-.1.3-.2.1-.1.1-.2.1-.4v-.2l-.1.1-.2.1h-.1c-.1 0-.2.1-.3.1-.1.1-.1.2-.1.3 0 .1.1.2.1.2.2 0 .2 0 .3 0m22.4-12.1c.2 0 .3-.1.3-.2.1-.1.1-.2.1-.4 0-.2-.1-.3-.2-.4-.1-.1-.2-.1-.4-.1-.2 0-.3.1-.3.2-.1.1-.1.2-.1.4 0 .2.1.3.2.4.1.1.2.1.4.1m-16.2 9.6c-.2 0-.3.1-.3.2-.1.1-.1.2-.1.4l1-.2c0-.2-.1-.3-.2-.3-.1-.1-.2-.2-.4-.1m18.5-12.5c-.1 0-.2.1-.3.1-.1.1-.2.3-.1.6 0 .2.1.4.2.4.1.1.2.1.4.1.1 0 .2-.1.3-.1.1-.1.2-.3.1-.6 0-.2-.1-.3-.2-.4-.1-.1-.2-.2-.4-.1m-2.6 1.3c.1 0 .2-.1.3-.2.1-.1.1-.2.1-.3 0-.1-.1-.2-.2-.3s-.2-.1-.3-.1c-.1 0-.2.1-.3.2-.1.1-.1.2-.1.3 0 .1.1.2.2.3.1.1.2.1.3.1m-8.4 10.8c-.1 0-.2.1-.3.1-.1.1-.1.2-.1.3 0 .1.1.2.1.2.1 0 .1 0 .2 0 .1 0 .2-.1.3-.2.1-.1.1-.2.1-.4v-.2l-.1.1-.2.1m10.1-1.6c-.1 0-.2.1-.3.1-.1.1-.1.2-.1.3 0 .1.1.2.1.2.1 0 .1 0 .2 0 .1 0 .2-.1.3-.2.1-.1.1-.2.1-.4v-.2l-.1.1-.2.1m5.9-1.7c-.1.1-.1.2-.1.4l1-.2c0-.2-.1-.3-.2-.3-.1-.1-.2-.1-.4-.1-.1 0-.2.1-.3.2m14.6-9.5c.2 0 .3-.1.3-.2.1-.1.1-.3.1-.5 0-.2-.1-.4-.2-.4-.1-.1-.2-.1-.4-.1-.1 0-.2.1-.3.2-.1.1-.2.3-.1.5 0 .2.1.3.2.4.2.1.3.1.4.1m-49.8 7.8c.1.2.3.3.5.3.2 0 .3-.2.3-.4 0-.2 0-.5 0-.8v-.2c-.1-.4-.2-.7-.2-.9-.1-.2-.2-.3-.5-.2-.2 0-.3.2-.4.4 0 .2 0 .5.1.9 0 .2.1.4.1.5 0 .2.1.3.1.4" style="fill:#fff"/><path d="m89 101.9l-8.1 1.3c-.4.1-.9-.2-.9-.7l-1.3-8.5c-.1-.4.2-.9.7-.9l8.1-1.3c.4-.1.9.2.9.7l1.4 8.5c0 .4-.3.8-.8.9" style="fill:#f3f3f3"/><path d="m110.4 89.5c-.5-3.2 1.7-6.2 4.8-6.7 1.3-.2 2.5 0 3.5.6.9-.9 2-1.6 3.4-1.9 1.2-.2 2.3 0 3.3.4.8.4 1.5.9 2.1 1.6.6.8 1.1 1.7 1.3 2.7.5 3.2-1.6 6.2-4.8 6.7-1.2.2-2.5 0-3.5-.5-.9 1-2 1.7-3.4 1.9-1.9.3-3.7-.3-4.9-1.5-.6-.5-1-1.2-1.4-1.9-.1-.5-.3-.9-.4-1.4m2.9 2.6c1 .8 2.3 1.2 3.7 1 1-.2 1.8-.6 2.5-1.3h.1l.8-.1h.1l.7-.1h.2c.3-.3.5-.6.7-1l-.5.1-.7.1-.8.1-.8.1-.7.1c-.2-.2-.3-.4-.5-.6l.7-.1.7-.1 1-.2.7-.1.6-.1.6-.1c.1-.3.2-.6.2-.9l-.6.1-.6.1-.6.1-1.8.3-.6.1-.6.1c0-.1-.1-.1-.1-.2-.1-.2-.1-.4-.2-.5l.6-.1.6-.1h.3l1.9-.3.6-.1.6-.1.7-.1c0-.2 0-.5 0-.7l-.1-.2-.7.1-.6.1h-.3-.3l-2.2.4-.6.1-.6.1c0-.3 0-.5 0-.8l.6-.1.6-.1 2-.3.6-.1.6-.1.7-.1c-.1-.3-.2-.6-.4-.8l-.7.1-.6.1-.7.1-1.4.2-.6.1-.6.1c0-.3.1-.6.2-.8l.7-.1.7-.1.5-.1.7-.1h.2l.5-.1.7-.1c-.1-.1-.2-.2-.3-.3-.2-.2-.3-.3-.5-.5l-.6.1-.5.1h-.2l-.6.1-.3.1-.4.1c0-.1.1-.2.1-.2-.8-.4-1.7-.5-2.6-.3-2.5.4-4.3 2.8-3.9 5.4.1.3.1.6.3.9-.1.5.4 1.1 1.1 1.6" style="fill:#fff"/><path d="m79.9 99.5l-.4-2.3 2.3-.4.4 2.3-2.3.4m2.8 2.6c-.9-.1-1.8-.7-2.3-1.5l2-.3.3 1.8m.9-2l2-.3.3 1.9-2 .3-.3-1.9m3.1-.5l2-.3c-.2.9-.9 1.7-1.7 2.1l-.3-1.8m2.1-1.6l-2.3.4-.4-2.3 2.3-.4.4 2.3m-3.4-3l-.6.1.6 3.5-2 .3-.9-5.8 2.3-.4c1.4-.2 2.8.5 3.4 1.8l-2.8.5m-3.8.6l-2.1.4c.1-1.1.8-2 1.8-2.5l.3 2.1" style="fill:#a6986d"/></svg>