<?xml version="1.0" encoding="utf-8"?>
<!-- Generator: Adobe Illustrator 18.0.0, SVG Export Plug-In . SVG Version: 6.00 Build 0)  -->
<!DOCTYPE svg PUBLIC "-//W3C//DTD SVG 1.1//EN" "http://www.w3.org/Graphics/SVG/1.1/DTD/svg11.dtd">
<svg version="1.1" id="Layer_1" xmlns="http://www.w3.org/2000/svg" xmlns:xlink="http://www.w3.org/1999/xlink" x="0px" y="0px"
	 width="150px" height="150px" viewBox="0 0 150 150" enable-background="new 0 0 150 150" xml:space="preserve">
<g>
	<rect fill="none" width="150" height="150"/>
	<g>
		<g>
			<path fill="#2A7CB3" d="M85.9,78.2c0.5,0.3,1,0.5,1.6,0.5l1,0.1L91,79l22.1,2l24.9,2.3l0,0c1.1,0.1,2.1-0.2,2.8-0.9
				c0.8-0.7,1.4-1.6,1.5-2.7L143,72l0.4-4.7l0.5-5.8l1-11.1c0.1-1.1-0.3-2.2-0.9-3c-0.6-0.8-1.6-1.3-2.6-1.4L91,41.4
				c-2.2-0.2-4.1,1.4-4.3,3.6L84,74.4C83.9,76,84.7,77.4,85.9,78.2z"/>
			<path fill="#4395CC" d="M140.8,82.5c0.8-0.7,1.4-1.6,1.5-2.7L143,72l0.4-4.7l0.5-5.8l1-11.1c0.1-1.1-0.3-2.2-0.9-3
				c-0.6-0.8-1.6-1.3-2.6-1.4l-47.1-4.4c11.3,16.6,26.7,30.7,43.7,41.6C139,83.5,140,83.1,140.8,82.5z"/>
			<g>
				<defs>
					<path id="SVGID_1_" d="M85.9,78.2c0.5,0.3,1,0.5,1.6,0.5l1,0.1L91,79l22.1,2l24.9,2.3l0,0c1.1,0.1,2.1-0.2,2.8-0.9
						c0.8-0.7,1.4-1.6,1.5-2.7L143,72l0.4-4.7l0.5-5.8l1-11.1c0.1-1.1-0.3-2.2-0.9-3c-0.6-0.8-1.6-1.3-2.6-1.4L91,41.4
						c-2.2-0.2-4.1,1.4-4.3,3.6L84,74.4C83.9,76,84.7,77.4,85.9,78.2z"/>
				</defs>
				<clipPath id="SVGID_2_">
					<use xlink:href="#SVGID_1_"  overflow="visible"/>
				</clipPath>
				
					<rect x="84.5" y="64.4" transform="matrix(0.9957 9.230609e-002 -9.230609e-002 0.9957 6.8615 -10.2108)" clip-path="url(#SVGID_2_)" fill="#4395CC" width="58.7" height="9.4"/>
			</g>
		</g>
		<g>
			<rect x="6" y="57" fill="#BDBDBD" width="102" height="4"/>
			<rect x="6" y="53" fill="#4D4D4D" width="102" height="4"/>
			<polygon fill="#4D4D4D" points="109,53 5,53 57,18.4 			"/>
			<polygon fill="#BDBDBD" points="20,51.2 57,26.8 94,51.2 94,53 20,53 			"/>
			<rect x="16" y="64" fill="#4D4D4D" width="12" height="51"/>
			<rect x="16" y="64" opacity="0.5" fill="#FFFFF5" width="5" height="51"/>
			<rect x="14" y="61" fill="#BDBDBD" width="16" height="3"/>
			<rect x="14" y="61" fill="#BDBDBD" width="16" height="2"/>
			<rect x="9" y="117" fill="#4D4D4D" width="26" height="13"/>
			<rect x="14" y="112" fill="#BDBDBD" width="16" height="5"/>
			<rect x="14" y="115" fill="#BDBDBD" width="16" height="2"/>
			<rect x="51" y="64" fill="#4D4D4D" width="13" height="51"/>
			<rect x="51" y="64" opacity="0.5" fill="#FFFFF5" width="6" height="51"/>
			<rect x="47" y="61" fill="#BDBDBD" width="19" height="3"/>
			<rect x="47" y="61" fill="#BDBDBD" width="19" height="2"/>
			<rect x="47" y="112" fill="#BDBDBD" width="19" height="5"/>
			<rect x="47" y="115" fill="#BDBDBD" width="19" height="2"/>
			<rect x="87" y="64" fill="#4D4D4D" width="12" height="51"/>
			<rect x="87" y="64" opacity="0.5" fill="#FFFFF5" width="6" height="51"/>
			<rect x="83" y="61" fill="#BDBDBD" width="18" height="3"/>
			<rect x="83" y="61" fill="#BDBDBD" width="18" height="2"/>
			<rect x="79" y="117" fill="#4D4D4D" width="26" height="13"/>
			<rect x="83" y="112" fill="#BDBDBD" width="18" height="5"/>
			<rect x="83" y="115" fill="#BDBDBD" width="18" height="2"/>
			<rect x="30" y="117" fill="#BDBDBD" width="53" height="2"/>
			<rect x="30" y="119" fill="#DDDDDD" width="53" height="3"/>
			<rect x="30" y="122" fill="#BDBDBD" width="53" height="3"/>
			<rect x="30" y="125" fill="#DDDDDD" width="53" height="2"/>
			<rect x="30" y="127" fill="#BDBDBD" width="53" height="3"/>
			<polygon opacity="0.5" fill="#4A3E3C" points="30,131.4 30,117 41.3,117 			"/>
		</g>
		<g>
			<path fill="#3498DB" d="M79.5,123.7c0.6,0.2,1.2,0.2,1.9,0.1l1.1-0.2l2.5-0.4l23.8-3.9l26.7-4.3l0,0c1.1-0.2,2.1-0.8,2.7-1.7
				c0.7-0.9,1-2.1,0.8-3.3l-1.4-8.4l-0.8-5l-1-6.2l-1.9-11.9c-0.2-1.2-0.9-2.2-1.8-2.9c-0.9-0.6-2-0.9-3.1-0.7l-54.2,8.8
				c-2.3,0.4-3.9,2.6-3.5,5l5.1,31.5C76.7,121.9,77.9,123.2,79.5,123.7"/>
			<path fill="#FFFFFF" d="M79.4,123.7C79.4,123.7,79.4,123.7,79.4,123.7C79.4,123.7,79.4,123.7,79.4,123.7 M133.9,78.5
				C133.9,78.5,133.9,78.5,133.9,78.5l1.9,12l1,6.2l0.8,5l1.4,8.4c0,0.2,0.1,0.5,0.1,0.7c0-0.2,0-0.5-0.1-0.7l-1.4-8.4l-0.8-5
				l-1-6.2L133.9,78.5C133.9,78.5,133.9,78.5,133.9,78.5 M133.8,78.4C133.8,78.5,133.9,78.5,133.8,78.4
				C133.9,78.5,133.8,78.5,133.8,78.4 M133.8,78.4C133.8,78.4,133.8,78.4,133.8,78.4C133.8,78.4,133.8,78.4,133.8,78.4 M133.8,78.3
				C133.8,78.3,133.8,78.3,133.8,78.3C133.8,78.3,133.8,78.3,133.8,78.3"/>
			<path fill="#5DADE2" d="M133.1,76.6c-21.3,10.3-38.7,28.7-54.3,46.8c0.2,0.1,0.4,0.2,0.7,0.3c0,0,0,0,0,0c0,0,0,0,0,0
				c0.4,0.1,0.8,0.2,1.2,0.2c0.2,0,0.4,0,0.6-0.1l1.1-0.2l2.5-0.4l23.8-3.9l26.7-4.3l0,0c1.1-0.2,2.1-0.8,2.7-1.7
				c0.5-0.7,0.8-1.6,0.9-2.6c0-0.2,0-0.5-0.1-0.7l-1.4-8.4l-0.8-5l-1-6.2l-1.9-11.9c0,0,0,0,0-0.1c0,0,0,0,0,0c0,0,0,0,0,0
				c0,0,0,0,0,0c0,0,0,0,0,0c0,0,0,0,0,0c0,0,0,0,0,0C133.7,77.7,133.4,77.1,133.1,76.6"/>
			<path fill="#FFFFFF" d="M80,108.8c-0.1-0.6-0.1-1,0.1-1.4c0.1-0.3,0.4-0.5,0.9-0.6c0.4-0.1,0.8,0,1,0.3c0.2,0.3,0.4,0.7,0.5,1.2
				l0,0.1c0.1,0.6,0.1,1-0.1,1.4c-0.1,0.3-0.4,0.5-0.9,0.6c-0.4,0.1-0.8,0-1-0.3c-0.1-0.1-0.2-0.3-0.3-0.5
				C80.1,109.4,80,109.1,80,108.8z M112.9,111.9c-0.1-0.1-0.2-0.1-0.3-0.1c-0.2,0-0.3,0.1-0.3,0.2c0,0.1,0,0.2,0,0.3l0.2,1.4
				l-0.6,0.1l-0.4-2.3l0.6-0.1l0.1,0.3c0.1-0.1,0.1-0.2,0.2-0.3c0.1-0.1,0.2-0.2,0.4-0.2c0.2,0,0.3,0,0.4,0c0.1,0.1,0.2,0.1,0.2,0.2
				c0.1-0.1,0.1-0.3,0.2-0.3c0.1-0.1,0.2-0.1,0.4-0.2c0.1,0,0.2,0,0.3,0c0.1,0,0.2,0.1,0.3,0.2c0.1,0.1,0.1,0.2,0.2,0.3
				c0,0.1,0.1,0.2,0.1,0.3l0.2,1.5l-0.6,0.1l-0.2-1.5c0-0.1,0-0.2-0.1-0.2c-0.1-0.1-0.2-0.1-0.3-0.1c-0.2,0-0.3,0.1-0.3,0.3
				c0,0.1,0,0.2,0,0.3l0.2,1.4l-0.6,0.1l-0.2-1.4C113,112,113,111.9,112.9,111.9z M111.7,104.1c-0.1,0.1-0.3,0.2-0.5,0.2
				c-0.3,0-0.5,0-0.8-0.2c-0.2-0.2-0.4-0.4-0.5-0.8c-0.1-0.4,0-0.7,0.2-1c0.2-0.3,0.4-0.4,0.8-0.5c0.5-0.1,0.9,0.1,1.2,0.5
				c0.2,0.2,0.3,0.6,0.3,1c0.1,0.4,0.1,0.8,0,1.1c-0.1,0.6-0.5,0.9-1,1c-0.3,0-0.5,0-0.7-0.1c-0.2-0.1-0.4-0.3-0.5-0.6l0.7-0.1
				c0,0.1,0.1,0.2,0.2,0.2c0.1,0.1,0.2,0.1,0.3,0.1c0.2,0,0.4-0.2,0.4-0.5c0-0.1,0-0.4,0-0.6C111.9,104,111.8,104,111.7,104.1z
				 M107.5,103.8c-0.1-0.1-0.1-0.2-0.1-0.4c0-0.3,0-0.5,0.2-0.7c0.2-0.2,0.4-0.3,0.8-0.4c0.3-0.1,0.6,0,0.9,0.1
				c0.2,0.1,0.4,0.3,0.4,0.6c0,0.1,0,0.2,0,0.4c0,0.1-0.1,0.3-0.3,0.4c0.2,0.1,0.3,0.2,0.5,0.3c0.1,0.1,0.2,0.3,0.2,0.5
				c0,0.3,0,0.6-0.2,0.8c-0.2,0.2-0.5,0.4-0.9,0.5c-0.4,0.1-0.7,0-0.9-0.2c-0.2-0.2-0.4-0.4-0.4-0.7c0-0.2,0-0.4,0-0.6
				c0.1-0.2,0.2-0.3,0.3-0.4C107.7,104,107.5,103.9,107.5,103.8z M110.4,112.1c-0.1,0-0.2,0-0.3,0c-0.1,0-0.2,0.1-0.3,0.2
				c0,0.1-0.1,0.1-0.1,0.2l-0.6,0.1c0-0.2,0-0.4,0.1-0.5c0.1-0.2,0.4-0.4,0.8-0.4c0.3,0,0.5,0,0.7,0c0.2,0.1,0.3,0.2,0.4,0.5
				l0.2,1.1c0,0.1,0,0.2,0,0.3c0,0.1,0,0.1,0.1,0.2l0.1,0.1l0,0.1l-0.7,0.1l-0.1-0.1l0-0.1c-0.1,0.1-0.2,0.2-0.3,0.3
				c-0.1,0.1-0.3,0.2-0.4,0.2c-0.2,0-0.4,0-0.5-0.1c-0.2-0.1-0.3-0.3-0.3-0.5c0-0.3,0-0.5,0.2-0.7c0.1-0.1,0.3-0.2,0.5-0.2l0.2-0.1
				c0.1,0,0.2-0.1,0.2-0.1c0.1-0.1,0.1-0.1,0.1-0.2C110.5,112.2,110.5,112.1,110.4,112.1z M108,112.7c-0.1-0.1-0.2-0.2-0.4-0.1
				c-0.2,0-0.3,0.1-0.4,0.3c0,0.1,0,0.2,0,0.4l0.2,1.2l-0.6,0.1l-0.4-2.3l0.6-0.1l0.1,0.3c0.1-0.1,0.1-0.2,0.2-0.3
				c0.1-0.1,0.3-0.2,0.4-0.2c0.2,0,0.4,0,0.6,0.1c0.2,0.1,0.3,0.3,0.3,0.6l0.3,1.5l-0.6,0.1l-0.2-1.4
				C108.1,112.8,108.1,112.7,108,112.7z M104.9,114.4c0,0,0.1,0,0.2,0l0.1,0l0.1,0l0.1,0.4l-0.3,0.1c-0.3,0.1-0.5,0-0.6-0.1
				c-0.1-0.1-0.1-0.2-0.2-0.3l-0.2-1.4l-0.3,0.1l-0.1-0.4l0.3-0.1l-0.1-0.6l0.6-0.1l0.1,0.6l0.4-0.1l0.1,0.4l-0.4,0.1l0.2,1.2
				C104.8,114.3,104.9,114.4,104.9,114.4z M103.5,105.1c-0.1,0.2-0.1,0.5-0.1,0.8c0,0.3,0,0.6,0,0.8l-0.7,0.1
				c-0.1-0.6,0-1.3,0.3-2.1c0.2-0.5,0.3-0.8,0.5-1l-1.7,0.3l-0.1-0.6l2.5-0.4l0.1,0.5c-0.1,0.1-0.2,0.3-0.3,0.6
				C103.7,104.5,103.6,104.8,103.5,105.1z M93.8,107.5l-0.1-0.6l0.9-2.3l0.8-0.1l0.4,2.2l0.4-0.1l0.1,0.5l-0.4,0.1l0.1,0.8l-0.7,0.1
				l-0.1-0.8L93.8,107.5L93.8,107.5z M96.3,113.1L97,113l0.4,2.6l1.6-0.3l0.1,0.6l-2.2,0.4L96.3,113.1z M97,107.6
				c-0.2-0.1-0.4-0.4-0.5-0.7l0.7-0.1c0.1,0.1,0.1,0.3,0.2,0.3c0.1,0.1,0.2,0.1,0.4,0.1c0.2,0,0.3-0.1,0.4-0.2
				c0.1-0.1,0.1-0.3,0.1-0.5c0-0.2-0.1-0.3-0.2-0.4c-0.1-0.1-0.2-0.1-0.4-0.1c-0.1,0-0.2,0-0.2,0.1c-0.1,0.1-0.2,0.1-0.2,0.3
				l-0.6,0.1l-0.1-2l1.9-0.3l0.1,0.6l-1.4,0.2l0,0.8c0.1-0.1,0.2-0.1,0.2-0.2c0.1-0.1,0.2-0.1,0.4-0.1c0.3,0,0.6,0,0.8,0.2
				c0.2,0.2,0.4,0.4,0.5,0.8c0.1,0.3,0,0.6-0.2,0.9c-0.2,0.3-0.5,0.5-0.9,0.5C97.5,107.8,97.2,107.7,97,107.6z M100.3,113.8
				c-0.1,0-0.2,0-0.3,0c-0.1,0-0.2,0.1-0.3,0.2c0,0.1-0.1,0.1-0.1,0.2l-0.6,0.1c0-0.2,0-0.4,0.1-0.5c0.1-0.2,0.4-0.4,0.8-0.4
				c0.3,0,0.5,0,0.7,0c0.2,0.1,0.3,0.2,0.4,0.5l0.2,1.1c0,0.1,0,0.2,0,0.3c0,0.1,0,0.1,0.1,0.2l0.1,0.1l0,0.1l-0.7,0.1l-0.1-0.1
				l0-0.1c-0.1,0.1-0.2,0.2-0.3,0.3c-0.1,0.1-0.3,0.2-0.4,0.2c-0.2,0-0.4,0-0.5-0.1c-0.2-0.1-0.3-0.3-0.3-0.5c0-0.3,0-0.5,0.2-0.7
				c0.1-0.1,0.3-0.2,0.5-0.2l0.2-0.1c0.1,0,0.2-0.1,0.2-0.1c0.1-0.1,0.1-0.1,0.1-0.2C100.4,113.8,100.4,113.8,100.3,113.8z
				 M99.6,106.9c-0.2-0.3-0.4-0.6-0.4-1.1c0-0.3-0.1-0.5-0.1-0.7c0-0.3,0-0.6,0.1-0.8c0.1-0.2,0.2-0.3,0.3-0.5
				c0.1-0.1,0.3-0.2,0.6-0.2c0.3-0.1,0.6,0,0.8,0.1c0.2,0.1,0.4,0.3,0.4,0.6l-0.7,0.1l-0.1-0.2c-0.1-0.1-0.2-0.1-0.4-0.1
				c-0.2,0-0.4,0.2-0.4,0.5c0,0.1,0,0.4,0,0.6c0.1-0.1,0.2-0.2,0.3-0.3c0.1-0.1,0.2-0.1,0.4-0.1c0.3-0.1,0.6,0,0.8,0.2
				c0.2,0.2,0.4,0.4,0.4,0.8c0.1,0.3,0,0.6-0.2,0.9c-0.2,0.3-0.4,0.5-0.8,0.5C100.2,107.3,99.9,107.2,99.6,106.9z M103,114.4
				c-0.1,0-0.3-0.1-0.7-0.1c-0.3,0-0.5-0.1-0.6-0.2c-0.1-0.1-0.2-0.2-0.2-0.4c0-0.2,0-0.4,0.2-0.6c0.1-0.2,0.4-0.3,0.7-0.3
				c0.3,0,0.5,0,0.7,0.1s0.3,0.3,0.4,0.5l-0.6,0.1c0-0.1-0.1-0.1-0.1-0.2c-0.1-0.1-0.2-0.1-0.4-0.1c-0.1,0-0.2,0.1-0.3,0.1l-0.1,0.2
				c0,0.1,0,0.1,0.1,0.1c0.1,0,0.3,0,0.7,0.1c0.2,0,0.4,0.1,0.6,0.2c0.1,0.1,0.2,0.2,0.2,0.4c0,0.2,0,0.4-0.2,0.6
				c-0.1,0.2-0.4,0.3-0.8,0.3c-0.4,0.1-0.6,0-0.8-0.1c-0.2-0.1-0.3-0.3-0.4-0.5l0.6-0.1c0,0.1,0.1,0.2,0.1,0.2
				c0.1,0.1,0.2,0.1,0.4,0.1c0.1,0,0.2-0.1,0.3-0.1c0.1,0,0.1-0.1,0.1-0.2L103,114.4z M92.6,116.4c0.1,0,0.2,0.1,0.3,0
				c0.1,0,0.2-0.1,0.3-0.2c0,0,0.1-0.1,0.1-0.2l0.6-0.1c0,0.1,0,0.3-0.2,0.5c-0.2,0.3-0.4,0.4-0.8,0.5c-0.3,0-0.6,0-0.9-0.2
				c-0.3-0.2-0.4-0.4-0.5-0.9c-0.1-0.4,0-0.7,0.2-1c0.2-0.2,0.4-0.4,0.8-0.5c0.2,0,0.4,0,0.6,0c0.2,0,0.3,0.1,0.5,0.3
				c0.1,0.1,0.2,0.3,0.3,0.4c0,0.1,0.1,0.3,0.1,0.5l-1.7,0.3C92.3,116.2,92.4,116.3,92.6,116.4z M90.3,106.2c0,0.2,0,0.4-0.1,0.6
				c-0.1,0.1-0.1,0.2-0.2,0.2c0.1,0,0.2,0,0.3,0.1c0.2,0.1,0.3,0.3,0.4,0.6c0,0.3,0,0.6-0.2,0.8c-0.2,0.3-0.5,0.4-0.9,0.5
				c-0.5,0.1-0.9,0-1.1-0.3c-0.1-0.2-0.2-0.4-0.3-0.6L89,108c0,0.1,0.1,0.3,0.1,0.3c0.1,0.2,0.3,0.2,0.5,0.2c0.1,0,0.2-0.1,0.3-0.2
				c0.1-0.1,0.1-0.2,0.1-0.4c0-0.2-0.2-0.4-0.4-0.4c-0.1,0-0.3,0-0.5,0L89,107c0.2,0,0.4-0.1,0.5-0.1c0.1-0.1,0.1-0.2,0.2-0.3l0-0.2
				c0-0.1-0.1-0.2-0.2-0.3c-0.1-0.1-0.2-0.1-0.3-0.1c-0.2,0-0.3,0.1-0.3,0.2c-0.1,0.1-0.1,0.3,0,0.4l-0.6,0.1c0-0.2,0-0.3,0-0.5
				c0-0.1,0.1-0.3,0.2-0.4c0.1-0.1,0.2-0.2,0.3-0.2c0.1-0.1,0.3-0.1,0.4-0.1c0.3-0.1,0.6,0,0.8,0.1
				C90.1,105.7,90.3,105.9,90.3,106.2L90.3,106.2z M90.5,115.5c-0.1-0.1-0.2-0.1-0.3-0.1c-0.2,0-0.3,0.1-0.3,0.3c0,0.1,0,0.2,0,0.3
				l0.2,1.4l-0.6,0.1l-0.2-1.4c0-0.1-0.1-0.2-0.1-0.3c-0.1-0.1-0.2-0.1-0.3-0.1c-0.2,0-0.3,0.1-0.3,0.2c0,0.1,0,0.2,0,0.3l0.2,1.4
				l-0.6,0.1l-0.4-2.3l0.6-0.1l0.1,0.3c0.1-0.1,0.1-0.2,0.2-0.3c0.1-0.1,0.2-0.2,0.4-0.2c0.2,0,0.3,0,0.4,0c0.1,0.1,0.2,0.1,0.2,0.2
				c0.1-0.1,0.1-0.3,0.2-0.3c0.1-0.1,0.2-0.1,0.4-0.2c0.1,0,0.2,0,0.3,0c0.1,0,0.2,0.1,0.3,0.2c0.1,0.1,0.1,0.2,0.2,0.3
				c0,0.1,0.1,0.2,0.1,0.3l0.2,1.5l-0.6,0.1l-0.2-1.5C90.6,115.6,90.5,115.6,90.5,115.5z M117,101.7c-0.1-0.1-0.2-0.1-0.4-0.1
				c-0.2,0-0.3,0.1-0.4,0.3c0,0.1,0,0.2,0,0.4l-0.7,0.1c0-0.3,0-0.5,0-0.7c0.1-0.4,0.4-0.6,0.9-0.7c0.4-0.1,0.7,0,0.9,0.2
				c0.3,0.2,0.4,0.4,0.5,0.8c0,0.3,0,0.5-0.1,0.7c-0.1,0.1-0.2,0.3-0.4,0.5l-0.2,0.2c-0.2,0.1-0.3,0.3-0.3,0.3
				c-0.1,0.1-0.1,0.1-0.1,0.2l1.5-0.2l0.1,0.6l-2.4,0.4c0-0.3,0-0.5,0-0.7c0.1-0.2,0.3-0.5,0.6-0.9c0.3-0.3,0.5-0.5,0.5-0.6
				c0.1-0.2,0.2-0.4,0.1-0.5C117.2,101.9,117.1,101.8,117,101.7z M116.9,110.6c0.2,0,0.3,0.1,0.5,0.3c0.1,0.1,0.2,0.3,0.3,0.4
				c0,0.1,0.1,0.3,0.1,0.5l-1.7,0.3c0,0.2,0.2,0.4,0.3,0.4c0.1,0,0.2,0.1,0.3,0c0.1,0,0.2-0.1,0.3-0.2c0,0,0.1-0.1,0.1-0.2l0.6-0.1
				c0,0.1,0,0.3-0.2,0.5c-0.2,0.3-0.4,0.4-0.8,0.5c-0.3,0.1-0.6,0-0.9-0.2c-0.3-0.2-0.4-0.4-0.5-0.9c-0.1-0.4,0-0.7,0.2-1
				c0.2-0.2,0.4-0.4,0.8-0.5C116.5,110.6,116.7,110.6,116.9,110.6z M114.9,104.9l-0.7,0.1l-0.4-2.4l-0.8,0.1l-0.1-0.5
				c0.2,0,0.4-0.1,0.4-0.1c0.1-0.1,0.2-0.1,0.3-0.2c0-0.1,0.1-0.2,0.1-0.3l0-0.1l0.6-0.1L114.9,104.9z M122.5,102.1
				c-0.1,0-0.3,0-0.5,0l-0.1-0.5c0.2,0,0.4-0.1,0.5-0.1c0.1-0.1,0.2-0.2,0.2-0.4c0-0.1-0.1-0.2-0.2-0.3c-0.1-0.1-0.2-0.1-0.3-0.1
				c-0.2,0-0.3,0.1-0.3,0.2c-0.1,0.1-0.1,0.3,0,0.4l-0.6,0.1c0-0.2,0-0.3,0-0.5c0-0.1,0.1-0.3,0.2-0.4c0.1-0.1,0.2-0.2,0.3-0.2
				c0.1-0.1,0.3-0.1,0.4-0.1c0.3-0.1,0.6,0,0.8,0.1c0.2,0.1,0.4,0.4,0.4,0.6c0,0.2,0,0.4-0.1,0.6c-0.1,0.1-0.1,0.2-0.2,0.2
				c0.1,0,0.2,0,0.3,0.1c0.2,0.1,0.3,0.3,0.4,0.6c0,0.3,0,0.6-0.2,0.8c-0.2,0.3-0.5,0.4-0.9,0.5c-0.5,0.1-0.9,0-1.1-0.3
				c-0.1-0.2-0.2-0.4-0.3-0.6l0.7-0.1c0,0.1,0.1,0.3,0.1,0.3c0.1,0.2,0.3,0.2,0.5,0.2c0.1,0,0.2-0.1,0.3-0.2
				c0.1-0.1,0.1-0.2,0.1-0.4C122.8,102.3,122.7,102.2,122.5,102.1z M126.3,101.7l0.1,0.5l-0.4,0.1l0.1,0.8l-0.7,0.1l-0.1-0.8
				l-1.4,0.2l-0.1-0.6l0.9-2.3l0.8-0.1l0.4,2.2L126.3,101.7z M128.2,101.1c-0.1-0.1-0.2-0.1-0.4-0.1c-0.1,0-0.2,0-0.2,0.1
				c-0.1,0.1-0.2,0.1-0.2,0.3l-0.6,0.1l-0.1-2l1.9-0.3l0.1,0.6l-1.4,0.2l0,0.8c0.1-0.1,0.2-0.1,0.2-0.2c0.1-0.1,0.2-0.1,0.4-0.1
				c0.3,0,0.6,0,0.8,0.2c0.2,0.2,0.4,0.4,0.5,0.8c0.1,0.3,0,0.6-0.2,0.9c-0.2,0.3-0.5,0.5-0.9,0.5c-0.3,0.1-0.6,0-0.9-0.1
				c-0.2-0.1-0.4-0.4-0.5-0.7l0.7-0.1c0.1,0.1,0.1,0.3,0.2,0.3c0.1,0.1,0.2,0.1,0.4,0.1c0.2,0,0.3-0.1,0.4-0.2
				c0.1-0.1,0.1-0.3,0.1-0.5C128.3,101.4,128.3,101.2,128.2,101.1z M131.5,99.5l-0.7,0.1l-0.1-0.2c-0.1-0.1-0.2-0.1-0.4-0.1
				c-0.2,0-0.4,0.2-0.4,0.5c0,0.1,0,0.4,0,0.6c0.1-0.1,0.2-0.2,0.3-0.3c0.1-0.1,0.2-0.1,0.4-0.1c0.3-0.1,0.6,0,0.8,0.2
				c0.2,0.2,0.4,0.4,0.4,0.8c0.1,0.3,0,0.6-0.2,0.9c-0.2,0.3-0.4,0.5-0.8,0.5c-0.4,0.1-0.8-0.1-1.1-0.4c-0.2-0.3-0.4-0.6-0.4-1.1
				c0-0.3-0.1-0.5-0.1-0.7c0-0.3,0-0.6,0.1-0.8c0.1-0.2,0.2-0.3,0.3-0.5c0.1-0.1,0.3-0.2,0.6-0.2c0.3-0.1,0.6,0,0.8,0.1
				C131.3,99,131.4,99.2,131.5,99.5z M86.3,105.9c0.4-0.1,0.7,0,0.9,0.2s0.4,0.4,0.5,0.8c0,0.3,0,0.5-0.1,0.7
				c-0.1,0.1-0.2,0.3-0.4,0.5l0,0l-0.2,0.2c-0.2,0.1-0.3,0.3-0.3,0.3c-0.1,0.1-0.1,0.1-0.1,0.2l1.5-0.2l0.1,0.6l-2.4,0.4
				c0-0.2,0-0.5,0-0.7l0,0c0.1-0.2,0.3-0.5,0.6-0.9c0.3-0.3,0.5-0.5,0.5-0.6c0.1-0.2,0.2-0.4,0.1-0.5c0-0.1-0.1-0.3-0.2-0.3
				c-0.1-0.1-0.2-0.1-0.4-0.1c-0.2,0-0.3,0.1-0.4,0.3c0,0.1,0,0.2,0,0.4l-0.7,0.1c0-0.3,0-0.5,0-0.7c0.1-0.2,0.2-0.3,0.3-0.4
				l0.2-0.1C86.1,106,86.2,105.9,86.3,105.9z M83.3,118.4l-0.6,0.1l-0.5-3.1l0.7-0.1l1.6,2l-0.4-2.2l0.6-0.1l0.5,3.1l-0.6,0.1
				l-1.6-2L83.3,118.4L83.3,118.4z M84,109.9l-0.4-2.4l0,0l-0.8,0.1l-0.1-0.5c0.2,0,0.4-0.1,0.4-0.1c0.1-0.1,0.2-0.1,0.3-0.2
				c0-0.1,0.1-0.2,0.1-0.3l0-0.1l0.6-0.1l0.1,0.8l0.4,2.5l0,0.2l-0.4,0.1L84,109.9L84,109.9z M85.7,116.7c0.1-0.1,0.3-0.2,0.5-0.2
				l0.2-0.1c0.1,0,0.2-0.1,0.2-0.1c0.1-0.1,0.1-0.1,0.1-0.2c0-0.1-0.1-0.2-0.1-0.2c-0.1,0-0.2,0-0.3,0c-0.1,0-0.2,0.1-0.3,0.2
				c0,0.1-0.1,0.1-0.1,0.2l-0.6,0.1c0-0.2,0-0.4,0.1-0.5c0.1-0.2,0.4-0.4,0.8-0.4c0.3,0,0.5,0,0.7,0c0.2,0.1,0.3,0.2,0.4,0.5
				l0.2,1.1c0,0.1,0,0.2,0,0.3c0,0.1,0,0.1,0.1,0.2l0.1,0.1l0,0.1l-0.7,0.1l-0.1-0.1l0-0.1c-0.1,0.1-0.2,0.2-0.3,0.3
				c-0.1,0.1-0.3,0.2-0.4,0.2c-0.2,0-0.4,0-0.5-0.1c-0.2-0.1-0.3-0.3-0.3-0.5C85.4,117.1,85.5,116.9,85.7,116.7z M125.3,101.9
				l-0.2-1.5l-0.6,1.6L125.3,101.9z M94.9,105.3l-0.6,1.6l0.9-0.1L94.9,105.3z M100.9,106.5c0.1-0.1,0.1-0.3,0.1-0.5
				c0-0.2-0.1-0.4-0.2-0.4c-0.1-0.1-0.2-0.1-0.4-0.1c-0.1,0-0.2,0.1-0.3,0.2c-0.1,0.1-0.2,0.3-0.1,0.5c0,0.2,0.1,0.3,0.2,0.4
				c0.1,0.1,0.3,0.1,0.4,0.1C100.7,106.7,100.9,106.6,100.9,106.5z M86.4,117.5c0.1,0,0.2-0.1,0.3-0.2c0.1-0.1,0.1-0.2,0.1-0.4
				l0-0.2l-0.1,0.1l-0.2,0.1l-0.1,0c-0.1,0-0.2,0.1-0.3,0.1c-0.1,0.1-0.1,0.2-0.1,0.3c0,0.1,0.1,0.2,0.1,0.2
				C86.3,117.5,86.3,117.5,86.4,117.5z M108.8,105.4c0.2,0,0.3-0.1,0.3-0.2c0.1-0.1,0.1-0.2,0.1-0.4c0-0.2-0.1-0.3-0.2-0.4
				c-0.1-0.1-0.2-0.1-0.4-0.1c-0.2,0-0.3,0.1-0.3,0.2c-0.1,0.1-0.1,0.2-0.1,0.4c0,0.2,0.1,0.3,0.2,0.4
				C108.5,105.4,108.6,105.4,108.8,105.4z M92.6,115c-0.2,0-0.3,0.1-0.3,0.2c-0.1,0.1-0.1,0.2-0.1,0.4l1-0.2c0-0.2-0.1-0.3-0.2-0.3
				C92.9,115,92.8,114.9,92.6,115z M111.1,102.5c-0.1,0-0.2,0.1-0.3,0.1c-0.1,0.1-0.2,0.3-0.1,0.6c0,0.2,0.1,0.4,0.2,0.4
				c0.1,0.1,0.2,0.1,0.4,0.1c0.1,0,0.2-0.1,0.3-0.1c0.1-0.1,0.2-0.3,0.1-0.6c0-0.2-0.1-0.3-0.2-0.4
				C111.4,102.5,111.3,102.4,111.1,102.5z M108.5,103.8c0.1,0,0.2-0.1,0.3-0.2c0.1-0.1,0.1-0.2,0.1-0.3c0-0.1-0.1-0.2-0.2-0.3
				s-0.2-0.1-0.3-0.1c-0.1,0-0.2,0.1-0.3,0.2c-0.1,0.1-0.1,0.2-0.1,0.3c0,0.1,0.1,0.2,0.2,0.3C108.3,103.8,108.4,103.8,108.5,103.8z
				 M100.1,114.6c-0.1,0-0.2,0.1-0.3,0.1c-0.1,0.1-0.1,0.2-0.1,0.3c0,0.1,0.1,0.2,0.1,0.2c0.1,0,0.1,0,0.2,0c0.1,0,0.2-0.1,0.3-0.2
				c0.1-0.1,0.1-0.2,0.1-0.4l0-0.2l-0.1,0.1l-0.2,0.1L100.1,114.6z M110.2,113c-0.1,0-0.2,0.1-0.3,0.1c-0.1,0.1-0.1,0.2-0.1,0.3
				c0,0.1,0.1,0.2,0.1,0.2c0.1,0,0.1,0,0.2,0c0.1,0,0.2-0.1,0.3-0.2c0.1-0.1,0.1-0.2,0.1-0.4l0-0.2l-0.1,0.1l-0.2,0.1L110.2,113z
				 M116.1,111.3c-0.1,0.1-0.1,0.2-0.1,0.4l1-0.2c0-0.2-0.1-0.3-0.2-0.3c-0.1-0.1-0.2-0.1-0.4-0.1
				C116.3,111.1,116.2,111.2,116.1,111.3z M130.7,101.8c0.2,0,0.3-0.1,0.3-0.2c0.1-0.1,0.1-0.3,0.1-0.5c0-0.2-0.1-0.4-0.2-0.4
				c-0.1-0.1-0.2-0.1-0.4-0.1c-0.1,0-0.2,0.1-0.3,0.2c-0.1,0.1-0.2,0.3-0.1,0.5c0,0.2,0.1,0.3,0.2,0.4
				C130.5,101.8,130.6,101.8,130.7,101.8z M80.9,109.6c0.1,0.2,0.3,0.3,0.5,0.3c0.2,0,0.3-0.2,0.3-0.4c0-0.2,0-0.5,0-0.8l0-0.2
				c-0.1-0.4-0.2-0.7-0.2-0.9c-0.1-0.2-0.2-0.3-0.5-0.2c-0.2,0-0.3,0.2-0.4,0.4c0,0.2,0,0.5,0.1,0.9c0,0.2,0.1,0.4,0.1,0.5
				C80.8,109.4,80.9,109.5,80.9,109.6z"/>
			<path fill="#F3F3F3" d="M89,101.9l-8.1,1.3c-0.4,0.1-0.9-0.2-0.9-0.7L78.7,94c-0.1-0.4,0.2-0.9,0.7-0.9l8.1-1.3
				c0.4-0.1,0.9,0.2,0.9,0.7l1.4,8.5C89.8,101.4,89.5,101.8,89,101.9z"/>
			<path fill="#FFFFFF" d="M110.4,89.5c-0.5-3.2,1.7-6.2,4.8-6.7c1.3-0.2,2.5,0,3.5,0.6c0.9-0.9,2-1.6,3.4-1.9
				c1.2-0.2,2.3,0,3.3,0.4c0.8,0.4,1.5,0.9,2.1,1.6c0.6,0.8,1.1,1.7,1.3,2.7c0.5,3.2-1.6,6.2-4.8,6.7c-1.2,0.2-2.5,0-3.5-0.5
				c-0.9,1-2,1.7-3.4,1.9c-1.9,0.3-3.7-0.3-4.9-1.5c-0.6-0.5-1-1.2-1.4-1.9C110.7,90.4,110.5,90,110.4,89.5z M113.3,92.1
				c1,0.8,2.3,1.2,3.7,1c1-0.2,1.8-0.6,2.5-1.3l0.1,0l0.8-0.1l0.1,0l0.7-0.1l0.2,0l0,0c0.3-0.3,0.5-0.6,0.7-1l-0.5,0.1l-0.7,0.1
				l-0.8,0.1l0,0l-0.8,0.1l-0.7,0.1c-0.2-0.2-0.3-0.4-0.5-0.6l0.7-0.1l0.7-0.1l1-0.2l0.7-0.1l0.6-0.1l0.6-0.1
				c0.1-0.3,0.2-0.6,0.2-0.9l-0.6,0.1l-0.6,0.1l-0.6,0.1l-1.8,0.3l-0.6,0.1l-0.6,0.1c0-0.1-0.1-0.1-0.1-0.2
				c-0.1-0.2-0.1-0.4-0.2-0.5l0.6-0.1l0.6-0.1l0.3,0l1.9-0.3l0.6-0.1l0.6-0.1l0.7-0.1c0-0.2,0-0.5,0-0.7l-0.1-0.2l-0.7,0.1l-0.6,0.1
				l-0.3,0l-0.3,0l-2.2,0.4l-0.6,0.1l-0.6,0.1c0-0.3,0-0.5,0-0.8l0.6-0.1l0.6-0.1l2-0.3l0.6-0.1l0.6-0.1l0.7-0.1
				c-0.1-0.3-0.2-0.6-0.4-0.8l-0.7,0.1l-0.6,0.1l-0.7,0.1l-1.4,0.2l0,0l-0.6,0.1l-0.6,0.1c0-0.3,0.1-0.6,0.2-0.8l0.7-0.1l0.7-0.1
				l0.5-0.1l0.7-0.1l0.2,0l0.5-0.1l0.7-0.1c-0.1-0.1-0.2-0.2-0.3-0.3c-0.2-0.2-0.3-0.3-0.5-0.5l-0.6,0.1l-0.5,0.1l-0.2,0l-0.6,0.1
				l-0.3,0.1l-0.4,0.1c0-0.1,0.1-0.2,0.1-0.2c-0.8-0.4-1.7-0.5-2.6-0.3c-2.5,0.4-4.3,2.8-3.9,5.4c0.1,0.3,0.1,0.6,0.3,0.9
				C112.1,91,112.6,91.6,113.3,92.1z"/>
			<path fill="#A6986D" d="M79.9,99.5l-0.4-2.3l2.3-0.4l0.4,2.3L79.9,99.5L79.9,99.5z M82.7,102.1c-0.9-0.1-1.8-0.7-2.3-1.5l2-0.3
				L82.7,102.1z M83.6,100.1l2-0.3l0.3,1.9l-2,0.3L83.6,100.1z M86.7,99.6l2-0.3c-0.2,0.9-0.9,1.7-1.7,2.1L86.7,99.6z M88.8,98
				L88.8,98l-2.3,0.4l-0.4-2.3l2.3-0.4L88.8,98L88.8,98z M85.4,95L85.4,95l-0.6,0.1l0.6,3.5l-2,0.3l-0.9-5.8l2.3-0.4
				c1.4-0.2,2.8,0.5,3.4,1.8L85.4,95z M81.6,95.6L79.5,96c0.1-1.1,0.8-2,1.8-2.5L81.6,95.6z"/>
		</g>
	</g>
</g>
</svg>
