<?xml version="1.0" encoding="utf-8"?>
<!-- Generator: Adobe Illustrator 18.0.0, SVG Export Plug-In . SVG Version: 6.00 Build 0)  -->
<!DOCTYPE svg PUBLIC "-//W3C//DTD SVG 1.1//EN" "http://www.w3.org/Graphics/SVG/1.1/DTD/svg11.dtd">
<svg version="1.1" id="Layer_1" xmlns="http://www.w3.org/2000/svg" xmlns:xlink="http://www.w3.org/1999/xlink" x="0px" y="0px"
	 width="150px" height="150px" viewBox="0 0 150 150" enable-background="new 0 0 150 150" xml:space="preserve">
<g>
	<path fill="#ECF0F1" d="M91.8,133.8H10.2c-2.9,0-5.2-2.3-5.2-5.2v-110c0-2.9,2.3-5.2,5.2-5.2h81.6c2.9,0,5.2,2.3,5.2,5.2v110
		C97,131.5,94.7,133.8,91.8,133.8z"/>
	<g opacity="0.5">
		<rect x="11" y="23" fill="#7F8C8D" width="46" height="4"/>
		<rect x="11" y="34" fill="#7F8C8D" width="40" height="5"/>
		<rect x="11" y="46" fill="#7F8C8D" width="43" height="3"/>
		<rect x="11" y="56" fill="#7F8C8D" width="81" height="4"/>
		<rect x="11" y="68" fill="#7F8C8D" width="81" height="3"/>
		<rect x="60" y="23" fill="#7F8C8D" width="32" height="26"/>
		<rect x="11" y="78" fill="#7F8C8D" width="38" height="48"/>
		<rect x="54" y="78" fill="#7F8C8D" width="38" height="48"/>
	</g>
	<g>
		<defs>
			<path id="SVGID_1_" d="M91.8,133.8H10.2c-2.9,0-5.2-2.3-5.2-5.2v-110c0-2.9,2.3-5.2,5.2-5.2h81.6c2.9,0,5.2,2.3,5.2,5.2v110
				C97,131.5,94.7,133.8,91.8,133.8z"/>
		</defs>
		<clipPath id="SVGID_2_">
			<use xlink:href="#SVGID_1_"  overflow="visible"/>
		</clipPath>
		<path clip-path="url(#SVGID_2_)" fill="#DADBDB" d="M142.3,69l-6.3-3.9v-27c0-2.9-2.2-5.2-5.1-5.2H49.4c-2.9,0-5.4,2.3-5.4,5.2
			v26.7l-7,3.9v53.3v5.2c0,0.2,0.3,0.3,0.3,0.5l0.1,0.1c0,3.2,3.2,6.2,6.4,6.2h0.3h92.3h0.3c3.2,0,5.2-3.5,5.2-6.8v-5.2V69H142.3z"
			/>
	</g>
	<polygon fill="#0D8C79" points="92.6,101.4 40.2,71.4 92.6,40.8 145,71.4 	"/>
	<path fill="#ECF0F1" d="M138.8,105.4h-92V40.8c0-2.9,2.3-5.2,5.2-5.2h81.6c2.9,0,5.2,2.3,5.2,5.2V105.4z"/>
	<g>
		<rect x="53" y="46" fill="#84BF00" width="46" height="3"/>
		<rect x="53" y="56" fill="#84BF00" width="39" height="4"/>
		<rect x="53" y="68" fill="#84BF00" width="43" height="3"/>
		<rect x="53" y="78" fill="#84BF00" width="80" height="5"/>
		<rect x="53" y="90" fill="#84BF00" width="80" height="3"/>
		<rect x="102" y="46" fill="#3498DB" width="31" height="25"/>
	</g>
	<polygon opacity="0.3" points="91.9,100.1 46,73.8 46,84.4 84.4,106 100.7,106 138,83.9 138,73.8 	"/>
	<polygon fill="#DADBDB" points="46,71.7 46,84.4 84.4,106 100.7,106 138,83.9 138,71.3 91.8,91.4 	"/>
	<path fill="#FCF6E3" d="M92.4,101.4L40,71.4v58.5c0,3.2,3.5,7.2,6.8,7.2h92.7c3.2,0,5.6-3.9,5.6-7.2V71.4L92.4,101.4z"/>
	<path opacity="0.1" fill="#4D4D4D" d="M145,129.8v-5.2l-52.7-23.2L40,124.7v5.2c0,3.2,3.5,7.2,6.8,7.2h92.7
		C142.7,137,145,133.1,145,129.8z"/>
	<path opacity="0.1" fill="#4D4D4D" d="M145,130.5l-52.4-28.7l-52.4,28.9c0,3.2,3,6.4,6.3,6.4h92.7C142.3,137,145,133.7,145,130.5z"
		/>
	<g>
		<g id="g62989_2_" transform="matrix(1.25,0,0,-1.25,71.875001,865.75503)">
			<g id="g62991_2_">
				<g id="g62997_2_">
					<g id="g62999_2_">
						<path id="path63007_2_" fill="#3498DB" d="M5.7,592.2c0.5,0.1,1-0.2,1.1-0.7l1.4,0.2c0,0.5,0.3,1,0.8,1.1s1-0.2,1.1-0.7
							l1.4,0.3l-0.2,1.2c-0.6,0-1.1,0.3-1.2,0.8c-0.1,0.5,0.3,1,0.8,1.1l-0.2,1.3c-0.6,0-1.1,0.3-1.2,0.8c-0.1,0.5,0.3,1,0.8,1.1
							l-0.2,1.1c-0.5,0-1,0.3-1.1,0.8c-0.1,0.5,0.2,0.9,0.8,1.1L9.7,603c-0.5,0-1,0.3-1.1,0.8s0.2,0.9,0.8,1.1l-0.2,1
							c-0.5,0-1,0.3-1.1,0.8s0.2,0.9,0.8,1.1l-0.2,1.3c-0.5,0-1,0.3-1.1,0.8c-0.1,0.5,0.2,0.9,0.8,1.1l-0.2,1.2L6.5,612
							c0-0.5-0.3-1-0.8-1.1c-0.5-0.1-1,0.2-1.1,0.7l-1.2-0.2c0.1-0.6-0.3-1.1-0.8-1.2c-0.5-0.1-1.1,0.3-1.2,0.9L0,610.9
							c0-0.6-0.3-1.1-0.8-1.2c-0.5-0.1-1,0.3-1.2,0.8l-1-0.2c0,0,0,0,0-0.1c0.1-0.6-0.3-1.2-0.8-1.3s-1.1,0.3-1.2,0.9c0,0,0,0,0,0.1
							l-1.3-0.2c0-0.6-0.3-1.1-0.8-1.2s-1,0.3-1.2,0.8l-1.4-0.2c0-0.6-0.3-1-0.8-1.1c-0.5-0.1-1,0.3-1.2,0.8l-1.3-0.2
							c0.1-0.6-0.3-1.1-0.8-1.2c-0.5-0.1-1.1,0.3-1.2,0.9l-1.2-0.2c0.1-0.6-0.3-1.1-0.8-1.2c-0.5-0.1-1.1,0.3-1.2,0.9l-1.3-0.2
							l0.2-1.1c0.1,0,0.1,0,0.2,0c0.6,0.1,1.2-0.2,1.3-0.8c0.1-0.5-0.3-1.1-1-1.2c-0.1,0-0.1,0-0.2,0l0.2-1.3c0.1,0,0.1,0,0.2,0
							c0.6,0.1,1.2-0.2,1.3-0.8c0.1-0.5-0.3-1.1-1-1.2c-0.1,0-0.1,0-0.2,0l0.2-1c0.1,0,0.1,0,0.2,0c0.6,0.1,1.2-0.2,1.3-0.8
							c0.1-0.5-0.3-1.1-1-1.2c-0.1,0-0.1,0-0.2,0l0.2-1.3c0.1,0,0.1,0,0.2,0c0.6,0.1,1.2-0.2,1.3-0.8c0.1-0.5-0.3-1.1-1-1.2
							c-0.1,0-0.1,0-0.2,0l0.2-1.1c0,0,0.1,0,0.1,0c0.6,0.1,1.2-0.2,1.3-0.8c0.1-0.5-0.3-1.1-1-1.2c0,0-0.1,0-0.1,0l0.2-1.3
							c0,0,0.1,0,0.1,0c0.6,0.1,1.2-0.2,1.3-0.8c0.1-0.5-0.3-1.1-1-1.2c0,0-0.1,0-0.1,0l0.2-1.2l1.3,0.2c0,0.6,0.3,1.1,0.8,1.2
							c0.5,0.1,1-0.3,1.2-0.8l1.3,0.2c0,0.6,0.3,1.1,0.8,1.2c0.5,0.1,1-0.3,1.2-0.8l1.2,0.2c0,0.6,0.3,1.1,0.8,1.2s1-0.3,1.2-0.8
							l1.3,0.2c0,0.6,0.3,1.1,0.8,1.2c0.5,0.1,1-0.3,1.2-0.8l1.1,0.2c0,0.6,0.3,1.1,0.8,1.2c0.5,0.1,1-0.3,1.2-0.8l1.3,0.2
							c0,0.6,0.3,1.1,0.8,1.2s1-0.3,1.2-0.8l1.3,0.2C4.8,591.6,5.2,592.1,5.7,592.2"/>
					</g>
				</g>
			</g>
		</g>
		<g>
			<path fill="#FFFFFF" d="M68.1,124c-2.6,0.5-4.7,0.1-6.4-1c-1.7-1.1-2.7-2.8-3.1-5.2c-0.3-1.7-0.2-3.2,0.3-4.7s1.3-2.7,2.6-3.7
				c1.2-1,2.7-1.7,4.5-2c1.5-0.3,2.9-0.2,4.2,0.2c1.3,0.4,2.3,1.1,3.2,2.1c0.8,1,1.4,2.2,1.6,3.7c0,0,0,0,0,0.1
				c0.2,0.9,0.2,1.8,0,2.7c-0.2,0.9-0.5,1.6-1,2.1c-0.5,0.6-1.1,0.9-1.8,1c0,0-0.1,0-0.1,0c-0.5,0.1-1,0-1.4-0.1
				c-0.4-0.2-0.8-0.4-1-0.8l-0.2,0c-0.6,1-1.4,1.6-2.6,1.8s-2.1,0-3-0.6c-0.8-0.6-1.3-1.5-1.6-2.8c-0.3-1.4,0-2.6,0.8-3.7
				c0.7-1,1.8-1.7,3.3-1.9c0.6-0.1,1.2-0.2,1.9-0.2c0.7,0,1.3,0,1.8,0.1l0.6,5c0.2,0.9,0.5,1.4,1,1.3c0.4-0.1,0.7-0.5,0.9-1.1
				c0.1-0.7,0.1-1.5-0.1-2.5c0,0,0-0.1,0-0.1c-0.2-1-0.6-1.9-1.2-2.7c-0.6-0.7-1.3-1.3-2.2-1.6s-1.8-0.4-2.8-0.2c0,0-0.1,0-0.1,0
				c-1.4,0.2-2.5,0.7-3.4,1.5c-0.9,0.7-1.5,1.7-1.9,2.8c-0.3,1.1-0.4,2.4-0.2,3.8c0.3,1.9,1.1,3.2,2.3,4c1.2,0.8,2.7,1.1,4.6,0.7
				c1.6-0.3,3.1-0.9,4.7-1.8l0.3,1.9C71.4,123.1,69.9,123.7,68.1,124z M66.9,113c-0.8,0.1-1.4,0.5-1.8,1.1c-0.4,0.6-0.5,1.4-0.3,2.3
				c0.3,1.4,1,2,2.1,1.8c0.6-0.1,1-0.4,1.3-0.9c0.2-0.5,0.3-1.2,0.2-2.2l-0.3-2.3C67.7,112.9,67.3,112.9,66.9,113z"/>
		</g>
	</g>
	<rect fill="none" width="150" height="150"/>
</g>
</svg>
