<svg xmlns="http://www.w3.org/2000/svg" viewBox="0 0 102 102" style="enable-background:new 0 0 102 102"><defs/><circle cx="51" cy="51" r="50" style="fill:#12baa0;stroke-miterlimit:10;stroke:#fff"/><circle cx="51" cy="51" r="47" style="fill:#fff"/><path d="m42.2 52.5l2.1-4.8 18.9-3.1 9.5 11.6v-2.5h8.3v22.4h-8.3v-3.3l-10.4-4.2-25.9 3.3-13.7-7.3.2-2.5-1.9-2 1.3-7.9 16.8 5.4 13.3-3.7v-1l-10.2-.4m-3.4-4.5l-.4 2.2c-.4 2-4.1 2.4-7.6 1.8-3.5-.7-6.8-2.4-6.4-4.5l.4-1.9c.5-2 4.1-2.4 7.6-1.7 3.2.6 6.4 2.2 6.4 4.1m-12.4-2.1c-.1.4 1.6 1.9 5.1 2.6 3.5.7 5.6 0 5.7-.5.1-.4-1.6-1.9-5.1-2.6-3.5-.7-5.6.1-5.7.5m17.4-2.6l-1.8 1.3c-1.7 1.2-4.7-1-6.8-3.8-2.1-2.8-3.3-6.4-1.6-7.6l1.6-1.2c1.7-1.1 4.6 1.1 6.7 3.9 1.9 2.7 3.1 6 1.9 7.4m-7.8-9.9c-.4.3-.1 2.5 2 5.3 2.1 2.9 4.1 3.8 4.5 3.5.4-.3.1-2.5-2-5.3-2.1-2.9-4.1-3.8-4.5-3.5m14.3 6.9l-2.2-.2c-2.1-.2-2.9-3.8-2.6-7.3.3-3.5 1.6-7 3.7-6.8l2 .2c2 .3 2.8 3.8 2.5 7.3-.3 3.2-1.5 6.5-3.4 6.8m.6-12.6c-.4 0-1.7 1.8-2 5.3-.3 3.5.7 5.5 1.1 5.6.4 0 1.7-1.8 2-5.3.3-3.6-.6-5.6-1.1-5.6" style="fill:#12baa0"/></svg>