<svg width="28.95" xmlns="http://www.w3.org/2000/svg" viewBox="0 0 28.95 28.948" height="28.948" enable-background="new 0 0 30 30"><path fill="#fff" d="m28.95,23.382c0,3.074-2.492,5.566-5.567,5.566h-17.816c-3.075,0-5.567-2.492-5.567-5.566v-17.816c0-3.074 2.492-5.566 5.567-5.566h17.816c3.075,0 5.567,2.492 5.567,5.566v17.816m-24.305-12.13c3.934,11.11 13.272,13.352 14.705,13.459 3.433,.363 5.64-1.787 6.072-5.04 0,0-3.471-2.205-5.202-2.57l-2.74,2.736c0,0-1.475,.066-4.699-3.158-3.227-3.229-3.16-4.699-3.16-4.699l2.358-2.357c-.394-2.387-1.777-6.166-4.481-5.291-2.665,.837-3.649,4.593-2.853,6.923"/></svg>