<svg xmlns="http://www.w3.org/2000/svg" viewBox="0 0 102 102" style="enable-background:new 0 0 102 102"><defs/><circle cx="51" cy="51" r="50" style="fill:#12baa0;stroke-miterlimit:10;stroke:#fff;stroke-width:2"/><g style="fill:#fff"><path d="m74.1 32.3l-.8-1.8c0 0 1.8-4.1 1.7-4.2l-2.4-2.3c-.2-.2-4.3 1.7-4.3 1.7l-1.9-.8c0 0-1.7-4.1-1.9-4.1h-3.4c-.2 0-1.8 4.2-1.8 4.2l-1.9.8c0 0-4.2-1.8-4.3-1.6l-2.4 2.3c-.2.2 1.7 4.2 1.7 4.2l-.8 1.8c0 0-4.2 1.6-4.2 1.8v3.3c0 .2 4.2 1.7 4.2 1.7l.8 1.8c0 0-1.8 4.1-1.7 4.2l2.4 2.3c.2.2 4.3-1.7 4.3-1.7l1.9.8c0 0 1.7 4.1 1.9 4.1h3.4c.2 0 1.8-4.2 1.8-4.2l1.9-.8c0 0 4.2 1.8 4.3 1.6l2.4-2.3c.2-.2-1.7-4.2-1.7-4.2l.8-1.8c0 0 4.2-1.6 4.2-1.9v-3.3c0-.1-4.2-1.6-4.2-1.6m-6.2 3.5c0 2.7-2.2 4.8-4.9 4.8-2.7 0-4.9-2.2-4.9-4.8s2.2-4.8 4.9-4.8c2.7 0 4.9 2.1 4.9 4.8"/><path d="m65 73.1c-.7 0-1 .6-1 1.3v3.8h-33.9c-2 0-3.7-1.7-3.8-3.7 0 0 0-.1 0-.1 0-.1 0-.3 0-.4.1-2 1.8-3.7 3.8-3.7h34.6c.1 0 .2.1.3.1 0 0-.2.1-.2.1.7 0 1.1-.5 1.1-1.3v-17.6c-1 1-.5 1.6-1.3 1.6h-3.4c-1.2 0-1.6-.9-3.2-4.9l-.5-.5c-3.5 1.6-3.9 1.3-4.3 1.3h-.7l-.5-.4-2.4-2.3c-.9-.9-.7-1.6 1-5.4l-.1-.5c-3.9-1.4-4.6-1.8-4.6-3.1v-3.3c0-1.3.6-1.6 4.6-3.2l.2-.3c-.1-.2-.2-.5-.3-.5h-20.3c-3.6 0-6.5 2.8-6.5 6.3 0 0 0 0 0 .1 0 3.3 0 33.5 0 37.5 0 .1 0 .1 0 .2 0 3.4 2.7 6.5 6.1 6.7.1 0 .1.2.2.2h35.2c.7 0 .9-1 .9-1.8v-5c0-.6-.3-1.2-1-1.2"/></g></svg>