<svg xmlns="http://www.w3.org/2000/svg" viewBox="0 -743.5 914 453" style="enable-background:new 0 -743.5 914 453"><defs/><g style="fill:#fff"><path d="m434.7-625.5l-22.9-91.5-55.5-24.6.8-1.9 56.4 25.1 23.2 92.4z"/><path d="m479.3-625.5l-2-.5 23.2-92.4 56.4-25.1.8 1.9-55.5 24.6z"/><path d="m566.8-552.8l-.4-1.9 154.2-32.5 111.1-101.1 1.4 1.5-111.6 101.4-.2.1z"/><path d="m347.2-552.8-154.7-32.6-111.6-101.4 1.4-1.5 111.1,101.1 154.2,32.5z"/><path d="m329.4-290.5-2-.1 4.8-97.3 65.6-44.3 1.2,1.6-64.8,43.8z"/><path d="m584.6-290.5-4.8-96.3-64.8-43.8 1.2-1.6 65.6,44.3 4.8,97.3z"/><path d="m82.3-344.8l-1.4-1.5 111.6-101.4.2-.1 154.5-32.6.4 2-154.2 32.5z"/><path d="m831.7-344.8l-111.1-101.1-154.2-32.5.4-2 154.7 32.7.2.1 111.4 101.3z"/><path d="m567-517.1h347v2h-347z"/><path d="m0-517.1h347v2h-347z"/><circle cx="457.2" cy="-516.9" r="125"/></g><g style="fill:#3498db"><path d="m369.2-520.8c5 2.2 9.2 3.8 12.6 4.6 3.4.9 6.6 1.3 9.7 1.3s5.5-.6 7.3-1.9 2.7-3.2 2.7-5.8c0-1.4-.4-2.7-1.1-3.7-.8-1.1-1.9-2.2-3.5-3.2-1.6-1.1-4.7-2.7-9.3-4.9-4.6-2.2-8-4.2-10.2-6.1-4.9-4.2-7.3-9.5-7.3-15.8s2.2-11.3 6.5-15c4.4-3.7 10.4-5.5 18.1-5.5 6.5 0 13.6 1.7 21.5 5.1l-5 12c-3.7-1.5-6.9-2.6-9.5-3.3s-5.2-1-7.9-1c-2.7 0-4.8.7-6.4 2s-2.4 3.1-2.4 5.3c0 1.4.3 2.5.9 3.5s1.6 2 3 2.9 4.6 2.6 9.8 5.1c6.8 3.2 11.4 6.5 13.9 9.8 2.5 3.2 3.8 7.2 3.8 12 0 6.5-2.4 11.7-7.1 15.5-4.7 3.7-11.1 5.6-19.2 5.6s-15.1-1.5-21-4.4v-14.1h.1"/><path d="m429.7-575.7h22.6c10.2 0 17.7 1.5 22.4 4.4 4.7 2.9 7 7.6 7 13.9 0 4.3-1 7.9-3.1 10.7s-4.7 4.5-8.1 5v.5c4.5 1 7.8 2.9 9.9 5.7s3.1 6.6 3.1 11.3c0 6.6-2.4 11.8-7.1 15.5-4.8 3.7-11.3 5.6-19.5 5.6h-27.2v-72.6m15.4 12.6v16.1h8.9c4.2 0 7.2-.6 9.1-1.9 1.9-1.3 2.8-3.4 2.8-6.2 0-2.9-1-4.9-3-6.1-2-1.2-5.2-1.8-9.7-1.8l-8.1-.1m0 28.3v18.9h10c4.2 0 7.4-.8 9.4-2.4 2-1.6 3-4.1 3-7.4 0-6-4.3-9-12.9-9l-9.5-.1"/><path d="m493.5-520.8c5 2.2 9.2 3.8 12.6 4.6 3.4.9 6.6 1.3 9.7 1.3s5.5-.6 7.3-1.9c1.8-1.3 2.7-3.2 2.7-5.8 0-1.4-.4-2.7-1.1-3.7-.8-1.1-1.9-2.2-3.5-3.2-1.6-1.1-4.7-2.7-9.3-4.9-4.6-2.2-8-4.2-10.2-6.1-4.9-4.2-7.3-9.5-7.3-15.8s2.2-11.3 6.5-15c4.4-3.7 10.4-5.5 18.1-5.5 6.5 0 13.6 1.7 21.5 5.1l-5 12c-3.7-1.5-6.9-2.6-9.5-3.3s-5.2-1-7.9-1-4.8.7-6.4 2-2.4 3.1-2.4 5.3c0 1.4.3 2.5.9 3.5s1.6 2 3 2.9c1.4.9 4.6 2.6 9.8 5.1 6.8 3.2 11.4 6.5 13.9 9.8 2.5 3.2 3.8 7.2 3.8 12 0 6.5-2.4 11.7-7.1 15.5-4.7 3.7-11.1 5.6-19.2 5.6-8.1 0-15.1-1.5-21-4.4v-14.1h.1"/></g><path d="m367-495.1h180v38h-180z" style="fill:#4d4d4d"/><g style="fill:#fff"><path d="m380.6-483.7h4.5c2.1 0 3.6.3 4.5.9s1.4 1.6 1.4 3c0 .9-.3 1.7-.8 2.3-.5.6-1.3 1-2.3 1.2v.1c2.4.4 3.6 1.7 3.6 3.8 0 1.4-.5 2.5-1.4 3.3s-2.3 1.2-4 1.2h-5.5v-15.8m1.8 6.8h3c1.3 0 2.2-.2 2.8-.6s.9-1.1.9-2.1c0-.9-.3-1.5-1-1.9s-1.6-.6-3-.6h-2.7v5.2m0 1.5v5.9h3.3c1.3 0 2.2-.2 2.9-.7.6-.5 1-1.3 1-2.3s-.3-1.7-1-2.2-1.7-.7-3-.7h-3.2"/><path d="m408.6-475.8c0 2.5-.6 4.5-1.9 6-1.3 1.4-3.1 2.2-5.3 2.2-2.3 0-4.1-.7-5.4-2.1s-1.9-3.4-1.9-6 .6-4.6 1.9-6 3.1-2.1 5.4-2.1 4 .7 5.3 2.2c1.3 1.3 1.9 3.2 1.9 5.8m-12.6 0c0 2.1.5 3.8 1.4 4.9s2.2 1.7 4 1.7c1.7 0 3.1-.6 4-1.7s1.3-2.7 1.3-4.9c0-2.1-.4-3.7-1.3-4.8s-2.2-1.6-3.9-1.6c-1.7 0-3.1.6-4 1.7-1 1-1.5 2.6-1.5 4.7"/><path d="m425.8-475.8c0 2.5-.6 4.5-1.9 6-1.3 1.4-3.1 2.2-5.3 2.2-2.3 0-4.1-.7-5.4-2.1s-1.9-3.4-1.9-6 .6-4.6 1.9-6 3.1-2.1 5.4-2.1 4 .7 5.3 2.2c1.3 1.3 1.9 3.2 1.9 5.8m-12.6 0c0 2.1.5 3.8 1.4 4.9s2.2 1.7 4 1.7c1.7 0 3.1-.6 4-1.7s1.3-2.7 1.3-4.9c0-2.1-.4-3.7-1.3-4.8s-2.2-1.6-3.9-1.6c-1.7 0-3.1.6-4 1.7-1 1-1.5 2.6-1.5 4.7"/><path d="m440.7-467.9h-2.2l-5.8-7.7-1.7 1.5v6.2h-1.8v-15.8h1.8v7.8l7.2-7.8h2.2l-6.3 6.9 6.6 8.9"/><path d="m454.3-467.9h-2.2l-5.8-7.7-1.7 1.5v6.2h-1.8v-15.8h1.8v7.8l7.2-7.8h2.2l-6.3 6.9 6.6 8.9"/><path d="m465.3-467.9h-8.8v-15.8h8.8v1.6h-7v5.1h6.5v1.6h-6.5v5.8h7v1.7"/><path d="m477.6-467.9h-8.8v-15.8h8.8v1.6h-7v5.1h6.5v1.6h-6.5v5.8h7v1.7"/><path d="m491.1-479.1c0 1.6-.5 2.8-1.6 3.7-1.1.9-2.7 1.3-4.7 1.3h-1.9v6.2h-1.8v-15.8h4.1c3.9 0 5.9 1.5 5.9 4.6m-8.2 3.4h1.7c1.6 0 2.8-.3 3.5-.8s1.1-1.4 1.1-2.5c0-1-.3-1.8-1-2.3s-1.7-.8-3.2-.8h-2.1v6.4"/><path d="m494.4-467.9v-15.8h1.8v15.8h-1.8"/><path d="m512.9-467.9h-2.1l-8.6-13.2h-.1c.1 1.6.2 3 .2 4.3v9h-1.7v-15.8h2.1l8.6 13.2h.1c0-.2 0-.8-.1-1.9s-.1-1.8-.1-2.3v-9.1h1.7v15.8"/><path d="m524.1-476.2h5.4v7.7c-.8.3-1.7.5-2.5.6s-1.9.2-3 .2c-2.4 0-4.3-.7-5.6-2.1s-2-3.4-2-6c0-1.6.3-3.1 1-4.3.7-1.2 1.6-2.2 2.8-2.8 1.2-.7 2.7-1 4.3-1 1.7 0 3.3.3 4.7.9l-.7 1.6c-1.4-.6-2.8-.9-4.1-.9-1.9 0-3.4.6-4.5 1.7s-1.6 2.7-1.6 4.8c0 2.1.5 3.7 1.6 4.8 1 1.1 2.6 1.7 4.6 1.7 1.1 0 2.2-.1 3.2-.4v-4.9h-3.5v-1.6h-.1"/></g></svg>