<svg xmlns="http://www.w3.org/2000/svg" style="display: none;"><defs id="defs71"/><g style="fill:#fff"><g id="your_bookkeeper" transform="translate(-5.5-5.5)"><circle cx="23.200001" cy="17.799999" r="3.3" id="circle25"/><path d="m24.8 21.5l-.8.3c-.2-.3-.5-.5-.8-.5-.3 0-.6.2-.8.5l-.8-.3c-.1 0-.2 0-.3 0-.1 0-.1.2-.1.3v1c0 .1 0 .2.1.3.1.1.2.1.3.1.3-.1.7-.2.9-.3.2.2.4.3.7.3.3 0 .5-.1.7-.3.2.1.6.2.9.3.1 0 .2 0 .3-.1.1-.1.2-.2.2-.3v-1c0-.1-.1-.2-.2-.3-.1-.1-.2-.1-.3 0" id="path27"/><path d="m45.8 18.4v-1.1h-15v1h1.1v5.8c0 0-.1.1-.1.1l-2.6 2.3-3.3-4-2.7 3.6-2.8-3.8c-1.3.9-3.1 3.1-3.6 7.9 0 .1 0 .2 0 .3l-1.6.6 1.6 4 .7-.3c-.5-.3-.9-.8-.9-1.4 0-.2 0-.3 0-.5 0 .7.6 1.3 1.3 1.3.7 0 1.4-.6 1.4-1.4 0-.7 0-1.3 0-1.9 0-.9.1-1.5.3-2.2.1-.2.1-.3.2-.5l2.1-.8 1.8 4.5-.6.2-1.6-3.9-1.4.6c-.1 1.6-.1 3.1-.1 4.8 0 .1.3.6.3.7v10.9c0 .7.6 1.3 1.4 1.3.7 0 1.4-.5 1.4-1.4h.4c0 .8.7 1.4 1.4 1.4.7 0 1.4-.6 1.4-1.3v-10.9c.3-.5.3-1.1.3-1.7v-5l1.5 1.8c.2.3.6.5.9.5 0 0 .1 0 .1 0 .3 0 .6-.1.9-.3l1.2-1h.9v8.3h-1.1v1.1h1.1v8.2h12.8v-8.2h1.1v-1.1h-1.1v-8.3h1.1v-1.1h-1.1v-9.1h.9m-5.3 23h-4.3v-2.2h4.3v2.2m-4.3-8.8v-2.1h4.3v2.1h-4.3m4.3-9.7h-4.3v-2.2h4.3v2.2" id="path29"/></g><path d="m82.7 25.8c0 .8-.7 1.5-1.5 1.5-.8 0-1.5-.7-1.5-1.5 0-.8.7-1.5 1.5-1.5.8 0 1.5.7 1.5 1.5m6.1-1.5c-.8 0-1.5.7-1.5 1.5 0 .8.7 1.5 1.5 1.5.8 0 1.5-.7 1.5-1.5 0-.8-.7-1.5-1.5-1.5m6.4 6.1v-.2c-.2.5-.4 1-.6 1.4 0 .3.1.7.2 1.1.6 1 2.4 2.2 3.6 2.5-.6.3-1.4.4-2.2.3.7.9 1.7 1.7 3 2.1-3.2 2.9-8.5 3-12.2.7-.7.2-1.4.3-2.1.3-.7 0-1.4-.1-2.1-.3-3.7 2.2-9 2.2-12.2-.7 1.4-.5 2.4-1.3 3.1-2.2-.6 0-1.2-.1-1.7-.3.9-.2 2-.9 2.9-1.7.3-.7.4-1.4.5-1.8-.2-.5-.4-.9-.6-1.4v.2h-1.8c-1.4 0-2.6-1.2-2.6-2.6v-2.9c0-1 .6-1.8 1.4-2.3 0-4.1 1.2-7.2 3.5-9.4 2.3-2.2 5.6-3.3 9.8-3.3 4.2 0 7.5 1.1 9.8 3.3 2.3 2.2 3.5 5.4 3.5 9.4.8.4 1.4 1.3 1.4 2.3v2.9c0 1.4-1.2 2.6-2.6 2.6h-2m-1.1-4.6c0-.7 0-1.3-.1-1.9-1.2-1.1-3.3-1.9-6-2.2.4.4.8.9 1 1.6-1.6-1.1-4.9-1.5-6-2.7-1.7-1.2-2.2-2.8-2.2-2.1-.1 3.3-2.4 5.8-5 6.2 0 .4 0 .7 0 1.1 0 1.4.2 2.6.6 3.8 1.4 1.7 3.8 2.2 6 2.4.4-.6 1.3-1.1 2.3-1.1 1.4 0 2.5.8 2.5 1.8 0 1-1.1 1.8-2.5 1.8-1.1 0-2-.5-2.3-1.1-1.5-.1-3.1-.3-4.6-1 2 3 5.2 4.6 7.2 4.6 3.1-.1 9.1-4 9.1-11.2m1.6-3.4h1c-.2-7.1-4.2-10.8-11.7-10.8-7.5 0-11.5 3.7-11.7 10.8h1c.4-2.4 1.1-4.3 2.3-5.9 1.9-2.4 4.7-3.6 8.4-3.6 3.7 0 6.5 1.2 8.4 3.6 1.2 1.5 1.9 3.5 2.3 5.9" id="setup_call"/><path id="billing_information" d="m161.5 27.8h-8.1c.1-.8 0-1.7 0-3.2 0-2.8-.9-3.6-2.9-6.4-1.3-1.9-1.2-3.1-2.5-3.7-.7-.3-1.3-.4-1.8-.4-.1 0-.2 0-.3 0-.2 0-.4 0-.4 0-.1 0-.2 0-.3 0h-.5-.6-.3c-.1 0-.2 0-.3 0-4.1 0-4.8-.2-8-.4-3.4-.2-5.9-1.2-5.9-1.2 0 0-3.5 7-2.1 7.4 1.4.4 2.9 1.5 2.9 1.5 3.5 3.1 10.5 4.6 9.3 4.6-1.2 0-1.7.2-1.9 1.4-.2 1.2 2.8 1.3 2.8 1.3 0 0-.2.4 0 1.5.1.3.5.4 1 .4 1.3 0 3.3-.6 3.3-.6 0 0-.9 1.4.5 1.9.2.1.4.1.6.1.8 0 1.2-.7 1.4-1 .1-.1.1-.1.2-.1.1 0 .1 0 .2.1.1 0 .3.1.4.2.2.1.5.2.5.2.7.3 1.2.4 1.6.4 1.4 0 1.3-1.4 1.3-1.4 0 0 .2-.7-.4-1.7-.1-.1-.2-.3-.3-.4-.1-.1-.2-.3-.3-.4-.4-.5-1.1-1.1-2-1.6-3.4-2.1-3.8-3.2-3.8-3.2.1-1 .7-1.2 1.3-1.2.2 0 .4 0 .6.1.1.1.2.1.4.2.1.1.2.1.3.2 1 .7 2.1 1.6 2.1 1.7v.2c.1.4.2.8.2 1.2l.2 1c.6.5 1 .9 1.4 1.4.1.1.2.3.3.4.1.2.2.3.2.4h1.2 8.3c.2 0 .3.1.3.3v3.9h-13.3v-1.1c-.1-.1-.3-.1-.4-.2 0 0-.1 0-.1 0-.1.1-.2.2-.3.3v4.4c0 .6.5 1.2 1.2 1.2h12.7c.6 0 1.2-.5 1.2-1.2v-7.4c.1-.6-.4-1.1-1.1-1.1m.3 7.5v1.1c0 .2-.1.3-.3.3h-12.7c-.2 0-.3-.1-.3-.3v-1.1h13.3"/><path id="checkout" transform="translate(-5.5-5.5)" d="m205.6 32.4l17.7-14.5 2.2 2.2-19.9 23-10.1-13.2 4.5-4.7z"/></g></svg>
