<svg xmlns="http://www.w3.org/2000/svg" viewBox="0 0 450 300" style="enable-background:new 0 0 450 300"><defs/><path d="m0 0h450v300h-450z" style="fill:none"/><path d="m164.7 100.5c11 0 14.7 9 14.7 32.2s-3.7 32.2-14.7 32.2c-11 0-14.7-9-14.7-32.2s3.7-32.2 14.7-32.2m0 53.5c3.3 0 3.6-4.5 3.6-21.3 0-16.8-.3-21.3-3.6-21.3-3.3 0-3.6 4.5-3.6 21.3 0 16.8.3 21.3 3.6 21.3"/><path d="m184.3 127.3h-3.6v-10.5h3.6v-3.4c0-9.4 2.4-12.9 9.6-12.9 1.5 0 3.3.2 5 .5v9.8c-.5-.2-1-.3-1.7-.3-1.3 0-2.5 1-2.5 3.3v2.9h4.2v10.5h-4.2v36.5h-10.4v-36.4"/><path d="m201 116.7h3.5v-13.8h10.4v13.8h4.1v10.5h-4.1v22.4c0 2.7.8 3.6 2.5 3.6h1.6v10.4c-1.9.3-3.9.5-5.7.5-6.3 0-8.8-1.6-8.8-12v-25h-3.5v-10.4"/><path d="m230.6 142.9v6.2c0 5 1.4 6.3 2.8 6.3 1.8 0 2.9-1.7 2.9-8.2h9.3c-.1 11.4-3.6 17.7-12.2 17.7-10 0-13.3-6.8-13.3-24.7 0-18 3.9-24.8 13.3-24.8 8.3 0 12.5 5.6 12.5 22.6v4.8h-15.3zm5.7-10.5c0-5-.7-7.2-2.9-7.2-2.1 0-2.8 2.3-2.8 7.2v2.1h5.7v-2.1"/><path d="m248.9 116.7h10v5.7h.1c1.3-4.6 4-6.9 7.6-6.9 4.6 0 8.1 2.7 8.1 12.8v35.4h-10.4v-31c0-3.9-.7-5.6-2.5-5.6s-2.5 1.7-2.5 5.6v31h-10.4v-47"/><path d="m327.8 137.4v-1.5c0-3.6-1-6.7-3.1-6.7-2.3 0-3.3 2.7-3.3 5.5 0 12.2 17.5 6.3 17.5 28.9 0 13.2-5.1 19.1-14.6 19.1-8.9 0-13.8-4.6-13.8-17.5v-2.2h10.4v1.5c0 5.3 1.4 7.2 3.5 7.2 2.2 0 3.5-2.6 3.5-6 0-12.2-16.8-6.2-16.8-28.1 0-12.5 4.4-19.4 13.5-19.4 9.3 0 13.3 5.8 13.3 19.1h-10.1z"/><path d="m342.8 119.5h24.4v13.2h-13.7v10.6h12.8v12.7h-12.8v12.3h14.2v13.2h-24.9v-62"/><path d="m371.6 119.5h24.4v13.2h-13.7v10.6h12.8v12.7h-12.8v12.3h14.2v13.2h-24.9v-62"/><path d="m400 119.5h15.3l4.3 36.7h.1l4.3-36.7h15.3v62h-10v-46.2h-.1l-5.7 46.2h-7.7l-5.7-46.2h-.1v46.2h-10v-62"/><path d="m325.1 231.6v-2.1c0-5.2-.8-9.6-2.5-9.6-1.9 0-2.8 3.9-2.8 7.9 0 17.6 14.5 9 14.5 41.6 0 19-4.2 27.5-12.1 27.5-7.3 0-11.4-6.6-11.4-25.1v-3.1h8.6v2.1c0 7.6 1.2 10.4 2.9 10.4 1.8 0 2.9-3.7 2.9-8.6 0-17.6-13.9-8.9-13.9-40.5 0-18 3.7-27.9 11.2-27.9 7.7 0 11 8.4 11 27.5h-8.4z"/><path d="m351.1 233c0-10.1-.7-13.1-2.4-13.1-2.7 0-3 6.5-3 30.6 0 24.1.3 30.6 3 30.6 2.2 0 2.7-5 2.7-21.9h8.6v6.6c0 25-5.6 31-11.3 31-10 0-12.2-13.1-12.2-46.4 0-34.1 3-46.4 12.2-46.4 8 0 11 11 11 28.2v5.6h-8.6v-4.8"/><path d="m368.7 205.9h11.2l8.3 89.2h-9.4l-.9-15.6h-7.1l-.9 15.6h-9.4l8.2-89.2m5.6 18.2l-2.5 37.9h5l-2.5-37.9"/><path d="m389.6 205.9h13.9c6.8 0 9.3 10 9.3 23.7 0 11.9-1.8 19.6-5.8 21.2v.2c4.3 1 5.6 8.1 5.6 20v7.6c0 4.6 0 10.6.4 12.4.2 1 .4 2 1 2.7v1.3h-9.4c-.9-4.7-.9-13.2-.9-17v-6c0-10.1-.8-12.7-2.9-12.7h-2.3v35.7h-8.9v-89.1m8.9 37.7h1.8c2.5 0 3.7-4.2 3.7-10.6 0-7.2-1.1-10.4-3.8-10.4h-1.7v21"/><path d="M421.6,260l-8.7-54.1h9.7L426,237h0.1l3.3-31.1h9.7l-8.7,54.1v35.1h-8.9V260z"/><path d="m65.8 29.1h18v13h-18z"/><path d="m65.8 46.1h18v54h-18z"/><path d="m59.1 79.3c0-7.4-3.4-15.2-13.4-16.1v-.2c8-1.6 11.4-8.5 11.4-16 0-10.7-5.9-17.8-19.2-17.8h-28.2v71h28.3c15.4-.1 21.1-8.6 21.1-20.9m-30.3-37.2h4.2c3.8 0 5.9 3.6 5.9 7.6 0 3.8-2.1 7.4-5.9 7.4h-4.2v-15m4.9 45h-4.9v-18h4.9c3.4 0 6.6 3.4 6.6 8.9 0 5.8-3.2 9.1-6.6 9.1"/><path d="m115.8 74.1h6.9c-.1 12-2.4 15.1-6.3 15.1-5.7 0-6.3-5.1-6.3-24.3 0-19.2.6-24.4 6.7-24.4 2.2 0 3.6.7 4.3 2.7.7 1.9 1 4.9 1 7.9h17.9c0-17-9.4-23.5-22.5-23.5-21.9 0-26.5 13.2-26.5 37 0 19.1 1.1 31.6 11.6 35.6h17.5c2.9-1 5.4-3 6.7-6h.2l.4 6h12.3v-39h-24v12.9z"/><path d="m60.1 100.1h-8.9c-4.8 4-6.6 12.8-6.6 31.2 0 23.2 2.8 32.3 11.1 32.3 8.3 0 11.1-9.2 11.1-32.4-.1-18.3-1.9-27.1-6.7-31.1m-4.5 52.7c-2.5 0-2.7-4.5-2.7-21.3 0-16.8.3-21.3 2.7-21.3 2.5 0 2.7 4.5 2.7 21.3.1 16.8-.2 21.3-2.7 21.3"/><path d="m33.6 143.1h-.1l-3.2-43h-7.3l-2.9 43h-.1l-2.4-43h-7.9l5.3 62h8.9l2.7-41h.1l2.7 41h8.8l5.3-62h-7.8z"/><path d="m126.7 115.7c0-2.8.9-5.5 2.6-5.5 1.6 0 2.4 3 2.4 6.7v1.2h7.4c0-10-1.6-15-5.4-18h-9.1c-3.9 3-5.8 8.9-5.8 18.3 0 22 12.7 16 12.7 28.2 0 3.4-.8 6-2.4 6-1.6 0-2.4-1.9-2.4-7.2v-1.5h-8v2.2c0 12.9 3.6 17.5 10.3 17.5 7.1 0 10.9-5.9 10.9-19.1.1-22.5-13.2-16.5-13.2-28.8"/><path d="m90.8 151.2v-5.3c0-8.3-1-13.2-5-13.9v-.2c3-1.1 5.2-6.7 5.2-15 0-9.6-2.5-16.7-8.7-16.7h-12.5v62h8v-24h2.1c2 0 2.9 1.4 2.9 8.4v4.2c0 2.6-.3 8.4.5 11.4h8.5v-.5c0-.5-.5-1.2-.8-1.9-.4-1.2-.2-5.3-.2-8.5m-11.5-24.1h-1.6v-15h1.5c2.4 0 3.4 2.4 3.4 7.4.1 4.5-1 7.6-3.3 7.6"/><path d="m106.3 100.1h-11.5v62h11.5c9.3 0 9.8-14.8 9.8-31s-.5-31-9.8-31m-2.1 51h-1.5v-39h1.5c3.1 0 3.5 2.7 3.5 19.5.1 16.8-.3 19.5-3.5 19.5"/></svg>